<?xml version="1.0" encoding="UTF-8" standalone="no"?>
<svg
   version="1.0"
   viewBox="0 0 2061 1925"
   id="svg2"
   xmlns="http://www.w3.org/2000/svg">
   <style>
   path {display:inline; fill:#e0e0e0; stroke:#ffffff; stroke-width:4; stroke-linejoin:round; stroke-miterlimit:4; stroke-dasharray:none; stroke-opacity:1; fill-opacity:1}
   </style>
  <path
     onclick="pokaz(this)"
     d="M 844.27148 2.578125 C 832.81361 2.4660669 819.8747 6.4457894 808.92383 6.4082031 C 805.46983 6.3963531 802.36383 4.5454112 798.92383 4.7382812 C 773.34083 6.1729813 748.51183 17.222534 723.92383 23.115234 C 692.66683 30.606134 661.31783 34.324684 631.92383 48.333984 C 613.46383 57.132084 601.27983 73.646469 583.92383 83.480469 C 575.02683 88.521469 560.06183 91.522072 549.92383 93.013672 L 548.23242 94.011719 C 548.46228 94.01209 548.69427 94.013672 548.92383 94.013672 L 553.65234 113.32422 L 563.33984 118.34375 L 563.81836 137.01367 L 567.92383 149.01367 L 559.92383 148.01367 L 555.92383 171.01367 C 563.87483 171.20667 567.53731 180.02616 562.32031 186.78516 C 558.32631 191.95816 548.67419 190.28955 543.36719 194.43555 C 537.96523 198.65455 539.64383 204.19467 537.92383 210.01367 C 544.60183 212.36067 544.97316 221.72278 547.41016 227.92578 C 550.57316 235.97678 556.51122 249.37467 556.32422 258.01367 C 556.19622 263.98867 551.09769 269.14367 550.67969 275.01367 C 550.37469 279.30967 553.52783 283.61567 553.92383 288.01367 C 561.68183 287.13967 559.37983 281.46267 563.92383 277.01367 C 566.19083 281.93567 563.96509 287.41184 567.49609 291.83984 C 574.20709 300.25884 588.86848 301.42198 586.77148 314.95898 C 585.47648 323.31998 569.62531 318.43914 565.19531 326.11914 C 561.70731 332.16614 571.89783 338.73967 571.92383 346.01367 L 578.92383 346.01367 L 566.19531 363.67969 L 568.88867 374.01367 L 571.61328 399.51562 C 571.61356 399.5161 571.613 399.5171 571.61328 399.51758 C 572.89221 401.66093 573.35934 405.10768 574.15625 407.01367 C 577.36925 414.69867 580.22783 421.79767 581.92383 430.01367 C 595.57183 422.12567 587.97483 437.45055 598.92383 437.93555 C 604.52683 438.18355 606.12445 433.1073 610.93945 431.9043 C 615.14745 430.8523 619.78283 433.37917 623.92383 433.82617 C 632.12483 434.70917 650.57883 428.99967 652.92383 440.01367 L 656.92383 440.01367 L 656.92383 443.01367 L 668.92383 445.01367 C 668.85615 445.43875 668.75499 445.84681 668.65234 446.25391 C 673.63258 436.43457 672.79583 426.67582 676.66602 417.05664 C 679.21702 410.71764 686.27183 404.70367 692.92383 405.01367 L 693.92383 416.01367 C 700.95083 416.31967 703.89983 417.85367 708.92383 412.01367 L 709.92383 412.01367 L 717.92383 422.01367 C 724.60783 420.92267 723.07383 416.85367 720.92383 412.01367 C 725.99783 412.22767 729.37883 413.22767 732.92383 409.01367 L 740.92383 415.01367 L 746.92383 409.01367 L 749.92383 405.01367 L 740.89844 398.28516 L 737.92383 384.01367 C 743.73383 383.11567 747.27883 387.8613 752.92383 386.5293 C 762.75083 384.2113 775.85283 370.57267 759.92383 366.01367 C 761.46283 360.54167 771.55683 365.38067 776.92383 363.01367 L 778.92383 370.01367 L 791.92383 377.01367 L 797.92383 372.01367 L 796.92383 367.01367 C 800.52083 363.83967 800.88183 360.66567 800.92383 356.01367 C 807.16283 360.76167 808.87883 362.64267 816.92383 362.01367 C 817.72783 367.11867 820.09183 367.93067 824.92383 367.01367 L 824.92383 372.01367 L 827.92383 368.01367 L 828.92383 368.01367 L 829.92383 371.01367 C 840.31883 368.57367 839.06083 375.44767 836.92383 383.01367 L 872.92383 385.01367 L 873.92383 388.01367 L 875.92383 388.01367 C 877.78283 382.86667 880.43083 381.10067 885.92383 382.01367 L 884.92383 388.01367 L 890.92383 396.01367 C 894.87583 395.71267 896.74583 394.89567 897.92383 391.01367 L 912.93945 385.0918 L 935.92383 384.01367 L 930.92383 412.01367 L 956.625 413.75586 L 962.92383 419.01367 C 965.83883 414.51667 972.12783 416.18461 976.92383 415.97461 C 986.7763 415.54289 997.63704 413.25659 1007.1016 416.57617 C 1006.8636 415.73254 1006.5047 414.84689 1005.9531 413.88086 C 1000.6731 404.63386 1014.0438 399.03767 1020.9238 399.01367 C 1021.1938 385.82267 1022.2938 369.72967 1037.9238 366.01367 C 1037.1438 362.73567 1036.6245 359.39767 1037.0645 356.01367 C 1037.4845 352.84567 1038.2035 343.99309 1040.1035 341.62109 C 1043.1135 337.86609 1057.2232 343.16441 1060.5332 345.31641 C 1064.8032 348.09241 1065.1938 352.46367 1070.9238 353.01367 C 1068.8538 349.06367 1068.8138 346.34167 1071.9238 343.01367 L 1071.9238 342.01367 C 1069.1938 337.82667 1073.3635 334.95167 1075.1035 331.01367 C 1078.7835 322.70167 1081.9438 314.06467 1081.9238 305.01367 L 1087.9238 306.01367 L 1086.9238 297.01367 C 1081.4438 297.01267 1075.2438 295.4793 1069.9238 296.7793 C 1065.4238 297.8773 1059.6344 302.51017 1054.9844 300.45117 C 1046.9644 296.90117 1055.3439 288.55628 1053.5039 283.23828 C 1050.6039 274.86728 1039.3534 277.18225 1034.0234 275.28125 C 1029.7334 273.74825 1033.9638 270.05267 1035.9238 269.01367 C 1032.4338 266.02767 1025.2937 264.46444 1023.0137 260.52344 C 1021.4237 257.78944 1024.6045 255.25622 1024.8945 252.57422 C 1025.8445 243.75922 1022.9435 233.79028 1028.1035 225.23828 C 1030.6535 221.00128 1037.7248 222.03703 1039.2148 216.95703 C 1040.2042 213.58352 1037.4531 209.80358 1034.8965 206.0293 C 1034.4978 205.54886 1034.0978 204.91748 1033.7012 204.2168 C 1032.4739 202.28815 1031.4643 200.37846 1031.1992 198.54297 C 1028.4136 190.90428 1026.1821 180.65356 1025.9238 178.01367 C 1025.6238 174.93867 1021.1633 172.16564 1024.0938 169.18164 C 1028.6333 164.54264 1040.9438 167.67564 1046.9238 165.68164 C 1063.1738 160.26564 1077.8738 151.12464 1092.9238 143.18164 C 1098.2638 140.36064 1107.1038 136.12967 1108.9238 130.01367 C 1101.9538 130.25267 1095.9338 137.39817 1089.9238 140.70117 C 1075.9738 148.36817 1060.1838 156.71597 1044.9238 161.29297 C 1021.7838 168.23497 993.90383 170.46559 969.92383 168.18359 C 964.08886 167.62859 957.60183 169.07041 951.92383 167.44141 C 946.74483 165.95641 943.97883 160.72994 938.92383 159.08594 C 934.16583 157.53794 929.63678 159.17466 924.92578 156.59766 C 920.44078 154.14366 918.9873 148.91589 914.7793 146.58789 C 907.9473 142.80689 903.59364 143.77867 899.05664 136.01367 C 892.54064 124.85967 896.58094 108.27168 894.71094 96.013672 C 893.26794 86.552372 887.15283 81.150072 887.92383 71.013672 L 886.92383 71.013672 C 876.39283 80.405772 880.34925 55.462797 878.28125 52.029297 C 875.12725 46.792997 867.79139 44.443272 866.40039 38.013672 C 865.13339 32.158472 869.76283 27.294972 867.92383 21.013672 L 882.92383 29.576172 L 914.51758 52.425781 L 928.5332 61.056641 L 944.92383 85.013672 C 944.90283 53.323872 900.19583 35.778553 876.92383 21.814453 C 868.83583 16.961053 860.84683 5.4583731 851.92383 3.4082031 C 849.47995 2.846755 846.91561 2.6039846 844.27148 2.578125 z M 568.71484 397.50781 C 568.96458 397.51603 569.22547 397.56606 569.49805 397.66211 C 569.22464 397.56552 568.96528 397.51605 568.71484 397.50781 z M 568.34766 397.52539 C 567.98856 397.57036 567.64958 397.69823 567.32617 397.88086 C 567.65008 397.69774 567.98796 397.57043 568.34766 397.52539 z M 570.35352 398.09961 C 570.48445 398.18669 570.60895 398.28867 570.72852 398.39648 C 570.60901 398.28757 570.48489 398.18698 570.35352 398.09961 z M 566.69531 398.31445 C 566.49 398.47927 566.29009 398.66128 566.0918 398.85352 C 566.28978 398.66164 566.49033 398.47899 566.69531 398.31445 z M 570.94336 398.61523 C 570.97999 398.65406 571.01718 398.69171 571.05273 398.73242 C 571.01739 398.69144 570.97978 398.65432 570.94336 398.61523 z M 558.92383 400.01367 C 558.27079 400.50283 557.60371 400.93413 556.92969 401.32422 C 557.60418 400.9339 558.27033 400.50317 558.92383 400.01367 z M 564.32422 400.64258 C 563.92271 401.0089 563.50732 401.32389 563.0625 401.52734 C 563.50734 401.32389 563.9227 401.00889 564.32422 400.64258 z M 559.91211 400.92383 C 560.22537 401.16644 560.52203 401.35054 560.80664 401.48438 C 560.52204 401.35054 560.22537 401.16644 559.91211 400.92383 z M 546.25 407.22852 C 545.42061 407.99983 544.65761 408.91236 543.98242 410.0293 C 544.65761 408.91236 545.42259 407.99985 546.25195 407.22852 C 546.25159 407.22886 546.25037 407.22817 546.25 407.22852 z M 542.78125 412.71875 C 542.49669 413.63035 542.3122 414.55486 542.18359 415.49023 C 542.31224 414.55489 542.49667 413.63033 542.78125 412.71875 z M 540.53906 426.58789 C 540.4797 426.75171 540.40879 426.91164 540.3457 427.07422 C 540.40877 426.91169 540.47972 426.75166 540.53906 426.58789 z M 539.92578 428.10547 C 539.82354 428.33654 539.70908 428.56262 539.59961 428.79102 C 539.70902 428.56266 539.82358 428.3365 539.92578 428.10547 z M 539.2207 429.56641 C 539.08785 429.8214 538.94611 430.07278 538.80469 430.32422 C 538.94612 430.07267 539.08785 429.8215 539.2207 429.56641 z M 538.40039 431.0293 C 538.26034 431.26221 538.11187 431.49102 537.96484 431.7207 C 538.11183 431.49097 538.26037 431.26226 538.40039 431.0293 z M 537.48633 432.45312 C 537.33371 432.67705 537.17644 432.89849 537.01758 433.11914 C 537.17646 432.89835 537.3337 432.67718 537.48633 432.45312 z M 536.5 433.82031 C 536.33203 434.04103 536.16015 434.25932 535.98633 434.47656 C 536.16022 434.25913 536.33197 434.04123 536.5 433.82031 z M 535.44922 435.13086 C 535.26073 435.35528 535.07124 435.57836 534.87695 435.79883 C 535.07108 435.57842 535.26088 435.35522 535.44922 435.13086 z M 534.35547 436.37695 C 534.1339 436.61835 533.91152 436.85935 533.68359 437.0957 C 533.91154 436.85918 534.13388 436.61852 534.35547 436.37695 z M 533.25781 437.52734 C 532.98615 437.80091 532.7129 438.0734 532.43359 438.33984 C 532.71309 438.07307 532.98596 437.80125 533.25781 437.52734 z M 532.14062 438.61523 C 531.8269 438.9091 531.51132 439.20152 531.18945 439.48633 C 531.51143 439.20128 531.8268 438.90935 532.14062 438.61523 z M 530.95508 439.6875 C 528.94436 441.44324 526.79391 443.02467 524.625 444.4043 C 526.79435 443.02437 528.94415 441.44425 530.95508 439.6875 z M 1274.8223 532.70117 C 1274.9688 532.82732 1275.1106 532.96267 1275.248 533.10742 C 1275.111 532.96295 1274.9684 532.82712 1274.8223 532.70117 z M 1254.8008 555.39062 C 1254.8845 555.47548 1254.9638 555.56163 1255.0527 555.64453 C 1254.9639 555.56163 1254.8845 555.47548 1254.8008 555.39062 z "
     id="path10" />
  <path
     onclick="pokaz(this)"
     d="m 1717.7793,136.34375 c -3.805,-0.15113 -7.3955,1.14042 -11.8555,5.66992 0.041,0.88969 -0.03,1.70004 -0.1972,2.44336 -2e-4,6.1e-4 10e-5,0.001 0,0.002 4.3492,2.59433 6.5745,7.56042 1.1972,10.55469 5.44,17.641 -14.9004,14.29102 -24.9004,17.54102 -2.72,0.886 -3.9186,3.87315 -6.3086,5.28515 -4.73,2.797 -13.321,5.67783 -18.791,6.17383 -0.66,5.209 -0.54,9.994 -6,12 2.51,5.26 8.3703,15.49442 12.7403,19.35742 2.39,2.113 5.4704,-0.21114 8.1504,0.88086 3.9,1.585 6.3587,8.88505 6.7187,12.74805 0.44,4.618 -3.6794,10.24867 -4.6094,15.01367 11.26,4.668 13.8008,14.032 19.3008,24 3.68,6.677 11.4796,11.871 14.0996,19 5.61,15.286 -5.6108,23.06202 -10.3808,35.04102 -1.96,4.929 0.5304,10.71798 -1.0196,15.95898 l -6,-2 -16,23 -8,-2 c -1.32,8.766 -6.16,8.999 -14,9 l -1,17 c -12.97,-7.248 -17.3096,4.27025 -26.8496,11.65625 -11.26,8.718 -18.7404,21.00392 -30.1504,29.41992 -6.03,4.447 -15.7907,5.02905 -20.7207,9.37305 -3.84,3.387 -3.7093,8.65578 -8.2793,11.55078 -11.26,-20.134 -19.509,13.1246 -26.039,13.8086 -5.06,0.528 -9.441,-3.2698 -13.961,-4.8418 -4.72,-1.63901 -12,-2.14049 -17,-1.89649 -5.02,0.246 -9.15,3.57463 -14,4.64063 -3.3067,0.72558 -6.1336,1.94156 -8.7832,3.28711 0.188,0.86333 0.3827,1.67886 0.6153,2.4043 0.3215,1.00314 0.7065,1.88542 1.2129,2.67773 0.5061,0.79231 1.1348,1.49566 1.9414,2.13867 0.8065,0.64302 1.7911,1.226 3.0136,1.78125 -0.3175,0.93225 -0.5206,1.87012 -0.623,2.80469 -0.1024,0.93457 -0.1042,1.86661 -0.016,2.79102 0.177,1.84881 0.7121,3.66518 1.5078,5.39843 0.7956,1.73325 1.8515,3.38258 3.0722,4.90039 1.2208,1.51782 2.6061,2.90297 4.0586,4.10547 l -5,11 h 7 l 7,7 c -1.1475,0.18175 -2.6657,0.13819 -4.3457,0.0293 -1.68,-0.10889 -3.5208,-0.28347 -5.3183,-0.36328 -1.7975,-0.0798 -3.5508,-0.0639 -5.0508,0.20508 -0.75,0.13449 -1.4374,0.33164 -2.0352,0.61328 -0.5978,0.28164 -1.1062,0.64648 -1.5,1.11523 -0.5512,0.6575 -0.8015,1.34021 -0.8379,2.03516 -0.036,0.69494 0.1417,1.40195 0.4473,2.11523 0.6113,1.42656 1.7333,2.87256 2.6758,4.25781 0.4712,0.69263 0.8965,1.36981 1.1914,2.02344 0.2948,0.65363 0.4587,1.28338 0.4043,1.87891 -0.054,0.59553 -0.326,1.15746 -0.9024,1.67578 -0.5764,0.51832 -1.4572,0.99206 -2.7285,1.41406 0.4,1.443 1.0141,2.75913 1.7461,4.00586 0.7321,1.24674 1.5825,2.42356 2.4531,3.59375 0.8707,1.17019 1.7624,2.33352 2.5782,3.54688 0.8158,1.21336 1.5555,2.47726 2.123,3.85351 0.93,2.2485 2.2692,5.08383 3.4805,7.93945 0.6056,1.42782 1.1804,2.8615 1.6543,4.22852 0.4739,1.36702 0.8472,2.66753 1.0547,3.83203 0.365,2.0625 0.5254,3.96075 0.7051,5.73242 0.1794,1.77168 0.3791,3.41638 0.8222,4.97657 0.2216,0.78009 0.5034,1.53915 0.875,2.28125 0.3717,0.7421 0.8323,1.46761 1.4102,2.18164 0.5779,0.71402 1.273,1.41741 2.1133,2.11328 0.8402,0.69586 1.8256,1.38464 2.9843,2.07226 0.6625,0.39263 1.3416,0.64212 2.0313,0.78516 0.6896,0.14304 1.3891,0.17919 2.0976,0.14453 1.4171,-0.0693 2.8635,-0.42078 4.3067,-0.76953 1.4431,-0.34875 2.8838,-0.69498 4.2871,-0.74805 0.7016,-0.0265 1.3949,0.0206 2.0742,0.17578 0.6793,0.15523 1.3454,0.41925 1.9941,0.82813 0.5775,0.36487 1.1334,0.89764 1.6797,1.54883 0.5464,0.65119 1.0813,1.42097 1.6172,2.25586 1.0719,1.66976 2.1438,3.60376 3.2988,5.39258 0.5775,0.8944 1.1772,1.7532 1.8067,2.52343 0.6294,0.77024 1.29,1.45265 1.9922,1.9961 0.7022,0.54344 1.4445,0.94807 2.2402,1.16211 0.7957,0.21403 1.6447,0.23753 2.5547,0.0195 0.625,-0.15025 1.238,-0.43682 1.8398,-0.80078 0.6019,-0.36397 1.1929,-0.80491 1.7754,-1.26954 1.165,-0.92925 2.2943,-1.94806 3.4043,-2.60156 l 2,13 -7,-3 c -0.6025,2.23025 -1.2503,4.35727 -1.7031,6.35742 -0.2264,1.00008 -0.4034,1.9677 -0.5019,2.90235 -0.099,0.93464 -0.1187,1.83528 -0.029,2.69922 0.089,0.86393 0.2873,1.69056 0.625,2.47851 0.3376,0.78796 0.8148,1.53744 1.4609,2.24414 0.6461,0.70671 1.4617,1.37201 2.4766,1.99219 1.0148,0.62018 2.2281,1.19428 3.6718,1.72266 0.865,0.31625 1.7768,0.47609 2.7012,0.58593 0.9244,0.10985 1.8609,0.17089 2.7734,0.29102 0.9125,0.12012 1.8015,0.29939 2.6309,0.64648 0.8294,0.3471 1.6004,0.8616 2.2754,1.65235 0.6825,0.80075 1.1928,1.8384 1.6211,3.00976 0.4283,1.17136 0.7744,2.47627 1.125,3.81446 0.3506,1.33818 0.7067,2.70853 1.1562,4.00976 0.4496,1.30124 0.9918,2.53325 1.7168,3.59375 v 1 l -6,5 v 1 l 4,14 h 4 c 0.35,1.2085 0.8164,2.18919 1.3867,3.01172 0.5704,0.82253 1.2455,1.48788 2.0118,2.0625 1.5325,1.14925 3.4315,1.93978 5.6015,2.92578 0.3625,-0.53737 0.7657,-0.94427 1.2032,-1.25 0.4374,-0.30572 0.9097,-0.51065 1.4082,-0.63867 0.9968,-0.25605 2.1003,-0.2092 3.2578,-0.0781 1.1575,0.13106 2.3693,0.34701 3.5761,0.43359 1.2069,0.0866 2.4097,0.0438 3.5547,-0.3457 1.8275,-0.622 3.2093,-1.31983 4.334,-2.07618 1.1247,-0.75634 1.9923,-1.57272 2.791,-2.43359 0.7988,-0.86087 1.5292,-1.76558 2.3789,-2.70117 0.8497,-0.9356 1.8182,-1.90036 3.0957,-2.88086 0.595,-0.45775 1.2906,-0.81298 2.0606,-1.07813 0.7699,-0.26514 1.6142,-0.44188 2.5078,-0.54101 1.7872,-0.19827 3.7704,-0.0894 5.7441,0.21679 1.9738,0.3062 3.9379,0.81035 5.6875,1.40821 1.7497,0.59786 3.2854,1.28809 4.4004,1.96484 v 2 l -3,4 7,1 -10.4004,3.69336 2.5,8.30664 3.6407,10.43555 9.2597,7.56445 h 2 c 0.39,-1.27425 0.8269,-2.28147 1.3438,-3.07812 0.5169,-0.79666 1.1147,-1.38292 1.8222,-1.81055 0.7075,-0.42763 1.5245,-0.69808 2.4864,-0.86523 0.9618,-0.16716 2.0676,-0.23085 3.3476,-0.2461 l -1,-6 c 1.57,0.4285 4.066,0.8921 6.416,1.58985 1.175,0.34887 2.3125,0.75639 3.2813,1.24804 0.9687,0.49166 1.7687,1.06721 2.2637,1.75196 0.53,0.7355 0.7657,1.61543 0.8183,2.57226 0.053,0.95683 -0.078,1.98944 -0.2871,3.03125 -0.4187,2.08363 -1.1474,4.20114 -1.3222,5.80664 -0.2676,2.51125 -0.3025,5.03 -0.2129,7.54883 0.089,2.51883 0.3045,5.03827 0.5351,7.54883 0.2306,2.51056 0.477,5.01354 0.6328,7.5 0.1558,2.48645 0.221,4.95584 0.086,7.40234 -0.045,0.79625 -0.2511,1.5546 -0.5293,2.29297 -0.2783,0.73838 -0.6307,1.45647 -0.9688,2.17774 -0.3381,0.72125 -0.6622,1.44457 -0.8867,2.18945 -0.2245,0.74487 -0.3477,1.51106 -0.2852,2.32031 0.058,0.72375 0.2261,1.47289 0.4903,2.23047 0.2641,0.75758 0.6231,1.52548 1.0566,2.28516 0.8671,1.51936 2.0349,3.01021 3.3555,4.34765 1.3206,1.33744 2.7937,2.52014 4.2695,3.42188 1.4758,0.90173 2.9546,1.52212 4.2871,1.73437 0.15,0.99725 0.3829,1.90952 0.6797,2.75391 0.2969,0.84439 0.6578,1.622 1.0664,2.35156 0.8172,1.45913 1.8232,2.72513 2.877,3.95313 1.0537,1.228 2.1544,2.41762 3.164,3.71875 1.0097,1.30112 1.9283,2.71407 2.6133,4.39257 0.435,1.0715 0.6419,2.19502 0.7305,3.34571 0.089,1.15068 0.058,2.32847 0.018,3.51172 -0.041,1.18325 -0.09,2.37182 -0.043,3.54101 0.047,1.16919 0.1924,2.31924 0.5449,3.42774 0.3825,1.203 0.9478,2.11267 1.6153,2.85742 0.6675,0.74475 1.436,1.32444 2.2285,1.86719 0.7925,0.54273 1.6077,1.04948 2.3652,1.64648 0.7575,0.597 1.459,1.28391 2.0215,2.19141 0.38,0.6115 0.5587,1.27665 0.6348,1.9707 0.076,0.69405 0.049,1.41775 0.016,2.14844 -0.033,0.73068 -0.072,1.46803 -0.02,2.18945 0.052,0.72142 0.1968,1.4275 0.5293,2.09375 0.385,0.76975 0.9121,1.56443 1.5547,2.36914 0.6427,0.80471 1.3996,1.61866 2.2422,2.42773 1.6852,1.61816 3.7135,3.21389 5.8516,4.66602 2.1381,1.45213 4.3867,2.76133 6.5156,3.80273 2.1289,1.04141 4.1374,1.81518 5.7949,2.20118 1.3,0.3025 2.6153,0.39748 3.9395,0.38671 1.3242,-0.0108 2.6567,-0.12659 3.9961,-0.24609 1.3394,-0.1195 2.6858,-0.24187 4.0312,-0.26562 1.3455,-0.0238 2.6907,0.0516 4.0332,0.32812 1.645,0.339 3.1529,0.84581 4.5996,1.41602 1.4468,0.5702 2.8331,1.20415 4.2325,1.79297 1.3993,0.58881 2.8114,1.13251 4.3144,1.52734 1.503,0.39483 3.096,0.64066 4.8535,0.62891 1.51,-0.01 3.0911,-0.26886 4.7032,-0.62305 1.612,-0.35419 3.255,-0.80402 4.8906,-1.19727 1.6356,-0.39325 3.2629,-0.73023 4.8437,-0.85742 1.5808,-0.12719 3.115,-0.0456 4.5625,0.39844 2.7,0.8285 7.3679,2.48112 11.8379,4.4375 2.235,0.97819 4.4196,2.0318 6.2852,3.09765 1.8656,1.06587 3.4122,2.14397 4.3672,3.16797 0.635,0.68375 1.0543,1.54721 1.3808,2.48633 0.3266,0.93913 0.561,1.95325 0.8223,2.9375 0.2612,0.98425 0.5492,1.93869 0.9883,2.75781 0.439,0.81913 1.0286,1.50352 1.8886,1.94727 1.31,0.675 2.6849,0.99944 4.086,1.08789 1.401,0.0884 2.829,-0.0599 4.2441,-0.33398 2.8303,-0.54814 5.6102,-1.596 8.0352,-2.25 -0.4163,1.00125 -0.5165,2.03668 -0.3887,3.09375 0.067,0.55731 0.337,1.13179 0.5195,1.69922 4.2632,-1.46913 7.9287,-2.388 9.9336,-1.84571 18.41,-31.538 30.4897,-70.94953 60.42,-93.89453 13.3799,-10.255 30.3199,-11.28359 44.58,-18.55859 7.31,-3.732 13.9,-11.0541 20,-16.4961 6.74,-6.016 16.2311,-16.31578 16.3711,-26.05078 0.11,-7.767 0.8096,-17.426 -0.9004,-25 -1.48,-6.552 -5.1197,-12.118 -5.4297,-19 -0.32,-7.048 -0.8202,-15.022 0.2598,-22 0.57,-3.615 3.3997,-7.33401 2.9297,-11 -1.94,-14.958 -11.471,-28.516 -14.541,-43 -2.13,-10.004 6.9301,-16.78237 2.8301,-27.98437 -1.85,-5.058 -6.7104,-7.20778 -9.8204,-11.30078 -4,-5.261 -7.1186,-12.85185 -10.3886,-18.71485 -11.3001,-20.26 -19.7399,-41.83499 -29.1699,-63 -5.18,-11.628 -11.77,-22.747 -15.42,-35 -5.82,-19.529 -10.3704,-39.505 -15.6504,-59 -1.4,-5.172 -4.6594,-9.712 -5.6894,-15 -1.48,-7.572 3.1288,-15.528 1.2988,-23 -1.04,-4.28 -5.0399,-6.971 -6.6699,-11 -2.23,-5.491 -1.4697,-11.581 -4.4297,-17 -2.26,-4.159 -6.8999,-7.218 -7.9199,-12 -1.74,-8.177 6.5807,-14.424 7.7207,-22 1.07,-7.182 -4.45,-18.447 -7.25,-25 -3.42,-7.986 -8.6711,-10.97306 -13.1211,-17.41406 -5.15,-7.467 -7.0398,-15.56431 -16.0098,-20.44531 -6.42,-3.492 -14.6301,-1.62328 -20.9101,-5.11328 -6.57,-3.65 -12.6096,-9.57644 -19.3496,-12.77344 -4.4,-2.091 -9.1898,2.202 -13.5098,-1 -3.64,-2.698 -2.0307,-7.55949 -4.9707,-10.39649 -2.65,-2.55 -7.0695,-1.44284 -9.9395,-3.71484 -2.35,-1.86 -1.7899,-5.15573 -3.9199,-7.05273 -2.65,-2.361 -7.1404,-2.00654 -10.4004,-2.76954 -5.32,-1.245 -9.3395,-2.8391 -13.1445,-2.99023 z"
     id="path14" />
  <path
     id="path40"
     onclick="pokaz(this)"
     d="m 71.924025,303.01407 5,10 h 1 l 8,-9 z m 9,-5 h 6 l -2,-5 z m -22.999996,-23 c -0.295,14.291 -1.8962,28.52 13.999996,36 l -5.894296,-20 0.8233,-11.412 z m 97.000001,-7 -3,9 c 5.735,-1.368 9.346,-5.398 3,-9 z m -83.000005,12 -1,18 12,-7.382 12,-1.618 -2,11 30.682005,5.738 3.318,15.262 c 1.209,-8.039 5.53,-20.133 9.969,-26.999 3.069,-4.746 7.744,-7.681 10.012,-13.005 3.808,-8.936 2.873,-21.643 15.019,-22.996 v -2 c -3.644,-0.617 -7.344,-2.395 -10.985,-0.895 -3.718,1.531 -5.939,5.776 -10.03,6.408 -9.834,1.519 -20.528,-0.425 -29.985,4.537 -16.036005,8.415 -19.186005,24.763 -39.000005,13.95 z M 539.5957,93.996094 c -10.18851,0.06543 -20.38637,0.748827 -29.67187,5.388672 -19.176,9.581504 -28.73477,28.050904 -40.88477,44.628904 -11.737,16.015 -25.39023,28.91058 -43.11523,38.01758 -17.851,9.173 -36.424,4.36405 -55,8.37305 -17.835,3.848 -35.123,12.04107 -53,16.08008 -10.325,2.33299 -21.89,1.37939 -32,4.02539 -18.447,4.829 -35.441,13.71809 -54,18.62109 -13.807,3.647 -27.23,10.22052 -41,13.35352 -10.045,2.286 -23.485,3.16029 -32,9.52929 3.124,0.386 8.99708,-2.63564 11.45508,-0.30664 2.648,2.51 -1.65202,5.68156 -3.04102,7.47656 -5.249,6.783 -4.41406,16.77108 -4.41406,24.83008 -17.345,-3.559 -28.25406,17.523 -30.66406,33 -1.364,8.759 0.20206,21.775 -12.33594,19 -1.693,5.716 -6.099,20.544 -1,25 -1.212,3.866 -0.884,13.284 4,14 l -2.23828,9.40821 L 109.5957,367.39453 84.134766,355.45312 68.923828,338.01367 c -1.5676,7.094 -1.2604,12.546 -9,15 2.6796,11.126 5.109856,23.581 5.910156,35 0.4059,5.792 -1.425131,12.412 -0.08203,18 1.6431,6.836 7.059778,12.105 8.642578,19 3.4394,14.983 3.147528,30.701 5.673828,46 1.3179,7.983 6.457203,17.772 4.408203,26 -1.754998,7.046 -9.669571,10.755 -11.763671,18 -2.2021,7.619 0.431353,15.368 0.002,23 -0.554,9.847 -6.823282,19.303 -12.550782,27 -5.064,6.805 -12.015634,13.0822 -19.240234,17.53321 -4.6785,2.883 -10.851206,4.57887 -14.566406,8.79687 -5.4157,6.147 -1.050681,17.24792 -3.425781,24.66992 -1.3919,4.349 -5.855563,8.24247 -5.726563,12.98047 0.1513,5.551 14.465672,10.3075 18.201172,15.02148 9.1614,11.56 19.841934,21.17905 28.990234,32.99805 8.015596,10.355 10.783444,18.801 21.527344,27 l 2.386719,0.0879 c 4.397684,-9.83386 12.182255,-7.19211 20.613285,-4.08789 7.139,-12.829 13.69547,6.86497 23.98047,1.54297 4.717,-2.441 13.97164,-17.19097 14.80664,-22.54297 0.733,-4.692 -1.06542,-10.57019 1.39258,-14.86719 5.494,-9.606 14.90131,-6.87281 12.82031,-21.13281 l 3,-5 c 4.696,0.709 7.232,0.86 9,-4 l -5,-1 3,-8 c 7.186,3.697 13.46,7.496 15,16 l 10,-7 c 2.49,8.814 9.212,6.43627 16,3.94727 13.196,-4.839 25.565,-13.07727 39,-16.94727 l -7,-17 1,-1 c 3.533,0.817 8.28625,3.49391 11.90625,2.87891 3.698,-0.629 6.02376,-5.57135 9.13476,-7.52735 9.008,-5.663 20.22199,-10.88356 30.95899,-11.35156 6.256,16.019 17.349,15.938 29,6 h 1 l 3,5 c 4.283,-1.662 12.698,-3.612 8,-9 1.82,-4.687 6.261,-6.889 11,-8 l -4,-8 c 4.675,-0.113 8.482,-0.561 8,-6 5.748,-3.609 8.916,-5.929 9,-13 l 25,3 c 1.177,7.257 3.285,20.994 -7,24 v 1.26563 c 5.34197,-0.0139 13.70633,1.1393 16,0.73437 l 1,5 16.28515,1.92578 29.71485,-11.92578 c 3.323,3.688 6.187,3.983 11,4 l -2,-5 c 6.937,-4.112 14.105,-10.755 8,-18 v -1 l 5,-4 -2,-6 6.30273,-9.79297 21.12891,-4.82422 8.56836,-11.38281 v -3 c 4.809,0.224 7.909,0.957 9,6 8.387,-1.37 3.62967,-8.98898 6.51367,-14.70898 2.822,-5.595 10.70233,-8.22302 16.48633,-8.29102 v -4 l -15,-9.0957 -30.06641,-14.46485 -5.93359,-18.43945 c 1.972,-12.16101 8.04992,-4.78025 15.16992,-5.40625 6.402,-0.564 21.46308,-2.0052 26.83008,-5.1582 7.727,-4.539 15.66605,-11.67855 18.12305,-20.43555 1.42799,-5.086 0.0995,-10.29437 2.93554,-14.98437 3.601,-5.957 9.71341,-6.09963 14.94141,-10.01563 5.534,5.864 6.63969,-5.09806 11.42969,-1.91406 0.49899,0.33187 0.90815,0.82871 1.25976,1.41797 l -2.72461,-25.50391 -2.69336,-10.33398 12.72852,-17.66602 h -7 c -0.026,-7.274 -10.21652,-13.84753 -6.72852,-19.89453 4.43,-7.68 20.28117,-2.79916 21.57617,-11.16016 2.097,-13.537 -12.56439,-14.70014 -19.27539,-23.11914 -3.531,-4.428 -1.30526,-9.90417 -3.57226,-14.82617 -4.544,4.449 -2.242,10.126 -10,11 -0.396,-4.398 -3.54914,-8.704 -3.24414,-13 0.418,-5.87 5.51653,-11.025 5.64453,-17 0.187,-8.639 -5.75106,-22.03689 -8.91406,-30.08789 -2.437,-6.203 -2.80833,-15.56511 -9.48633,-17.91211 1.72,-5.819 0.0414,-11.35912 5.44336,-15.57812 5.307,-4.146 14.95912,-2.47739 18.95312,-7.65039 5.217,-6.759 1.55452,-15.57849 -6.39648,-15.77149 l 4,-23 8,1 -4.10547,-12 -0.47852,-18.66992 -9.6875,-5.01953 -4.72851,-19.310548 c -1.64838,0 -3.30492,-0.01056 -4.96485,-0.01758 -1.45243,-0.0061 -2.90777,-0.0093 -4.36328,0 z" />
  <path
     onclick="pokaz(this)"
     d="m 1131.9238,138.01367 -11,10 -20,22 -19,2 -16,14 -14,22 -3,2 8,-20 c -3.16,1.133 -4.579,4.80863 -8.039,5.26563 -4.22,0.558 -13.6099,-5.52311 -16.8399,-0.66211 -4.51,6.785 9.1999,15.41784 7.1699,22.33984 -1.49,5.08 -8.5613,4.04425 -11.1113,8.28125 -5.16,8.552 -2.259,18.52094 -3.209,27.33594 -0.29,2.682 -3.4708,5.21522 -1.8808,7.94922 2.28,3.941 9.4201,5.50423 12.9101,8.49023 -1.96,1.039 -6.1904,4.73458 -1.9004,6.26758 5.33,1.901 16.5805,-0.41397 19.4805,7.95703 1.84,5.318 -6.5395,13.66289 1.4805,17.21289 4.65,2.059 10.4394,-2.57387 14.9394,-3.67187 5.32,-1.3 11.52,0.23337 17,0.23437 l 1,9 -6,-1 c 0.02,9.051 -3.1403,17.688 -6.8203,26 -1.74,3.938 -5.9097,6.813 -3.1797,11 v 1 c -3.11,3.328 -3.07,6.05 -1,10 -5.73,-0.55 -6.1206,-4.92126 -10.3906,-7.69726 -3.31,-2.152 -17.4197,-7.45032 -20.4297,-3.69532 -1.9,2.372 -2.619,11.22458 -3.039,14.39258 -0.44,3.384 0.079,6.722 0.8593,10 -15.63,3.716 -16.73,19.809 -17,33 -6.88,0.024 -20.2507,5.62019 -14.9707,14.86719 0.5516,0.96603 0.9105,1.85168 1.1485,2.69531 1.9572,0.6865 3.8554,1.60722 5.6718,2.83985 4.08,2.765 3.6004,7.76065 8.1504,10.59765 l -3.6797,11.28711 4.6797,17.71289 c 7.57,2.39 2.8307,7.6601 4.4707,12.9961 1.38,4.471 6.7293,6.9799 10.5293,9.0039 2.22,-8.809 5.2,-5.901 13,-6 0.99,7.326 2.31,12.145 10,14 l -1,6 4,1 2,-4 c 6.16,2.959 12.46,3.323 10,12 l 27.8907,-1.85156 4.7089,9.64258 9.4004,15.20898 c -7.99,0.817 -8,7.43 -8,14 11.99,0.257 9.0307,5.037 10.4707,14 0.58,3.607 3.0902,8.32349 1.4102,11.89649 -0.2861,0.58639 -0.4436,1.27815 -0.5117,2.04296 5.4017,-0.77001 12.9099,2.88757 17.3105,0.13282 3.82,-2.39 0.6104,-6.79736 0.9004,-10.06836 0.37,-4.17 7.4894,-9.73983 11.3594,-10.67383 5.42,-1.308 2.6108,6.65008 3.5508,9.08008 1.1,2.825 4.2397,4.43459 6.5097,6.18359 13.44,10.376 29.29,-6.75475 39,7.40625 6.74,-12.014 27.67,0.58432 38.42,-0.0566 6.6398,-0.395 10.67,-4.20136 16.58,-5.94336 l 3,-8 c -15.39,-8.897 14.63,-36.672 20,-21 l 4,-2 24,-6 c 0.87,-5.908 2.35,-12.917 9,-14 l -1,-4 c 7.54,-1.527 12.74,-0.778 20,2 l 4,-7 12,-1 -3,-8 20,-10 c 13.44,19.498 20.04,-9.702 37,-3 3.38,-6.384 9.86,-10.268 17,-11 v 4 l 13.3301,-1.57812 18.6699,-6.42188 -1,-5 c 12.51,2.82 21.4,-2.373 34,-4 0.07,0.35275 0.1449,0.66783 0.2168,0.99805 2.6496,-1.34555 5.4765,-2.56153 8.7832,-3.28711 4.85,-1.066 8.98,-4.39463 14,-4.64063 5,-0.244 12.28,0.25748 17,1.89649 4.52,1.572 8.901,5.3698 13.961,4.8418 6.53,-0.684 14.779,-33.9426 26.039,-13.8086 4.57,-2.895 4.4393,-8.16378 8.2793,-11.55078 4.93,-4.344 14.6907,-4.92605 20.7207,-9.37305 11.41,-8.416 18.8904,-20.70192 30.1504,-29.41992 9.54,-7.386 13.8796,-18.90425 26.8496,-11.65625 l 1,-17 c 7.84,-10e-4 12.68,-0.234 14,-9 l 8,2 16,-23 6,2 c 1.55,-5.241 -0.9404,-11.02998 1.0196,-15.95898 4.77,-11.979 15.9908,-19.75502 10.3808,-35.04102 -2.62,-7.129 -10.4196,-12.323 -14.0996,-19 -5.5,-9.968 -8.0408,-19.332 -19.3008,-24 0.93,-4.765 5.0494,-10.39567 4.6094,-15.01367 -0.36,-3.863 -2.8187,-11.16305 -6.7187,-12.74805 -2.68,-1.092 -5.7604,1.23214 -8.1504,-0.88086 -4.37,-3.863 -10.2303,-14.09742 -12.7403,-19.35742 5.46,-2.006 5.34,-6.791 6,-12 5.47,-0.496 14.061,-3.37683 18.791,-6.17383 2.39,-1.412 3.5886,-4.39915 6.3086,-5.28515 10,-3.25 30.3404,0.1 24.9004,-17.54102 5.7,-3.174 2.86,-8.569 -2,-11 -5.03,11.057 -21.09,6.11711 -31,7.28711 -32.8,3.869 -66.08,3.95505 -99,7.99805 -45.43,5.58 -92.26,11.47394 -138,12.58594 -7.23,0.176 -14.74,-2.28325 -22,-2.78125 -25.1,-1.718 -49.9,-2.53093 -75,-4.91993 -58.81,-5.596 -118.45,-8.53875 -177,-17.46875 -10.35,-1.579 -20.4801,-6.66117 -31,-8.70117 z"
     id="path16-0-6" />
  <path
     onclick="pokaz(this)"
     d="m 800.92383,356.01367 c -0.042,4.652 -0.403,7.826 -4,11 l 1,5 -6,5 -13,-7 -2,-7 c -5.367,2.367 -15.461,-2.472 -17,3 15.929,4.559 2.827,18.19763 -7,20.51563 -5.645,1.332 -9.19,-3.41363 -15,-2.51563 l 2.97461,14.27149 9.02539,6.72851 -3,4 -6,6 -8,-6 c -3.545,4.214 -6.926,3.214 -12,3 2.15,4.84 3.684,8.909 -3,10 l -8,-10 h -1 c -5.024,5.84 -7.973,4.306 -15,4 l -1,-11 c -6.652,-0.31 -13.70681,5.70397 -16.25781,12.04297 -3.87019,9.61918 -3.03344,19.37793 -8.01368,29.19727 -2.00253,7.94207 -10.39442,12.59388 -15.45312,18.79882 -3.58,4.392 -1.81574,9.29302 -4.30274,13.79102 -2.121,3.837 -6.40765,6.53792 -8.97265,10.16992 11.104,3.583 15.58773,12.561 22.05273,21 5.648,7.372 13.78099,15.98611 5.95899,25.41211 -3.111,3.748 -16.26872,5.37089 -21.01172,5.58789 v 22 l 8,3 v 2 l -6,1 1,20 -5,-1 c 1.127,8.967 -0.259,18.172 -8,24 4.432,13.862 8.48408,6.83422 18.83008,11.07422 5.953,2.44 11.69392,7.49178 17.16992,10.92578 l -1,2 c 6.397,4.459 11.425,19.372 10,27 l -3,-1 c 0.015,5.412 1.90165,11.83863 -0.65235,16.89063 -2.291,4.534 -7.51665,5.03137 -10.34765,1.10937 -11.84,8.567 -8.621,15.106 5,19 l 2,9 -4,6 6,-1 5,4 c 2.166,-4.011 18.54998,-12.04226 21.83398,-5.69726 1.455,2.812 -1.60098,9.10726 -2.83398,11.69726 l 10,2 1,13 4,-3 9,-4 -2,-3 v -1 l 5,-2 1,5 5,-6 12,7 -2,3 10,-1 7,8 4,9 1,-3 h 2 c 2.282,6.083 4.559,7.711 11,6 l -3,10 6,-3 14,1 1,11 c 5.23,0.171 7.4,1.675 8,7 9.046,0.031 10.97761,3.93452 17.97461,7.47852 3.087,1.563 6.09039,0.31248 9.02539,2.52148 h 1 c 4.513,-5.545 15.974,-17.208 23,-18 0,5.042 -2.45349,18.65283 2.97851,21.29883 3.777,1.839 10.92349,-0.97583 15.02149,-1.29883 l 4,-7 15,6 c 0.91,4.36 2.559,5.741 7,5 l 9.39648,4.17969 6.60352,7.82031 c 0.402,7.337 4.69861,8.34861 9.09961,13.22461 3.413,3.781 3.78208,12.31803 7.70508,14.83203 2.477,1.587 5.72331,-1.12856 8.19531,-1.60156 10.157,-1.942 17.458,-6.19408 27,-9.45508 v -6 l 9,7 4,13 9,2 1.40429,1.2168 c 0.97553,-1.73237 2.28259,-3.20705 4.05665,-4.25781 5.82003,-3.452 10.78903,0.45048 16.53903,-0.22852 3.26,-0.384 6.22,-3.14347 9,-4.73047 l 6,4 c 0.2426,-8.2899 5.9739,-12.15935 11.4942,-17.51758 -0.145,-4.89765 -0.9222,-9.99259 -2.4942,-15.48242 10.17,-3.043 13.331,-10.32437 17.961,-20.23437 -4.99,-1.594 -7.781,-5.00063 -6.961,-10.76563 l 5,1 c -2.46,-5.414 6.93,-16.177 11,-21 -4.12,-1.127 -10.5107,-2.69329 -12.9707,-6.52929 -4.88,-7.606 7.2307,-14.32871 12.9707,-15.47071 l -2,-16 15.9395,0.38867 5.0605,-6.38867 c -1.44,-3.31 -3.1296,-9.94648 -5.5996,-12.39648 -5.47,-5.409 -11.1404,-0.91352 -11.4004,-11.60352 -18.26,-2.041 1.59,-16.769 9,-19 v -1 c -5.01,-4.255 -8.07,-9.382 -7,-16 l -3,-7 7,3 14,-21 23,10 -0.1289,-20.95703 -6.0801,-7.25195 1.129,-8.79102 -3.92,-15 15,-3 c 0.4965,-6.42172 3.0313,-8.58472 6.3692,-9.06055 0.068,-0.76481 0.2256,-1.45657 0.5117,-2.04296 1.68,-3.573 -0.8302,-8.28949 -1.4102,-11.89649 -1.44,-8.963 1.5193,-13.743 -10.4707,-14 0,-6.57 0.01,-13.183 8,-14 l -9.4004,-15.20898 -4.7089,-9.64258 -27.8907,1.85156 c 2.46,-8.677 -3.84,-9.041 -10,-12 l -2,4 -4,-1 1,-6 c -7.69,-1.855 -9.01,-6.674 -10,-14 -7.8,0.099 -10.78,-2.809 -13,6 -3.8,-2.024 -9.1493,-4.5329 -10.5293,-9.0039 -1.64,-5.336 3.0993,-10.6061 -4.4707,-12.9961 l -4.6797,-17.71289 3.6797,-11.28711 c -4.55,-2.837 -4.0704,-7.83265 -8.1504,-10.59765 -10.6,-7.193 -23.95957,-3.96241 -35.84957,-3.44141 -4.796,0.21 -11.085,-1.45794 -14,3.03906 l -6.29883,-5.25781 -25.70117,-1.74219 5,-28 -22.98438,1.07813 -15.01562,5.92187 c -1.178,3.882 -3.048,4.699 -7,5 l -6,-8 1,-6 c -5.493,-0.913 -8.141,0.853 -10,6 h -2 l -1,-3 -36,-2 c 2.137,-7.566 3.395,-14.44 -7,-12 l -1,-3 h -1 l -3,4 v -5 c -4.832,0.917 -7.196,0.105 -8,-5 -8.045,0.629 -9.761,-1.252 -16,-6 z m 237.99997,462 c 0.2279,0.27757 0.4217,0.55505 0.5957,0.83203 -0.174,-0.27695 -0.3678,-0.55448 -0.5957,-0.83203 z m 0.7637,1.12891 c 0.1027,0.18111 0.2033,0.36276 0.2871,0.54297 -0.084,-0.18024 -0.1843,-0.36182 -0.2871,-0.54297 z m 0.4277,0.875 c 0.067,0.16473 0.133,0.3287 0.1875,0.49219 -0.055,-0.16355 -0.12,-0.32739 -0.1875,-0.49219 z m 0.291,0.82812 c 0.05,0.17182 0.096,0.34378 0.1348,0.51368 -0.039,-0.17039 -0.085,-0.34135 -0.1348,-0.51368 z m 0.1954,0.78711 c 0.045,0.22375 0.083,0.44668 0.1152,0.66602 -0.033,-0.22005 -0.07,-0.44153 -0.1152,-0.66602 z m 0.1269,0.73633 c 0.03,0.20737 0.055,0.41062 0.078,0.61328 -0.024,-0.20436 -0.048,-0.40411 -0.078,-0.61328 z m 0.2188,1.77148 c 0.045,0.36673 0.096,0.73314 0.1718,1.07422 -0.076,-0.34325 -0.1265,-0.70499 -0.1718,-1.07422 z m 0.1836,1.13868 c 0.033,0.14534 0.078,0.28581 0.1211,0.42578 -0.044,-0.14024 -0.087,-0.28016 -0.1211,-0.42578 z m 0.1914,0.64258 c 0.045,0.1234 0.099,0.24271 0.1543,0.36132 -0.056,-0.11863 -0.1096,-0.2379 -0.1543,-0.36132 z m 0.2871,0.62109 c 0.059,0.10432 0.1233,0.20664 0.1933,0.30664 -0.07,-0.0999 -0.1346,-0.20239 -0.1933,-0.30664 z m 0.3945,0.5625 c 0.082,0.0972 0.1658,0.19475 0.2617,0.28711 -0.096,-0.0927 -0.1794,-0.18959 -0.2617,-0.28711 z m 0.5137,0.49805 c 0.112,0.0916 0.2198,0.18539 0.3496,0.27148 -0.1295,-0.0859 -0.2377,-0.18006 -0.3496,-0.27148 z m 0.7265,0.48437 c 0.1313,0.0726 0.2508,0.14896 0.3985,0.2168 -0.1478,-0.0679 -0.2671,-0.1441 -0.3985,-0.2168 z m -52.35152,13.99219 c -0.21229,0.43924 -0.40637,0.89142 -0.58399,1.35547 0.17721,-0.46402 0.37211,-0.91626 0.58399,-1.35547 z m -0.69531,1.66601 c -0.15303,0.42086 -0.29516,0.8488 -0.42383,1.28516 0.12834,-0.43638 0.27116,-0.86429 0.42383,-1.28516 z m -0.50391,1.55274 c -0.046,0.16302 -0.082,0.33135 -0.125,0.49609 0.0429,-0.16461 0.0791,-0.33319 0.125,-0.49609 z m -0.5,2.10742 c -0.0533,0.26279 -0.10093,0.52599 -0.14844,0.79102 0.0473,-0.26463 0.0954,-0.52862 0.14844,-0.79102 z m -528.625,146.22656 c -0.0444,0.0161 -0.0885,0.0338 -0.13281,0.0508 0.0444,-0.017 0.0884,-0.0347 0.13281,-0.0508 z m -1.39844,0.66211 c -0.0274,0.016 -0.0547,0.0325 -0.082,0.0488 0.0274,-0.0163 0.0546,-0.0328 0.082,-0.0488 z m -0.66797,0.42188 c -0.0288,0.0197 -0.0572,0.0405 -0.0859,0.0605 0.0288,-0.02 0.0571,-0.0408 0.0859,-0.0605 z m -0.65429,0.47851 c -0.029,0.0227 -0.057,0.0473 -0.0859,0.0703 0.029,-0.023 0.0568,-0.0476 0.0859,-0.0703 z m -0.55274,0.45899 c -0.17213,0.14935 -0.3332,0.31467 -0.5,0.47265 0.16709,-0.15803 0.32757,-0.32327 0.5,-0.47265 z m -1.22851,1.1875 c -0.1586,0.16919 -0.30352,0.34707 -0.45508,0.52148 0.15202,-0.1747 0.296,-0.35204 0.45508,-0.52148 z m -1.09571,1.27734 c -0.1461,0.18687 -0.27539,0.37571 -0.41211,0.56445 0.13729,-0.18928 0.26538,-0.37707 0.41211,-0.56445 z m -0.92968,1.29688 c -0.14285,0.21845 -0.26272,0.43252 -0.39063,0.64848 0.12855,-0.21684 0.247,-0.42915 0.39063,-0.64848 z m 457.10156,261.00588 c 0.0412,0.3499 0.0726,0.6984 0.0918,1.0449 -0.0192,-0.3466 -0.0506,-0.6949 -0.0918,-1.0449 z m -0.35156,6.1035 c -0.0581,0.2638 -0.12361,0.5267 -0.19141,0.7891 0.0679,-0.2626 0.13321,-0.5251 0.19141,-0.7891 z m 646.51368,1.4883 c 0.032,0.287 0.078,0.5692 0.1348,0.8476 -0.057,-0.2784 -0.1033,-0.5607 -0.1348,-0.8476 z m -646.90236,0 c -0.15478,0.5318 -0.32625,1.0611 -0.51562,1.5879 0.18937,-0.5265 0.36077,-1.0565 0.51562,-1.5879 z m 647.31246,1.8906 c 0.061,0.1953 0.1246,0.39 0.1954,0.582 -0.071,-0.1923 -0.1343,-0.3864 -0.1954,-0.582 z m -647.94332,0.019 c -0.2148,0.5768 -0.44793,1.1508 -0.69726,1.7227 0.24943,-0.572 0.48231,-1.1458 0.69726,-1.7227 z m 648.72852,1.918 c 0.158,0.33 0.316,0.6594 0.4902,0.9844 -0.1737,-0.3249 -0.3326,-0.6545 -0.4902,-0.9844 z"
     id="path68-9-7" />
  <path
     onclick="pokaz(this)"
     d="m 1484.9238,459.01283 c -12.6,1.627 -21.49,6.82 -34,4 l 1,5 -18.6699,6.42188 -13.3301,1.57812 v -4 c -7.14,0.732 -13.62,4.616 -17,11 -16.96,-6.702 -23.56,22.498 -37,3 l -20,10 3,8 -12,1 -4,7 c -7.26,-2.778 -12.46,-3.527 -20,-2 l 1,4 c -6.65,1.083 -8.13,8.092 -9,14 l -24,6 -4,2 c -5.37,-15.672 -35.39,12.103 -20,21 l -3,8 c -5.91,1.742 -9.9403,5.54836 -16.58,5.94336 -10.75,0.641 -31.68,-11.95736 -38.42,0.0566 -9.71,-14.161 -25.56,2.96975 -39,-7.40625 -2.27,-1.749 -5.4097,-3.35859 -6.5097,-6.18359 -0.94,-2.43 1.8692,-10.38808 -3.5508,-9.08008 -3.87,0.934 -10.9894,6.50383 -11.3594,10.67383 -0.29,3.271 2.9196,7.67836 -0.9004,10.06836 -7.1199,4.457 -22.3797,-7.88627 -23.6797,8.92773 l -15,3 3.92,15 -1.129,8.79102 6.0801,7.25195 0.1289,20.95703 -23,-10 -14,21 -7,-3 3,7 c -1.07,6.618 1.99,11.745 7,16 v 1 c -7.41,2.231 -27.26,16.959 -9,19 0.26,10.69 5.9304,6.19452 11.4004,11.60352 2.47,2.45 4.1596,9.08648 5.5996,12.39648 l -5.0605,6.38867 -15.9395,-0.38867 2,16 c -5.74,1.142 -17.8507,7.86471 -12.9707,15.47071 2.46,3.836 8.8507,5.40229 12.9707,6.52929 -4.07,4.823 -13.46,15.586 -11,21 l -5,-1 c -0.82,5.765 1.971,9.17163 6.961,10.76563 -4.63,9.91 -7.791,17.19137 -17.961,20.23437 1.572,5.48983 2.3492,10.58477 2.4942,15.48242 0.1685,-0.16358 0.3378,-0.31586 0.5058,-0.48242 3.87,4.714 -0.63,9.438 7,11 5.2,20.129 31.5,2.463 33,25 h 4 v 3 l 15,1 c 2.19,5.139 5.091,12.30427 11.961,8.82227 2.46,-1.246 4.2489,-4.35639 7.1289,-4.65039 3.44,-0.353 6.3201,2.82995 9.9101,2.62695 5.67,-0.321 9.8,-5.27983 15,-6.79883 3.98,3.77 7.58,1.191 10,-3 h -2 c 1.49,-4.165 3.82,-5.748 8,-7 l 8,4 c 2.08,13.382 15.3097,9.67144 22.6797,16.64844 3.72,3.523 0.5309,8.12056 0.6309,12.35156 0.09,4.061 4.4893,13.41974 7.2793,16.42774 3.29,3.548 8.1811,1.64009 12.1211,3.49609 4.15,1.953 6.0186,6.85466 10.3086,8.47266 3.87,1.462 9.9601,-1.06613 12.6601,2.92187 2.56,3.775 -3.6501,16.3612 -6.8301,19.0332 -1.91,1.606 -6.45,2.68219 -6.5,5.74219 -0.1,6.196 9.6196,6.56947 13.0996,8.98047 4.21,2.913 4.3208,9.41378 4.5508,13.92578 -5.51,1.592 -7.98,3.676 -10,9 h 18 l -2,7 h 12 l 7,-4 1,-5 4,4 h 1 c 10.05,-12.862 16.6202,7.10366 22.4102,10.97266 3.73,2.496 9.4101,0.2757 13.5801,1.3457 6.11,1.57 16.3897,13.10271 19.0097,18.68175 l -11,1 v 2 c 7.05,4.33 3.7096,14.1906 5.7696,20.8906 1.36,4.42 7.8213,4.8802 10.3613,8.7402 4.63,7.03 -3.1109,18.2492 -6.1309,24.3692 -6.23,-1.5 -12.83,-1.3606 -19,-3.0606 -11.56,-3.18 -25.0097,-12.4888 -35.2597,0.4512 -2.29,2.9 -2.6403,8.0894 -3.7403,11.6094 l 7,1 c 1.28,5.17 2.5596,13.1396 4.5996,17.8496 1.47,3.39 6.0703,3.1409 6.4903,7.2109 0.64,6.16 -6.1492,16.4006 1.0508,20.6406 6.27,3.69 10.6793,-2.8411 16.8593,-1.7011 -1.79,12.57 -3.5393,20.7505 -12.5293,30.8105 -3.5,3.92 -9.4104,4.3405 -11.9004,9.2305 -1.4799,2.9158 -0.234,9.9718 1.1485,17.0801 5.9979,1.0807 16.1741,1.2262 17.2812,7.8789 -3.68,1.96 -4.35,4.58 0,6 l 9,21 c 5.59,-3.3 8.74,-4.65 15,-2 l 7,-3 c 2.41,7.08 11.5196,9.19 13.2696,16 0.75,2.93 -3.4692,8.8998 -0.6192,11.0801 2.21,1.6896 14.1396,-9.1101 12.3496,2.9199 5.84,0.65 13.4092,0.6001 18.8692,-1.8399 3.67,-1.64 5.9208,-5.0404 10.1308,-5.7304 6.78,-1.1 11.79,3.1303 12,9.5703 10.62,-4.64 13,-8.28 13,-20 12.12,2.47 4.31,10.78 2,18 5.07,1.23 12.3095,5.6809 13.67,11.2109 0.8795,3.57 -2.0004,7.3999 1.5996,10.0899 3.41,2.54 7.8904,0.9102 11.7304,0.7402 9.63,-0.42 19.36,-0.041 29,-0.041 4.69,9.88 8.26,13.6104 18,18.4804 5.75,2.88 11.77,1.9796 12,-5.4804 h 4 c -4.1,-9.58 15.61,-8.07 23,-9 v -5 c 3.37,0.75 7.671,0.3393 10.791,1.6093 7.9,3.22 16.209,15.3607 24.209,6.3907 -5.78,-1.27 1.15,-6.94 4,-8 -1.8122,-8.067 -5.7197,-18.5308 3,-24 -1.51,-5.03 -3.97,-7.49 -9,-9 0.08,-8.52 5.13,-30.07 13,-34 l -3,-7 -9,1 6,-5 3.6192,-17.9395 -15.6192,-9.0605 c 1.27,-5.28 8.36,-15.04 12,-6 12.65,-11.4 5.9704,-28.7802 -1.3496,-40.4199 -2.57,-4.0903 -1.7299,-8.9689 -6.6699,-11.5489 -7.79,-4.08 -17.1108,3.2484 -24.8105,-2.6816 -4.1803,-3.23 -14.1896,-23.1097 -4.0196,-24.9297 4.01,-0.72 10.6191,3.4509 13.2891,6.2109 1.58,1.64 2.5815,5.919 5.5215,5.4493 2.98,-0.4801 4.0994,-5.7995 6.1894,-7.6895 4.67,-4.22 11.1696,-3.7406 16.8496,-2.3906 -0.53,-6.92 -0.52,-10.35 7,-12 l 5,-12 c -6.92,-0.53 -6.11,-4.36 -5,-10 h -9 c 3.25,-5.47 7.82,-7.49 14,-7 1.38,-6.36 14.6296,-11.44 12.5996,-18 -1.05,-3.37515 -5.7393,-9.34059 -9.6093,-9.02159 -3.25,0.267 -9.1804,4.34948 -11.9004,0.4375 -1.83,-2.625 6.9695,-9.02702 8.0195,-12.41602 3.97,-12.841 -13.2399,-20.55711 -5.6699,-32.78711 4.75,-7.666 15.0415,-5.2444 21.3515,-9.9414 3.57,-2.654 5.259,-7.79874 10.209,-8.42774 11.64,-1.481 24.81,10.72225 30,-5.84375 11.01,3.005 19.25,10.698 25,-3 h 3 c 0.73,3.036 0.4603,8.28794 3.3203,10.21094 6.34,4.274 18.4007,-6.38394 21.2207,-11.21094 1.79,-3.059 2.149,-9.77597 6.459,-10.41797 2.94,-0.436 4.9806,3.03207 7.0606,4.53907 4.7,3.391 9.6994,5.5439 14.9394,7.8789 1.2,-2.928 3.3103,-5.764 3.4903,-9 0.23,-4.141 -2.32,-9.01198 -0.42,-12.95898 6.68,-13.896 20.8907,2.67581 28.1407,4.38281 2.62,0.616 5.109,-1.79111 7.789,-1.66211 3.65,0.174 6.3405,3.77774 9.9805,3.67773 5.72,-0.15699 3.9788,-6.89215 6.0488,-10.16015 2.22,-3.512 6.5207,-3.0283 9.9707,-2.2793 -0.07,-3.864 -4.1,-7.22594 -3.25,-10.96094 2.61,-11.382 16.48,-12.81406 25.25,-10.03906 l 1,-4 c -3.54,-1.474 -9.8798,-3.4589 -10.3398,-8.0039 -0.45,-4.405 5.6308,-7.49094 8.3008,-10.08594 5.7209,-5.55933 9.7557,-12.17315 12.8418,-19.45899 0.044,-0.13269 0.078,-0.26689 0.1328,-0.39843 -4.85,1.308 -11.1253,4.19609 -16.3653,1.49609 -3.44,-1.775 -2.54,-7.39391 -5.08,-10.12891 -3.82,-4.096 -17.0903,-9.04612 -22.4903,-10.70312 -5.79,-1.776 -12.96,2.2393 -19,2.2793 -7.03,0.047 -11.42,-4.00924 -18,-5.36524 -5.37,-1.106 -10.8,1.00688 -16,-0.20312 -6.63,-1.544 -18.879,-9.3088 -21.959,-15.4668 -1.33,-2.665 0.3599,-5.95634 -1.1601,-8.40234 -2.25,-3.63 -6.7005,-3.7505 -8.2305,-8.5625 -1.41,-4.434 0.49,-9.54018 -1.25,-13.82618 -2.74,-6.714 -9.2004,-9.19192 -10.4004,-17.16992 -5.33,-0.849 -12.999,-8.22953 -13.459,-14.01953 -0.25,-3.237 2.49,-5.79547 2.67,-8.98047 0.54,-9.786 -2.1112,-19.955 -1.041,-30 0.3497,-3.211 2.911,-8.46815 0.791,-11.41015 -1.98,-2.739 -8.821,-3.73285 -11.961,-4.58985 l 1,6 c -5.12,0.061 -7.44,0.903 -9,6 h -2 l -9.2597,-7.56445 -3.6407,-10.43555 -2.5,-8.30664 10.4004,-3.69336 -7,-1 3,-4 v -2 c -4.46,-2.707 -15.6404,-5.6327 -20.4004,-1.9707 -5.11,3.922 -5.2896,7.6038 -12.5996,10.0918 -4.58,1.558 -10.1,-2.4201 -13,1.8789 -4.34,-1.972 -7.6,-3.166 -9,-8 h -4 l -4,-14 v -1 l 6,-5 v -1 c -2.9,-4.242 -2.8891,-11.22473 -5.6191,-14.42773 -2.7,-3.163 -6.9209,-1.91078 -10.3809,-3.17578 -11.55,-4.227 -8.41,-11.47549 -6,-20.39649 l 7,3 -2,-13 c -2.22,1.307 -4.5195,4.07088 -7.0195,4.67188 -7.28,1.744 -10.5695,-11.97944 -15.1895,-14.89844 -5.19,-3.271 -11.491,2.72498 -16.791,-0.41602 -9.27,-5.501 -7.4501,-11.10742 -8.9101,-19.35742 -0.83,-4.658 -4.3295,-11.503 -6.1895,-16 -2.27,-5.505 -7.3004,-9.228 -8.9004,-15 10.17,-3.376 -4.66,-10.14039 -0.25,-15.40039 3.15,-3.75 13.66,-0.87261 18.25,-1.59961 l -7,-7 h -7 l 5,-11 c -5.81,-4.81 -10.54,-12.542 -8,-20 -4.89,-2.221 -5.99,-4.898 -7,-10 z m 72.3809,809.00007 c 0.032,0.2869 0.078,0.5692 0.1348,0.8476 -0.057,-0.2784 -0.1033,-0.5606 -0.1348,-0.8476 z m 0.1777,1.0312 c 0.047,0.213 0.1,0.4242 0.1602,0.6328 -0.06,-0.2085 -0.1126,-0.4199 -0.1602,-0.6328 z m 0.2324,0.8633 c 0.061,0.1956 0.1246,0.3897 0.1954,0.582 -0.071,-0.192 -0.1343,-0.3867 -0.1954,-0.582 z m 0.2891,0.8262 c 0.057,0.1458 0.1162,0.2913 0.1777,0.4355 -0.062,-0.1443 -0.1207,-0.2896 -0.1777,-0.4355 z m 0.4961,1.1113 c 0.1576,0.3299 0.3165,0.6595 0.4902,0.9844 -0.1742,-0.325 -0.3322,-0.6544 -0.4902,-0.9844 z"
     id="path186-1-9-2-7" />
  <path
     onclick="pokaz(this)"
     d="m 568.71484,397.50778 c -3.49628,-0.11501 -4.94876,7.63686 -9.79101,2.50586 -5.228,3.916 -11.34041,4.05863 -14.94141,10.01563 -2.836,4.69 -1.50755,9.89837 -2.93554,14.98437 -2.457,8.757 -10.39605,15.89655 -18.12305,20.43555 -5.367,3.153 -20.42808,4.5942 -26.83008,5.1582 -7.12,0.626 -13.19792,-6.75476 -15.16992,5.40625 l 5.93359,18.43945 30.06641,14.46485 15,9.0957 v 4 c -5.784,0.068 -13.66433,2.69602 -16.48633,8.29102 -2.884,5.72 1.87333,13.33898 -6.51367,14.70898 -1.091,-5.043 -4.191,-5.776 -9,-6 v 3 l -8.56836,11.38281 -21.12891,4.82422 -6.30273,9.79297 2,6 -5,4 v 1 c 6.105,7.245 -1.063,13.888 -8,18 l 2,5 c -4.813,-0.017 -7.677,-0.312 -11,-4 l -29.71485,11.92578 -16.28515,-1.92578 -1,-5 c -2.29367,0.40493 -10.65803,-0.74826 -16,-0.73437 v 60.73437 l -7,1 2,7 -10.0293,3.0293 4.94922,7.4668 1.05273,20.90429 -8.97265,2.68164 -25,4.91797 2,11 c -7.409,3.571 -7.02856,13.62794 -5.85156,20.96094 1.104,6.875 7.62529,13.40898 9.02929,20.20898 0.628,3.037 -2.23725,5.64018 -1.03125,8.70118 2.677,6.795 7.74352,9.8949 8.85352,18.1289 l -3,4 3,1 -3,7 c -4.425,-2.812 -6.697,-4.516 -7,-10 l -8,4 20.12109,22.00195 2.87891,20.99805 c -12.507,7.378 -12.15194,16.407 -12.33594,30 -0.053,3.922 -1.90653,8.08833 -1.14453,11.98633 1.278,6.537 6.42147,11.94567 7.48047,19.01367 -1.574,1.248 -2.90971,2.2046 -3.84571,4.0586 -8.047,15.94 17.97841,11.16278 21.81641,18.05078 3.783,6.788 -4.56158,8.27215 -4.51758,13.91015 0.035,4.492 3.12997,6.67439 6.29297,9.15039 2.837,2.22 4.59677,5.65013 8.25977,6.70313 6.231,1.792 13.35314,-4.71705 19.99414,-4.87305 l 3,10 -3,1 2.13867,10.04102 -6.13867,9.95898 h 13 c 2.382,3.436 3.789,4.477 8,4 l 1,5 12,-13 c 12.575,7.004 25.73203,9.76691 31.70703,25.00391 1.817,4.63405 0.32697,9.26405 2.29297,13.99605 -0.28216,0.2151 -0.51672,0.7189 -0.7168,1.42 -0.0274,0.01 -0.0546,0.018 -0.082,0.025 0.6003,-0.1603 1.20354,-0.2381 1.79883,-0.1895 5.648,0.462 8.56517,8.0435 12.32617,11.3145 2.762,2.4 6.50583,2.419 9.67383,4.039 6.341,3.24 10.705,8.2907 18,9.3907 l 3.24805,14 -6.24805,16 8,2 v 3 l 20,3 c 1,7.39 7.51361,21.0007 14.22461,24.9707 3.526,2.09 8.02456,0.051 11.60156,2.0605 3.416,1.91 4.73345,5.9692 7.68945,8.3692 4.296,3.48 14.68238,5.8696 15.48438,-1.4004 l 12,3 c 2.477,-11.08 7.85662,-4.9099 15.01562,-4.5899 5.744,0.26 7.46738,-3.3301 12.98438,0.5899 1.913,-5.25 -1.41341,-16.9893 2.43359,-20.0293 13.071,-10.31 36.28241,1.7801 48.56641,7.1601 3.221,1.41 7.76401,0.019 10.41601,2.4688 6.333,5.87 20.152,20.8211 7.375,28.3711 -2.451,1.45 -6.04201,1.3693 -8.79101,2.0293 l 6.30273,23 3.92578,9.9297 11.77149,-2.2188 18,5.2891 1,-6 4,4 4,-2 v 6 c -12.678,3.99 -1.0756,16.7399 1.3164,24.1699 1.931,6 -2.88012,10.9001 -2.07812,16.8301 1.32,9.75 7.79272,15.98 11.76172,24 l -0.22071,0.9433 c 1.16251,-0.1675 2.26305,-0.2477 3.2754,-0.2109 4.65821,0.1691 7.45412,2.7601 5.94336,10.2676 -0.48902,2.43 -1.13005,4.69 -1.99805,7 h -4 c 5.341,15.24 22.037,10.4408 34,7.3808 7.471,-1.91 15.287,-1.9508 16,-11.3808 l 18.54297,-1.0625 -1.54297,-1.9375 3,-14 c -7.49,-3.01 -0.4933,-10.39 -0.2793,-16 0.143,-3.77 -1.9297,-6.86 -3.7207,-10 h -1 l -10,3 c -2.365,-9.36 -0.407,-19.05 -8,-27 v -2 l 10,-1 c 2.408,-11.48 8.21373,-5.0397 14.42773,-11.4297 4.276,-4.4 1.91027,-10.5103 0.57227,-15.5703 9.251,-1.73 22.158,0.16 27,10 5.358,-2.88 13.57403,-17.87 13.95703,-24 0.33,-5.27 -2.09866,-10.9202 -1.34766,-15.9102 1.022,-6.8 4.90963,-16.9998 -1.60937,-21.0898 l -1,-10 c 8.019,-2.41 2.071,-9.01 2,-15 l 11,-8 2.41601,-18 3.58399,-20 13,-7 1,6 c 12.94,-4.658 19.343,0.39 32,2 0.584,-11.2372 10.24184,-15.9256 16.08984,-23.9376 2.639,-3.615 4.29816,-9.01445 6.91016,-13.06245 -16.511,-6.95 -9.91213,-17.01892 -10.32813,-30.16992 -0.143,-4.514 -4.21626,-12.21036 -0.0723,-16.06836 7.301,-6.799 21.74739,12.02528 23.40039,-6.76172 l 18,-1 c -0.95,-4.562 2.4,-7.8027 1.625,-11.9707 -0.84097,-4.526 -6.63542,-4.94383 -6.35742,-10.04883 1.095,-20.146 19.58242,-22.00947 34.73242,-14.98047 l -1,-8 c 11.37998,-8.672 0.34,-14.234 -9,-13 0.53035,-5.31626 0.52368,-12.66877 3.40625,-17.78125 l -1.40625,-1.21875 -9,-2 -4,-13 -9,-7 v 6 c -9.542,3.261 -16.843,7.51308 -27,9.45508 -2.472,0.473 -5.71831,3.18856 -8.19531,1.60156 -3.923,-2.514 -4.29208,-11.05103 -7.70508,-14.83203 -4.401,-4.876 -8.69761,-5.88761 -9.09961,-13.22461 l -6.60352,-7.82031 -9.39648,-4.17969 c -4.441,0.741 -6.09,-0.64 -7,-5 l -15,-6 -4,7 c -4.098,0.323 -11.24449,3.13783 -15.02149,1.29883 -5.432,-2.646 -2.97851,-16.25683 -2.97851,-21.29883 -7.026,0.792 -18.487,12.455 -23,18 h -1 c -2.935,-2.209 -5.93839,-0.95848 -9.02539,-2.52148 -6.997,-3.544 -8.92861,-7.44752 -17.97461,-7.47852 -0.6,-5.325 -2.77,-6.829 -8,-7 l -1,-11 -14,-1 -6,3 3,-10 c -6.441,1.711 -8.718,0.083 -11,-6 h -2 l -1,3 -4,-9 -7,-8 -10,1 2,-3 -12,-7 -5,6 -1,-5 -5,2 v 1 l 2,3 -9,4 -4,3 -1,-13 -10,-2 c 1.233,-2.59 4.28898,-8.88526 2.83398,-11.69726 -3.284,-6.345 -19.66798,1.68626 -21.83398,5.69726 l -5,-4 -6,1 4,-6 -2,-9 c -13.621,-3.894 -16.84,-10.433 -5,-19 2.831,3.922 8.05665,3.42463 10.34765,-1.10937 2.554,-5.052 0.66735,-11.47863 0.65235,-16.89063 l 3,1 c 1.425,-7.628 -3.603,-22.541 -10,-27 l 1,-2 c -5.476,-3.434 -11.21692,-8.48578 -17.16992,-10.92578 -10.346,-4.24 -14.39808,2.78778 -18.83008,-11.07422 7.741,-5.828 9.127,-15.033 8,-24 l 5,1 -1,-20 6,-1 v -2 l -8,-3 v -22 c 4.743,-0.217 17.90072,-1.83989 21.01172,-5.58789 7.822,-9.426 -0.31099,-18.04011 -5.95899,-25.41211 -6.465,-8.439 -10.94873,-17.417 -22.05273,-21 2.565,-3.632 6.85165,-6.33292 8.97265,-10.16992 2.487,-4.498 0.72274,-9.39902 4.30274,-13.79102 5.318,-6.523 14.33661,-11.32105 15.72461,-20.03906 l -12,-2 v -3 h -4 c -2.345,-11.014 -20.799,-5.3045 -29,-6.1875 -4.141,-0.447 -8.77638,-2.97387 -12.98438,-1.92187 -4.815,1.203 -6.41262,6.27925 -12.01562,6.03125 -10.949,-0.485 -3.352,-15.80988 -17,-7.92188 -1.696,-8.216 -4.55458,-15.315 -7.76758,-23 -1.016,-2.43 -1.48873,-7.37506 -3.80273,-8.91406 -0.59875,-0.398 -1.13921,-0.57537 -1.63868,-0.5918 z M 460.56836,993.6328 c -0.0444,0.016 -0.0885,0.034 -0.13281,0.051 0.0443,-0.017 0.0884,-0.035 0.13281,-0.051 z m -1.39844,0.6621 c -0.0274,0.016 -0.0547,0.033 -0.082,0.049 0.0273,-0.016 0.0546,-0.033 0.082,-0.049 z m -0.66797,0.4219 c -0.0288,0.02 -0.0572,0.04 -0.0859,0.06 0.0287,-0.02 0.0571,-0.041 0.0859,-0.06 z m -0.65429,0.4785 c -0.0291,0.023 -0.057,0.047 -0.0859,0.07 0.0289,-0.023 0.0569,-0.048 0.0859,-0.07 z m -0.55274,0.459 c -0.17243,0.1493 -0.33291,0.3146 -0.5,0.4726 0.1668,-0.158 0.32787,-0.3233 0.5,-0.4726 z m -1.22851,1.1875 c -0.15908,0.1694 -0.30306,0.3467 -0.45508,0.5214 0.15156,-0.1744 0.29648,-0.3522 0.45508,-0.5214 z m -1.09571,1.2773 c -0.14673,0.1874 -0.27482,0.3752 -0.41211,0.5645 0.13672,-0.1888 0.26601,-0.3776 0.41211,-0.5645 z m -0.92968,1.2969 c -0.14363,0.2193 -0.26208,0.4317 -0.39063,0.6485 0.12791,-0.2159 0.24778,-0.4301 0.39063,-0.6485 z m 277.11328,214.8008 c -1.93603,0.5588 -3.92437,1.2287 -5.89063,1.9277 -0.003,0 -0.007,0.01 -0.01,0.012 1.96887,-0.7007 3.96306,-1.3767 5.90039,-1.9394 z m 405.2168,120.0195 c 0.4373,0.029 0.864,0.069 1.2832,0.1172 -0.4191,-0.048 -0.8466,-0.088 -1.2832,-0.1172 z m 1.623,0.1621 c 0.2734,0.036 0.5446,0.074 0.8086,0.1192 -0.2645,-0.045 -0.5349,-0.084 -0.8086,-0.1192 z m 1.3926,0.2305 c 0.1754,0.036 0.3495,0.074 0.5195,0.1152 -0.1704,-0.041 -0.3437,-0.079 -0.5195,-0.1152 z m 1.1328,0.2754 c 0.1371,0.04 0.2712,0.082 0.4043,0.125 -0.1334,-0.043 -0.267,-0.086 -0.4043,-0.125 z m 1.0821,0.3652 c 0.048,0.019 0.093,0.041 0.1406,0.061 -0.048,-0.02 -0.092,-0.042 -0.1406,-0.061 z"
     id="path152-1-7-3" />
  <path
     onclick="pokaz(this)"
     d="m 1038.9238,818.01365 c -5.67,5.622 -11.75,9.457 -12,18 l -6,-4 c -2.78,1.587 -5.74,4.34647 -9,4.73047 -5.75,0.679 -10.719,-3.22348 -16.5391,0.22852 -7.01,4.152 -6.7509,14.92401 -7.4609,22.04101 9.34,-1.234 20.38,4.328 9,13 l 1,8 c -15.15,-7.029 -33.63743,-5.16553 -34.73243,14.98047 -0.278,5.105 5.51645,5.52283 6.35742,10.04883 0.775,4.168 -2.575,7.4087 -1.625,11.9707 l -18,1 c -1.653,18.787 -16.09939,-0.0373 -23.40039,6.76172 -4.144,3.858 -0.0707,11.55436 0.0723,16.06836 0.416,13.151 -6.18287,23.21992 10.32813,30.16992 -2.612,4.048 -4.27116,9.44745 -6.91016,13.06245 -5.848,8.012 -15.50584,12.7005 -16.08984,23.9376 -12.657,-1.61 -19.06,-6.658 -32,-2 l -1,-6 -13,7 -3.58399,20 -2.41601,18 -11,8 c 0.071,5.99 6.019,12.59 -2,15 l 1,10 c 6.519,4.09 2.63137,14.2898 1.60937,21.0898 -0.751,4.99 1.67766,10.6402 1.34766,15.9102 -0.383,6.13 -8.59903,21.12 -13.95703,24 -4.842,-9.84 -17.749,-11.73 -27,-10 1.338,5.06 3.70373,11.1703 -0.57227,15.5703 -6.214,6.39 -12.01973,-0.05 -14.42773,11.4297 l -10,1 v 2 c 7.593,7.95 5.635,17.64 8,27 l 10,-3 h 1 c 1.791,3.14 3.8637,6.23 3.7207,10 -0.214,5.61 -7.2107,12.99 0.2793,16 l -3,14 1.54297,1.9375 10.4414,-0.5977 10.03125,6.0703 18.98438,1.9707 23,6.6192 6,9 c 0.737,-2.54 5.23673,-14.5299 7.30273,-15.3399 6.297,-2.47 7.50927,12.6699 7.69727,16.3399 3.51634,0.012 11.73233,4.665 19.05078,10.2968 -0.0184,-0.099 -0.0306,-0.1973 -0.0508,-0.2968 7.34,-6.3 33.895,-13.46 41,-5 h 1 l 6,-12 24.99999,19 c -0.72,7.61 15.7,11.75 22,11 3.05,5.87 13.0196,9.8397 18.0196,3.7597 2.37,-2.9 1.4799,-7.34 4.4199,-9.75 3.32,-2.73 8.5605,-2.0097 12.5605,-2.0097 -2.05,9.12 3.42,11.22 7,19 h 1 c 7.22,-7.35 10.2808,4.68 12.8008,10 2.31,4.86 7.3894,6.6898 10.1094,11.0898 3.15,5.1 2.0898,12.1902 2.0898,17.9102 h 6 c 3.92,-11.85 23.7003,-4.6503 28.8203,2.5097 2.35,3.29 0.7191,8.0207 5.2891,9.8907 4.0392,1.6507 14.467,-0.6918 22.3164,-0.1797 0.049,-1.2269 -0.8691,-2.0278 -3.4258,-2.2207 l 16.8692,-23.1699 0.4707,-16.8301 7.6601,-21 h 1 c 3.45,4.03 7.9996,4.2603 11.7696,7.5703 3.25,2.85 10.7108,21.3007 18.6308,14.7207 2.18,-1.81 1.4988,-5.821 2.2988,-8.291 2.6,-8.1 1.9508,-16.04 4.3008,-24 l -14,-1 c 1.58,-6.62 -1.7707,-13.9501 -0.2207,-19.8301 1.02,-3.87 5.84,-5.4398 7,-9.2598 1.18,-3.87 -5.2998,-7.8004 -0.5898,-10.7304 6.84,-4.27 17.2305,1.8202 24.8105,0.4902 6.3997,-1.12 13.74,-8.0299 20,-3.6699 h 1 l 9,-8 -6,-10 16.8594,-0.5391 11.1406,3.5391 -2,-8 3,-1 c -2.22,-3.13 -7.6505,-10.5404 -4.3105,-14.4004 3.57,-4.11 9.4905,-3.1896 13.3105,-8.5996 0.2186,0.045 0.4868,0.079 0.7188,0.1211 -1.3825,-7.1083 -2.6284,-14.1643 -1.1485,-17.0801 2.49,-4.89 8.4004,-5.3105 11.9004,-9.2305 8.99,-10.06 10.7393,-18.2405 12.5293,-30.8105 -6.18,-1.14 -10.5893,5.3911 -16.8593,1.7011 -7.2,-4.24 -0.4108,-14.4806 -1.0508,-20.6406 -0.42,-4.07 -5.0203,-3.8209 -6.4903,-7.2109 -2.04,-4.71 -3.3196,-12.6796 -4.5996,-17.8496 l -7,-1 c 1.1,-3.52 1.4503,-8.7094 3.7403,-11.6094 10.25,-12.94 23.6997,-3.6312 35.2597,-0.4512 6.17,1.7 12.77,1.5606 19,3.0606 3.02,-6.12 10.7609,-17.3392 6.1309,-24.3692 -2.54,-3.86 -9.0013,-4.3202 -10.3613,-8.7402 -2.06,-6.7 1.2804,-16.5606 -5.7696,-20.8906 v -2 l 11,-1 c -2.62,-5.579 -12.8997,-17.1117 -19.0097,-18.6817 -4.17,-1.07 -9.8501,1.1503 -13.5801,-1.3457 -5.79,-3.86904 -12.3602,-23.83465 -22.4102,-10.97265 h -1 l -4,-4 -1,5 -7,4 h -12 l 2,-7 h -18 c 2.02,-5.324 4.49,-7.408 10,-9 -0.23,-4.512 -0.3408,-11.01278 -4.5508,-13.92578 -3.48,-2.411 -13.1996,-2.78447 -13.0996,-8.98047 0.05,-3.06 4.59,-4.13619 6.5,-5.74219 3.18,-2.672 9.3901,-15.2582 6.8301,-19.0332 -2.7,-3.988 -8.7901,-1.45987 -12.6601,-2.92187 -4.29,-1.618 -6.1586,-6.51966 -10.3086,-8.47266 -3.94,-1.856 -8.8311,0.0519 -12.1211,-3.49609 -2.79,-3.008 -7.1893,-12.36674 -7.2793,-16.42774 -0.1,-4.231 3.0891,-8.82856 -0.6309,-12.35156 -7.37,-6.977 -20.5997,-3.26644 -22.6797,-16.64844 l -8,-4 c -4.18,1.252 -6.51,2.835 -8,7 h 2 c -2.42,4.191 -6.02,6.77 -10,3 -5.2,1.519 -9.33,6.47783 -15,6.79883 -3.59,0.203 -6.4701,-2.97995 -9.9101,-2.62695 -2.88,0.294 -4.6689,3.40439 -7.1289,4.65039 -6.87,3.482 -9.771,-3.68327 -11.961,-8.82227 l -15,-1 v -3 h -4 c -1.5,-22.537 -27.8,-4.871 -33,-25 -7.63,-1.562 -3.13,-6.286 -7,-11 z M 910.97457,1259.3105 c 0.0667,0.3605 0.12136,0.7195 0.16406,1.0762 -0.0428,-0.357 -0.0973,-0.7154 -0.16406,-1.0762 z m 0.16797,1.1114 c 0.0412,0.35 0.0726,0.6983 0.0918,1.0449 -0.0192,-0.3465 -0.0506,-0.695 -0.0918,-1.0449 z m 0.0918,1.0703 c 0.0702,1.3019 -0.017,2.5797 -0.21876,3.8398 0.20139,-1.2602 0.28912,-2.5378 0.21876,-3.8398 z m -0.44336,5.0332 c -0.0582,0.264 -0.12347,0.5265 -0.19141,0.7891 0.0678,-0.2624 0.13329,-0.5253 0.19141,-0.7891 z m -0.38868,1.4922 c -0.15485,0.5314 -0.32625,1.0614 -0.51562,1.5879 0.18937,-0.5268 0.36084,-1.0561 0.51562,-1.5879 z m -0.63086,1.9101 c -0.21495,0.5769 -0.44783,1.1507 -0.69726,1.7227 0.24933,-0.5719 0.48246,-1.1459 0.69726,-1.7227 z m -0.79492,1.9493 c -0.28092,0.6332 -0.5784,1.2637 -0.89258,1.8925 0.31412,-0.6286 0.61181,-1.2595 0.89258,-1.8925 z m -0.89258,1.8925 c -0.33004,0.6607 -0.67606,1.3192 -1.0332,1.9766 h 0.004 c 0.35725,-0.6572 0.69929,-1.3162 1.02929,-1.9766 z m 228.28716,60.4668 c 0.4366,0.029 0.8641,0.07 1.2832,0.1172 -0.4192,-0.048 -0.8459,-0.088 -1.2832,-0.1172 z m 1.623,0.1621 c 0.2737,0.035 0.5441,0.074 0.8086,0.1192 -0.264,-0.045 -0.5352,-0.084 -0.8086,-0.1192 z m 1.3926,0.2305 c 0.1758,0.036 0.3487,0.075 0.5195,0.1152 -0.1704,-0.041 -0.3441,-0.079 -0.5195,-0.1152 z m 1.1328,0.2754 c 0.1373,0.039 0.2709,0.082 0.4043,0.125 -0.1331,-0.043 -0.2672,-0.085 -0.4043,-0.125 z m 1.0821,0.3652 c 0.048,0.019 0.093,0.041 0.1406,0.061 -0.047,-0.02 -0.093,-0.041 -0.1406,-0.061 z m -1.9707,11.7715 c -0.7563,0.1932 -1.3884,0.4828 -1.9219,0.8555 0.5334,-0.3727 1.1657,-0.6623 1.9219,-0.8555 z"
     id="path208-5-3-6" />
  <path
     onclick="pokaz(this)"
     d="m 1809.9238,832.01369 c -3.11,7.466 -7.199,14.23516 -13.039,19.91016 -2.67,2.595 -8.7508,5.68094 -8.3008,10.08594 0.46,4.545 6.7998,6.5299 10.3398,8.0039 l -1,4 c -8.77,-2.775 -22.64,-1.34294 -25.25,10.03906 -0.85,3.735 3.18,7.09694 3.25,10.96094 -3.45,-0.749 -7.7507,-1.2327 -9.9707,2.2793 -2.07,3.268 -0.3288,10.00316 -6.0488,10.16015 -3.64,0.10001 -6.3305,-3.50373 -9.9805,-3.67773 -2.68,-0.129 -5.169,2.27811 -7.789,1.66211 -7.25,-1.707 -21.4607,-18.27881 -28.1407,-4.38281 -1.9,3.947 0.65,8.81798 0.42,12.95898 -0.18,3.236 -2.2903,6.072 -3.4903,9 -5.24,-2.335 -10.2394,-4.4879 -14.9394,-7.8789 -2.08,-1.507 -4.1206,-4.97507 -7.0606,-4.53907 -4.31,0.642 -4.669,7.35897 -6.459,10.41797 -2.82,4.827 -14.8807,15.48494 -21.2207,11.21094 -2.86,-1.923 -2.5903,-7.17494 -3.3203,-10.21094 h -3 c -5.75,13.698 -13.99,6.005 -25,3 -5.19,16.566 -18.36,4.36275 -30,5.84375 -4.95,0.629 -6.639,5.77374 -10.209,8.42774 -6.31,4.697 -16.6015,2.2754 -21.3515,9.9414 -7.57,12.23 9.6399,19.94611 5.6699,32.78711 -1.05,3.389 -9.8495,9.79102 -8.0195,12.41602 2.72,3.91198 8.6504,-0.1705 11.9004,-0.4375 3.87,-0.319 8.5593,5.6465 9.6093,9.02149 2.03,6.56 -11.2196,11.64 -12.5996,18 -6.18,-0.49 -10.75,1.53 -14,7 h 9 c -1.11,5.64 -1.92,9.47 5,10 l -5,12 c -7.52,1.65 -7.53,5.08 -7,12 -5.68,-1.35 -12.1796,-1.8294 -16.8496,2.3906 -2.09,1.89 -3.2094,7.2094 -6.1894,7.6895 -2.94,0.4699 -3.9415,-3.8093 -5.5215,-5.4493 -2.67,-2.76 -9.2791,-6.9309 -13.2891,-6.2109 -10.17,1.82 -0.1606,21.6997 4.0196,24.9297 7.6999,5.93 17.0205,-1.3984 24.8105,2.6816 4.94,2.58 4.0999,7.4588 6.6699,11.5489 7.32,11.6399 13.9996,29.0199 1.3496,40.4199 -3.64,-9.04 -10.73,0.72 -12,6 l 15.6192,9.0605 -3.6192,17.9395 -6,5 9,-1 3,7 c -7.87,3.93 -12.92,25.48 -13,34 5.03,1.51 7.49,3.97 9,9 -8.7197,5.4692 -4.8122,15.933 -3,24 0,0.01 0,0.013 0.01,0.02 2.0488,6.4789 -0.2943,10.7968 0.375,16.9805 0.52,4.73 4.6601,8.22 5.4101,13 1.58,10.12 0.4889,20.95 2.5489,31 0.76,3.65 3.6099,5.7598 4.9199,9.0898 1.8151,4.6079 3.5529,11.9939 4.6309,19.5742 l 0.1093,-0.664 c 9.76,5.66 18.32,9.4901 29,3.1601 4.9688,-2.9531 9.7265,-10.6167 15.7813,-10.8711 0.4036,-0.017 0.8129,0 1.2285,0.051 10.97,1.39 15.7105,6.3495 22.3105,13.2695 2.6,2.74 6.9493,3.7902 6.1993,8.4102 -1.54,9.52 -9.9396,18.6705 -12.5196,27.9805 5.44,-0.22 11.2303,-1.3902 15.2403,3.3398 2.19,2.59 1.8999,6.3007 4.9199,8.2207 4.98,3.16 11.3998,2.5101 16.8398,4.0801 10.81,3.1 13.5,9.9994 25,7.3594 l 4,6 6,-3 c 1.96,4.08 3.05,8.08 -1,11 v 5 c 4.74,2.92 2.91,6.2 3,11 l 9,-2 -5,6 v 2 h 9 c -4.6,7.04 -8.13,10.8301 -17,9.8301 -2.62,-0.3002 -8.0808,-3.5297 -10.3808,-1.9297 -2.77,1.92 0.7513,5.5504 0.6113,7.9004 -0.33,5.31 -6.4005,5.1892 -10.2305,5.1992 l -2,7 c 9.95,1.59 16.78,8.67 23,17 11.85,-5.25 26.16,-5 39,-5 -2.29,6.96 -15.7298,4.9696 -15.8398,11.5996 -0.1,5.91 16.3198,9.4204 20.8398,9.6504 5.4,0.26 10.56,-2.18 16,-2.25 13.18,-0.16 25.31,1.74 38,2.5 5.46,0.33 9.51,-1.34 15,0.5 4.31,-9.3 13.0302,-17.72 19.1602,-26 2.16,-2.93 4.8898,-7.0689 8.8398,-7.5489 4.95,-0.6 11.8,5.2489 15,8.5489 h 1 l 17,-13 3,11 c 3.69,0.12 5.78,0.31 7,4 h 5 l -4,14 19.9395,1.6211 1.0605,9.3789 c 4.3069,0.1001 9.2987,1.7368 9.3321,6.0918 l 0.6679,-0.092 c 14,-3.32 15.0501,-16.6802 23.3301,-25.9102 4.41,-4.91 11.1801,-7.1898 14.5801,-13.0898 3.22,-5.6 1.4606,-12.1103 7.1406,-16.4903 15.39,-11.84 43.4699,-4.0198 56.4199,-17.8398 12.51,-13.34 12.1291,-35.6599 12.5391,-52.6699 0.14,-5.43 1.4108,-10.54 0.5508,-16 -0.76,-4.83 -4.1905,-7.8704 -5.2305,-12.1504 -0.97,-4 5.6398,-5.5601 4.0098,-9.5801 -1.56,-3.83 -8.0201,-1.3391 -10.8301,-3.8691 -3.8,-3.43 -1.2795,-9.1697 -3.6895,-13.1797 -2.41,-4 -8.5001,-3.9803 -9.4101,-9.2403 -1.34,-7.74 9.0398,-17.8404 15.5898,-20.2304 3.61,-1.32 12.8698,2.1704 11.5098,-4.7696 -2.19,-11.18 -18.8705,-7.6304 -23.9805,-16.9804 -5.74,-10.52 -13.6494,-21.76 -17.6894,-33 -2.4,-6.68 -2.58,-16.9293 -5.9199,-22.7793 -2.6302,-4.59 -9.2607,-5.0407 -11.8907,-10.2207 -2.28,-4.5 0.6314,-10.3694 -2.0586,-14.6094 -5.42,-8.55 -18.011,-14.4 -24.541,-22.5 -4.12,-5.11 -0.209,-12.5709 -4.289,-17.3809 -4.87,-5.73 -13.6405,-2.7897 -17.4805,-11.5097 -4.97,-11.28 9.4501,-26.09 5.9101,-39 -1.02,-3.71 -4.7608,-5.5499 -5.8808,-9.0899 -1.11,-3.5 1.7812,-8.1405 -0.7188,-11.3105 -2.09,-2.65 -6.2808,-0.6488 -8.8808,-2.5488 -3.3,-2.4 -2.7296,-6.6312 -5.0996,-9.4512 -2.32,-2.75 -6.6906,-1.3701 -8.8106,-4.8301 -3.04,-4.95 -4.579,-16.8895 -5.789,-22.7695 -1.56,-7.58 4.0495,-14.26 3.5195,-22 -0.44,-6.4 -6.4801,-13.78 -3.5801,-20 2.96,-6.33199 12.3795,-7.8667 13.5195,-15.01368 1.52,-9.506 -5.6296,-17.98733 -7.8496,-26.98633 12.0001,-4.531 2.0099,-8.636 4.8399,-18 1.9501,-6.473 6.9595,-10.939 9.2695,-17 2.36,-6.219 -0.099,-17.001 -2.459,-23 -4.21,-10.7 -7.3004,-25.733 -21.6504,-17 -2.54,-8.079 -9.4995,-8.08006 -14.5195,-14.03906 -4.52,-5.374 -1.9905,-10.14394 -10.4805,-12.96094 -4.17,4.937 -8.36,2.77 -10,-3 l -9.9101,-1.85937 -6.0703,2.10547 -6.2793,-6.49415 -6.8301,2.60547 -11.9102,-0.35742 -0.1797,-14.98047 -10.8203,-8.01953 h -2 z"
     id="path216-4" />
  <path
     onclick="pokaz(this)"
     d="m 376.99414,987.8398 c -3.54169,0 -7.41812,0.4971 -6.60937,3.1133 1.077,3.487 4.35406,3.9336 4.53906,8.0606 l -7,-2 c -2.257,7.3399 -4.186,12.52 -13,12 l -3,8 c -3.804,-0.85 -6.068,-0.16 -6,4 l -9,5 -7,41 -22,1 -1,15 -4,-1 -5,14 c -8.067,-1.34 -7.207,8.78 -15,10 2.46,-13.5 -15.211,-23.5092 -26,-26.8692 -3.25,-1.01 -13.50358,-2.0304 -16.14258,0.5196 -3.903,3.78 -1.96342,14.7096 -0.85742,19.3496 -10.217,-2.99 -11.926,10.85 -12,19 -10.763,-3.23 -12.462,-11.99 -25,-11 v -6 c -8.845,0.48 -11.62081,7.2804 -17.63281,12.4004 -5.592,4.76 -9.92719,2.1396 -10.36719,11.5996 -8.559,-0.18 -12.782,-1.19 -13,9 l -7,-1 c -3.181,11.72 14.07956,20.99 11.85156,31 -3.408,15.31 -10.28566,30.45 -15.72266,45 -2.061,5.52 -1.39537,11.5 -3.23437,17 -4.829,14.45 -10.93622,28.4909 -15.32422,42.9609 -1.575,5.19 -7.78539,6.1589 -11.52539,9.3789 -6.145,5.3 -6.81892,13.2102 -5.04492,20.6602 11.242,-0.09 26.254,5.17 37,0 -0.929,-3.92 -3.08486,-7.9 -2.63086,-12 0.92,-8.33 12.97586,-26.98 -3.36914,-24 0.168,-2.23 0.34051,-4.06 1.60351,-6 9.676,-14.83 18.31143,0.8612 29.35743,3.0312 3.4,0.67 5.00012,-2.9015 8.07812,-3.2715 3.215,-0.38 6.92694,3.2103 9.96094,4.2403 4.474,-8.37 15.8565,1.68 17.4375,8 1.728,6.91 -4.048,13.0309 -3.25,19.9609 1.055,9.17 15.01698,15.4491 18.20898,24.0391 1.525,4.11 -1.11897,10.9001 2.45703,14.1601 3.713,3.39 8.11944,-5.0491 13.14844,-3.1191 17.632,6.8 33.23205,16.5996 50.99805,22.8496 7.323,2.57 13.88803,-6.1803 20.95703,-0.5703 8.312,6.59 10.21597,21.4997 15.04297,30.6797 5.59,-1.9 15.99948,-8.5092 19.39648,0.051 1.745,4.41 -4.36322,14.1898 1.67578,15.5898 10.899,2.53 9.81274,-14.7002 19.92774,-16.4102 9.923,-1.67 12.857,10.6496 23,10.7696 -0.828,-2.9 -3.24202,-6.8092 -2.29102,-9.8692 1.905,-6.1 13.86402,-4.5011 18.29102,-2.8711 7.684,2.84 28.03137,20.9712 28.98437,29.7012 0.317,2.91 -2.51186,5.4901 -3.50586,8.0801 -2.517,6.56 -6.26442,13.3287 -12.48242,17.2187 -3.13,1.96 -6.62325,1.1905 -9.90625,2.4805 -11.942,4.7 -24.9115,15.9898 -20.4375,30.2598 4,12.76 18.82703,9.5 25.45703,20 2.729,4.32 1.80721,9.3505 3.78321,13.8105 1.664,3.76 5.92798,4.529 8.45898,7.459 2.892,3.36 3.38203,8.1005 6.20703,11.5606 5.467,6.69 15.49806,11.4299 19.41406,19.1699 2.739,5.42 -0.10329,12.28 1.34571,18 2.117,8.34 19.78764,24.8105 28.68164,24.8105 14.598,0 21.26817,-23.4502 30.57617,-31.4902 10.011,-8.66 25.57083,-1.2403 28.42383,-16.3203 3.786,1.97 6.38337,11.791 9.98437,11.791 4.649,0 3.38311,-18.511 2.78711,-21.791 -1.627,-8.93 -11.31597,-10.2189 -16.16797,-16.3789 -2.781,-3.53 -0.92626,-8.6011 -2.44726,-12.6211 -2.146,-5.67 -7.71799,-9.8 -8.58399,-16 -1.36114,-9.732 7.83685,-14.835 12.83985,-21.6719 0.3681,-7.4135 12.90467,-13.128 18.58789,-5.3281 l 5.35351,-10.5391 13.66993,-34.8613 23.82421,1.4101 8.15235,-22.0097 c -4.713,-1.66 -5.842,-4.15 -6,-9 15.05,-3.89 1.30887,-15.6292 8.04687,-23.1992 3.799,-4.26 11.91313,-0.8108 16.95313,-0.8008 0.622,-11.54 -11.252,-22.54 7,-25 1.19,-8.36 2.833,-9.63 -4,-16 v -1 l 4,-7 13,4 c 0,-16.64 1.103,-17.22 17,-19 l -2,-5 h 8 c -1.328,-6.99 -4.55302,-19.0404 0.83398,-25.4004 2.528,-2.98 7.98583,-1.6784 9.54883,-6.0684 1.233,-3.46 2.23283,-11.8414 1.29883,-15.4414 -0.719,-2.77 -4.75969,-4.9988 -3.92969,-8.0488 1.126,-4.14 7.79505,-4.741 11.24805,-5.041 l 1,-5 c 4.685,1.98 8.66709,6.8608 13.99609,6.8808 4.85881,0.029 17.7253,-6.6387 26.78125,-7.9316 l 0.22266,-0.9492 c -3.969,-8.02 -10.44172,-14.25 -11.76172,-24 -0.802,-5.93 4.00912,-10.8301 2.07812,-16.8301 -2.392,-7.43 -13.9944,-20.1799 -1.3164,-24.1699 v -6 l -4,2 -4,-4 -1,6 -18,-5.2891 -11.77149,2.2188 -3.92578,-9.9297 -6.30273,-23 c 2.749,-0.66 6.34001,-0.5793 8.79101,-2.0293 12.777,-7.55 -1.042,-22.5011 -7.375,-28.3711 -2.652,-2.45 -7.19501,-1.0588 -10.41601,-2.4688 -12.284,-5.38 -35.49541,-17.4701 -48.56641,-7.1601 -3.847,3.04 -0.52059,14.7793 -2.43359,20.0293 -5.517,-3.92 -7.24038,-0.3299 -12.98438,-0.5899 -7.159,-0.32 -12.53862,-6.4901 -15.01562,4.5899 l -12,-3 c -0.802,7.27 -11.18838,4.8804 -15.48438,1.4004 -2.956,-2.4 -4.27345,-6.4592 -7.68945,-8.3692 -3.577,-2.01 -8.07556,0.029 -11.60156,-2.0605 -6.711,-3.97 -13.22461,-17.5807 -14.22461,-24.9707 l -20,-3 v -3 l -8,-2 6.24805,-16 -3.24805,-14 c -7.295,-1.1 -11.659,-6.1507 -18,-9.3907 -3.168,-1.62 -6.91183,-1.639 -9.67383,-4.039 -3.761,-3.271 -6.67817,-10.8525 -12.32617,-11.3145 -4.257,-0.348 -8.89981,5.1993 -10.25781,8.7442 -1.464,3.82 -0.50649,7.44 -3.02149,11 -7.725,10.95 -20.2247,16.4 -21.7207,31 l -18,-10 6,-14 -11,1 5,-18 c -12.347,1.2 -18.103,-6.269 -29,-9 l 1,-6 c -0.80063,0 -2.80468,-0.1754 -4.92969,-0.1739 z"
     id="path252-8-9" />
  <path
     onclick="pokaz(this)"
     d="m 739.97852,1212.7461 c -8.89295,-0.3228 -24.57694,8.1812 -30.0586,8.1484 -5.329,-0.02 -9.31109,-4.9008 -13.99609,-6.8808 l -1,5 c -3.453,0.3 -10.12205,0.901 -11.24805,5.041 -0.83,3.05 3.21069,5.2788 3.92969,8.0488 0.934,3.6 -0.0658,11.9814 -1.29883,15.4414 -1.563,4.39 -7.02083,3.0884 -9.54883,6.0684 -5.387,6.36 -2.16198,18.4104 -0.83398,25.4004 h -8 l 2,5 c -15.897,1.78 -17,2.36 -17,19 l -13,-4 -4,7 v 1 c 6.833,6.37 5.19,7.64 4,16 -18.252,2.46 -6.378,13.46 -7,25 -5.04,-0.01 -13.15413,-3.4592 -16.95313,0.8008 -6.738,7.57 7.00313,19.3092 -8.04687,23.1992 0.158,4.85 1.287,7.34 6,9 l -8.15235,22.0097 -23.82421,-1.4101 -13.66993,34.8613 -5.35351,10.5391 c -6.769,-9.29 -23.26689,0.5897 -17.33789,9.6797 10.057,15.4 32.95242,20.8708 48.23242,27.8808 5.865,2.7 7.22422,11.7402 12.19922,15.9102 6.103,5.11 13.50472,2.959 19.76172,6.709 6.827,4.08 -0.56149,14.0304 4.72851,17.7304 4.091,2.87 6.76327,-9.6303 11.94727,-9.3203 6.552,0.38 2.76115,9.661 4.16015,12.961 2.095,4.94 5.8276,-1.3008 6.3086,-3.5508 8.576,0 17.24017,-0.7793 25.57617,-0.7793 3.375,0 5.94883,1.88 9.42383,0.75 6.34,-2.07 14.82009,-14.7512 20.99609,-12.7012 2.084,0.7 4.66596,2.6304 5.12696,4.9004 0.572,2.83 -1.771,5.9701 -2,8.8301 -0.60501,7.52 3.19268,15.16 -1.69532,22 -4.083,5.72 -9.51073,9.4505 -16.42773,10.5605 -4.091,0.66 -11.47202,-0.9508 -14.29102,2.8692 -3.25,4.41 3.46577,10.6203 6.00977,13.5703 2.057,2.38 4.10425,4.73 6.28125,7 h 1 c 5.268,-4.37 11.37875,-1.9592 15.59375,3.3008 2.787,3.48 1.93414,9.5292 3.74414,13.6992 2.59,5.97 7.20694,6.7395 10.96094,11.2695 3.03,3.66 3.4927,7.7311 7.7207,10.6211 14.055,9.61 15.83209,-2.5513 26.99609,-7.0313 5.044,-2.02 11.32008,4.3013 15.45508,0.5313 5.957,-5.42 -6.12975,-7.8408 -5.09375,-13.3008 0.43571,-2.2929 3.89712,-3.0304 6.7832,-4.039 -0.0551,-0.017 -0.10438,-0.034 -0.16015,-0.051 3.972,-10.79 7.495,-20.24 1,-31 l 8,-2 5,4 4,-5 h 23 l 1,-12 c 8.097,-2.34 20.907,-6.37 24,-15 l 3,4 h 11 c 0.866,-9.01 -3.904,-14.4 -7,-23 6.028,-6 -4.705,-11.52 -4,-19 h 3 l 3,-11 -7,-8 c 7.537,-4.23 6.407,-19.1 6,-27 2.675,0.43 5.26837,1.0904 7.98437,1.2304 3.471,0.19 6.06066,3.6404 8.97266,3.5704 3.265,-0.08 2.90353,-4.7513 2.14453,-6.7813 -1.795,-4.82 -12.33114,-14.4199 -6.49414,-20.4199 6.662,-6.84 23.89584,2.6906 33.08984,-3.6094 4.305,-2.96 1.70843,-6.7093 0.35743,-10.2793 -1.476,-3.89 0.20287,-7.051 -3.20313,-10.3808 -3.543,-3.4602 -10.91989,-3.6101 -13.33789,-7.75 -3.457,-5.9201 -2.60267,-17.7501 -8.51367,-21.5801 l 14,-15 2,1 1,-1 c -2.237,-4.66 -6.68541,-7.98 -8.19141,-13 -4.587,-15.29 14.2925,-19.8 18.1875,-31 1.56,-4.48 4.08383,-9.7501 4.04883,-14.5801 -0.035,-4.79 -3.19742,-8.4899 -1.10742,-13.4199 4.22986,-9.9678 13.09678,-18.9844 11.11328,-29.7032 -7.31845,-5.6318 -15.53444,-10.2845 -19.05078,-10.2968 -0.188,-3.67 -1.40027,-18.8099 -7.69727,-16.3399 -2.066,0.81 -6.56573,12.7999 -7.30273,15.3399 l -6,-9 -23,-6.6192 -18.98438,-1.9707 -10.03125,-6.0703 -28.98437,1.6602 c -0.713,9.43 -8.529,9.4708 -16,11.3808 -11.963,3.06 -28.659,7.8592 -34,-7.3808 h 4 c 0.868,-2.31 1.50905,-4.57 1.99805,-7 1.51078,-7.5075 -1.28515,-10.0985 -5.94336,-10.2676 z"
     id="path300-3-2-1" />
  <path
     onclick="pokaz(this)"
     d="m 958.92383,1242.0137 -6,12 h -1 c -7.105,-8.46 -33.66,-1.3 -41,5 2.206,10.85 -6.7935,19.94 -11.0625,30 -2.09,4.93 1.07242,8.6299 1.10742,13.4199 0.035,4.83 -2.48883,10.1001 -4.04883,14.5801 -3.895,11.2 -22.7745,15.71 -18.1875,31 1.506,5.02 5.95441,8.34 8.19141,13 l -1,1 -2,-1 -14,15 c 5.911,3.83 5.05667,15.6601 8.51367,21.5801 2.418,4.14 9.79489,4.2899 13.33789,7.75 3.406,3.3299 1.72713,6.4908 3.20313,10.3808 1.351,3.57 3.94757,7.3193 -0.35743,10.2793 -9.194,6.3 -26.42784,-3.2306 -33.08984,3.6094 -5.837,6 4.69914,15.5999 6.49414,20.4199 0.759,2.03 1.12047,6.7013 -2.14453,6.7813 -2.912,0.07 -5.50166,-3.3804 -8.97266,-3.5704 -2.716,-0.14 -5.30937,-0.8004 -7.98437,-1.2304 0.407,7.9 1.537,22.77 -6,27 l 7,8 -3,11 h -3 c -0.705,7.48 10.028,13 4,19 3.096,8.6 7.866,13.99 7,23 h -11 l -3,-4 c -3.093,8.63 -15.903,12.66 -24,15 l -1,12 h -23 l -4,5 -5,-4 -8,2 c 6.495,10.76 2.972,20.21 -1,31 12.703,3.72 7.38469,13.4101 15.42969,20.1601 5.447,4.56 10.14642,-0.5202 15.35742,1.2598 2.947,1 3.97961,5.0698 5.84961,7.2598 4.377,5.1 10.06528,7.5603 12.36328,14.3203 5.123,-0.02 8.343,-0.26 11,-5 l 21.89453,4.791 10.12305,8.6289 18.98242,-5.4199 -4,15 c 10.779,7.16 2.49659,9.99 3.18359,20 0.685,9.96 3.47597,21.4503 9.16797,29.8203 3.74,5.49 15.29544,13.7994 21.64844,15.6094 5.247,1.49 11.38554,-0.8499 15.43555,3.9101 3.27899,3.86 3.35614,10.8802 4.36914,15.6602 1.655,7.81 5.55314,15.1 6.86914,23 0.701,4.2 -0.94449,10.0095 1.35351,13.7695 4.266,6.98 15.10206,0.1401 20.53906,4.8301 4.812,4.16 5.81132,18.4604 5.44532,24.4004 -0.277,4.49 -1.03407,10.6301 5.0039,11.5801 5.134,0.8099 9.20438,-4.1505 13.98438,-4.9805 8.59,-1.48 19.63017,6.7411 27.16017,-2.8789 6.16,-7.86 4.2804,-19.5207 10.9004,-26.7207 7.58,-8.25 18.4597,-9.6792 26.7597,-17.3692 7.46,-6.93 16.8897,-23.0908 28.1797,-22.6308 l 0.9688,-0.3985 c 0.3316,-1.2827 1.2485,-2.4977 3.0312,-3.6015 l -21,-13 c 6.38,-3.19 15.5993,-15.9997 9.2793,-22.6797 -6.54,-6.9 -21.2794,-1.8006 -29.1093,-7.0606 -2.78,-1.87 -7.2208,-5.8088 -7.7208,-9.2988 -0.66,-4.56 3.8104,-9.3606 -1.5996,-12.6406 -5.93,-3.61 -17.6103,2.2494 -22.0703,-3.6406 -3.14,-4.15 1.781,-8.7197 2.791,-12.6797 1.26,-4.91 0.3704,-18.4807 -2.5996,-22.6407 -3.23,-4.53 -15.95075,5.6302 -17.05075,-0.5898 -0.51,-2.88 4.03975,-5.9195 4.75975,-8.7695 1.26,-5 -0.119,-10.01 1.791,-15 2.74,-7.16 9.07,-9.2295 12.5,-15.1895 3.09,-5.35 3.709,-12.9012 6.709,-18.7012 2.63,-5.08 7.3103,-5.7593 8.3203,-12.1093 18.53,1.96 15.4597,-13.5803 25.4297,-23.5703 2.59,-2.58 7.1803,-3.3597 10.5703,-4.4297 l -22,-16 21,-13 c -0.81,-7.57 7.0306,-5.9294 10.3106,-11.1094 2.56,-4.04 -0.6506,-7.7406 4.6894,-9.8906 v -1 c -5.34,-3.12 -4.19,-10.3704 2,-12.1504 5.05,-1.46 10.43,3.6214 16,2.9414 6.82,-0.82 10.081,-3.7108 16.041,-6.0508 9.63,-3.78 22.759,-3.1202 31.959,0.2598 l 9,-10 15,-2 c -2.0642,-4.3169 -7.1343,-9.1042 -7.3203,-14.377 l -0.6797,-0.623 c -4.36,-0.29 -7.16,-2.1098 -11,-4.0098 -3.96,-1.95 -11.9501,-2.7701 -14.08,-7.1601 -1.6801,-3.4601 5.5292,-6.529 7.2792,-8.879 2.35,-3.18 2.2811,-7.7714 5.1211,-10.5214 5.39,-5.2 13.7297,-3.8297 11.6797,-14.4297 -3.71,0.86 -15.7304,0.7698 -13.4804,-5.9102 1.25,-3.69 5.3004,-5.0998 6.4804,-9.0898 l -19.0898,-4.5391 -14.9102,-0.4609 c 1.31,-9.21 0,-9.53 -3,-18 3.64,0.29 8.1901,1.9204 11.3301,-0.5996 8.1399,-6.53 2.12,-18.5404 15.6699,-16.4004 7.01,-20.55 -23.2806,-9.4896 -30.8906,-12.5996 -4.57,-1.87 -2.9391,-6.6007 -5.2891,-9.8907 -5.12,-7.16 -24.9003,-14.3597 -28.8203,-2.5097 h -6 c 0,-5.72 1.0602,-12.8102 -2.0898,-17.9102 -2.72,-4.4 -7.7994,-6.2298 -10.1094,-11.0898 -2.52,-5.32 -5.5808,-17.35 -12.8008,-10 h -1 c -3.58,-7.78 -9.05,-9.88 -7,-19 -4,0 -9.2405,-0.7203 -12.5605,2.0097 -2.94,2.41 -2.0499,6.85 -4.4199,9.75 -5,6.08 -14.9696,2.1103 -18.0196,-3.7597 -6.29997,0.75 -22.71997,-3.39 -21.99997,-11 z"
     id="path302-3-0-2" />
  <path
     onclick="pokaz(this)"
     d="m 1274.9234,1170.0137 c -3.82,5.41 -9.7405,4.4896 -13.3105,8.5996 -3.34,3.86 2.0905,11.2704 4.3105,14.4004 l -3,1 2,8 -11.1406,-3.5391 -16.8594,0.5391 6,10 -9,8 h -1 c -6.26,-4.36 -13.6,2.5499 -19.9996,3.6699 -7.58,1.33 -17.9705,-4.7602 -24.8105,-0.4902 -4.71,2.93 1.7698,6.8604 0.5898,10.7304 -1.16,3.82 -5.98,5.3898 -7,9.2598 -1.55,5.88 1.8007,13.2101 0.2207,19.8301 l 14,1 c -2.35,7.96 -1.7008,15.9 -4.3008,24 -0.8,2.47 -0.1188,6.481 -2.2988,8.291 -7.92,6.58 -15.3808,-11.8707 -18.6308,-14.7207 -3.77,-3.31 -8.3196,-3.5403 -11.7696,-7.5703 h -1 l -7.6601,21 -0.4707,16.8301 -16.8692,23.1699 c 2.5567,0.1929 3.4748,0.9938 3.4258,2.2207 6.9401,0.4524 11.8638,3.1358 8.5742,12.7793 -13.5499,-2.14 -7.53,9.8704 -15.6699,16.4004 -3.14,2.52 -7.6901,0.8896 -11.3301,0.5996 3,8.47 4.31,8.79 3,18 l 14.9102,0.4609 19.0898,4.5391 c -1.18,3.99 -5.2304,5.3998 -6.4804,9.0898 -2.25,6.68 9.7704,6.7702 13.4804,5.9102 2.05,10.6 -6.2897,9.2297 -11.6797,14.4297 -2.84,2.75 -2.7711,7.3414 -5.1211,10.5214 -1.75,2.35 -8.9593,5.4189 -7.2792,8.879 2.1299,4.39 10.12,5.2101 14.08,7.1601 3.84,1.9 6.64,3.7198 11,4.0098 l 0.6797,0.623 c -0.042,-1.1637 0.1492,-2.351 0.6699,-3.5625 3.57,-8.29 13.5402,-0.9393 18.8204,0.2207 3.2298,0.71 6.5296,-0.9415 9.5996,0.8985 2.27,1.35 2.7404,3.4403 3.2304,5.8203 7.69,0.61 17.18,-2.8707 23.9996,-1.6407 3.59,0.64 15.8209,6.4312 17.3809,9.9512 1.39,3.15 -0.5802,6.4895 1.2598,9.6895 5.41,9.41 13.2593,14.24 13.3593,26 l -10,2 1,12 c 11.44,-3.11 15.25,7.62 10,16 l 12,11 -7,7 c 7.04,1.34 9.58,8.1595 16,8.7695 10.02,0.96 14.35,-5.3889 23,-7.8789 4.11,-1.18 7.841,2.1297 11.711,0.9297 6.36,-1.97 11.779,-8.1094 18.289,-9.3594 3.55,-0.68 6.7597,2.0295 10.17,0.5195 7.5597,-3.33 8.881,-13.6508 15.871,-16.3808 3.89,-1.51 8.0993,0.7811 11.9493,-0.6289 3.4,-1.24 5.5407,-4.4601 9.0507,-5.5801 4.39,-1.4 8.6393,0.1 12.9493,-0.7402 3.38,-0.67 5.6407,-3.5906 9.0507,-4.3106 16.1352,-3.3697 34.0113,-7.6484 47.5879,-15.1426 0.3318,-0.8016 0.4916,-1.5475 0.3711,-2.1972 l 22,-19.3594 22.9004,-14.0195 9.3203,-13.5508 28.6094,-14.75 16.1699,-24.3203 2,-5 c -2.49,-14.72 9.77,-8.13 19,-11 l 5.5801,-16 5.3106,-32.336 c -1.078,-7.5803 -2.8158,-14.9663 -4.6309,-19.5742 -1.31,-3.33 -4.1599,-5.4398 -4.9199,-9.0898 -2.06,-10.05 -0.9689,-20.88 -2.5489,-31 -0.75,-4.78 -4.8901,-8.27 -5.4101,-13 -0.67,-6.19 1.6791,-10.51 -0.3809,-17 -2.85,1.06 -9.78,6.73 -4,8 -8,8.97 -16.309,-3.1707 -24.209,-6.3907 -3.12,-1.27 -7.421,-0.8593 -10.791,-1.6093 v 5 c -7.39,0.93 -27.1,-0.58 -23,9 h -4 c -0.23,7.46 -6.25,8.3604 -12,5.4804 -9.74,-4.87 -13.31,-8.6004 -18,-18.4804 -9.64,0 -19.37,-0.379 -29,0.041 -3.84,0.17 -8.3204,1.7998 -11.7304,-0.7402 -3.6,-2.69 -0.7199,-6.5199 -1.5996,-10.0899 -1.3602,-5.53 -8.6,-9.9809 -13.67,-11.2109 2.31,-7.22 10.12,-15.53 -2,-18 0,11.72 -2.38,15.36 -13,20 -0.21,-6.44 -5.22,-10.6703 -12,-9.5703 -4.21,0.69 -6.4608,4.0904 -10.1308,5.7304 -5.46,2.44 -13.0292,2.4899 -18.8692,1.8399 1.79,-12.03 -10.1396,-1.2301 -12.3496,-2.9199 -2.85,-2.1803 1.3692,-8.1501 0.6192,-11.0801 -1.75,-6.81 -10.8596,-8.92 -13.2696,-16 l -7,3 c -6.26,-2.65 -9.41,-1.3 -15,2 l -9,-21 c -4.35,-1.42 -3.68,-4.04 0,-6 -1.15,-6.91 -12.13,-6.79 -18,-8 z"
     id="path262-9-0-4-6" />
  <path
     onclick="pokaz(this)"
     d="m 1170.9239,1462.014 -15,2 -9,10 c -9.2,-3.38 -22.3299,-4.04 -31.9599,-0.26 -5.96,2.34 -9.22,5.23 -16.04,6.05 -5.57,0.68 -10.95,-4.4 -16,-2.94 -6.19,1.78 -7.34,9.03 -2,12.15 v 1 c -5.34,2.15 -2.13,5.85 -4.69,9.89 -3.28,5.18 -11.12,3.54 -10.31,11.11 l -21,13 22,16 c -3.39,1.07 -7.98,1.85 -10.57,4.43 -9.97,9.99 -6.9,25.53 -25.43,23.57 -1.01,6.35 -5.69,7.03 -8.32,12.11 -3,5.8 -3.62,13.35 -6.71,18.7 -3.43,5.96 -9.76,8.03 -12.5,15.19 -1.91,4.99 -0.53,10 -1.79,15 -0.72,2.85 -5.27,5.89 -4.76,8.77 1.1,6.22 13.82,-3.94 17.05,0.59 2.97,4.16 3.86,17.73 2.6,22.64 -1.01,3.96 -5.93,8.53 -2.79,12.68 4.46,5.89 16.14,0.03 22.07,3.64 5.41,3.28 0.94,8.08 1.6,12.64 0.5,3.49 4.94,7.43 7.72,9.3 7.83,5.26 22.57,0.16 29.11,7.06 6.32,6.68 -2.9,19.49 -9.28,22.68 l 21,13 c -8.56,5.3 2.65,13.13 4.42,19 2.76,9.12 2.65,19.03 7.57,28 2.65,4.83 7.66,7.94 10.8,12.42 2.93,4.19 3.45,9.59 8.25,12.3 9.17,5.18 23.4599,-7.59 27.9299,4.28 2.79,7.41 0.08,15.86 2.63,23 1.51,4.24 7.57,8.04 6.57,13 -1.2,5.97 -18.35,15.31 -9.85,22.89 14.55,12.98 22.61,-5.51 35.68,-4.83 12.93,0.67 20.89,11.5 33,14.94 0.34,-7.87 -0.54,-18.99 3.2,-26 2.4,-4.5 7.16,-6.68 9.49,-11.04 3.58,-6.73 4.99,-13.44 13.31,-16.26 9.56,-3.23 17.96,4.65 27,0.3 -1.3,-3.45 -8.34,-13.41 -6.18,-16.94 1.15,-1.87 6.31,-1.31 8.18,-1.38 8.08,-0.29 14.9,1.96 18,-7.68 l 25,14.26 13,-8.69 12,-1.03 14,-5.54 c 5.75,12.64 13.58,32.98 30,27 3.79,9.74 16.24,10.4 23.61,3.44 3.33,-3.14 4.18,-8.04 7.6,-11.13 3.02,-2.72 7.55,-2.66 10.35,-5.7 5.99,-6.52 -6.87,-12.46 -0.21,-19.27 9.98,-10.2 17.44,5.16 26.65,4.86 5.8,-0.19 9.05,-8.55 14,-11.02 6.73,-3.36 18.47,0.3 25,2.82 1.46,-5.8 2.71,-14.84 -2,-19 v -1 l 8,-3 v -1 c -6.26,-2.84 -10.98,-8.04 -12,-15 h -3 l 3,-10 c -17.91,-4.96 -4.1,-15.01 -3.31,-26 0.58,-8.05 -3.56,-15.14 -6.09,-22.09 -1.19,-3.27 0.44,-6.71 -1.25,-9.91 -2.34,-4.42 -16.55,-12.1 -21.35,-12.85 -4.08,-0.64 -11.06,1.52 -14.26,-1.75 -2.9,-2.97 -1.41,-8.68 -2.46,-12.4 -0.74,-2.57 -4.18,-6.01 -3.65,-8.68 0.53,-2.67 7.2,-3.56 9.37,-4.23 5.89,-1.81 7.35,-5.4 12.15,-7.49 4.37,-1.91 13.1,-0.61 11.36,-8.54 -1.59,-7.28 -18.15,-4.46 -23.4,-9.29 -4.79,-4.4 -7.3,-13.62 -4.08,-19.68 1.73,-3.26 5.89,-5.11 6.39,-9.05 0.49,-3.92 -4.16,-4.78 -4.83,-8.14 -0.56,-2.8 2.33,-6.42 3.41,-8.9 l -3,-3 6,-2 -4,-7 3,-1 v -1 l -8,-1 5,-3 v -1 c -2.52,-0.4 -5.09,-0.91 -5.15,-4.06 -0.24,-11.23 7.64,-18.67 -1.85,-28.94 l 6,-2 c -5.19,-8.4 -2.01,-18.44 8,-23 l -1,-10 c -13.62,7.62 -31.68,11.94 -47.96,15.34 -3.41,0.72 -5.67,3.64 -9.05,4.31 -4.31,0.84 -8.56,-0.66 -12.95,0.74 -3.51,1.12 -5.65,4.34 -9.05,5.58 -3.85,1.41 -8.06,-0.88 -11.95,0.63 -6.99,2.73 -8.31,13.05 -15.87,16.38 -3.41,1.51 -6.62,-1.2 -10.17,-0.52 -6.51,1.25 -11.93,7.39 -18.29,9.36 -3.87,1.2 -7.6,-2.11 -11.71,-0.93 -8.65,2.49 -12.98,8.84 -23,7.88 -6.42,-0.61 -8.96,-7.43 -16,-8.77 l 7,-7 -12,-11 c 5.25,-8.38 1.44,-19.11 -10,-16 l -1,-12 10,-2 c -0.1,-11.76 -7.95,-16.59 -13.36,-26 -1.84,-3.2 0.13,-6.54 -1.26,-9.69 -1.56,-3.52 -13.79,-9.31 -17.38,-9.95 -6.82,-1.23 -16.31,2.25 -24,1.64 -0.49,-2.38 -0.96,-4.47 -3.23,-5.82 -3.07,-1.84 -6.37,-0.19 -9.6,-0.9 -5.28,-1.16 -15.25,-8.51 -18.82,-0.22 -2.88,6.7 4.13,12.67 6.65,17.94 z"
     id="path384-7-9-7" />
  <path
     onclick="pokaz(this)"
     d="m 1619.7051,1332.303 c -6.0548,0.2544 -10.8125,7.918 -15.7813,10.8711 -10.68,6.33 -19.24,2.4999 -29,-3.1601 l -5.4199,33 -5.5801,16 c -9.23,2.87 -21.49,-3.72 -19,11 l -2,5 -16.1699,24.3203 -28.6094,14.75 -9.3203,13.5508 -22.9004,14.0195 -22,19.3594 c 0.1205,0.6497 -0.039,1.3956 -0.3711,2.1972 0.1219,-0.067 0.2499,-0.1294 0.3711,-0.1972 l 1,10 c -10.01,4.56 -13.19,14.6 -8,23 l -6,2 c 9.49,10.27 1.6096,17.7094 1.8496,28.9394 0.06,3.15 2.6304,3.6606 5.1504,4.0606 v 1 l -5,3 8,1 v 1 l -3,1 4,7 -6,2 3,3 c -1.08,2.48 -3.9701,6.1004 -3.4101,8.9004 0.67,3.36 5.3201,4.2206 4.8301,8.1406 -0.5,3.94 -4.6607,5.7888 -6.3907,9.0488 -3.22,6.06 -0.7099,15.2797 4.0801,19.6797 5.25,4.83 21.8104,2.011 23.4004,9.291 1.74,7.93 -6.9894,6.6291 -11.3594,8.5391 -4.8,2.09 -6.2604,5.6802 -12.1504,7.4902 -2.17,0.67 -8.8391,1.5605 -9.3691,4.2305 -0.53,2.67 2.9084,6.1097 3.6484,8.6797 1.05,3.72 -0.439,9.4304 2.461,12.4004 3.2,3.27 10.1797,1.11 14.2597,1.75 4.8,0.75 19.0096,8.4296 21.3496,12.8496 1.69,3.2 0.06,6.6401 1.25,9.9101 2.53,6.95 6.6699,14.0399 6.0899,22.0899 -0.79,10.99 -14.5995,21.04 3.3105,26 l -3,10 h 3 c 1.02,6.96 5.74,12.16 12,15 v 1 l -8,3 v 1 c 4.7056,4.156 3.4621,13.1818 2.0039,18.9824 6.4919,2.7339 12.7488,6.332 19.9961,5.9785 9.33,-0.45 17.81,-5.6612 27,-6.7812 15.49,-1.87 33.6,9.8003 38,24.8203 5.28,-1.59 6.15,-9.4999 12,-9.4199 3.77,0.05 7.54,3.5606 11,4.8906 13.52,5.18 16.2001,9.9202 25.3301,20.4902 2.67,3.1 6.4896,5.3088 8.3496,9.0488 3.43,6.86 -0.4387,15.6214 7.3613,20.1914 6.74,3.95 17.079,9.0584 24.959,9.5684 3.74,0.25 8.3399,-3.1686 11.8399,-1.5586 4.38,2.02 0.2804,7.7187 4.4004,10.1387 9.13,5.36 15.6297,-1.4602 23.7597,0.8398 6.64,1.89 6.861,10.3013 13.041,12.7813 11.7,4.69 25.789,0.4989 36.959,4.6289 5.84,2.17 7.421,9.4001 13.041,11.6601 7.77,3.12 17.299,-1.8003 24.959,0.6797 6.53,2.12 11.3795,10.4205 18.9395,9.7305 7.4,-0.68 2.7412,-12.3899 2.5312,-16.6699 -0.57,-11.59 -13.6407,-31.58 -26.4707,-30 l 1,-7 -9,3 c 0.17,-5.44 5.94,-13.62 -2,-15 -0.13,-6.62 3.661,-11.46 3.961,-18 0.76,-16.65 -3.1316,-33.86 -6.8516,-50 -1.74,-7.59 -3.6096,-16.01 -7.0996,-23 -2.02,-4.03 -7.3689,-8.7601 -6.8789,-13.5801 0.65,-6.36 8.5387,-12.3999 11.9687,-17.4199 6.48,-9.49 9.9803,-21.65 16.7403,-30.6699 2.84,-3.79 7.6093,-5.5392 10.5293,-9.3692 10.15,-13.33 15.9707,-30.2012 25.2207,-43.9512 14.21,-21.13 30.5605,-41.5297 44.5605,-63.0097 2.34,-3.6 2.3891,-8.2199 4.7891,-11.6699 2.09,-3.02 5.9202,-4.0694 8.2402,-6.8594 9.94,-11.92 18.8307,-25.9507 28.4707,-38.4707 4.67,-6.06 12.2799,-12.86 15.0899,-20 2.59,-6.57 -3.5802,-8.88 -8.7403,-9 l -1.0605,-9.3789 -19.9395,-1.6211 4,-14 h -5 c -1.22,-3.69 -3.31,-3.88 -7,-4 l -3,-11 -17,13 h -1 c -3.2,-3.3 -10.05,-9.1489 -15,-8.5489 -3.95,0.48 -6.6798,4.6189 -8.8398,7.5489 -6.13,8.28 -14.8502,16.7 -19.1602,26 -5.49,-1.84 -9.54,-0.17 -15,-0.5 -12.69,-0.76 -24.82,-2.66 -38,-2.5 -5.44,0.07 -10.6,2.51 -16,2.25 -4.52,-0.23 -20.9398,-3.7404 -20.8398,-9.6504 0.11,-6.63 13.5498,-4.6396 15.8398,-11.5996 -12.84,0 -27.15,-0.25 -39,5 -6.22,-8.33 -13.05,-15.41 -23,-17 l 2,-7 c 3.83,-0.01 9.9005,0.1108 10.2305,-5.1992 0.14,-2.35 -3.3813,-5.9804 -0.6113,-7.9004 2.3,-1.6 7.7608,1.6297 10.3808,1.9297 8.87,1 12.4,-2.7901 17,-9.8301 h -9 v -2 l 5,-6 -9,2 c -0.09,-4.8 1.74,-8.08 -3,-11 v -5 c 4.05,-2.92 2.96,-6.92 1,-11 l -6,3 -4,-6 c -11.5,2.64 -14.19,-4.2594 -25,-7.3594 -5.44,-1.57 -11.8598,-0.9201 -16.8398,-4.0801 -3.02,-1.92 -2.7299,-5.6307 -4.9199,-8.2207 -4.01,-4.73 -9.8003,-3.5598 -15.2403,-3.3398 2.58,-9.31 10.9796,-18.4605 12.5196,-27.9805 0.75,-4.62 -3.5993,-5.6702 -6.1993,-8.4102 -6.6,-6.92 -11.3405,-11.8795 -22.3105,-13.2695 -0.4156,-0.053 -0.8249,-0.068 -1.2285,-0.051 z"
     id="path308-3-5-0" />
  <path
     onclick="pokaz(this)"
     d="m 362.92383,554.01369 c -0.084,7.071 -3.252,9.391 -9,13 0.482,5.439 -3.325,5.887 -8,6 l 4,8 c -4.739,1.111 -9.18,3.313 -11,8 4.698,5.388 -3.717,7.338 -8,9 l -3,-5 h -1 c -11.651,9.938 -22.744,10.019 -29,-6 -10.737,0.468 -21.95099,5.68856 -30.95899,11.35156 -3.111,1.956 -5.43676,6.89835 -9.13476,7.52735 -3.62,0.615 -8.37325,-2.06191 -11.90625,-2.87891 l -1,1 7,17 c -13.435,3.87 -25.804,12.10827 -39,16.94727 -6.788,2.489 -13.51,4.86673 -16,-3.94727 l -10,7 c -1.54,-8.504 -7.814,-12.303 -15,-16 l -3,8 5,1 c -1.768,4.86 -4.304,4.709 -9,4 l -3,5 c 2.081,14.26 -7.32631,11.52681 -12.82031,21.13281 -2.458,4.297 -0.65958,10.17519 -1.39258,14.86719 -0.835,5.352 -10.08964,20.10197 -14.80664,22.54297 -10.285,5.322 -16.84147,-14.37197 -23.98047,-1.54297 -8.683,-3.197 -16.682002,-5.907 -21.000002,5 6.244,4.247 18.015252,10.839 19.281252,19 0.841,5.418 -1.95444,10.687 -2.14844,16 -0.195,5.301 1.33733,9.043 -1.51367,14 -6.506006,11.31 -19.932236,18.865 -18.365236,34 0.477,4.605 3.61836,8.566 4.81836,13 1.745,6.454 -0.130922,15.08742 4.580078,20.48242 5.1,5.841 17.257238,6.98954 18.990238,15.51953 1.723,8.483 -1.64358,21.86205 -1.64258,30.99805 0,4.497 -0.901,10.031 3,13 l -1,2 8,4 c -5.049,17.043 -0.60767,37.69 -8.13867,54 -3.023,6.547 -10.0978,15.617 -14.966801,21 -3.259,3.603 -8.393625,6.74063 -8.765625,12.01563 -0.419,5.937 4.824282,9.76937 6.738282,14.98437 2.643,7.203 -0.594771,16.13051 3.990234,22.81051 4.06,5.93 12.08223,6.5595 14.49023,14.1895 2.405,7.62 3.37205,20.7909 -0.62695,27.9609 -2.255,4.05 -8.75286,6.1588 -9.25586,11.0488 -0.838,8.17 9.28725,11.18 14.53125,14 4.425,2.39 6.03342,7.4609 10.10742,10.1309 4.764,3.13 10.14549,1.9789 14.89649,5.8789 3.974,3.26 15.867,11.6605 8,15.9805 1.43109,4.1662 0.53461,14.7214 1.8125,22.8476 0.0537,-0.2816 0.1103,-0.5632 0.1875,-0.8476 l 7,1 c 0.218,-10.19 4.441,-9.18 13,-9 0.44,-9.46 4.77519,-6.8396 10.36719,-11.5996 6.012,-5.12 8.78781,-11.9204 17.63281,-12.4004 v 6 c 12.538,-0.99 14.237,7.77 25,11 0.074,-8.15 1.783,-21.99 12,-19 -1.106,-4.64 -3.04558,-15.5696 0.85742,-19.3496 2.639,-2.55 12.89258,-1.5296 16.14258,-0.5196 10.789,3.36 28.46,13.3692 26,26.8692 7.793,-1.22 6.933,-11.34 15,-10 l 5,-14 4,1 1,-15 22,-1 7,-41 9,-5 c -0.068,-4.16 2.196,-4.85 6,-4 l 3,-8 c 8.814,0.52 10.743,-4.6601 13,-12.00001 l 7,2 c -0.185,-4.12698 -3.46206,-4.57355 -4.53906,-8.06055 -1.294,-4.18599 9.40406,-2.93945 11.53906,-2.93945 l -1,6 c 10.897,2.731 16.653,10.20001 29,9.00001 l -5,18 11,-1 -6,14 18,10 c 1.496,-14.6 13.9957,-20.05 21.7207,-31 2.515,-3.56 1.55749,-7.18 3.02149,-11 1.17668,-3.07166 4.81977,-7.63964 8.54101,-8.58009 0.20008,-0.70107 0.43464,-1.20491 0.7168,-1.41992 -1.966,-4.732 -0.47597,-9.36209 -2.29297,-13.99609 -5.975,-15.237 -19.13203,-17.99991 -31.70703,-25.00391 l -12,13 -1,-5 c -4.211,0.477 -5.618,-0.564 -8,-4 h -13 l 6.13867,-9.95898 -2.13867,-10.04102 3,-1 -3,-10 c -6.641,0.156 -13.76314,6.66505 -19.99414,4.87305 -3.663,-1.053 -5.42277,-4.48313 -8.25977,-6.70313 -3.163,-2.476 -6.25797,-4.65839 -6.29297,-9.15039 -0.044,-5.638 8.30058,-7.12215 4.51758,-13.91015 -3.838,-6.888 -29.86341,-2.11078 -21.81641,-18.05078 0.936,-1.854 2.27171,-2.8106 3.84571,-4.0586 -1.059,-7.068 -6.20247,-12.47667 -7.48047,-19.01367 -0.762,-3.898 1.09153,-8.06433 1.14453,-11.98633 0.184,-13.593 -0.17106,-22.622 12.33594,-30 l -2.87891,-20.99805 -20.12109,-22.00195 8,-4 c 0.303,5.484 2.575,7.188 7,10 l 3,-7 -3,-1 3,-4 c -1.11,-8.234 -6.17652,-11.3339 -8.85352,-18.1289 -1.206,-3.061 1.65925,-5.66418 1.03125,-8.70118 -1.404,-6.8 -7.92529,-13.33398 -9.02929,-20.20898 -1.177,-7.333 -1.55744,-17.38994 5.85156,-20.96094 l -2,-11 25,-4.91797 8.97265,-2.68164 -1.05273,-20.90429 -4.94922,-7.4668 10.0293,-3.0293 -2,-7 7,-1 v -62 c 10.285,-3.006 8.177,-16.743 7,-24 z"
     id="path190-6-2" />
</svg>
