<?xml version="1.0" encoding="UTF-8" standalone="no"?>
<svg
   viewBox="0 0 118.62015 110.91972"
   version="1.1"
   id="svg1"
   xmlns="http://www.w3.org/2000/svg">
<style>path {fill:#e0e0e0;fill-opacity:1;stroke:#ffffff;stroke-width:0.529167}</style>
<path
       onclick="pokaz(this)"
       d="m 89.461072,59.154494 2.20741,3.6793 c 0,0 0.72557,-1.22828 0.72557,-1.22828 l 2.19202,-0.003 0.36227,-0.73686 0.97573,0.36692 1.96212,3.31126 c 0,0 1.82557,-0.24785 1.82557,-0.24785 l 0.482018,-1.22796 c 0,0 -0.612908,-0.98105 -0.612908,-0.98105 l 2.432898,-0.61682 c 0,0 -0.007,-1.71826 -0.007,-1.71826 0,0 -1.2228,-1.22576 -1.2228,-1.22576 l 0.48202,-1.22796 2.19647,1.10178 0.22836,-3.68247 1.57998,-0.73843 1.94882,0.12023 c 0,0 -0.36883,-0.85868 -0.36883,-0.85868 0,0 0.97414,-10e-4 0.97414,-10e-4 l -0.003,-0.8591 -0.73314,-0.61277 0.47901,-1.96443 -0.36936,-0.98144 -0.3633,0.49141 -2.92603,-0.85553 c 0,0 -0.007,-1.71839 -0.007,-1.71839 l -2.55884,-0.36505 0.36433,-0.24594 -1.57906,0.98393 -0.482038,1.22807 -2.43202,0.86225 c 0,0 0.97932,1.22621 0.97932,1.22621 l -0.2405,0.73676 -0.97576,-0.36701 -3.64622,1.723 -0.72049,2.45578 -1.82266,0.98428 c 0,0 0.007,1.71833 0.007,1.71833 0,0 -1.33347,1.47463 -1.33347,1.47463"
       id="path28" /><path
       onclick="pokaz(this)"
       d="m 103.87292,46.700564 -2.59993,-0.37074 c 0,0 0.43323,-0.21732 0.43323,-0.21732 l -1.877908,-0.80558 -0.21729,-1.96601 -1.30019,-0.73134 2.021868,-0.86812 -1.950138,-0.66032 -0.21687,-0.65574 0.86619,-1.38079 c 0,0 -0.57806,-0.87513 -0.57806,-0.87513 l -1.51683,-0.51358 c 0,0 0.50528,-0.87218 0.50528,-0.87218 0,0 -0.86723,-1.67666 -0.86723,-1.67666 l -0.2889,-0.002 c 0,0 1.08284,-1.59862 1.08284,-1.59862 l -0.79568,-3.64199 2.16688,0.51536 1.08275,-1.81703 c 0,0 -0.0722,-0.14575 -0.0722,-0.14575 l 1.733368,0.0777 2.16553,-3.63432 3.32158,-2.10208 1.37245,0.95004 c 0,0 0.14505,2.11156 0.14505,2.11156 l 2.74426,-0.57492 3.22633,0.60323 c 0,0 1.1788,-0.22749 1.1788,-0.22749 0,0 0.50588,1.45724 0.50588,1.45724 0,0 -1.66039,1.81557 -1.66039,1.81557 l 2.16733,3.42715 0.43336,0.29223 -1.0822,3.78222 1.80626,3.78989 c 0,0 0.0722,-10e-5 0.0722,-10e-5 l -0.79414,0.65299 -4.18809,1.08075 -1.87793,-1.38803 -2.74347,2.46761 c 0,0 1.15586,1.45883 1.15586,1.45883 0,0 -0.21602,2.18313 -0.21602,2.18313 0,0 0.43355,0.94737 0.43355,0.94737 l -1.87738,0.5774 c 0,0 -0.93845,1.16205 -0.93845,1.16205 l -2.96095,-0.88112 -5.3e-4,-1.74728"
       id="path30" /><path
       onclick="pokaz(this)"
       d="m 86.169652,17.315934 3.10568,-0.57393 c 0,0 0.86635,-1.2354 0.86635,-1.2354 0,0 4.76726,-0.0594 4.76726,-0.0594 l 0.57663,-3.56606 5.055658,-1.36929 4.83976,1.90632 3.97325,3.21442 0.28953,2.25775 -2.02173,1.59604 -0.43241,3.05647 -3.53827,2.31986 -2.16554,3.63432 -1.733358,-0.0777 c 0,0 -0.57828,-1.5304 -0.57828,-1.5304 l -3.39434,0.28205 c 0,0 -0.72263,-1.09398 -0.72263,-1.09398 l -1.7336,-0.44151 c 0,0 -2.02311,-2.04396 -2.02311,-2.04396 l 1.08315,-0.7979 -1.58914,-0.29551 0.43318,-0.58135 -1.95154,-3.71845 -2.45597,-0.2252 -0.65035,-0.6571"
       id="path32" /><path
       onclick="pokaz(this)"
       d="m 0.65896159,60.620294 3.16680001,-0.37243 2.68208,0.24207 c 0,0 1.21256,-1.35215 1.21256,-1.35215 l 0.46606,-4.78896 -1.46891,-1.47156 1.45523,-1.598 1.9476004,-0.49358 1.3421,0.36663 c 0,0 0.007,1.59615 0.007,1.59615 0,0 1.21859,-0.002 1.21859,-0.002 0,0 0.48308,-0.98288 0.48308,-0.98288 0,0 1.09561,-0.24695 1.09561,-0.24695 l -10e-4,-0.24556 -1.84205,-3.19008 c 0,0 0.11094,-2.45587 0.11094,-2.45587 l 1.44486,-3.93091 1.582,-0.49308 c 0,0 0.72681,-0.98324 0.72681,-0.98324 0,0 -0.36558,5.3e-4 -0.36558,5.3e-4 0,0 -0.0163,-3.6838 0.34872,-3.80709 0,0 4.50453,-0.98777 4.50453,-0.98777 l -2.9501,-5.76792 1.20015,-4.17671 c 0,0 -1.22896,-2.33185 -1.22896,-2.33185 l -2.19086,0.61658 0.11425,-1.71942 -1.46024,0.49289 -2.18546,1.84462 -1.21653,0.49266 -0.11804,0.85976 -2.1893304,0.98502 c 0,0 -0.60004,2.08841 -0.60004,2.08841 l -1.09686,0.002 -0.241,0.61431 1.96418,3.19061 0.50118,3.06943 -0.71369,3.93038 -4.20264,14.00334 -3.87430001,5.65309 0.37164,1.35009"
       id="path150" /><path
       onclick="pokaz(this)"
       d="m 16.044482,40.093914 c 0,0 -0.0163,-3.68379 0.22739,-3.68406 l 4.50401,-1.11056 -2.95011,-5.76792 1.32093,-4.42224 1.46397,0.36671 0.10722,-3.31576 1.58366,-0.12464 0.71493,-3.68485 4.26667,0.36354 3.42556,3.06626 c 0,0 0.006,1.35077 0.006,1.35077 l 1.70003,-1.35273 c 0,0 1.21851,-0.002 1.21851,-0.002 0,0 1.08593,-2.45722 1.08593,-2.45722 0,0 3.78222,1.10086 3.78222,1.10086 l 2.45078,3.18981 -0.71771,3.07076 0.73853,1.71817 -3.26892,4.79267 0.49485,1.71839 c 0,0 -1.45302,2.08909 -1.45302,2.08909 l 0.25171,1.84142 c 0,0 0.49485,1.71831 0.49485,1.71831 0,0 -1.81903,1.96673 -1.81903,1.96673 l -2.93185,-1.71535 c 0,0 -2.19213,0.24824 -2.19213,0.24824 l -1.09984,-0.73533 -2.92047,0.86307 -0.47445,2.94746 -2.67732,0.74001 c 0,0 0.60113,-1.84248 0.60113,-1.84248 l -1.22285,-0.98081 0.23721,-1.4737 -2.68526,-0.97904 c 0,0 -1.45576,1.47527 -1.45576,1.47527 l -2.80697,-0.97888"
       id="path152" /><path
       onclick="pokaz(this)"
       d="m 24.048132,42.922314 -1.08453,-1.0222 c 0,0 0.0714,-1.45608 0.0714,-1.45608 l -2.60204,-0.95348 -1.51667,1.45225 -2.52974,-0.73485 c 0,0 -0.72202,1.01758 -0.72202,1.01758 l -1.66187,0.43241 -1.37057,4.0013 c 0,0 -0.0707,2.47546 -0.0707,2.47546 l 1.73632,3.13558 0.29033,2.03951 1.51723,-0.50583 2.4575,0.95298 0.21812,2.1849 -0.35936,3.20252 1.22806,-0.57923 2.81861,0.80812 c 0,0 -1.44656,-2.33349 -1.44656,-2.33349 l -0.001,-1.60182 c 0,0 -1.22944,-1.67775 -1.22944,-1.67775 l 1.08342,-0.79808 2.52865,-0.72158 -1.30114,-0.80422 1.44454,-1.08829 c 0,0 -0.14581,-2.18482 -0.14581,-2.18482 l -0.001,-2.25706 0.21609,-1.16451 -0.14447,0.0726 c 0,0 0.57695,-1.89182 0.57695,-1.89182"
       id="path154" /><path
       onclick="pokaz(this)"
       d="m 35.970252,42.226454 -0.28887,0.29049 -2.81887,-1.75488 -2.23986,0.21247 -1.15654,-0.73112 -2.88978,0.86608 -0.43191,2.83845 -2.52865,0.79423 -0.21609,1.16451 0.001,2.25705 c 0,0 0.14581,2.18483 0.14581,2.18483 l -1.44455,1.08828 1.30115,0.80423 -2.52868,0.72157 -1.08342,0.79809 c 0,0 1.22944,1.67775 1.22944,1.67775 l 0.001,1.60181 c 0,0 1.44656,2.3335 1.44656,2.3335 l -2.81861,-0.80812 -1.0836,0.50683 -0.0722,0.0725 c 0,0 1.80777,2.11595 1.80777,2.11595 l 1.5902,0.87784 c 0,0 0.50615,0.58372 0.50615,0.58372 l 1.58983,0.29525 0.28834,-1.16411 c 0,0 1.0115,-0.14297 1.0115,-0.14297 0,0 0.3606,-1.16393 0.3606,-1.16393 l 1.15607,-0.002 0.14418,-0.58211 c 0,0 -0.65099,-1.16658 -0.65099,-1.16658 l 1.15576,-0.57935 c 0,0 0.93816,-2.03613 0.93816,-2.03613 l 0.86727,0.36621 5.85153,-1.58655 c 0,0 -0.72348,-1.74916 -0.72348,-1.74916 l 1.73334,-1.30604 0.36126,0.002 -7.9e-4,-1.31045 1.37253,-0.5061 -1.88148,-5.31971 0.64981,-0.87204 -0.65119,-1.6728"
       id="path156" /><path
       onclick="pokaz(this)"
       d="m 44.217322,62.996244 c 0,0 -0.86588,2.03608 -0.86588,2.03608 0,0 -1.37139,2.39887 -1.37139,2.39887 l -0.28818,1.52794 -1.08342,0.50678 c 0,0 -1.01214,-1.31283 -1.01214,-1.31283 l -2.74478,1.23047 -1.58962,-0.29522 -1.51791,-1.2414 -1.51742,-0.29504 c 0,0 -0.65074,-0.87527 -0.65074,-0.87527 0,0 -3.54039,-0.22745 -3.54039,-0.22745 l -0.5784,-0.65662 -2.38498,-1.02539 -0.7946,0.36197 c 0,0 -0.7217,1.45423 -0.7217,1.45423 l -1.15613,-0.0758 -0.002,-3.78566 1.58983,0.29525 0.28834,-1.16412 1.0115,-0.14297 0.3606,-1.16393 c 0,0 1.15608,-0.002 1.15608,-0.002 l 0.14417,-0.58211 c 0,0 -0.65098,-1.16658 -0.65098,-1.16658 l 1.15575,-0.57936 c 0,0 0.93816,-2.03612 0.93816,-2.03612 l 0.86728,0.36621 5.85152,-1.58645 -0.72348,-1.74929 1.73334,-1.3059 1.73408,0.0102 0.21699,0.43739 1.95112,0.66026 -0.21601,1.38274 1.08482,2.04134 1.95019,-0.94144 c 0,0 1.44589,1.82378 1.44589,1.82378 0,0 -0.0719,0.72781 -0.0719,0.72781 0,0 1.15654,1.16779 1.15654,1.16779 l -0.1428,3.27554 -1.01116,0.50597"
       id="path158" /><path
       onclick="pokaz(this)"
       d="m 32.583592,61.437854 1.37205,-1.30689 -0.36179,-0.94742 c 0,0 0.57737,-1.16334 0.57737,-1.16334 l 1.73347,-1.01481 1.01174,0.43945 0.84037,-0.7552 1.61623,0.98001 1.30001,-0.87021 1.21523,0.90233 c 0,0 0.44749,1.0676 0.44749,1.0676 l -2.02264,0.57713 c 0,0 -0.7948,-0.14763 -0.7948,-0.14763 l -1.22764,1.08876 c 0,0 0.0728,1.09226 0.0728,1.09226 l -1.08368,0.0701 c 0,0 -0.65061,-0.65693 -0.65061,-0.65693 0,0 -0.57769,0.58092 -0.57769,0.58092 l -0.28848,0.94567 -1.66179,-0.0101 -0.98674,2.81913 c 0,0 -0.88881,2.42329 -0.88881,2.42329 l -0.91337,-0.94998 -1.09395,-0.0873 0.61775,-2.17689 1.74739,-2.9001"
       id="path160" /><path
       onclick="pokaz(this)"
       d="m 41.531792,36.781334 c 0,0 -1.22896,-1.24122 -1.22896,-1.24122 0,0 -1.37165,2.18081 -1.37165,2.18081 0,0 -1.66092,1.74304 -1.66092,1.74304 0,0 0.36181,1.02024 0.36181,1.02024 0,0 -1.66089,1.74305 -1.66089,1.74305 l 0.65122,1.67634 -0.64982,0.87204 1.88148,5.31998 -1.37253,0.50607 8e-4,1.31045 c 0,0 1.37276,-0.002 1.37276,-0.002 l 0.21699,0.43741 1.95112,0.66035 -0.21601,1.38263 1.08481,2.04129 1.95019,-0.94139 1.4459,1.82375 2.3e-4,0.36412 1.01126,-0.36148 1.87619,-4.29022 -2.38601,-3.64648 4.26058,-3.92034 -1.01288,-2.84215 1.15459,-2.76357 c 0,0 -0.79557,-1.67677 -0.79557,-1.67677 l -1.95004,1.37821 -2.67414,-1.46333 -0.21744,-1.31114 -2.02319,-1.2e-4"
       id="path162" /><path
       onclick="pokaz(this)"
       d="m 61.473442,43.821894 c 0,0 -1.73387,-0.22301 -1.73387,-0.22301 l -0.86624,1.38097 -2.74453,1.30326 -2.74637,-2.19144 -2.67229,1.74038 -1.73405,-0.29581 0.0722,-0.0725 -1.0129,-2.84215 1.15458,-2.76357 c 0,0 -0.79557,-1.67677 -0.79557,-1.67677 l -1.95003,1.37821 -2.67415,-1.46333 -0.21743,-1.31114 -2.02309,-0.01 c 0,0 -1.22896,-1.24108 -1.22896,-1.24108 0,0 -1.37165,2.1807 -1.37165,2.1807 0,0 -1.66093,1.74305 -1.66093,1.74305 l -0.28942,-0.72885 -0.21772,-1.74805 1.44394,-2.18054 -0.43445,-1.67597 c 0,0 3.17685,-4.7244 3.17685,-4.7244 l 1.58994,0.5869 2.89136,2.11941 2.31283,1.53525 2.52937,1.24455 2.31166,-0.57627 2.17638,1.19801 0.93044,-0.75285 3.10673,0.22674 1.29969,-1.52545 c 0,0 0.79402,-1.45412 0.79402,-1.45412 l 1.80641,0.73302 c 0,0 0.57872,1.74887 0.57872,1.74887 0,0 0.50576,0.14696 0.50576,0.14696 0,0 -0.0722,0.0725 -0.0722,0.0725 l 2.0234,1.46164 -0.36068,1.16382 c 0,0 0.36182,1.38427 0.36182,1.38427 l -0.2889,0.14484 -0.35991,2.91122 c 0,0 0.5789,2.25832 0.5789,2.25832 0,0 -1.08301,1.23489 -1.08301,1.23489 l 0.0723,0.14576 -2.02253,0.35864 -1.15626,-0.94499"
       id="path166" /><path
       onclick="pokaz(this)"
       d="m 52.144232,22.028164 -2.60045,1.23079 c 0,0 -0.14342,2.18408 -0.14342,2.18408 l 1.22944,2.33334 -1.08347,0.57959 0.36259,2.69505 -2.74479,1.23047 -1.73464,-1.16967 -2.89136,-2.11942 -1.58994,-0.58677 0.0722,-0.0725 c 0,0 -0.79571,-1.67699 -0.79571,-1.67699 l 0.72091,-3.12922 -2.38627,-3.28348 -3.17977,-0.80968 -0.074,-3.20463 1.95114,0.15104 2.74505,-1.30331 0.57608,-3.78513 0.72186,-1.3817304 c 0,0 0.0724,0.1458004 0.0724,0.1458004 l 2.5287,-0.7212004 1.51918,3.4268804 2.09566,0.44268 -2.23821,3.34354 c 0,0 1.08458,1.45944 1.08458,1.45944 l 2.52806,-1.66796 c 0,0 1.51731,-0.002 1.51731,-0.002 l -0.14516,-1.31119 c 0,0 0.86693,-0.21599 0.86693,-0.21599 l -0.21734,-1.16581 3.03425,-0.86542 0.43304,-0.94552 c 0,0 1.37271,-0.14176 1.37271,-0.14176 l 0.72298,0.94864 2.45686,0.73488 1.15626,0.58578 -0.57698,2.18292 -1.95074,-0.0101 5.2e-4,1.16517 -3.39433,3.04906 c 0,0 1.01208,1.24071 1.01208,1.24071 l -1.73339,1.23306 -1.30093,-0.79391"
       id="path168" /><path
       onclick="pokaz(this)"
       d="m 40.642792,8.8757236 c 0,0 0.73645,1.2272504 0.73645,1.2272504 l 2.43377,-0.7395104 1.59834,3.3139004 2.07346,0.4889 -2.17828,3.44091 c 0,0 0.9811,1.47243 0.9811,1.47243 l 2.55069,-1.84484 1.58443,0.12102 -0.12766,-1.35062 c 0,0 0.8518,-0.24654 0.8518,-0.24654 l -0.24897,-1.22772 2.92047,-0.86283 c 0,0 0.48366,-0.86014 0.48366,-0.86014 l 1.46203,-0.002 c 0,0 0.61233,0.73609 0.61233,0.73609 l 2.4398,0.73404 2.07531,0.98001 0.36076,-1.1055 c 0,0 -0.97988,-1.22685 -0.97988,-1.22685 l -0.004,-0.85955 -1.95667,-1.7169904 -2.69399,-3.18982 -2.67785,0.61696 0.95941,-3.56235 c 0,0 -2.92312,0.24877 -3.04615,0.004 -0.2458,-0.49096 -2.19956,-1.47132 -2.19956,-1.47132 l -0.49321,-1.35038002 -1.58454,-0.12111 -0.60658,0.61471 c 0,0 0.61508,1.35025002 0.61508,1.35025002 l -1.20679,2.70298 c 0,0 -3.4081,0.86336 -3.4081,0.86336 l -1.32702,3.07155"
       id="path170" /><path
       onclick="pokaz(this)"
       d="m 61.314692,13.169914 c 0,0 -1.01203,-1.168 -1.01203,-1.168 l 0.0718,-0.8735 -2.09603,-1.6807404 -0.21689,-0.29189 3.46657,-3.12155 c 0,0 0.14347,-2.25708 0.14347,-2.25708 0,0 2.09415,-2.4702 2.09415,-2.4702 l -0.43354,-0.0744 4.91331,0.74197 3.46869,1.97585 1.59059,2.9173 -0.14455,-0.14598 -0.86574,2.83739 4.98528,1.3245604 2.60223,4.1574 c 0,0 -0.14447,2e-4 -0.14447,2e-4 l -1.08225,3.34645 c 0,0 0.86722,0.94895 0.86722,0.94895 l -1.80575,0.43191 c 0,0 -0.21579,2.32934 -0.21579,2.32934 l 0.0719,-0.94636 -3.46763,-0.66477 -1.37253,0.0691 -0.0728,-1.23804 -1.08373,-0.29419 -1.29995,0.94297 -1.4451,-0.58637 -3.39514,0.64606 0.36119,-0.0716 -0.0725,-0.65559 c 0,0 -1.08471,-2.33307 -1.08471,-2.33307 0,0 0.72205,-0.94456 0.72205,-0.94456 l -2.74611,-1.68232 -5.3e-4,-1.3108 -1.3004,0.14239"
       id="path174" /><path
       onclick="pokaz(this)"
       d="m 64.788672,25.338104 1.37395,3.06176 c 0,0 -0.72173,1.52696 -0.72173,1.52696 l 0.50636,1.53043 c 0,0 -2.16627,2.17837 -2.16627,2.17837 0,0 -0.50575,-0.14696 -0.50575,-0.14696 0,0 -0.57873,-1.74898 -0.57873,-1.74898 l -1.80641,-0.73289 -0.79402,1.45399 c 0,0 -1.29968,1.52558 -1.29968,1.52558 l -3.10674,-0.22674 -0.93046,0.74846 -2.32019,-0.13207 -2.16786,-0.48527 -2.52936,-1.24468 -0.5782,-0.36557 2.74479,-1.23047 -0.36258,-2.69505 1.08346,-0.5796 -1.22943,-2.33333 c 0,0 0.14341,-2.18408 0.14341,-2.18408 l 2.60046,-1.23079 1.3009,0.80449 1.73339,-1.23322 c 0,0 -1.01208,-1.24061 -1.01208,-1.24061 l 3.39434,-3.04906 -5.3e-4,-1.16504 1.95074,0.0101 0.57698,-2.18289 0.86715,0.36642 c 0,0 0.43299,-1.09114 0.43299,-1.09114 0,0 -0.0723,-0.0736 -0.0723,-0.0736 0,0 1.3004,-0.14205 1.3004,-0.14205 l 5.3e-4,1.3108 2.74611,1.68233 c 0,0 -0.72202,0.94459 -0.72202,0.94459 0,0 1.08471,2.33306 1.08471,2.33306 l 0.0725,0.65559 -0.36118,0.0716 -0.64781,5.30966"
       id="path176" /><path
       onclick="pokaz(this)"
       d="m 75.485772,35.852644 -4.98395,0.49633 -4.76726,1.3706 -0.36182,-1.38428 c 0,0 0.36068,-1.16395 0.36068,-1.16395 l -2.0234,-1.46151 c 0,0 2.23848,-2.25102 2.23848,-2.25102 l -0.50636,-1.53043 c 0,0 0.72173,-1.52696 0.72173,-1.52696 l -1.37396,-3.06176 0.64784,-5.31363 3.39513,-0.64606 1.4451,0.58637 1.29995,-0.94297 1.08373,0.29419 c 0,0 0.0728,1.23804 0.0728,1.23804 l 1.37252,-0.0691 3.46763,0.66479 c 0,0 -0.0719,0.94634 -0.0719,0.94634 l 1.01158,0.65802 -0.43201,3.56631 c 0,0 0.0732,2.33003 0.0732,2.33003 l 0.36163,1.16589 0.0727,1.2378 c 0,0 0.72287,1.31241 0.72287,1.31241 l 0.001,2.98503 -3.82825,0.49951"
       id="path178" /><path
       onclick="pokaz(this)"
       d="m 78.017842,46.123764 c 0,0 -0.93851,1.23513 -0.93851,1.23513 0,0 0.57814,0.72956 0.57814,0.72956 0,0 -0.64979,0.72615 -0.64979,0.72615 l -1.01134,-0.29382 -1.66002,3.19882 -0.64998,0.28942 -2.23903,0.35822 2.3e-4,0.21837 -2.74505,-0.51673 -0.93866,0.87116 -3.39566,-1.24645 c 0,0 -0.36087,0.72705 -0.36087,0.72705 l -2.24009,-1.6074 c 0,0 -1.58935,-0.22252 -1.58935,-0.22252 0,0 -0.0722,0.2181 -0.0722,0.2181 0,0 -0.36198,-1.67537 -0.36198,-1.67537 l 1.73342,-0.72337 1.01148,0.29382 3.17764,-1.73881 0.36053,-1.52787 -1.44529,-1.16863 c 0,0 1.08302,-1.23476 1.08302,-1.23476 l -0.57891,-2.25843 0.35991,-2.91121 5.05593,-1.51532 4.98395,-0.49634 c 0,0 3.82826,-0.49934 3.82826,-0.49934 l 2.2e-4,0.50958 1.22806,0.29451 2.24033,3.06361 -0.79449,0.0709 c 0,0 0.86728,1.38552 0.86728,1.38552 l -1.15551,0.43365 -1.87826,-0.66013 c 0,0 0.14518,1.82036 0.14518,1.82036 l -0.50501,1.52749 c 0,0 0.93948,1.23989 0.93948,1.23989 l -1.22745,1.16157 -1.15576,-0.0762"
       id="path180" /><path
       onclick="pokaz(this)"
       d="m 55.414482,59.532854 -0.72152,1.81792 -1.80604,-0.0774 -0.93877,0.72559 -1.15634,-0.94938 0.0721,-0.21824 -1.58996,-1.24158 -0.28956,-1.1656 -0.50593,-0.43807 -0.21626,0.94592 -2.09505,0.0677 -0.79459,0.21635 c 0,0 -1.15655,-1.1678 -1.15655,-1.1678 l 0.0721,-0.36382 1.01126,-0.36137 1.87621,-4.29049 -2.38601,-3.64648 4.18835,-3.84757 1.73406,0.2958 2.67229,-1.74027 2.74637,2.19133 2.74453,-1.30326 0.86624,-1.38096 c 0,0 1.73387,0.223 1.73387,0.223 l 1.15628,0.94954 2.02253,-0.35877 1.37298,1.02287 -0.36053,1.52784 c 0,0 -3.17764,1.73887 -3.17764,1.73887 l -1.01148,-0.29385 -1.73342,0.72351 c 0,0 0.36198,1.67536 0.36198,1.67536 l -0.28853,0.94563 -1.66174,-0.51398 -0.36086,0.72707 -1.95094,-0.87873 -1.01118,0.43415 0.57909,2.40393 -2.23882,1.37739 1.87957,2.69849 c 0,0 8e-4,1.52868 8e-4,1.52868 l 0.3612,0.002"
       id="path182" /><path
       onclick="pokaz(this)"
       d="m 41.767272,73.553124 -0.36171,-0.94713 -0.94046,-2.40467 -5.3e-4,-0.87352 c 0,0 0.14457,0.14597 0.14457,0.14597 l 1.08342,-0.50678 0.28818,-1.52794 1.37139,-2.39887 c 0,0 0.86587,-2.03608 0.86587,-2.03608 l 1.01116,-0.50694 0.14281,-3.27554 0.79459,-0.21635 2.09505,-0.0678 0.21626,-0.94588 0.50594,0.4381 0.28956,1.16556 1.58996,1.24159 -0.86543,2.98238 0.57822,0.58381 c 0,0 -0.72146,1.89084 -0.72146,1.89084 l 0.36163,0.87437 1.15599,0.29416 5.3e-4,1.09186 c 0,0 0.86802,2.33154 0.86802,2.33154 l 1.51715,0.29504 c 0,0 0.72297,1.23923 0.72297,1.23923 l -2.60011,0.86688 c 0,0 -0.36068,1.01817 -0.36068,1.01817 l -1.66077,1.45161 c 0,0 -1.58797,2.54367 -1.58797,2.54367 l -1.80642,-0.87796 1.372,-1.08839 -1.37457,-3.93436 c 0,0 -1.58919,0.2144 -1.58919,0.2144 0,0 -3.10594,0.93879 -3.10594,0.93879"
       id="path184" /><path
       onclick="pokaz(this)"
       d="m 69.426822,55.638184 0.50604,0.94763 2.6e-4,0.94626 2.52807,-0.0658 0.28855,-0.87278 1.15565,-0.0702 1.01134,0.29379 c 0,0 -0.72191,0.94449 -0.72191,0.94449 l 0.21747,1.89309 c 0,0 -0.5769,2.25497 -0.5769,2.25497 l 0.43386,1.16575 -1.87738,1.37816 -2.09491,-0.58764 0.57869,2.03962 -1.87756,0.94144 c 0,0 0.72287,1.31202 0.72287,1.31202 0,0 -0.36063,1.23648 -0.36063,1.23648 l -2.31082,1.23145 c 0,0 -1.30077,-1.3862 -1.30077,-1.3862 l -4.91331,-3.21523 c 0,0 -0.57851,-1.38456 -0.57851,-1.38456 l 1.0111,-0.43413 c 0,0 -0.50622,-1.23878 -0.50622,-1.23878 l -2.60086,-0.73456 c 0,0 -7.9e-4,-1.67436 -7.9e-4,-1.67436 l -1.44473,0.0694 -0.28943,-1.01983 -1.37258,-0.0768 c 0,0 -7.9e-4,-1.52879 -7.9e-4,-1.52879 l -1.87958,-2.69849 2.23883,-1.37729 c 0,0 -0.5791,-2.40389 -0.5791,-2.40389 l 1.01119,-0.43429 1.95093,0.87871 0.36087,-0.72708 1.66174,0.51401 0.36065,-1.16385 1.58935,0.22252 2.2401,1.6074 0.36086,-0.72694 3.39567,1.24634 0.93866,-0.87103 2.74505,0.51662 c 0,0 0.0728,1.31054 0.0728,1.31054 0,0 -1.22788,0.21516 -1.22788,0.21516 l 0.21723,1.23804 -1.08328,0.28864"
       id="path186" /><path
       onclick="pokaz(this)"
       d="m 75.284692,74.214584 -0.72157,1.67211 -1.87793,-0.15026 -0.72195,0.72597 -1.01158,-0.94872 -0.79438,0.28914 -1.22838,-1.16764 -1.44452,0.14187 c 0,0 -1.2287,-1.82271 -1.2287,-1.82271 0,0 0.36023,-2.10989 0.36023,-2.10989 l 2.74399,-1.44878 c 0,0 0.36063,-1.23648 0.36063,-1.23648 0,0 -0.72287,-1.31202 -0.72287,-1.31202 l 1.87756,-0.94144 -0.57869,-2.03962 2.09492,0.58778 2.3106,-1.74109 1.44457,0.0767 0.14482,0.87386 1.29992,-0.3606 1.15602,1.02201 c 0,0 1.01108,-0.21576 1.01108,-0.21576 l 2.09444,-0.14021 c 0,0 0.4337,0.94737 0.4337,0.94737 l 0.1449,1.16485 0.50575,0.51089 -1.01087,0.65243 0.36163,1.31109 c 0,0 -1.01041,1.81696 -1.01041,1.81696 l 1.08346,0.36663 c 0,0 -0.50469,2.25499 -0.50469,2.25499 l -3.03265,1.44807 -1.66119,-0.14983 -1.87785,-0.0776"
       id="path188" /><path
       onclick="pokaz(this)"
       d="m 70.950822,75.511034 1.01158,0.94872 0.72194,-0.72596 1.87793,0.15025 0.72157,-1.67211 1.87786,0.0772 1.66118,0.1497 3.03266,-1.44801 0.43259,-1.89116 c 0,0 1.37213,-0.21489 1.37213,-0.21489 0,0 1.44497,1.45928 1.44497,1.45928 l 2.88846,-0.79325 3.3229,2.62837 2.09537,3.28031 -2.09418,0.1403 -2.16493,4.28837 0.0739,4.58497 -1.58856,0.4327 -1.9503,-1.31477 -2.59905,1.95842 -1.51575,2.10672 -0.28845,1.0909 -0.0722,-0.0736 -1.87722,1.15975 c 0,0 -3.1795,-4.51987 -3.1795,-4.51987 l -1.22785,-0.22128 -1.22968,-4.58813 -1.73402,-1.53268 c 0,0 -1.30093,-2.04118 -1.30093,-2.04118 l 0.5049,-1.60002 -0.57854,-1.67537 c 0,0 -0.4333,0.14444 -0.4333,0.14444 l 0.79438,-0.28829"
       id="path190" /><path
       onclick="pokaz(this)"
       d="m 81.724652,104.42999 1.44357,-1.8157 1.80543,0.29543 0.43278,-1.30878 c 0,0 1.15602,1.6764 1.15602,1.6764 l 1.58832,-0.86935 -1.30027,-1.2401 0.21531,-3.637746 -2.74453,-0.87993 -0.94041,-4.29577 -2.16715,-1.6791 -1.87721,1.15975 c 0,0 -3.1795,-4.51988 -3.1795,-4.51988 l -1.22785,-0.22127 -1.22968,-4.58814 -1.73403,-1.53268 c 0,0 -1.30093,-2.04115 -1.30093,-2.04115 l 0.50491,-1.60002 c 0,0 -0.57854,-1.67539 -0.57854,-1.67539 l -0.43331,0.14443 -1.22838,-1.16763 -1.44452,0.14187 c 0,0 -1.0841,-1.53115 -1.0841,-1.53115 l -0.57769,0.36248 -1.44378,1.88881 -1.15583,-0.29411 -1.58883,0.57827 2.74611,2.84533 0.21734,1.45632 -1.37234,0.0694 c 0,0 -0.72157,1.59938 -0.72157,1.59938 l -1.44317,3.12605 -1.37268,-0.6585 -0.50483,1.67278 -2.09455,0.35872 c 0,0 -2.31029,2.39601 -2.31029,2.39601 l 3.1803,4.66567 1.66065,-1.30596 1.66143,0.36804 1.08516,3.85974 1.51643,-0.72414 3.39699,5.611806 1.37244,0.51279 c 0,0 0.43527,4.51273 0.43527,4.51273 l 3.10674,3.42742 3.03345,1.02594 c 0,0 1.15461,-2.03477 1.15461,-2.03477 l 1.94956,-0.65016 1.00981,-3.05383 1.22716,-1.23414 1.15573,0.80327"
       id="path192" /><path
       onclick="pokaz(this)"
       d="m 84.452502,61.136224 c 0,0 0.64934,-1.8179 0.64934,-1.8179 l 1.58859,-0.86947 c 0,0 1.44449,0.14935 1.44449,0.14935 l 1.30024,0.7312 c 0,0 0.0722,-0.0725 0.0722,-0.0725 l 2.16789,3.6449 c 0,0 0.79391,-1.38096 0.79391,-1.38096 l 2.16659,0.1512 0.36084,-0.72694 1.01113,0.29374 1.95093,3.35306 c 0,0 1.66087,-0.21415 1.66087,-0.21415 0,0 1.155858,1.38584 1.155858,1.38584 l -2.527348,0.35742 -1.37179,0.94266 1.80594,1.75138 -3.03212,2.39391 1.22803,1.16768 c 0,0 -0.79383,1.52628 -0.79383,1.52628 l 8e-4,3.12949 -2.96069,-0.008 -1.80636,-2.84295 -3.32291,-2.6285 -2.88845,0.79327 c 0,0 -1.44497,-1.45931 -1.44497,-1.45931 0,0 -1.37213,0.21492 -1.37213,0.21492 l 0.0721,-0.36377 -1.08347,-0.36661 1.01042,-1.81709 c 0,0 -0.36161,-1.31095 -0.36161,-1.31095 l 1.01087,-0.65257 c 0,0 -0.50575,-0.51081 -0.50575,-0.51081 l -0.14489,-1.16496 1.51622,-1.23343 c 0,0 -0.93949,-1.53091 -0.93949,-1.53091 l 1.58877,-1.0143"
       id="path734" /><path
       onclick="pokaz(this)"
       d="m 90.731072,48.486494 0.28852,-1.0183 c 0,0 1.37216,-0.21482 1.37216,-0.21482 l 1.08315,-0.50657 0.2885,-1.09122 -1.44494,-1.38689 0.72115,-3.12817 -0.72239,-0.43868 c 0,0 -0.36095,0.50864 -0.36095,0.50864 0,0 -1.2278,0.002 -1.2278,0.002 0,0 0.0722,-0.14544 0.0722,-0.14544 l -0.43426,-2.54897 c 0,0 -0.79481,-0.87564 -0.79481,-0.87564 l 2.45523,-1.30384 1.22803,0.58569 0.79391,-1.6723 2.5278,-0.13881 c 0,0 0.86723,1.67667 0.86723,1.67667 l -0.50528,0.87217 1.51683,0.51361 0.57807,0.87513 -0.8662,1.38081 0.21688,0.65572 1.950138,0.66034 -2.021868,0.8681 1.30019,0.73131 0.21729,1.96601 1.877928,0.80558 -1.51627,0.94226 -0.577328,1.30879 -2.38297,0.79449 c 0,0 1.08366,1.16739 1.08366,1.16739 l -0.28858,0.87268 -1.01119,-0.36655 -3.6105,1.81035 -0.79357,2.47267 -1.73294,1.0146 0.0728,1.60157 c 0,0 -1.51606,1.59732 -1.51606,1.59732 l -1.30024,-0.73118 c 0,0 -1.44449,-0.14935 -1.44449,-0.14935 l -1.58859,0.86934 c 0,0 -0.64931,1.81801 -0.64931,1.81801 l -1.58854,1.01494 c 0,0 0.93949,1.53093 0.93949,1.53093 l -1.51622,1.23354 -0.43371,-0.94736 -2.09444,0.14021 c 0,0 -1.01108,0.21577 -1.01108,0.21577 l -1.15602,-1.02203 -1.29992,0.3606 -0.14481,-0.87373 -1.4446,-0.0767 -0.43322,0.36277 c 0,0 -0.43387,-1.16573 -0.43387,-1.16573 0,0 0.5769,-2.25499 0.5769,-2.25499 l -0.21747,-1.89323 c 0,0 0.72191,-0.94437 0.72191,-0.94437 l -1.01134,-0.2938 -1.15565,0.0702 -0.28855,0.87276 -2.52807,0.0659 -2.6e-4,-0.94628 -0.50605,-0.94774 1.08337,-0.28824 -0.21723,-1.23817 c 0,0 1.22785,-0.21516 1.22785,-0.21516 0,0 -0.0729,-1.52893 -0.0729,-1.52893 l 2.81676,-0.42936 1.73214,-3.41683 1.01135,0.29387 0.64979,-0.72631 -0.57814,-0.72943 c 0,0 0.9385,-1.23512 0.9385,-1.23512 l 1.15573,0.0759 1.22745,-1.16144 c 0,0 0.79489,0.9484 0.79489,0.9484 l 2.3114,0.22447 c 0,0 1.58964,1.7513 1.58964,1.7513 l 5.3e-4,1.23743 c 0,0 0.86662,-0.21615 0.86662,-0.21615 l 1.8058,0.5143 c 0,0 1.37224,-0.002 1.37224,-0.002 l 0.28866,-0.65437 1.73363,0.80526 -0.43378,-1.16523"
       id="path736" /><path
       onclick="pokaz(this)"
       d="m 85.963272,48.983914 -0.86661,0.21613 -5.3e-4,-1.23757 c 0,0 -1.58964,-1.75114 -1.58964,-1.75114 l -2.3114,-0.22447 c 0,0 -1.73438,-2.18855 -1.73438,-2.18855 0,0 0.50502,-1.52736 0.50502,-1.52736 0,0 -0.14518,-1.82036 -0.14518,-1.82036 l 1.87825,0.66011 1.15552,-0.43363 -0.86728,-1.38552 1.15562,-0.14258 0.65024,0.43858 1.51664,-0.43273 1.3725,0.44037 c 0,0 0.43373,1.02031 0.43373,1.02031 l 2.74506,1.24484 0.21644,-0.65455 1.87785,0.01 0.36094,-0.50863 0.7224,0.43868 -0.72115,3.12817 1.44494,1.38689 -0.2885,1.09112 -1.08315,0.5067 -1.37216,0.21479 -0.28853,1.01833 c 0,0 0.43376,1.16578 0.43376,1.16578 l -1.73363,-0.80526 -0.28866,0.65437 c 0,0 -1.37223,0.002 -1.37223,0.002 l -1.80589,-0.52459"
       id="path738" /><path
       onclick="pokaz(this)"
       d="m 90.365942,38.511704 c 0,0 -0.79481,-0.87564 -0.79481,-0.87564 l 2.45523,-1.30384 1.22804,0.58566 c 0,0 0.79388,-1.67217 0.79388,-1.67217 l 2.2389,-0.13968 c 0,0 1.08284,-1.59864 1.08284,-1.59864 l -0.79568,-3.64199 2.16688,0.51538 c 0,0 1.08275,-1.81705 1.08275,-1.81705 0,0 -0.65055,-1.67616 -0.65055,-1.67616 l -3.39434,0.28205 c 0,0 -0.72263,-1.09398 -0.72263,-1.09398 l -1.73361,-0.44151 c 0,0 -2.02311,-2.04396 -2.02311,-2.04396 l 1.08316,-0.7979 -1.58915,-0.29551 0.43318,-0.58135 -1.95154,-3.71845 -2.45597,-0.22509 -0.72257,-0.65727 -2.16726,-0.58846 c 0,0 -1.51768,-1.89723 -1.51768,-1.89723 l -2.67255,0.21113 -1.08225,3.34618 c 0,0 0.86722,0.94896 0.86722,0.94896 l -1.80575,0.4319 c 0,0 -0.21578,2.32934 -0.21578,2.32934 l 1.01158,0.65802 -0.43201,3.56632 c 0,0 0.0732,2.33003 0.0732,2.33003 l 0.36163,1.16588 c 0,0 0.0727,1.23794 0.0727,1.23794 0,0 0.72284,1.31238 0.72284,1.31238 l 0.001,3.49462 1.22806,0.29451 2.24033,3.06361 0.36113,-0.0716 0.65024,0.43857 1.51665,-0.43286 1.3725,0.44051 0.43373,1.02031 2.74505,1.24481 0.21644,-0.65466 1.87786,0.01 c 0,0 -1.2278,0.002 -1.2278,0.002 0,0 0.0722,-0.14532 0.0722,-0.14532 l -0.43432,-2.55905"
       id="path740" /><path
       onclick="pokaz(this)"
       d="m 50.789572,61.048914 -0.79328,2.76437 0.57822,0.5838 c 0,0 -0.72146,1.89084 -0.72146,1.89084 l 0.36163,0.87435 1.15599,0.29416 5.3e-4,1.09188 0.86802,2.33154 1.51715,0.29501 c 0,0 0.72297,1.23923 0.72297,1.23923 l -2.60011,0.86704 -0.36068,1.01806 -0.21665,0.1451 2.09532,0.87873 c 0,0 1.01179,1.02153 1.01179,1.02153 l 1.15557,-0.43376 c 0,0 1.15475,-2.10804 1.15475,-2.10804 l 1.5894,0.51361 2.02248,-0.14041 c 0,0 1.30098,1.75006 1.30098,1.75006 l 0.21673,0.0733 -0.2168,-0.21892 1.58882,-0.57827 1.15584,0.29411 1.44378,-1.88881 0.57769,-0.36248 -0.14459,-0.29157 c 0,0 0.36023,-2.10989 0.36023,-2.10989 l 0.43328,-0.2172 c 0,0 -1.30077,-1.38633 -1.30077,-1.38633 l -4.91331,-3.21522 -7e-5,-0.0724 -1.01113,0.36144 0.8672,0.80286 -1.44335,2.90803 -1.66122,0.43254 c 0,0 -0.36197,-1.6751 -0.36197,-1.6751 l -1.08368,-0.2939 0.28741,-3.20225 1.66167,0.44106 -0.073,-1.60168 -1.08381,-0.51229 0.7217,-1.45407 3.10647,0.8087 -2.60085,-0.73459 -7.9e-4,-1.67421 -1.44473,0.0694 -0.28946,-1.01994 -1.01139,-0.0748 c 0,0 -0.72152,1.81806 -0.72152,1.81806 l -1.80605,-0.0774 -0.93877,0.72552 -1.15628,-0.9506"
       id="path760" /><path
       onclick="pokaz(this)"
       d="m 60.690272,67.115814 -0.86719,-0.80296 1.66113,-0.57801 -1.22851,-1.095 1.08336,-0.36119 c 0,0 -0.57849,-1.3118 -0.57849,-1.3118 l -3.10647,-0.80865 -0.72168,1.45407 1.08379,0.51229 c 0,0 0.073,1.60165 0.073,1.60165 l -1.66167,-0.44106 -0.28741,3.20226 1.08368,0.29387 0.36197,1.67513 1.66122,-0.43257 1.44335,-2.90803"
       id="path762" /><path
       onclick="pokaz(this)"
       d="m 52.512002,36.228354 c 0,0 0.36174,1.02034 0.36174,1.02034 l -1.95474,3.80682 0.96742,0.70644 2.50669,0.0775 c 0,0 0.72165,-1.67264 0.72165,-1.67264 0,0 1.01135,-0.14293 1.01135,-0.14293 0,0 0.43267,-1.67341 0.43267,-1.67341 l -1.05479,-0.62635 c 0,0 0.54835,-0.90392 0.54835,-0.90392 l -3.54039,-0.59193"
       fill="#e0e0e0"
       fill-rule="evenodd"
       stroke="#ffffff"
       stroke-width="0.529167"
       id="path764" />
  </svg>
