<?xml version="1.0" encoding="UTF-8" standalone="no"?>
<svg
   viewBox="0 0 100.38394 94.673843"
   version="1.1"
   id="svg1"
   xmlns="http://www.w3.org/2000/svg">
   <style>path {fill:#e0e0e0;fill-opacity:1;stroke:#ffffff;stroke-width:0.529167}</style>
   <path
       onclick="pokaz(this)"
       d="m 78.546584,51.17056 0.0722,0.0736 -1.51635,0.50511 0.28898,2.04026 -0.93874,-0.43993 -0.72205,0.72618 -1.80528,-0.36973 -0.57772,-0.29321 -2.38297,0.21115 0.14464,2.62242 1.2999,1.1694 -1.15501,4.36616 -2.31082,-0.66252 -2.38289,1.30366 0.0723,0.94705 1.01118,2.04226 -0.0722,1e-4 1.44455,3.57294 0.36105,-0.14461 1.22767,1.24177 1.61136,1.03762 4.45426,1.96662 0.86649,0.73075 -0.0722,0.0725 0.36103,-0.0715 4.40452,1.6882 2.0216,-0.0668 -0.0722,-0.0736 3.32105,-2.9755 1.4e-4,-3.13135 2.74347,1.2463 0.14435,-3.2766 -3.82667,-4.96359 3.60997,-1.95516 -2.96042,-4.88844 -2.09388,0.50334 -1.37195,-1.09672 -1.66073,-0.0773 -1.58864,-1.97141 0.21656,-1.01891 -2.16651,-0.59005"
       id="path526" /><path
       onclick="pokaz(this)"
       d="m 67.645744,65.41043 -0.0722,10e-5 1.8052,3.42898 0.68076,0.68537 1.12159,-1.29519 1.85551,0.0204 0.22728,-1.2008 3.59014,1.94956 0.47433,2.34764 0.35534,1.00273 -0.21695,1.54193 0.36103,-0.0715 4.40452,1.6881 2.0216,-0.0668 -0.0722,-0.0724 2.96016,1.5381 -1.44391,1.23359 -0.28876,1.23701 -1.51615,0.2867 0.21666,1.6754 -1.58834,0.35933 2.81569,1.82885 -3.24882,3.33984 -1.66055,0.21357 -0.28874,1.01851 1.66058,0.51465 -1.01071,1.67163 0.14442,0.29173 -2.38236,3.12394 -6.93102,0.70786 0.0722,-1e-4 -4.26032,-3.43482 -6.85933,3.32952 -1.8057,-3.79174 -2.52762,-1.82806 -3e-5,-0.0724 0.14439,-0.21797 4e-5,0.0725 -0.0722,0.0725 1.22761,0.29495 1.22756,-0.0687 -0.65008,-1.45833 1.08315,-0.0698 1.37123,-6.40424 -1.5889,-1.75244 2.09386,-2.397 1.29984,0.22236 -0.21682,-1.67558 0.5053,-1.60059 -3.61104,-2.99694 4.8387,4.02008 0.72211,-0.001 -0.72232,-1.82293 0.79412,-1.74537 -0.65018,-2.62374 -1.29993,-0.80513 0.28874,-1.01873 4.62148,-1.22533"
       id="path528" /><path
       onclick="pokaz(this)"
       d="m 77.538514,73.81624 -0.86648,-0.73014 -4.45426,-1.96633 -1.61137,-1.03849 -1.22766,-1.24177 -0.93869,0.43418 -0.14423,2.11154 2.68949,1.20144 -1.52236,1.64777 0.84508,0.77735 -0.21924,2.85009 2.45988,-2.89295 1.52284,1.67021 0.66064,-1.7449 2.80643,-1.07818"
       id="path530" /><path
       onclick="pokaz(this)"
       d="m 11.241873,57.75868 2.436442,-10e-4 2.066899,-0.98438 c 0,0 7.795154,-0.25191 7.795154,-0.25191 L 23.043136,54.065 c 0,0 1.573081,-2.58091 1.573081,-2.58091 l -0.0075,-1.84266 c 0,0 1.455288,-1.59811 1.455288,-1.59811 l 0.490246,0.7367 1.827187,-2.6e-4 2.212419,4.91199 0.609044,-8e-4 -0.360468,1.22868 -1.580515,0.73829 c 0,0 1.103709,1.84166 1.103709,1.84166 l 1.459177,-0.61534 c 0,0 1.223963,1.47304 1.223963,1.47304 l -0.479293,1.96569 0.249052,1.35094 c 0,0 -0.480774,1.59718 -0.480774,1.59718 l -1.824037,0.73848 0.364913,-0.12311 -1.22002,-0.49033 c 0,0 -1.346809,-1.71852 -1.346809,-1.71852 l -2.67626,0.86201 1.968791,4.91146 -4.860661,2.82919 c -0.243612,2.1e-4 -0.355414,2.45682 -0.469741,4.29922 0,0 -0.731335,-0.12218 -0.731335,-0.12218 l -0.976947,-0.6133 -0.72935,0.36912 c 0,0 0.36994,1.10511 0.36994,1.10511 l -2.187522,1.23012 -0.864711,-2.94692 -1.218116,0.002 -0.01204,-2.94799 -1.707409,-0.48988 -3.037946,1.84505 -1.220205,-0.49027 -0.01162,-2.82522 c 0,0 -0.487283,7.9e-4 -0.487283,7.9e-4 l 0.119293,-0.61428 -2.07854,-1.84082 0.116758,-1.22851 1.458833,-0.73821 1.829329,0.48985 0.336682,-7.0022"
       id="path532" /><path
       onclick="pokaz(this)"
       d="m 42.510331,53.60737 -0.217006,-1.749 c 0,0 -1.155409,1.4533 -1.155409,1.4533 l -1.878145,-0.95274 c 0,0 1.011555,1.75133 1.011555,1.75133 l -3.322372,0.49972 c 0,0 -0.722551,-1.095 -0.722551,-1.095 0,0 -1.444255,1.81665 -1.444255,1.81665 l -2.311902,-2.04674 -1.733497,0.50451 -2.240466,-5.03343 -1.950402,0.0666 -2.167943,-3.06652 c 0,0 -3.178704,-0.73837 -3.178704,-0.73837 L 21.84876,42.54274 19.608929,41.4429 c 0,0 0.938716,-1.74559 0.938716,-1.74559 l -1.951038,-1.60899 -0.144719,-0.87476 -1.300665,-0.87837 0.866484,-1.67298 c 0,0 0.505063,-2.47566 0.505063,-2.47566 l 2.3e-4,0.36428 1.444122,-3.05541 -1.806337,-0.51577 3.033184,-4.36219 -0.07274,-1.676 c 0,0 3.395927,1.6138 3.395927,1.6138 l 2.022528,-1.30498 2.312379,2.41175 3.178704,0.0826 0.145127,2.91465 2.239618,0.88143 0.939483,1.82438 5.490368,2.64017 3.540125,4.30954 -0.288501,2.40302 -1.588956,0.65064 c 0,0 7.94e-4,2.0398 7.94e-4,2.0398 l -1.227878,0.28753 -0.650161,-0.43905 -3.394604,1.30064 c 0,0 7.94e-4,1.09267 7.94e-4,1.09267 l 3.900487,0.3764 5.562071,3.00408 -1.082887,3.05594 -3.106472,1.52087"
       id="path534" /><path
       onclick="pokaz(this)"
       d="m 26.182894,43.14045 2.022792,0.29774 0.578326,1.82298 2.889515,0.37338 0.578564,2.98847 1.733709,0.29667 1.805279,-2.68975 c 0,0 -0.144963,-2.33156 -0.144963,-2.33156 l 3.033183,-2.9046 c 0,0 -0.722841,-2.47914 -0.722841,-2.47914 l -1.372156,1.52553 -2.744787,0.86564 -2.528517,-1.02788 -1.227905,0.57891 c 0,0 -0.650372,-0.94914 -0.650372,-0.94914 l 0.649816,-1.45505 -1.950402,0.28535 0.651086,3.93594 -1.372843,-1.24269 -1.733656,0.50448 0.506069,1.60443"
       id="path536" /><path
       onclick="pokaz(this)"
       d="m 57.678894,58.09735 -1.87764,0.28559 c 0,0 -1.87738,2.32495 -1.87738,2.32495 l -3.32264,-2.85089 -0.72276,-3.3528 -5.272352,0.49353 c 0,0 2.310818,-2.39652 2.310818,-2.39652 l -1.300163,-0.58687 1.082887,-2.98318 -5.562071,-3.00408 -3.900487,-0.37639 c 0,0 -7.94e-4,-1.09268 -7.94e-4,-1.09268 l 3.394604,-1.30061 0.650161,0.43905 1.227878,-0.2875 c 0,0 -7.94e-4,-2.0398 -7.94e-4,-2.0398 l 1.588956,-0.65064 0.144251,-1.16501 6.355816,-2.16543 8.45,-2.81438 2.31122,0.51724 -0.72189,2.83871 -1.58851,3.20014 2.38347,1.31871 1.156,4.22857 1.3,0.51392 0.5779,1.60431 2.52773,1.31889 c 0,0 0.0724,1.52972 0.0724,1.52972 l 1.44438,1.09701 2.52736,-1.30312 1.80535,0.51543 c 0,0 0.93888,1.45957 0.93888,1.45957 0,0 -2.81623,0.20977 -2.81623,0.20977 0,0 0.14465,2.62244 0.14465,2.62244 l 1.29989,1.16938 -1.15501,4.36616 -2.31082,-0.66252 -2.38286,1.30366 -3.32237,-4.45294 -4.40558,-2.12572 c 0,0 -1.15422,2.25433 -1.15422,2.25433"
       id="path538" /><path
       onclick="pokaz(this)"
       d="m 49.093164,50.23658 2.1893,-0.73867 -0.006,-1.47399 1.45854,-0.73811 1.95053,0.48985 1.33771,-0.49236 3.41471,1.22571 -0.36099,1.10572 c 0,0 0.4963,2.33336 0.4963,2.33336 l -1.58461,-0.36727 -0.60262,1.59724 c 0,0 -0.85587,-0.85913 -0.85587,-0.85913 l -1.58126,0.49255 -0.48519,0.4917 -2.06793,0.61576 0.47741,-2.45695 -1.09754,-0.36763 c 0,0 -1.58324,0.002 -1.58324,0.002 l -1.099533,-0.85899"
       id="path540" /><path
       onclick="pokaz(this)"
       d="m 73.347514,53.41158 c 0,0 0.43326,-5.3e-4 0.43326,-5.3e-4 0,0 -0.93887,-1.45958 -0.93887,-1.45958 l -1.80536,-0.51543 -2.52736,1.30328 -1.44438,-1.09704 -0.0724,-1.52982 -2.52773,-1.31892 c 0,0 -0.5779,-1.6043 -0.5779,-1.6043 l -1.3,-0.51393 -1.15599,-4.22857 -2.38348,-1.31858 c 0,0 1.15528,-2.40019 1.15528,-2.40019 l 3.89996,0.95919 1.22767,-0.72451 1.73331,0.66093 2.88872,-1.30204 c 0,0 0.79454,1.82359 0.79454,1.82359 l 2.96069,-0.86482 0.50541,-1.23666 1.29979,-0.79714 1.15535,-1.08899 3.39408,2.2688 -0.86646,1.7454 -1.87743,1.45087 5.3e-4,1.09254 1.51646,0.2961 0.5778,1.82277 c 0,0 -0.57754,2.54741 -0.57754,2.54741 l -1.73296,1.08717 1.51656,2.7723 -1.51635,0.5052 0.28898,2.04015 -0.93875,-0.43982 c 0,0 -0.72204,0.72604 -0.72204,0.72604 l -1.80528,-0.36973 -0.57822,-0.29149"
       id="path542" /><path
       onclick="pokaz(this)"
       d="m 83.023334,40.18506 5.3e-4,-2.40374 -2.52733,0.42918 -0.86654,-0.0755 0.43328,0.29273 -0.86645,1.74541 -1.87743,1.45087 5.3e-4,1.09267 1.51645,0.2961 c 0,0 0.5778,1.82263 0.5778,1.82263 0,0 -0.57753,2.54754 -0.57753,2.54754 l -1.73297,1.08704 1.44436,2.69955 2.16628,0.5893 -0.21656,1.01907 c 0,0 1.58863,1.97128 1.58863,1.97128 l 1.66074,0.0785 1.37194,1.09669 2.5993,-0.6474 3.10462,0.30088 1.73281,-0.94149 -0.28882,-2.40425 2.6715,0.22683 c 0,0 1.58837,1.89836 1.58837,1.89836 l 1.08299,-0.87058 -0.28879,-0.002 -2.16596,-8.74633 c 0,0 0.0722,-0.0725 0.0722,-0.0725 l -1.37184,-0.58701 -0.57761,2.47455 -2.81596,-1.75684 -1.08305,0.28795 -0.64987,-0.94888 -4.47675,0.0586 -1.29979,-1.09657 0.28879,-0.94594 -0.21777,-1.96765"
       id="path544" /><path
       onclick="pokaz(this)"
       d="m 93.275934,46.55358 0.57761,-2.47457 1.37184,0.587 4.54872,-2.89904 0.288786,0.0735 -0.505346,-3.35201 c 0,0 -1.37182,-1.8252 -1.37182,-1.8252 0,0 -1.15522,-1.16903 -1.15522,-1.16903 0,0 1.51627,-1.52472 1.51627,-1.52472 0,0 -0.14438,-2.1857 -0.14438,-2.1857 l -1.51628,-0.36898 -0.50541,-2.18673 -2.16617,-0.15267 -1.51632,0.7965 -1.94958,-0.0797 0.14439,-1.31072 -1.80522,-0.95266 -1.51638,0.57788 -0.21667,-1.31186 -3.17738,-1.61277 c 0,0 -1.58869,-0.2236 -1.58869,-0.2236 0,0 -0.86648,1.45415 -0.86648,1.45415 0,0 -2.09434,-2.26486 -2.09434,-2.26486 0,0 -0.0723,-1.53006 -0.0723,-1.53006 l -1.80533,1.15975 -1.15549,-0.58642 -1.15543,0.72469 0.72226,1.38639 -2.67177,2.97815 3.03319,2.04928 -0.86654,0.65288 -0.21653,1.67479 0.36115,0.94803 -1.22758,1.01597 0.86664,0.7311 c 0,0 0.14455,1.8215 0.14455,1.8215 l 1.08315,-1.01635 2.96095,1.97604 0.86654,0.0755 2.52733,-0.42915 -5.3e-4,2.40371 0.2167,1.96723 c 0,0 -0.28879,0.94607 -0.28879,0.94607 l 1.29979,1.09657 c 0,0 4.47675,-0.0586 4.47675,-0.0586 0,0 0.64987,0.9489 0.64987,0.9489 l 1.08305,-0.28797 2.81649,1.7576"
       id="path546" /><path
       onclick="pokaz(this)"
       d="m 73.490394,28.28145 c 0,0 1.01097,-1.16226 1.01097,-1.16226 0,0 -1.58879,-0.22372 -1.58879,-0.22372 l -1.37203,1.67111 -1.73331,-0.7339 -1.73313,1.59705 -3.03318,-0.0827 -3.17817,-2.63274 -3.10568,0.93726 c 0,0 -0.0723,-0.0737 -0.0723,-0.0737 l -1.08324,1.16215 2.23939,2.99403 -1.15541,1.45333 0.72231,0.51223 c 0,0 7e-5,0.94697 7e-5,0.94697 l 1.95008,0.44331 -0.72189,2.83871 -0.43323,0.79986 3.89996,0.95933 1.22767,-0.72464 1.73331,0.66106 2.88872,-1.30204 c 0,0 0.79455,1.82359 0.79455,1.82359 l 2.96068,-0.86482 c 0,0 0.50541,-1.23677 0.50541,-1.23677 l 1.29979,-0.79713 0.0722,-0.0725 c 0,0 -0.14455,-1.82166 -0.14455,-1.82166 l -0.86665,-0.73109 1.22759,-1.016 -0.36116,-0.94803 0.21654,-1.67479 0.86653,-0.65286 -3.03318,-2.04869"
       id="path548" /><path
       onclick="pokaz(this)"
       d="m 75.151974,13.49918 -5.3e-4,-0.43709 -7.36679,0.12135 -0.93887,0.57976 c 0,0 -0.72234,-0.87662 -0.72234,-0.87662 l -5.9227,-1.03923 0.43349,0.80288 0.28935,3.7166 -0.21648,1.67502 0.43336,-5.3e-4 0.0724,0.65588 1.66114,-0.65037 2.02237,0.73506 -1.94996,1.0137 c 0,0 -1.22764,1.67172 -1.22764,1.67172 l 1.30017,1.09696 -0.50546,0.87254 -1.15563,-0.14934 c 0,0 -0.86659,0.87148 -0.86659,0.87148 l -1.73344,-0.15129 c 0,0 -0.72244,-1.31368 -0.72244,-1.31368 l 4e-5,0.0725 -2.09447,1.08607 -0.86672,0.0706 -0.64979,1.81928 c 0,0 3.39486,0.44794 3.39486,0.44794 0,0 0.93914,1.46002 0.93914,1.46002 l 3.10568,-0.9371 3.17818,2.63274 3.03318,0.0827 1.73315,-1.59716 1.73331,0.73401 c 0,0 1.37203,-1.67111 1.37203,-1.67111 0,0 1.58879,0.2236 1.58879,0.2236 0,0 1.66087,-1.81586 1.66087,-1.81586 l -0.72226,-1.38642 1.15544,-0.72479 1.15549,0.58652 1.80533,-1.15985 c 0,0 0.0723,1.53006 0.0723,1.53006 l -0.14464,-3.64278 -1.87777,-2.19144 1.0832,-0.94369 -0.14447,-0.80172 -0.86667,-0.94993 0.14438,-0.80095 -1.08333,-0.8777 -1.58851,-0.4404"
       id="path550" /><path
       onclick="pokaz(this)"
       d="m 60.491414,24.16189 -1.73344,-0.15117 -0.72245,-1.31379 2.31069,-4.65534 c 0,0 0.79449,-10e-4 0.79449,-10e-4 l 0.0724,0.65598 1.66114,-0.65035 2.02237,0.73507 -1.94996,1.0137 c 0,0 -1.22764,1.67161 -1.22764,1.67161 l 1.30017,1.09704 -0.50546,0.87257 c 0,0 -1.15562,-0.14946 -1.15562,-0.14946 l -0.86665,0.87452"
       id="path552" /><path
       onclick="pokaz(this)"
       d="m 61.211084,7.3343896 c 0,0 -2.02213,2.61628 -2.02213,2.61628 l 1.44494,2.7006004 0.28935,3.7166 -0.21648,1.67505 -0.36113,5.3e-4 -2.31069,4.65508 4e-5,0.0725 -2.09447,1.08603 c 0,0 -6.13939,0.63598 -6.13939,0.63598 l -3.033181,3.05038 -2.961217,2.54042 -0.794015,3.05727 c 0,0 -1.299845,1.88997 -1.299845,1.88997 L 40.84588,34.00836 35.355511,31.36819 34.416029,29.5438 32.17641,28.66237 32.031283,25.74772 c 0,0 -0.43344,5.3e-4 -0.43344,5.3e-4 l 0.433202,-1.09157 1.589114,-0.8692 -1.22846,-1.67971 2.672556,-1.37576 0.288369,-2.84083 c 0,0 3.756025,-2.39231 3.756025,-2.39231 l -1.950667,-0.80785 -0.217688,-4.7368304 1.517068,-0.14078 c 0,0 1.155514,-1.74503 1.155514,-1.74503 0,0 -0.939482,-1.67899 -0.939482,-1.67899 l 1.805913,-0.72274 c 0,0 5.490369,1.11091 5.490369,1.11091 l 4.261908,-0.93321 c 0,0 1.08376,1.46076 1.08376,1.46076 0,0 1.44492,1.53485 1.44492,1.53485 l 0.4332,-1.3829 3.32264,-1.00928 1.44457,-0.57809 5.3e-4,0.72859 1.7336,0.58859 c 0,0 0.79441,-1.01743 0.79441,-1.01743 0,0 0.57785,0.0746 0.57785,0.0746 l 0.14426,1.09082"
       id="path554" /><path
       onclick="pokaz(this)"
       d="m 58.684314,27.58031 c 0,0 -1.08323,1.16215 -1.08323,1.16215 l 2.23938,2.99403 c 0,0 -1.15541,1.4533 -1.15541,1.4533 l 0.72231,0.51223 c 0,0 7e-5,0.94697 7e-5,0.94697 l -0.36113,-0.0734 -8.45,2.81438 -6.35582,2.16543 0.14424,-1.23802 -2.673085,-3.28665 c 0,0 1.299845,-1.8901 1.299845,-1.8901 l 0.794014,-3.05726 c 0,0 2.961217,-2.54043 2.961217,-2.54043 l 3.033179,-3.05011 c 0,0 5.85047,-0.63691 5.85047,-0.63691 0,0 -0.57782,0.0704 -0.57782,0.0704 l -0.64979,1.81925 3.39487,0.44807 c 0,0 0.86696,1.38684 0.86696,1.38684"
       id="path556" /><path
       onclick="pokaz(this)"
       d="m 40.84081,5.7363096 0.649896,-1.45524 c 0,0 -0.722656,-1.24113 -0.722656,-1.24113 l -1.516962,0.57793 c 0,0 -0.289058,-0.43815 -0.289058,-0.43815 l -1.733814,0.14013 c 0,0 -1.083972,-1.53389 -1.083972,-1.53389 l -1.155858,0.3606 c 0,0 -1.662007,-1.68153 -1.662007,-1.68153 l 0.144407,-0.36394 -2.166223,5.23955 -3.251729,-2.77972 -3.54039,-0.30316 c 0,0 1.87915,2.62959 1.87915,2.62959 l -3.106208,2.03031 -2.745581,-0.0819 -1.660208,5.8970304 -1.734132,-0.29715 0.217213,1.67669 c 0,0 -0.144545,-0.14614 -0.144545,-0.14614 l 0.361368,0.36547 c 0,0 -2.96201,1.08347 -2.96201,1.08347 l 3.035564,3.72613 1.661584,-0.65048 0.795813,4.08305 1.011635,0.58626 -2.38e-4,-0.21871 3.395927,1.61393 2.022554,-1.30498 c 0,0 2.312379,2.41176 2.312379,2.41176 l 2.745317,0.0817 0.433202,-1.09154 1.589114,-0.86921 c 0,0 -1.228461,-1.6797 -1.228461,-1.6797 l 2.672557,-1.37576 0.288369,-2.84083 3.756025,-2.39231 -1.950667,-0.80782 -0.217689,-4.7368404 1.517068,-0.14077 c 0,0 1.155515,-1.74501 1.155515,-1.74501 0,0 -0.939483,-1.67899 -0.939483,-1.67899 l 1.805914,-0.72274 0.361315,0.074"
       id="path558" /><path
       onclick="pokaz(this)"
       d="m 14.615311,15.41476 c 0,0 2.96201,-1.08346 2.96201,-1.08346 l -0.361368,-0.36547 -2.529231,-1.39272 -1.516989,1.23383 -1.662086,-0.73403 c 0,0 -1.156467,-1.24261 -1.156467,-1.24261 l -2.672821,2.25036 -0.793141,5.38982 -0.361236,0.14463 c 0,0 -3.394604,4.28837 -3.394604,4.28837 0,0 -0.794226,1.89208 -0.794226,1.89208 l -1.95066702,0.8681 c 0,0 1.08444702,1.75231 1.08444702,1.75231 l -0.216794,-0.0736 3.107267,0.73855 3.180556,4.16349 2.311797,-0.86712 1.734105,0.29699 0.866802,-0.72588 1.589669,0.66088 1.806125,-0.2857 2.673086,0.0105 10e-6,-0.14572 -10e-6,0.14572 c 0,0 0.144497,-2e-4 0.144497,-2e-4 l 1.299686,-2.8374 -1.806337,-0.51577 3.033183,-4.36193 c 0,0 -0.07258,-1.45753 -0.07258,-1.45753 l -1.011608,-0.58616 -0.795814,-4.08305 -1.661583,0.65048 -3.035565,-3.72798"
       id="path560" /><path
       onclick="pokaz(this)"
       d="m 7.48479,33.06776 2.433188,-0.8618 1.585356,0.36751 0.97163,-0.73787 1.586336,0.61322 c 0,0 1.704604,-0.24692 1.704604,-0.24692 l 2.680229,-0.002 c 0,0 -0.477784,2.33471 -0.477784,2.33471 0,0 -0.845767,1.72067 -0.845767,1.72067 l 1.221766,0.85913 0.247161,0.85981 1.955694,1.59571 c 0,0 -0.967052,1.84353 -0.967052,1.84353 l 2.197285,1.10406 -0.599096,2.45747 3.169708,0.61185 1.715373,2.45565 c 0,0 -1.455288,1.59811 -1.455288,1.59811 0,0 0.0075,1.84267 0.0075,1.84267 0,0 -1.573081,2.5809 -1.573081,2.5809 l 0.497232,2.45639 -7.795154,0.25191 -2.066899,0.98439 -2.436442,10e-4 -0.0034,-0.85992 c 0,0 -0.984197,-2.33328 -0.984197,-2.33328 0,0 -3.784864,-1.96263 -3.784864,-1.96263 l -2.800086,0.49361 -0.494956,-1.8424 c 0,0 0.969592,-1.22928 0.969592,-1.22928 l -0.74422,-3.19378 c 0,0 0.608674,-0.12333 0.608674,-0.12333 L 6.42623,42.28223 4.594149,41.17786 3.725046,37.24694 7.62077,36.50693 c 0,0 0.72189,-2.21208 0.72189,-2.21208 0,0 -0.857912,-1.22806 -0.857912,-1.22806 m 10.961952,-0.74491 0.121828,-1e-4 5.29e-4,0.12287 c 0,0 -0.122328,-0.12277 -0.122328,-0.12277"
       id="path562" /><path
       onclick="pokaz(this)"
       d="m 22.396706,74.57824 c -0.0071,-1.71952 0.226621,-4.17618 0.469742,-4.29921 0.365416,-2.7e-4 4.86066,-2.82919 4.86066,-2.82919 l -1.968288,-4.78869 2.67626,-0.86202 c 0,0 1.346809,1.71852 1.346809,1.71852 l 1.219517,0.36748 -0.364411,0.24595 c 0,0 1.471533,2.45533 1.471533,2.45533 0,0 -1.207584,2.58035 -1.207584,2.58035 l 0.374332,2.21051 1.951223,0.61246 3.528219,-0.98557 0.238654,-1.22841 2.432394,-0.8618 1.223327,1.35001 -0.845158,1.84298 c 0,0 0.614838,1.47328 0.614838,1.47328 l -0.475826,2.82522 2.198555,1.59464 1.823826,-0.73847 c 0,0 0.979646,1.35006 0.979646,1.35006 0,0 -0.355547,2.4565 -0.355547,2.4565 l 0.243562,-2.1e-4 0.0011,0.2456 -0.851005,0.36918 0.194511,1.0632 -3.592248,2.01001 -1.949053,-0.12105 -0.49157,-1.10484 -2.070391,0.003 c 0,0 0.121788,-1.3e-4 0.121788,-1.3e-4 l -2.198158,-1.47177 0.479742,-1.84261 -4.017698,0.37201 -3.419739,-2.33048 -1.352762,-3.1922 -3.290623,-0.48844"
       id="path564" /><path
       onclick="pokaz(this)"
       d="m 44.611123,80.9256 1.155594,0.44048 1.949741,-1.01381 0.216376,-1.67428 c 0,0 1.2999,-0.14175 1.2999,-0.14175 l 0.36063,-2.76649 c 0,0 -1.155811,-1.89706 -1.155811,-1.89706 0,0 0.866251,-2.40075 0.866251,-2.40075 l 1.22756,-1.16163 c 0,0 -0.0727,-2.62218 -0.0727,-2.62218 l 3.61104,-0.13468 1.08288,-2.69134 -2.96121,-1.3929 c 0,0 -0.57807,-1.82269 -0.57807,-1.82269 0,0 0.86636,-2.10955 0.86636,-2.10955 l -1.87804,-1.68106 -0.72277,-3.3528 -5.272348,0.49353 c 0,0 2.310818,-2.39652 2.310818,-2.39652 l -1.300163,-0.58687 4.3e-5,0.0725 -3.105415,1.52014 -0.217006,-1.749 c 0,0 -1.155409,1.4533 -1.155409,1.4533 l -1.878144,-0.95274 1.011555,1.75133 c 0,0 -3.322373,0.49959 -3.322373,0.49959 0,0 -0.722551,-1.09487 -0.722551,-1.09487 0,0 -1.444255,1.81665 -1.444255,1.81665 l -2.311902,-2.04673 -1.227905,0.36039 -0.360892,1.23727 -1.51675,0.79655 c 0,0 1.083971,1.97017 1.083971,1.97017 l 1.44452,-0.65109 c 0,0 1.300506,1.46082 1.300506,1.46082 0,0 -0.5774,2.03777 -0.5774,2.03777 l 0.289189,1.23923 -0.433043,1.6012 -1.877854,0.72255 c 0,0 1.517412,2.40837 1.517412,2.40837 l -1.371785,2.69081 c 0,0 0.506121,2.25952 0.506121,2.25952 l 1.950297,0.51578 c 0,0 3.466835,-0.93639 3.466835,-0.93639 l 0.288634,-1.31014 2.311083,-0.79425 1.300321,1.31503 c 0,0 -0.866325,1.89103 -0.866325,1.89103 0,0 0.650319,1.45862 0.650319,1.45862 l -0.432805,2.76622 2.16699,1.60878 1.949847,-0.79532 0.939112,1.38658 -0.36068,2.40258"
       id="path566" /><path
       onclick="pokaz(this)"
       d="m 50.458414,67.68849 c 0,0 0.0726,2.40369 0.0726,2.40369 l 4.54977,-0.71445 1.94993,0.58859 0.57766,-0.50808 6.28333,5.18954 0.7221,-10e-4 c 0,0 -0.72232,-1.82277 -0.72232,-1.82277 0,0 0.79413,-1.7454 0.79413,-1.7454 0,0 -0.65019,-2.62374 -0.65019,-2.62374 l -1.29993,-0.80516 c 0,0 0.28874,-1.0187 0.28874,-1.0187 l 4.62148,-1.22399 c 0,0 -1.01118,-2.04237 -1.01118,-2.04237 0,0 -0.0723,-0.94697 -0.0723,-0.94697 l -3.32237,-4.45293 -4.40558,-2.12585 c 0,0 -1.1552,2.25435 -1.1552,2.25435 l -1.87767,0.28559 c 0,0 -1.87737,2.32495 -1.87737,2.32495 l -1.44458,-1.16983 c 0,0 -0.86632,2.10955 -0.86632,2.10955 l 0.57803,1.82269 2.96122,1.3929 -1.08289,2.69161 c 0,0 -3.61103,0.13737 -3.61103,0.13737"
       id="path568" /><path
       onclick="pokaz(this)"
       d="m 56.308354,88.42653 1.21912,0.36725 c 0,0 1.21766,-0.002 1.21766,-0.002 l -0.61513,-1.59564 c 0,0 1.09591,-0.002 1.09591,-0.002 l 1.31381,-6.50955 c 0,0 -1.35421,-1.81811 -1.35421,-1.81811 0,0 1.88888,-2.18424 1.88888,-2.18424 0,0 1.29985,0.22236 1.29985,0.22236 l -0.21683,-1.67558 0.5053,-1.6006 -4.96861,-4.36245 -0.72824,0.61468 -1.95085,-0.61243 c 0,0 -4.38123,0.7406 -4.38123,0.7406 l 5.3e-4,0.1228 -1.21293,1.22918 -0.96449,2.45708 c 0,0 1.13514,1.95172 1.13514,1.95172 l -0.29183,2.34127 -1.433648,0.37434 -0.11494,1.71939 -1.944555,0.9842 -0.365337,2.6e-4 0.0064,1.5965 0.606875,2.65932 2.599796,-0.28358 c 0,0 1.301089,-1.88864 1.301089,-1.88864 l 1.70728,0.61245 c 0,0 1.32474,2.38139 1.32474,2.38139 l 2.96068,0.59139 0.35973,1.56655 m -11.476563,-7.48057 5.29e-4,0.12281 -5.29e-4,-0.12281"
       id="path570" />
</svg>
