<?xml version="1.0" encoding="UTF-8" standalone="no"?>
<svg
   viewBox="0 0 99.790924 132.72197"
   version="1.1"
   id="svg1"
   xmlns="http://www.w3.org/2000/svg">
   <style>path {fill:#e0e0e0;fill-opacity:1;stroke:#ffffff;stroke-width:0.529167}</style>
   <path
       onclick="pokaz(this)"
       d="m 54.285279,114.44168 3.96505,-0.71723 3.74703,2.62686 -1.94652,0.64944 -1.44179,0.28732 0.5035,2.25504 -1.44137,-0.58507 c 0,0 -1.29841,1.95976 -1.29841,1.95976 0,0 3.38587,3.78884 3.38587,3.78884 l -5.04772,4.56803 c 0,0 -5.33374,-0.59457 -5.33374,-0.59457 l -6.19945,0.058 -3.099858,-0.0801 0.0722,-0.21794 -1.513655,-0.58533 0.144568,-0.94488 2.162995,-0.649 0.937472,-0.79753 c 0,0 -2.667,-0.51541 -2.667,-0.51541 0,0 -4.470135,0.86146 -4.470135,0.86146 l -1.657668,-1.24003 c 0,0 -0.07149,-1.52712 -0.07149,-1.52712 l -1.585754,-0.87638 -0.576845,0.21664 c 0,0 -0.432408,-0.43725 -0.432408,-0.43725 0,0 0.793485,-1.08881 0.793485,-1.08881 l 1.297861,-0.36039 0.433361,-1.96218 2.595457,-0.0662 1.947121,-1.44931 -1.802315,-0.0772 1.802977,-1.44987 -2.090553,-0.51413 0.506016,-3.34354 -0.28784,-1.30967 2.73976,-0.5021 2.45245,-2.97523 0.793035,0.075 -0.143642,-1.382 c 0,0 -0.937101,-0.22055 -0.937101,-0.22055 0,0 0.0726,-1.23603 0.0726,-1.23603 0,0 -1.585171,-2.18562 -1.585171,-2.18562 l 1.442323,-0.9416 -0.287946,-1.091607 1.298575,-1.88738 -2.018057,-1.67783 c 0,0 -0.431826,-1.81917 -0.431826,-1.81917 l -0.792692,-0.94739 -0.14433,0.36319 0.433044,-1.08969 1.225391,0.73041 1.586203,-0.14138 2.091479,-1.52177 2.451258,0.079 -2.38e-4,-0.0724 1.009147,0.43894 -0.217064,1.74472 1.657456,1.60414 1.369874,-0.28742 -0.28921,1.89003 -1.585992,-0.14945 c 0,0 -1.081987,1.37887 -1.081987,1.37887 l -1.441873,-0.0765 -0.433123,1.30776 c 0,0 3.459427,2.190347 3.459427,2.190347 0,0 -1.658937,1.88656 -1.658937,1.88656 l 0.57605,1.52839 -1.37025,1.08728 0.93681,0.87498 1.657059,2.33098 c 0,0 -0.143113,-2.39988 -0.143113,-2.39988 l 1.153629,-0.43341 0.43209,1.01907 0.72065,0.58353 c 0,0 -0.64929,1.01637 -0.64929,1.01637 l 1.65796,0.14952 c 0,0 0.50398,1.3829 0.50398,1.3829 l 1.65783,0.44032 0.50334,3.05408"
       id="path278" /><path
       onclick="pokaz(this)"
       d="m 66.456119,115.42064 c 0,0 -1.01005,1.81504 -1.01005,1.81504 l -2.30595,-1.16898 -1.44166,0.14179 0.28823,0.14623 -3.74702,-2.62686 -3.96505,0.71723 -0.50316,-3.05514 -1.6578,-0.44035 c 0,0 -0.50398,-1.38287 -0.50398,-1.38287 l -1.65796,-0.14952 c 0,0 0.64927,-1.01637 0.64927,-1.01637 l -0.72062,-0.58354 -0.43209,-1.01909 -1.153641,0.43341 c 0,0 0.143114,2.39991 0.143114,2.39991 0,0 -1.657033,-2.33098 -1.657033,-2.33098 l -0.93681,-0.87498 1.370198,-1.08728 -0.576051,-1.52839 c 0,0 1.658964,-1.88659 1.658964,-1.88659 0,0 -3.459427,-2.190297 -3.459427,-2.190297 l 0.433123,-1.30778 1.441846,0.0765 c 0,0 1.08204,-1.37887 1.08204,-1.37887 l 1.585967,0.14947 0.21693,-1.45388 c 0,0 0.64892,-0.21644 0.64892,-0.21644 l 1.51347,1.09463 c 0,0 0.86571,-1.37943 0.86571,-1.37943 l 1.58581,0.36761 c 0,0 0.0728,-1.52691 0.0728,-1.52691 0,0 -0.7203,-1.31077 -0.7203,-1.31077 0,0 0.93768,-1.08844 0.93768,-1.08844 l 3.24326,1.39001 c 0,0 0.50406,1.16478 0.50406,1.16478 0,0 0.79346,-0.94329 0.79346,-0.94329 l 0.86482,0.4386 c 0,0 0.64989,-2.25261 0.64989,-2.25261 l 1.29736,0.43963 0.576,1.38305 2.09124,-1.44893 c 0,0 -0.50419,-0.8739 -0.50419,-0.8739 l 2.16329,-1.37607 1.8738,0.80468 2.45089,-0.13904 1.65727,1.16776 1.0096,-0.87005 v -0.14543 l 0.86479,0.29316 c 0,0 1.29757,-0.2148 1.29757,-0.2148 l 1.15255,1.31186 1.08156,-0.65162 c 0,0 1.22439,1.67553 1.22439,1.67553 l 1.2251,0.36671 -1.44211,1.0142 0.72035,0.72898 c 0,0 0.86395,1.74731 0.86395,1.74731 0,0 0.86402,1.52916 0.86402,1.52916 l -0.72194,2.106777 c 0,0 0.86399,1.60179 0.86399,1.60179 l -2.01813,0.14028 0.21577,0.80032 c 0,0 -0.57701,0.72564 -0.57701,0.72564 0,0 0.43212,0.58277 0.43212,0.58277 l -0.21622,2.7e-4 -1.29775,0.72379 0.28739,1.67291 c 0,0 -0.28879,0.87188 -0.28879,0.87188 l -0.0727,1.0904 -0.64899,0.57992 0.14364,0.94556 c 0,0 -10.30632,-1.26179 -10.30632,-1.26179 l -0.65069,3.8518 c 0,0 0.93639,1.23836 0.93639,1.23836 l -0.64897,0.50736 5e-5,0.94417"
       id="path280" /><path
       onclick="pokaz(this)"
       d="m 65.609449,102.69418 -1.44217,1.01436 c 0,0 -2.37749,-2.55096 -2.37749,-2.55096 l 2.45158,-1.448057 1.65751,0.803957 -0.28943,2.1807"
       id="path282" /><path
       onclick="pokaz(this)"
       d="m 92.200069,113.30397 0.14357,0.94546 -1.15335,0.50607 -2.30791,3.04747 4.8268,2.33828 v 1.16308 l -8.07165,0.70713 -2.95539,1.08318 c 0,0 -1.22619,1.81446 -1.22619,1.81446 0,0 -0.0732,2.03528 -0.0732,2.03528 l -1.6578,0.43204 -1.65839,1.44986 c 0,0 -1.01002,1.88764 -1.01002,1.88764 0,0 -0.93768,1.45164 -0.93768,1.45164 0,0 -0.28792,-0.6549 -0.28792,-0.6549 l -1.29707,-0.294 -0.2872,-2.03608 -3.81926,-1.02706 0.86638,-2.83315 -2.59406,-1.16952 v -1.23597 l 0.79314,-0.65236 -0.72038,-0.65608 -4.25397,2.97047 -2.73791,-2.11518 c 0,0 -2.16344,2.17588 -2.16344,2.17588 l -3.24194,-3.71581 c 0,0 1.29842,-1.95977 1.29842,-1.95977 l 1.44137,0.58507 -0.50348,-2.25504 1.44177,-0.28731 1.94654,-0.64945 -0.28827,-0.14623 1.44169,-0.14179 2.30595,1.16898 c 0,0 1.01002,-1.81504 1.01002,-1.81504 v -0.94528 l 0.64897,-0.50723 c 0,0 -0.93638,-1.23836 -0.93638,-1.23836 l 0.65069,-3.8518 c 0,0 10.30631,1.26196 10.30631,1.26196 l -0.14364,-0.94557 0.64899,-0.58008 c 0,0 0.0727,-1.09042 0.0727,-1.09042 0,0 0.28876,-0.87173 0.28876,-0.87173 l -0.28736,-1.67301 1.29776,-0.72379 1.44166,-0.28713 2.30703,-1.23026 -0.28969,2.47137 c 0,0 1.43991,2.62096 1.43991,2.62096 l 0.79158,2.03772 2.88211,1.31593 c 0,0 0.71996,1.23772 0.71996,1.23772 l 2.37908,-1.44809 2.73711,2.1151 -1.22499,0.21503"
       id="path284" /><path
       onclick="pokaz(this)"
       d="m 92.279449,114.23001 -0.14491,-0.94694 1.23684,-0.21537 -2.76304,-2.11844 -2.40168,1.45042 c 0,0 -0.7267,-1.23971 -0.7267,-1.23971 l -2.90936,-1.31797 c 0,0 -0.79904,-2.04097 -0.79904,-2.04097 0,0 -1.45354,-2.62514 -1.45354,-2.62514 l 0.29252,-2.47528 -2.32894,1.23224 -1.45529,0.2876 h 0.21826 l -0.4362,-0.58369 c 0,0 0.58249,-0.72679 0.58249,-0.72679 l -0.21781,-0.80161 2.03732,-0.14049 -0.87215,-1.60441 0.72882,-2.109967 c 0,0 -0.8722,-1.53157 -0.8722,-1.53157 0,0 -0.87206,-1.75008 -0.87206,-1.75008 0,0 -0.72718,-0.73015 -0.72718,-0.73015 l 1.45579,-1.01597 -1.23672,-0.3673 c 0,0 -1.23595,-1.67819 -1.23595,-1.67819 l 0.0728,-0.0726 0.29207,-1.74714 c 0,0 0.58296,-1.52795 0.58296,-1.52795 l 2.98344,-0.57504 1.23741,-0.79804 c 0,0 0.21693,2.18559 0.21693,2.18559 l 3.42053,-1.30217 2.98318,-0.13807 -0.2172,-1.67561 c 0,0 3.20172,-0.86577 3.20172,-0.86577 l 0.21821,0.0734 0.43635,0.29247 1.23425,4.00871 2.90883,1.68248 c 0,0 1.45399,1.60584 1.45399,1.60584 l 1.01852,-0.0701 -0.36452,1.16425 -1.74697,1.5249 -3.34592,-1.02802 -2.18352,1.5966 c 0,0 0.72583,2.6234 0.72583,2.6234 l 2.40046,0.51589 -0.2929,2.912007 1.96422,0.01 c 0,0 -0.51062,2.18334 -0.51062,2.18334 0,0 0.87201,1.45857 0.87201,1.45857 l 0.65125,5.2443 -1.5317,6.25819 -1.52993,3.56421 -0.87299,0.0712 v -0.21839 l -4.87257,-2.34198 2.32984,-3.0525 1.1652,-0.51144"
       id="path286" /><path
       onclick="pokaz(this)"
       d="m 56.401949,77.188343 -0.36801,-0.98065 c 0,0 0.60582,-0.61396 0.60582,-0.61396 l -1.21815,-0.73435 1.21325,-0.73734 -0.73186,-0.73494 -0.49488,-2.5749 0.48506,-0.36853 1.45762,-0.36971 c 0,0 -0.73554,-1.8388 -0.73554,-1.8388 l 1.70037,-0.49265 c 0,0 1.70278,0.24324 1.70278,0.24324 l 0.60256,-1.59512 c 0,0 3.28242,-0.005 3.28242,-0.005 0,0 -1.10022,-1.83838 -1.10022,-1.83838 0,0 1.69344,-2.57762 1.69344,-2.57762 l 0.60746,-0.12337 c 0,0 0.11589,-1.71723 0.60214,-1.71781 l 2.67599,0.48742 2.67229,-0.61638 1.21804,0.73443 c 0,0 0.23709,-1.83996 0.48022,-1.84028 l 1.3412,1.22489 -0.23831,1.47204 c 0,0.36793 0.36827,1.10336 0.73334,1.22557 0.51959,0.12476 1.04842,0.20617 1.58105,0.24339 l -0.23911,1.22669 c 0,0 1.33633,-0.24688 1.33633,-0.24688 l 0.24789,1.47137 0.85286,0.61219 c 0,0 -0.72731,0.61407 0.003,0.6132 0,0 1.21512,-0.12412 1.21512,-0.12412 0.4858,-0.12321 0.48382,-0.73641 0.97002,-0.73699 l 1.58176,0.48866 c 0,0 0.36385,-0.24571 0.36385,-0.24571 l 0.36584,0.36745 0.61804,3.1877 4.38626,3.3057 c 0,0 0.61365,1.83865 0.61365,1.83865 l -0.97036,0.61433 0.98102,2.69664 1.58155,0.4885 0.3788,4.41377 2.07077,1.46879 -3.64279,0.98557 0.24858,1.7163 -2.9165,0.12639 -3.39911,1.23052 -0.24984,-2.08417 -1.21301,0.73726 -3.03662,0.61701 -0.60294,1.47222 -0.23709,1.83957 -1.21343,0.61468 c 0,0 -1.09792,-1.22479 -1.09792,-1.22479 0,0 -1.21464,0.24683 -1.21464,0.24683 l -0.97359,-0.36658 c 0,0 -0.85688,-1.83822 -0.85688,-1.83822 l -0.97481,-0.73448 -0.003,-0.85839 c 0,0 -0.97806,-1.71548 -0.97806,-1.71548 0,0 -0.48783,-0.48987 -0.48783,-0.48987 l 2.42101,-3.06864 -0.61018,-0.73499 -5.22896,-0.60658 -4.38229,-1.83399 c 0,0 -0.97658,-1.22512 -0.97658,-1.22512 l -3.64543,0.49509 -0.85299,-0.61214"
       id="path288" /><path
       onclick="pokaz(this)"
       d="m 75.637159,74.275283 c 0,0 -0.14518,1.89045 -0.14518,1.89045 l -2.52309,0.28419 -1.58557,-0.65865 -0.50361,-1.81952 1.44219,-0.86881 1.65809,-0.28654 1.65717,1.45888"
       id="path290" /><path
       onclick="pokaz(this)"
       d="m 64.021949,91.044573 0.50416,0.87403 -2.09121,1.44896 -0.576,-1.38316 -1.29736,-0.43966 c 0,0 -0.64992,2.25261 -0.64992,2.25261 l -0.86482,-0.43847 -0.79343,0.9433 c 0,0 -0.50408,-1.16475 -0.50408,-1.16475 l -3.24327,-1.39004 c 0,0 -0.93771,1.08833 -0.93771,1.08833 0,0 0.72033,1.31091 0.72033,1.31091 0,0 -0.0728,1.52691 -0.0728,1.52691 l -1.58583,-0.36775 -0.86572,1.37946 -1.51344,-1.09466 c 0,0 -0.64892,0.21656 -0.64892,0.21656 l 0.0723,-0.43617 -1.369877,0.28744 -1.657482,-1.60414 0.217091,-1.74482 -1.009174,-0.43894 2.38e-4,0.0724 c 0,0 -0.431536,-2.32823 -0.431536,-2.32823 l 0.362109,-3.70813 0.721149,-0.43445 2.739492,0.37079 3.10171,-3.40995 -2.66673,-1.97062 1.6601,-4.06849 2.16294,-0.13969 c 0,0 1.80152,1.8229 1.80152,1.8229 l 1.1539,-0.86972 0.93695,0.58431 3.67691,-0.35399 1.0087,1.16621 4.32435,1.7568 5.26203,0.66821 c 0,0 0.43212,0.72837 0.43212,0.72837 l -2.30836,3.12103 0.50432,0.51032 c 0,0 0.93618,1.67495 0.93618,1.67495 v 0.80002 l 1.00875,0.80248 c 0,0 0.93599,1.96575 0.93599,1.96575 l -1.0096,0.86998 -1.65727,-1.16777 -2.45091,0.13918 -1.87375,-0.80481 -2.16292,1.37644"
       id="path292" /><path
       onclick="pokaz(this)"
       d="m 40.447573,69.481033 0.966047,-1.96366 v 0.24531 l 1.70426,0.61121 c 0,0 0.968957,-1.10505 0.968957,-1.10505 0,0 -0.61206,-1.22579 -0.61206,-1.22579 l 1.456531,-0.73769 1.580991,0.12077 c 0,0 0.732817,0.98033 0.732817,0.98033 l 1.092993,-0.36928 0.368856,1.22608 -0.60542,0.73666 1.106174,3.55547 2.79797,0.48715 1.94026,-1.47413 c 0,0 0.61154,1.10305 0.61154,1.10305 l 0.96972,-0.85968 0.49488,2.57492 0.73186,0.73493 -1.21325,0.73734 1.21817,0.73436 c 0,0 -0.60579,0.61396 -0.60579,0.61396 l 0.24641,0.98079 -0.9697,0.85968 c 0,0 -1.82973,-1.83732 -1.82973,-1.83732 0,0 -2.18746,0.248 -2.18746,0.248 l -1.56689,4.04918 2.68128,1.95884 c 0,0 -3.1496,3.31523 -3.1496,3.31523 l -2.797436,-0.36435 c 0,0 0.60706,-0.24603 0.60706,-0.24603 l -1.221951,-1.83804 c 0,0 0.96848,-1.22761 0.96848,-1.22761 l -0.862621,-3.43297 c 0,0 -3.290887,-2.4488 -3.290887,-2.4488 l -0.50501,-5.51868 -1.584775,-1.2246 -0.243179,2.7e-4 m 15.079929,1.20806"
       id="path294" /><path
       onclick="pokaz(this)"
       d="m 33.99174,67.618373 -0.725779,1.74384 c 0,0 1.450023,-0.002 1.450023,-0.002 0,0 -0.362956,1.09011 -0.362956,1.09011 0,0 0.869553,1.0205 0.869553,1.0205 l -1.087781,0.72453 -0.145362,0.79976 2.39231,0.44262 0.870532,-1.23423 2.030121,-0.43103 c 0,0 -0.07183,-1.52768 -0.07183,-1.52768 l 1.377817,-0.72374 -2.64e-4,-0.0724 1.739397,1.24121 0.359939,5.60123 3.33375,2.40887 1.013196,3.56632 c 0,0 -1.087861,1.0881 -1.087861,1.0881 0,0 1.231556,1.7486 1.231556,1.7486 l -1.23272,0.79687 -0.364173,3.70788 c 0,0 0.43389,2.32836 0.43389,2.32836 l -2.46462,-0.079 -2.102908,1.52181 -1.594882,0.14139 -1.232032,-0.73039 c 0,0 -0.435425,1.08969 -0.435425,1.08969 l -1.812131,-0.51369 -0.288343,-3.78248 -1.884918,-0.01 -1.376839,-1.45814 0.870267,-0.6522 -0.723794,-2.83845 -2.536692,-1.89754 -0.941388,-2.76648 -1.812607,0.14073 -1.377977,1.16017 -2.827866,0.21098 -2.102327,-0.80561 0.145309,-0.72689 1.95752,0.2232 c 0,0 0.07281,-0.87262 0.07281,-0.87262 0,0 0.508,-1.30789 0.508,-1.30789 l -0.144675,-0.8005 0.508397,-2.18085 -1.667668,-0.0103 -1.014942,-0.43907 -1.85e-4,-0.8001 -1.522598,-0.14947 -0.289586,-1.23727 1.595278,-0.28678 c 0,0 0.507815,-0.65329 0.507815,-0.65329 l -0.362056,-1.31029 v -0.80013 l -1.740006,-0.58629 c 0,0 1.015868,-1.88867 1.015868,-1.88867 l 3.118115,-0.64641 2.247953,-0.57605 0.218122,-1.52693 0.218043,-1.3816 -1.449705,-1.09504 1.523127,-1.15977 -2.030121,-0.29641 0.07268,-0.58179 1.377817,-0.36008 0.290592,-1.52683 c 0,0 0.145812,-1.96376 0.145812,-1.96376 l 3.770312,0.37391 v 2.32775 l 1.23243,0.36706 1.740799,-1.5956 c 0,0 0.8695,1.31162 0.8695,1.31162 0,0 3.407305,0.88209 3.407305,0.88209 v -0.94572 l 2.464805,0.58859 0.289428,1.23745 c 0,0 0.507576,-0.14412 0.507576,-0.14412 0,0 1.81147,2.2597 1.81147,2.2597 l 2.754313,1.53485 -0.508106,1.30797 -1.450261,0.79618 c 0,0 0.579411,1.23812 0.579411,1.23812 0,0 -0.870453,1.08873 -0.870453,1.08873 l -1.812157,-0.58666 0.0726,-0.21803 -0.07228,-0.6549 -1.232244,-0.51244 c 0,0 -0.869156,-1.89338 -0.869156,-1.89338 l -4.712758,0.71487 c 0,0 -1.233197,1.52421 -1.233197,1.52421 l 0.579464,0.89041"
       id="path296" /><path
       onclick="pokaz(this)"
       d="m 41.320698,66.911933 0.07191,0.65476 c 0,0 -0.938186,1.96141 -0.938186,1.96141 l -1.370304,0.72374 c 0,0 0.07146,1.52768 0.07146,1.52768 l -2.019141,0.43103 c 0,0 -0.86577,1.23421 -0.86577,1.23421 l -2.379318,-0.44278 0.144515,-0.79963 1.081882,-0.72451 -0.86487,-1.02065 c 0,0 0.360997,-1.09011 0.360997,-1.09011 l -1.442191,-0.0106 0.721784,-1.74371 -0.576527,-0.87448 1.226449,-1.52429 4.687358,-0.71485 c 0,0 0.864473,1.89352 0.864473,1.89352 l 1.225524,0.51919"
       id="path298" /><path
       onclick="pokaz(this)"
       d="m 58.280489,67.755953 -1.65843,0.57737 c 0,0 0.72009,1.74758 0.72009,1.74758 l -1.44206,0.35978 -1.44248,1.1599 c 0,0 -0.50417,-1.09228 -0.50417,-1.09228 l -2.0915,1.52178 -2.7395,-0.51641 -1.079922,-3.49409 c 0,0 0.649287,-0.87111 0.649287,-0.87111 0,0 -0.432117,-1.09218 -0.432117,-1.09218 l -1.081696,0.36079 c 0,0 -0.720566,-0.9475 -0.720566,-0.9475 0,0 -1.586177,-0.22242 -1.586177,-0.22242 0,0 0.505301,-1.30788 0.505301,-1.30788 l -2.739231,-1.53498 c 0,0 -1.153055,-1.45778 -1.153055,-1.45778 l 0.360733,-0.50824 c 0,0 -0.43217,-1.0923 -0.43217,-1.0923 l 1.875234,-1.08604 0.79293,0.51128 1.082305,-1.67007 2.451205,0.80682 c 0,0 0.07176,0.72752 0.07176,0.72752 l 2.307459,-0.35742 0.64937,-1.01664 3.02789,0.51737 0.36132,-1.67201 2.95619,-0.13753 -0.21646,0.29046 c 0,0 -0.14504,1.81806 -0.14504,1.81806 0,0 1.44108,1.82232 1.44108,1.82232 l 2.66753,0.009 2.09028,0.95115 c 0,0 0.72031,1.31112 0.72031,1.31112 0,0 0.86516,-0.14318 0.86516,-0.14318 0,0 -1.58735,2.61419 -1.58735,2.61419 0,0 1.08051,1.74847 1.08051,1.74847 0,0 -3.31629,0.0641 -3.31629,0.0641 l -0.5775,1.5258 c 0,0 -1.73017,-0.22493 -1.73017,-0.22493"
       id="path300" /><path
       onclick="pokaz(this)"
       d="m 75.610699,35.341853 -2.5626,-2.94138 -0.72181,2.33151 -2.06314,1.10625 c 0,0 1.099,1.47082 1.099,1.47082 l -3.03318,1.84335 -1.45203,2.08693 -0.35986,1.47238 -2.43272,-0.36529 0.005,1.47199 -1.58092,-0.12091 -2.42059,3.3147 c 0,0 2.44007,2.57313 2.44007,2.57313 l -1.20354,3.68115 c 0,0 -2.91703,0.24869 -2.91703,0.24869 l -1.69312,2.70033 0.006,1.83984 c 0,0 1.2219,1.83838 1.2219,1.83838 l 2.79612,-0.004 2.06954,0.85611 0.61233,1.34839 c 0,0 1.57956,-0.24715 1.57956,-0.24715 0,0 0.23746,-1.71739 0.72372,-1.71797 l 2.67599,0.48742 2.67229,-0.61638 1.21804,0.73443 c 0,0 0.23709,-1.83996 0.48022,-1.84028 0.3651,0.12222 1.21962,1.22505 1.21962,1.22505 0,0 -0.11673,1.47187 -0.11673,1.47187 0,0.36793 0.24672,1.1035 0.61179,1.22571 0,0 1.58105,0.24342 1.58105,0.24342 l -0.23911,1.22668 c 0,0 1.33631,-0.24688 1.33631,-0.24688 l 0.24791,1.47137 0.85289,0.61217 c 0,0 -0.72734,0.6141 0.003,0.6132 l 1.33668,-0.12427 c 0.36425,-0.12307 0.48381,-0.73641 0.84846,-0.73686 l 1.58176,0.48866 0.48541,-0.24586 -1.22148,-1.83809 c 0,0 -1.33707,0.002 -1.33707,0.002 0,0 -0.61336,-1.71624 -0.61336,-1.71624 l 1.56628,-4.29446 0.60378,-1.22713 c 0,0 -0.004,-1.34911 -0.24828,-1.59412 l -1.82772,-1.34699 c 0,0 1.21118,-1.35054 1.21118,-1.35054 l -0.36787,-0.98078 c 0,0 -0.72853,0.24613 -1.21558,0.002 -0.36586,-0.36756 -0.48781,-0.49004 -0.48982,-1.10329 -0.003,-0.49061 -0.005,-1.34919 -0.37026,-1.71672 l -1.21761,-0.61188 c -0.48625,5.3e-4 -0.60942,-0.48992 -0.48945,-0.9807 0.11996,-0.49075 0.48344,-0.85913 0.11755,-1.22669 0,0 -0.85495,-1.2256 -0.85495,-1.2256 -0.30107,-0.52311 -0.47,-1.11271 -0.49186,-1.7167 0,0 0.11515,-1.9627 0.11515,-1.9627 0.24154,-0.49091 0.60383,-1.2273 0.60185,-1.8406 -0.003,-0.49067 0.23913,-1.2269 -0.37113,-1.96221 -0.48909,-0.85812 -0.49028,-1.22613 -0.49028,-1.22613 l 0.48348,-0.85918"
       id="path302" /><path
       onclick="pokaz(this)"
       d="m 61.508409,0.26868229 0.73242,0.85822901 c 0,0 -0.11348,2.454143 -0.11348,2.454143 l 3.40862,1.223671 4.2598,1.222825 c 0,0 0.85553,1.348793 0.85553,1.348793 l 3.40439,-0.0026 -0.23754,1.717913 c 0,0 2.07491,2.4517347 2.07491,2.4517347 l 2.43036,-0.370469 1.96911,7.358861 1.21891,0.98017 -2.78765,2.57911 0.0111,3.43482 -0.71824,3.43561 1.22486,2.8202 -4.00103,3.31629 -2.44025,-2.69611 -0.72181,2.33148 -1.94154,1.10615 1.09898,1.47079 -3.03319,1.84335 -1.08894,1.59586 -0.61029,-0.7353 c 0,0 -0.61397,-1.83933 -0.61397,-1.83933 l -3.65151,-1.22269 -1.94408,0.37012 c 0,0 -0.61606,-2.45279 -0.61606,-2.45279 l -3.40598,-0.48699 c 0,0 -0.3701,-1.59441 -0.3701,-1.59441 0,0 -0.12157,1.3e-4 -0.12157,1.3e-4 l 1.4415,-5.27685 -1.21796,-0.61214 c 0,0 -0.004,-1.10416 -0.004,-1.10416 l -2.67494,0.004 -3.39857,1.84388 -2.917825,0.12578 -1.206473,2.8231 -1.219306,-0.98018 1.440603,-5.52238 c 0,0 -1.220999,-1.471 -1.220999,-1.471 l -3.891756,-0.11864 c 0,0 -1.831182,-2.08394 -1.831182,-2.08394 0,0 0.48559,-0.24588 0.48559,-0.24588 l -0.0093,-2.69928 1.821656,-0.73805 -0.619681,-3.43509 0.119116,-0.736339 1.576784,-1.228619 2.925233,1.960328 1.097783,0.98049 c 0,0 0.969116,-1.105271 0.969116,-1.105271 l 1.583741,0.857311 0.48887,0.7357 1.21396,-0.61471 -1.09934,-1.471273 0.60471,-0.982186 c 0,0 1.70325,0.243697 1.70325,0.243697 0,0 1.21518,-0.24662 1.21518,-0.24662 0,0 -1.10056,-1.8393837 -1.10056,-1.8393837 l 2.423,-2.70166 2.43446,0.733795 c 0,0 0.60592,-0.614098 0.60592,-0.614098 l -1.58282,-0.611954 -0.49048,-1.226503 2.1794,-2.824162 c 0,0 1.69423,-2.45570401 1.69423,-2.45570401 0,0 -0.12078,0.245525 -0.12078,0.245525 l 2.06758,0.120719 c 0,0 0.24239,-0.245629 0.24239,-0.245629 m -8.40449,32.15481671 -2.05761,2.8239 2.05761,-2.8239"
       id="path304" /><path
       onclick="pokaz(this)"
       d="m 57.142779,18.649283 c 0,0 -0.64802,-2.03906 -0.64802,-2.03906 l 2.45245,-1.52093 3.38879,0.44622 0.21534,1.96503 -2.88501,1.44698 -2.52365,-0.29826"
       id="path306" /><path
       onclick="pokaz(this)"
       d="m 53.174029,53.341453 0.79179,2.76622 3.02816,-0.13736 c 0,0 1.44314,-2.39643 1.44314,-2.39643 0,0 2.95593,-0.0648 2.95593,-0.0648 l 1.08334,-3.77931 c 0,0 -2.37797,-2.55246 -2.37797,-2.55246 l 2.45303,-3.33957 1.514,0.0768 v -1.38208 l 2.52325,0.29797 c 0,0 0.36126,-1.45388 0.36126,-1.45388 l 0.28863,-0.50837 c 0,0 -0.64849,-0.72927 -0.64849,-0.72927 0,0 -0.50371,-1.89281 -0.50371,-1.89281 l -3.60442,-1.31939 -2.09119,0.50339 c 0,0 -0.57565,-2.40228 -0.57565,-2.40228 0,0 -3.46075,-0.59158 -3.46075,-0.59158 l -0.43191,-1.52898 -1.80295,0.64971 c 0,0 -1.00899,-1.09408 -1.00899,-1.09408 l -2.02033,2.90433 c 0,0 -3.461543,0.57238 -3.461543,0.57238 l -1.731989,3.1234 -2.235544,0.28488 -2.021443,5.45068 3.892814,2.33865 0.215398,2.03756 2.307113,0.66101 1.442274,-0.35983 0.36166,-2.54506 3.02736,2.26333 c 0,0 0.93723,0.22085 0.93723,0.22085 0,0 0.7924,1.52969 0.7924,1.52969 0,0 0.14343,1.60067 0.14343,1.60067 l -1.58625,0.79608"
       id="path308" /><path
       onclick="pokaz(this)"
       d="m 25.26049,61.630853 1.514845,-1.15991 -2.019114,-0.29641 0.07228,-0.58166 1.37033,-0.36005 c 0,0 0.289004,-1.52696 0.289004,-1.52696 0,0 0.144992,-1.96377 0.144992,-1.96377 l -0.360442,-0.36465 c 0,0 -1.226053,0.21489 -1.226053,0.21489 l -0.07173,-0.94583 c 0,0 -2.306902,-2.40705 -2.306902,-2.40705 l 1.85e-4,-1.01849 2.885546,-2.10195 c 0,0 -0.648494,-1.60232 -0.648494,-1.60232 0,0 -2.018559,-2.18808 -2.018559,-2.18808 l -2.81305,1.01079 c 0,0 -5.409142,0.0576 -5.409142,0.0576 0,0 -1.731804,2.32342 -1.731804,2.32342 l -1.081749,-0.36669 -1.731248,0.72287 -2.0191937,-1.16972 1.729423,5.24324 c 0,0 -1.371203,2.54257 -1.371203,2.54257 l -2.957513,1.22878 v 0.87302 l 3.245115,1.68203 -0.144595,1.09088 -0.793644,0.94358 v 1.60041 l -1.082225,1.08842 2.235438,1.31543 1.8757097,-1.66825 c 0,0 1.802263,2.40548 1.802263,2.40548 l 1.082066,-0.72456 -0.288105,-1.16464 1.802977,0.0776 1.369933,0.94927 1.154165,-0.7244 3.100123,2.33614 0.07223,-0.14532 3.101182,-0.64638 2.235755,-0.57589 0.216879,-1.52707 0.216853,-1.38147 -1.441265,-1.09479"
       id="path310" /><path
       onclick="pokaz(this)"
       d="m 37.722365,42.242183 c 0,0 -0.432144,-1.31072 -0.432144,-1.31072 0,0 -1.874864,-0.22352 -1.874864,-0.22352 l -1.802289,-1.53276 0.144568,-0.79994 -2.379344,-1.31612 c 0,0 0.0721,-0.0725 0.0721,-0.0725 0,0 0.866167,-1.8892 0.866167,-1.8892 l -1.22473,-3.27766 -1.802527,-1.31466 0.65032,-3.12685 3.100387,1.75504 1.804141,-2.97815 c 0,0 3.245114,0.37301 3.245114,0.37301 l -1.080214,-3.71369 c 0,0 0.722048,-2.10804 0.722048,-2.10804 l 1.298258,-0.28737 c 0,0 1.874176,2.04266 1.874176,2.04266 0,0 3.749939,0.0832 3.749939,0.0832 0,0 1.297384,1.53157 1.297384,1.53157 l -1.372552,5.52556 1.225444,1.022 1.155012,-2.76145 2.95645,-0.0645 3.46208,-1.95461 2.52378,0.01 c 0,0 0.0715,1.23695 0.0715,1.23695 l 1.2977,0.4403 -1.5168,5.37924 -1.65873,0.65016 c 0,0 -1.00899,-1.09408 -1.00899,-1.09408 l -2.02036,2.90433 -3.461539,0.57227 -1.732016,3.12367 -2.235544,0.28475 -2.021416,5.45068 c 0,0 0.07212,-1.1e-4 0.07212,-1.1e-4 l -1.009861,0.72467 -2.018321,-1.96974 0.1447,-1.16364 c 0,0 -1.081537,-0.15079 -1.081537,-0.15079"
       id="path312" /><path
       onclick="pokaz(this)"
       d="m 49.999029,58.278573 -2.307429,0.35743 c 0,0 -0.07178,-0.72752 -0.07178,-0.72752 l -2.45118,-0.80683 -1.082304,1.67008 -0.792957,-0.51128 -1.875234,1.08604 0.432197,1.0923 -0.360733,0.50824 c 0,0 -0.648626,-0.80193 -0.648626,-0.80193 l -0.504825,0.14412 -0.28792,-1.23745 -2.451417,-0.58849 v 0.94562 c 0,0 -3.388783,-0.88201 -3.388783,-0.88201 0,0 -0.864817,-1.31178 -0.864817,-1.31178 l -1.731301,1.59573 -1.225762,-0.36703 v -2.32789 l -3.74994,-0.37393 -0.360441,-0.36465 c 0,0 -1.226053,0.21489 -1.226053,0.21489 0,0 -0.0717,-0.94584 -0.0717,-0.94584 0,0 -2.306902,-2.40704 -2.306902,-2.40704 l 2.11e-4,-1.01849 2.885546,-2.10196 c 0,0 -0.648467,-1.60231 -0.648467,-1.60231 0,0 -2.018559,-2.18808 -2.018559,-2.18808 0,0 -0.649182,0.21655 -0.649182,0.21655 l 1.154351,-1.16091 c 0,0 1.081907,-0.21528 1.081907,-0.21528 0,0 -1.586044,-1.75054 -1.586044,-1.75054 l -0.07173,-1.09146 0.360521,0.21921 3.173148,0.29986 1.298813,-1.74258 c 0,0 0.648309,1.96615 0.648309,1.96615 0,0 3.103033,-5.01147 3.103033,-5.01147 l 2.379345,1.31611 -0.144542,0.79994 1.802263,1.53276 c 0,0 1.874863,0.22352 1.874863,0.22352 0,0 0.432144,1.31072 0.432144,1.31072 0,0 1.081644,0.14847 1.081644,0.14847 l -0.144728,1.16364 2.018295,1.96971 1.009862,-0.72466 3.820848,2.33838 0.215397,2.03753 2.307114,0.66101 1.442265,-0.35983 c 0,0 0.36166,-2.54503 0.36166,-2.54503 l 3.02736,2.26343 c 0,0 0.93726,0.22072 0.93726,0.22072 0,0 0.7924,1.52982 0.7924,1.52982 0,0 0.14344,1.6007 0.14344,1.6007 l -1.58661,0.79584 0.79182,2.76622 0.0721,-10e-5 c 0,0 -0.36127,1.67201 -0.36127,1.67201 0,0 -3.02789,-0.51737 -3.02789,-0.51737 0,0 -0.64868,1.01663 -0.64868,1.01663"
       id="path314" /><path
       onclick="pokaz(this)"
       d="m 28.27674,42.070203 -0.648335,-1.96615 c 0,0 -1.298787,1.74258 -1.298787,1.74258 l -3.173148,-0.29986 -1.946804,-1.38776 -1.657614,-3.42424 -2.163419,-1.0247 0.938901,-3.70814 -2.308384,0.9394 -2.740554,-0.66257 -0.864632,-2.91306 -2.8130497,-0.009 -0.432435,-1.16546 2.5253947,-2.46695 -2.0907637,-3.42609 c 0,0 1.1548267,-2.10703 1.1548267,-2.10703 l 5.410729,-2.82258 4.110831,1.39443 c 0,0 0.938186,-1.37993 0.938186,-1.37993 l 4.038865,0.81198 c 0,0 1.876054,-2.03219 1.876054,-2.03219 l 1.802024,2.84295 1.298681,-1.16051 2.380192,-0.35706 1.082913,-2.76198 c 0,0 1.226185,-0.21487 1.226185,-0.21487 l 4.542631,2.41435 0.142849,3.34751 -1.875235,0.43124 -0.722074,2.10804 1.080241,3.7137 c 0,0 -3.245115,-0.37301 -3.245115,-0.37301 l -1.804167,2.97815 -3.100388,-1.75504 -0.650292,3.12685 1.8025,1.31466 1.224703,3.27766 c 0,0 -0.86614,1.8892 -0.86614,1.8892 l -3.175,5.08529"
       id="path316" /><path
       onclick="pokaz(this)"
       d="m 10.17924,33.214603 c 0,0 -1.5154267,2.17868 -1.5154267,2.17868 l 2.5236747,2.77204 -2.5975467,2.83025 -3.10171,0.50085 c 0,0 -0.938372,2.25298 -0.938372,2.25298 l -1.370065,-1.45904 -1.802977,-1.24201 -1.08264795,2.32545 1.44184695,2.84163 c 0,0 3.750468,0.73792 3.750468,0.73792 l 1.586971,-0.35941 c 0,0 1.081485,1.38538 1.081485,1.38538 0,0 -0.07213,-0.0735 -0.07213,-0.0735 l 2.0191677,1.16959 1.731301,-0.72287 1.081749,0.36682 c 0,0 1.731751,-2.32341 1.731751,-2.32341 0,0 5.409141,-0.0577 5.409141,-0.0577 l 2.163921,-0.79436 c 0,0 1.154351,-1.16091 1.154351,-1.16091 0,0 1.081881,-0.21528 1.081881,-0.21528 0,0 -1.586018,-1.7504 -1.586018,-1.7504 l -0.07175,-1.09159 -1.586257,-1.16856 -1.657641,-3.42424 -2.163418,-1.02471 0.938927,-3.70813 -2.30841,0.9394 -2.740554,-0.66246 -0.07202,-0.21856 c 0,0 -0.721651,1.01671 -0.721651,1.01671 l -2.308146,0.1393"
       id="path318" /><path
       onclick="pokaz(this)"
       d="m 21.503407,79.950593 c 0,0 1.946936,0.22336 1.946936,0.22336 l 0.07239,-0.87265 0.505248,-1.30789 -0.143933,-0.8005 0.505566,-2.18083 c 0,0 -1.658541,0.002 -1.658541,0.002 l -1.009438,-0.43907 -2.12e-4,-0.8001 -1.514316,-0.14948 -0.288025,-1.23741 1.5866,-0.28678 c 0,0 0.505037,-0.65331 0.505037,-0.65331 0,0 -0.360125,-1.31019 -0.360125,-1.31019 v -0.80026 l -1.73056,-0.58655 0.938107,-1.74321 -3.100123,-2.33614 -1.154165,0.72441 -1.369934,-0.94941 -1.802976,-0.0776 0.288105,1.16467 -1.08204,0.72453 c 0,0 -1.802263,-2.40535 -1.802263,-2.40535 l -1.8757097,1.66812 -0.216377,-0.0733 v 0.14547 l -2.019987,1.74059 c 0,0 0.937207,1.2392 0.937207,1.2392 l -1.515428,2.8329 c 0,0 1.586098,1.96831 1.586098,1.96831 l -0.216773,1.23611 -0.937657,0.36118 v 3.20067 l 1.225603,1.38528 c 0,0 -0.938266,2.25245 -0.938266,2.25245 l 0.864526,3.05726 3.3895767,0.009 0.288079,1.2373 0.865664,-0.79785 1.442111,0.58568 0.649314,-0.87119 -0.937075,-1.23894 1.442535,-0.72369 1.946963,0.44154 c 0,0 -1.008804,-2.47557 -1.008804,-2.47557 l 1.08204,-0.87014 3.245115,0.008 c 0,0 1.29794,0.22171 1.29794,0.22171 l 0.0716,-0.4427"
       id="path646" /><path
       onclick="pokaz(this)"
       d="m 31.742782,91.470553 1.298178,-0.7239 c 0,0 0.649605,-1.67105 0.649605,-1.67105 0,0 -0.936996,-0.9479 -0.936996,-0.9479 l 0.865505,-0.65236 -0.719931,-2.83818 -2.522961,-1.89767 -0.936334,-2.76622 -1.802765,0.14072 -1.370488,1.16017 -2.812521,0.21082 -2.090949,-0.8055 0.0722,-0.29078 c 0,0 -1.29794,-0.2216 -1.29794,-0.2216 l -3.245114,-0.008 -1.08204,0.87001 c 0,0 1.008803,2.4757 1.008803,2.4757 l -1.946963,-0.44153 -1.442561,0.72366 0.937101,1.23896 c 0,0 -0.64934,0.87104 -0.64934,0.87104 l -1.442112,-0.58566 -0.865637,0.79788 -0.288078,-1.23719 -2.6683227,-0.009 -0.938345,2.76146 0.648811,0.72906 -0.361129,1.81745 c 0,0 0.864737,2.18424 0.864737,2.18424 l 0.07165,1.67293 c 0,0 0.57658,1.01979 0.57658,1.01979 l 0.432171,1.74662 2.9561887,1.24396 2.163445,-0.2854 c 0,0 1.587156,-2.10505 1.587156,-2.10505 l 2.451815,-0.21197 2.883958,1.09834 0.938027,-1.74307 1.081458,0.43913 c 0,0 0.865611,-0.9433 0.865611,-0.9433 l 1.58623,0.36783 -0.288872,1.16287 1.730481,0.14991 c 0,0 0.5765,0.87413 0.5765,0.87413 l 1.441874,0.58552 -0.287655,-2.03708 2.090975,0.0782 -0.720116,-2.40172 c 0,0 0.937948,-1.59613 0.937948,-1.59613"
       id="path648" /><path
       onclick="pokaz(this)"
       d="m 40.447573,100.94793 -1.442323,0.9416 c 0,0 1.585172,2.18561 1.585172,2.18561 l -0.07263,1.23603 0.937128,0.22056 0.143616,1.38197 -0.793036,-0.075 -2.452449,2.97524 -2.956189,0.50163 -1.153848,0.65151 c 0,0 -0.864712,-1.16555 -0.864712,-1.16555 l -1.874811,0.64977 -2.738702,-2.69769 -3.677179,-0.30007 c 0,0 -2.306452,-2.40567 -2.306452,-2.40567 l -1.946804,-0.15028 c 0,0 1.514951,-2.10521 1.514951,-2.10521 l 0.506333,-4.362187 -1.874599,-0.58666 1.731671,-3.05011 1.081458,0.4392 0.865637,-0.94324 1.586204,0.36767 -0.288846,1.1629 1.730455,0.14991 c 0,0 0.5765,0.87413 0.5765,0.87413 l 1.441874,0.58552 -0.287629,-2.03708 2.090949,0.0782 -0.72009,-2.40175 c 0,0 0.937948,-1.59761 0.937948,-1.59761 l 1.298178,-0.7239 c 0,0 0.649605,-1.67108 0.649605,-1.67108 0,0 0.432382,0.51022 0.432382,0.51022 l 1.874679,0.01 0.286888,3.78248 1.802288,0.51369 0.144331,-0.3632 c 0,0 0.792718,0.94742 0.792718,0.94742 0,0 0.431826,1.81915 0.431826,1.81915 l 2.01803,1.67772 -1.298548,1.88752 0.287946,1.086697"
       id="path650" />
  </svg>
