<?xml version="1.0" encoding="UTF-8" standalone="no"?>
<svg
   viewBox="0 0 75.588867 113.72784"
   version="1.1"
   id="svg1"
   xmlns="http://www.w3.org/2000/svg">
   <style>path {fill:#e0e0e0;fill-opacity:1;stroke:#ffffff;stroke-width:0.529167}</style>
   <path
       onclick="pokaz(this)"
       d="m 35.821198,14.800729 0.94152,2.990586 c 0,0 -1.3734,0.141557 -1.3734,0.141557 l -0.0712,1.748631 2.45861,1.392 -1.15604,0.943795 2.09725,1.609354 1.30042,-1.234704 1.95202,0.588883 0.001,2.113015 0.7955,0.658284 -2.16797,0.940673 -3.75867,0.280008 -2.24062,0.430372 c 0,0 -0.0711,2.040096 -0.0711,2.040096 l -1.87706,4.001823 c 0,0 -0.79454,1.01764 -0.79454,1.01764 l 2.4e-4,0.145722 -2.24113,-0.371052 -1.5903,0.06773 -1.01413,-3.354916 -1.88015,-0.952871 c 0,0 -2.45637,2.470044 -2.45637,2.470044 0,0 -1.80864,-2.045758 -1.80864,-2.045758 l -4.11982,1.444995 -2.09688,-0.443494 -8.5288404,3.399102 -1.51829,0.0677 -1.80911,-2.191464 c 0,0 0.0724,0.07366 0.0724,0.07366 l -0.002,-2.47769 2.0238,-1.014069 c 0,0 1.30262,1.679919 1.30262,1.679919 l 2.02449,0.07936 c 0,0 1.01071,-2.182997 1.01071,-2.182997 0,0 1.3003704,-1.526461 1.3003704,-1.526461 l 0.4305,-4.881033 2.02388,-0.795523 c 0,0 -0.002,-2.477664 -0.002,-2.477664 0,0 0.7945,-1.236557 0.7945,-1.236557 l 1.80707,-0.650319 -1.22986,-1.169776 1.1561,-1.089633 2.96598,2.559738 1.95135,-1.087067 c 0,0 1.59173,1.899523 1.59173,1.899523 l 9.32313,-4.41669 0.21635,-0.87376 0.36181,0.584015 c 0,0 1.30117,-0.141732 1.30117,-0.141732 l 0.073,1.16623 2.53003,0.08066"
       id="path124" /><path
       onclick="pokaz(this)"
       d="m 30.262308,25.058625 -0.21856,-2.769658 -2.09669,-0.370708 -1.58977,1.088178 c 0,0 0.36213,1.094185 0.36213,1.094185 l -0.50596,0.14419 -2.24179,-1.099873 -0.21642,0.728133 0.57885,0.803275 c 0,0 -0.28858,0.946415 -0.28858,0.946415 l 0.28967,0.802375 c 0,0 1.22883,-0.214844 1.22883,-0.214844 0,0 3.03715,1.466532 3.03715,1.466532 l 1.87971,0.297207 c 0,0 0.64936,-2.038297 0.64936,-2.038297 0,0 -0.86802,-0.877094 -0.86802,-0.877094"
       id="path126" /><path
       onclick="pokaz(this)"
       d="m 16.466928,46.003041 2.24166,0.953797 2.02404,-0.139721 0.14248,-3.278188 -3.18268,-2.92391 0.43233,-2.184638 -2.89216,-0.591609 -3.61368,1.810915 -1.37591,-3.355975 -1.0839704,0.725408 -2.96545,-1.757707 -0.4341,-0.43852 -1.15679,0.06983 -0.36176,-0.365495 -1.22653,3.712633 1.66486,2.773892 -3.75760997,2.903537 -0.64849,3.131344 1.95642997,6.126419 c 0,0 4.33917,2.05269 4.33917,2.05269 0,0 0.72408,1.60497 0.72408,1.60497 l -0.72149,2.11076 c 0,0 0.50763,2.26007 0.50763,2.26007 l -0.86638,1.67315 0.58018,2.62443 2.6039,2.04724 c 0,0 2.4561004,-2.61557 2.4561004,-2.61557 l -10e-4,-1.89412 1.95101,-1.23288 c 0,0 -0.14601,-2.11318 -0.14601,-2.11318 l 2.45692,-1.44997 -0.8695,-3.06255 1.22851,-0.6522 -2.67599,-1.82927 1.58951,-1.379614 -1.73609,-1.607953 2.02343,-1.15988 c 0,0 0.79356,-2.548176 0.79356,-2.548176"
       id="path128" /><path
       onclick="pokaz(this)"
       d="m 25.510388,56.300623 -0.14525,-1.09323 2.02367,-0.50403 1.66163,-1.45222 -1.87989,-0.80682 1.95104,-1.014281 c 0,0 -0.86813,-1.168267 -0.86813,-1.168267 l 0.93853,-1.89148 2.45775,0.152993 1.30066,-0.724721 3.25279,0.08299 0.43389,0.365443 c 0,0 0.50517,-1.382686 0.50517,-1.382686 0,0 -1.30223,-1.970987 -1.30223,-1.970987 l -2.24068,0.139155 c 0,0 -3.76131,-4.382559 -3.76131,-4.382559 l 1.08402,-0.433943 c 0,0 -0.72371,-1.386469 -0.72371,-1.386469 l 0.72175,-1.819408 0.72266,-0.362108 0.21563,-2.039515 -2.24112,-0.371078 -1.59031,0.06775 -1.01412,-3.354652 -1.88015,-0.952976 c 0,0 -2.45637,2.470044 -2.45637,2.470044 0,0 -1.80864,-2.045626 -1.80864,-2.045626 l -4.11983,1.44489 -2.0969,-0.443495 -8.5288404,3.399367 -0.3615,-0.0019 0.4341,0.43852 2.96545,1.757706 1.0839704,-0.725408 1.37591,3.355975 3.61368,-1.810914 2.89216,0.591608 -0.43233,2.184639 3.18268,2.92391 -0.14248,3.278187 -2.02404,0.139722 -2.24165,-0.953797 -0.79354,2.547805 -2.0234,1.159748 1.73606,1.608085 -1.58951,1.379623 2.67599,1.82927 -1.22851,0.65207 0.79698,2.69795 1.80713,-0.14044 1.44544,-0.50583 2.53,-0.0651 c 0,0 1.44582,0.14997 1.44582,0.14997 l -0.14508,-0.80185 2.38527,-0.21241"
       id="path130" /><path
       onclick="pokaz(this)"
       d="m 54.402888,19.957458 1.44592,0.733055 -0.5054,1.018513 0.79607,1.969718 0.14542,1.676214 -5.99863,0.929005 -1.87955,-0.515778 -4.9149,0.568113 -1.51866,-1.24341 -10e-4,-2.113015 -1.95202,-0.588883 -1.30042,1.234705 -2.09725,-1.609355 1.15604,-0.943795 -2.45861,-1.392 0.0712,-1.748631 1.3734,-0.141557 -0.94152,-2.990586 -2.53021,-0.08029 -0.073,-1.16623 -1.30117,0.141732 -1.80927,-3.212042 2.81966,0.518822 0.5708,-1.7695098 6.93711,-2.586011 0.58697,1.319983 2.81966,0.66458 2.02351,-0.941017 0.86778,0.658469 2.09595,-0.576475 -0.94038,-1.241742 2.16773,-1.523603 -1.0849,-1.169406 2.09611,-0.284824 -5.3e-4,-0.87458 1.44516,-1.015629 -0.14531,-1.385041 3.83117,0.157737 2.09714,1.901137 -1.1553,2.32828 -0.72025,4.953 1.15821,3.4282058 -1.15398,4.805627 -2.02364,0.285247 10e-4,1.821286"
       id="path132" /><path
       onclick="pokaz(this)"
       d="m 52.532288,36.636791 -0.36021,2.184665 1.22913,0.877914 0.50704,2.187046 -0.28794,2.18477 -2.0243,-1.2446 c 0,0 -0.64969,1.455129 -0.64969,1.455129 l 2.09693,1.90037 1.37343,0.513953 -0.71935,6.408475 c 0,0 0.0727,0.80158 0.0727,0.80158 l -1.6623,-0.1506 0.50541,-0.94549 -1.15681,-0.877599 -2.45705,0.357082 -1.87844,1.232907 -3.90472,-3.581137 c 0,0 -6.14442,-1.402239 -6.14442,-1.402239 l -0.43386,-0.292709 0.50517,-1.382712 c 0,0 -1.30223,-1.970987 -1.30223,-1.970987 l -2.24068,0.139038 -3.76131,-4.382558 1.08402,-0.433916 c 0,0 -0.72371,-1.38647 -0.72371,-1.38647 0,0 0.72175,-1.819407 0.72175,-1.819407 l 0.72266,-0.362109 c 0,0 0.21554,-2.185247 0.21554,-2.185247 0,0 0.79455,-1.01764 0.79455,-1.01764 l 1.87706,-4.001823 0.0711,-2.040096 2.24062,-0.430371 3.75867,-0.280009 2.16797,-0.940673 0.72316,0.585099 c 0,0 4.9149,-0.568113 4.9149,-0.568113 l 1.87955,0.515779 0.43362,-0.07162 c 0,0 0.72385,1.969399 0.72385,1.969399 l -1.22846,0.506386 0.14694,4.444736 0.7961,1.969558 1.37404,1.534107"
       id="path134" /><path
       onclick="pokaz(this)"
       d="m 9.2557176,67.370793 -1.6845,4.91569 0.13519,2.94799 -5.33083,7.25329 c 0,0 0.6178,1.84192 0.6178,1.84192 l 2.19972,1.226 2.91121,-3.1967 1.82899,0.1209 -0.008,-1.47402 3.1726204,0.73367 c 0,0 0.11307,-1.96549 0.11307,-1.96549 0,0 2.19514,0.24337 2.19514,0.24337 0,0 0.60394,-1.22899 0.60394,-1.22899 l 3.05038,0.73379 c 0,0 1.58342,-0.24732 1.58342,-0.24732 l 3.6621,1.22446 2.91544,-2.214 c 0,0 1.7063,-0.002 1.7063,-0.002 0,0 0.35912,-1.47434 0.35912,-1.47434 l 1.21661,-0.4926 c 0,0 0.60124,-1.84309 0.60124,-1.84309 0,0 -1.59528,-2.45504 -1.59528,-2.45504 l 0.96689,-1.84351 -0.87164,-4.17566 1.34342,0.61288 0.10994,-2.70271 c 0,0 0.7275,-0.86062 0.7275,-0.86062 l 0.22477,-4.29974 -0.61483,-1.22785 -2.91995,1.23129 c 0,0 -0.97999,-1.10466 -0.97999,-1.10466 l -3.89837,0.49517 c 0,0 -0.37332,-1.71956 -0.37332,-1.71956 l 0.003,0.73711 -1.34138,-0.12155 -2.4379,0.003 -1.58192,0.61579 -1.82793,0.12461 0.002,0.36854 -2.43084,1.59946 c 0,0 0.13069,1.96554 0.13069,1.96554 l -1.82298,1.23031 c 0,0 0.009,1.96559 0.009,1.96559 0,0 -2.4269704,2.45941 -2.4269704,2.45941 l -0.24381,2.3e-4 m 15.0513504,13.12836 -1.33633,0.98404 1.33633,-0.98404"
       id="path136" /><path
       onclick="pokaz(this)"
       d="m 53.410698,58.713623 -2.1e-4,-0.65558 0.72414,2.77018 0.21814,2.55016 -1.58944,0.8695 c 0,0 0.14558,1.96713 0.14558,1.96713 l 3.10779,0.81013 0.65035,-0.0707 1.95162,0.9525 -1.44391,2.69081 -2.0237,-0.58851 0.36201,1.31214 0.29046,2.69584 c 0,0 -1.08384,0.21545 -1.08384,0.21545 l -0.50528,1.09106 -1.44502,0.5058 c 0,0 0.36235,1.96745 0.36235,1.96745 l -2.81755,1.52159 -1.08442,-0.8042 -1.734,0.72339 -2.89137,-1.02782 0.002,3.78751 -4.84161,0.64182 c 0,0 -0.50514,1.30956 -0.50514,1.30956 l -1.8795,-0.8064 0.21766,1.4573 c 0,0 -0.64937,1.81904 -0.64937,1.81904 l -1.58951,0.79671 8e-4,1.16541 -1.66177,0.79645 -3.32582,-2.04859 -1.95082,0.94144 c 0,0 -0.50713,-1.96805 -0.50713,-1.96805 l -1.37321,0.002 -0.21579,1.67468 -1.73469,-0.0779 -1.15713,-1.09582 1.44523,-0.50589 0.79391,-1.81866 c 0,0 -0.86857,-1.96908 -0.86857,-1.96908 l -2.81861,0.28339 5.12921,-4.13729 1.73472,0.0781 0.36044,-1.52863 1.15607,-0.5795 c 0,0 0.64939,-1.81916 0.64939,-1.81916 l -1.51923,-2.33524 c 0,0 0.93842,-1.96411 0.93842,-1.96411 l -0.86987,-4.15475 1.37377,0.73247 -0.002,-2.76834 c 0,0 0.79455,-0.87185 0.79455,-0.87185 l 7e-5,0.0725 3.47054,1.97686 0.28959,0.80209 c 0,0 3.68564,-0.645 3.68564,-0.645 0,0 1.22793,-1.3076 1.22793,-1.3076 0,0 1.80674,-0.21332 1.80674,-0.21332 l 2.38305,-3.48959 c 0,0 1.15633,-0.002 1.15633,-0.002 0,0 0.79571,1.31345 0.79571,1.31345 l 2.09571,-0.28533 0.36057,-1.45584 2.74559,-1.23032 1.66198,-0.0688"
       id="path138" /><path
       onclick="pokaz(this)"
       d="m 36.146638,76.057063 0.79576,1.6936 1.32321,1.11257 -1.9704,1.46854 c 0,0 -0.0399,1.71429 -0.0399,1.71429 l 1.12384,1.09572 1.87952,0.80677 c 0,0 0.50512,-1.30982 0.50512,-1.30982 l 4.84161,-0.64193 -0.0214,-3.96399 c 0,0 0.77438,-1.70138 0.77438,-1.70138 0,0 -1.57144,-0.26131 -1.57144,-0.26131 l 0.6119,-1.57321 0.31401,-1.82068 -3.10965,-1.82104 c 0,0 -1.31651,1.67526 -1.31651,1.67526 l -2.96836,-0.11556 -0.21468,1.65148 c 0,0 -0.95713,1.99075 -0.95713,1.99075"
       id="path140" /><path
       onclick="pokaz(this)"
       d="m 46.547408,61.753683 -0.79571,-1.31344 c 0,0 -1.15633,0.002 -1.15633,0.002 l -2.38308,3.48959 c 0,0 -1.80673,0.21332 -1.80673,0.21332 0,0 -1.22793,1.3077 -1.22793,1.3077 l -3.68565,0.645 -0.28958,-0.80208 c 0,0 -3.47054,-1.97686 -3.47054,-1.97686 l 0.28654,-4.2971 -0.72355,-1.24066 -2.81835,1.23034 c 0,0 -1.08492,-1.09596 -1.08492,-1.09596 0,0 -3.83064,0.4989 -3.83064,0.4989 0,0 -0.43492,-1.89553 -0.43492,-1.89553 l 2.38527,-0.2115 -0.14525,-1.09326 2.02364,-0.50413 1.66164,-1.45209 -1.87989,-0.806952 1.95106,-1.01428 -0.86812,-1.168135 c 0,0 0.93853,-1.891506 0.93853,-1.891506 l 2.45774,0.152878 1.30066,-0.724693 c 0,0 3.25279,0.08297 3.25279,0.08297 l 0.86775,0.65831 6.14442,1.402238 3.90472,3.58113 1.87844,-1.2329 2.45705,-0.357081 1.15681,0.877591 -0.5054,0.94549 1.66229,0.15061 -0.35882,4.80668 -1.66217,0.0679 -2.74558,1.23028 -0.36057,1.45584 -2.09574,0.28041"
       id="path142" /><path
       onclick="pokaz(this)"
       d="m 25.899328,100.73475 -2.67362,0.7938 -1.73524,-1.02439 -2.16762,1.01357 -0.8653,3.12949 2.31352,1.09871 c 0,0 -0.57671,2.32902 -0.57671,2.32902 l 2.16895,1.17102 -0.2884,1.09172 -2.23978,1.08625 -0.50461,2.03779 -1.44553,-0.0106 -0.94072,-1.75035 0.2862,-4.44156 -2.02483,-1.60785 -3.18082,-0.95541 c 0,0 -1.44672,-1.60626 -1.44672,-1.60626 l -2.3132504,-0.37049 c 0,0 -1.23052,-2.47984 -1.23052,-2.47984 l 2.45565,-2.906707 -0.65347,-4.29921 -3.25517,-3.35968 -0.65318,-3.71687 c 0,0 3.17844,-3.41471 3.17844,-3.41471 l 1.73496,0.078 c 0,0 0.0713,-1.45666 0.0713,-1.45666 l 3.1088604,0.73732 c 0,0 0.14321,-2.03923 0.14321,-2.03923 0,0 2.24096,0.22477 2.24096,0.22477 0,0 0.57759,-1.09101 0.57759,-1.09101 l 3.03636,0.66416 c 0,0 1.59006,-0.21405 1.59006,-0.21405 0,0 3.68697,1.24876 3.68697,1.24876 l -2.31174,1.88727 c 0,0 2.81861,-0.28339 2.81861,-0.28339 0,0 0.86857,1.9691 0.86857,1.9691 0,0 -0.79391,1.8188 -0.79391,1.8188 l -1.44523,0.50578 1.15713,1.09582 1.73468,0.078 0.21579,-1.67468 c 0,0 1.30096,-0.002 1.30096,-0.002 l 0.79687,2.98847 1.08762,5.75681 -2.45454,4.436 c 0,0 -1.59014,-0.22284 -1.59014,-0.22284 l 0.21791,1.686847"
       id="path144" /><path
       onclick="pokaz(this)"
       d="m 52.519058,94.347703 c 0,0 -0.72522,1.35165 -0.72522,1.35165 l -0.5927,3.80762 -2.67467,1.353817 c 0,0 -1.95069,-0.24341 -1.95069,-0.24341 l 0.0139,3.19273 c 0,0 -0.48741,5.3e-4 -0.48741,5.3e-4 l -0.96515,2.21149 c 0,0 -1.21851,0.002 -1.21851,0.002 l -1.82081,1.59848 -0.006,-1.35075 -3.42556,-3.06626 c 0,0 -4.26614,-0.24074 -4.26614,-0.24074 l -0.59362,3.56208 -1.58366,0.12464 -0.10722,3.31576 -1.46397,-0.36671 -0.12023,0.36856 c 0,0 -1.22952,-2.45465 -1.22952,-2.45465 l -2.19086,0.61656 c 0,0 0.11425,-1.71939 0.11425,-1.71939 l -1.4597,0.61568 -2.18546,1.84463 -1.21706,0.36983 -5.3e-4,-0.1228 -2.0773,-1.22566 0.59897,-2.33407 -2.44242,-1.10249 0.96131,-3.07155 2.1894,-0.98499 1.71061,0.98057 2.67785,-0.73991 -0.25138,-1.719067 1.58541,0.24384 2.41782,-4.4241 -0.87866,-5.77136 -0.61917,-2.21014 0.24919,1.22796 1.94617,-0.86186 3.42106,1.96144 1.58104,-0.73864 -0.005,-1.2282 1.58104,-0.73861 -0.36451,0.24604 1.83501,1.59464 c 0,0 1.22727,1.96371 1.22727,1.96371 l 0.37799,2.82416 2.31267,-0.61658 5.61657,2.57278 1.82298,-1.10728 2.19117,-0.49363 c 0,0 0.49168,0.98189 0.49168,0.98189 m -15.02992,-9.44033 c 0,0 -0.60285,1.47447 -0.60285,1.47447 0,0 0.60285,-1.47447 0.60285,-1.47447 m -15.97316,25.685747 0.48583,-0.36899 -0.48583,0.36899"
       id="path146" /><path
       onclick="pokaz(this)"
       d="m 56.958768,70.524623 -1.80687,-0.51501 0.362,1.31202 0.29046,2.69584 c 0,0 -1.08384,0.21544 -1.08384,0.21544 0,0 -0.50527,1.09106 -0.50527,1.09106 l -1.44502,0.50581 0.36234,1.96757 -2.81754,1.52149 -1.08442,-0.8042 -1.734,0.7235 -2.89137,-1.02793 0.002,3.78751 -4.84162,0.64193 -0.50514,1.30955 -1.87949,-0.80653 0.21766,1.45741 -0.64939,1.81904 -0.36124,0.2174 1.73543,1.60716 c 0,0 1.22976,2.04282 1.22976,2.04282 l 0.36293,2.7686 2.31216,-0.64902 c 0,0 5.63801,2.56455 5.63801,2.56455 l 1.87822,-1.0872 2.23989,-0.43068 1.22674,-3.20093 3.46816,-0.79148 1.15477,-2.69134 c 0,0 -0.65109,-1.45841 -0.65109,-1.45841 l -3.54092,-0.22844 -5.3e-4,-1.23809 -2.67467,-1.60984 3.68512,-0.57229 0.14388,-1.23775 2.16786,0.01 c 0,0 1.01082,-1.67222 1.01082,-1.67222 0,0 -1.51866,-2.26219 -1.51866,-2.26219 l 1.87849,-0.65018 c 0,0 1.01087,-1.59944 1.01087,-1.59944 0,0 -0.3623,-1.96757 -0.3623,-1.96757 0,0 -1.51762,-0.22285 -1.51762,-0.22285 l -0.50668,-1.53488"
       id="path148" /><path
       onclick="pokaz(this)"
       d="m 59.252698,73.707563 2.31463,-0.12519 1.70111,-1.10712 0.37611,2.45596 0.12925,1.71927 -0.12185,1.2e-4 -0.84447,1.96591 1.4632,0.24411 1.46634,0.98094 0.85765,1.1044 2.30341,-2.70431 3.17632,1.96162 1.47148,2.20898 1.11011,3.19167 0.3655,-2.6e-4 -2.06068,2.45824 -0.11187,2.33331 -3.52001,3.07393 -2.44883,-2.82178 -2.55651,0.49397 0.95994,-3.43958 c 0,0 -3.04562,0.12611 -3.16892,-0.24217 l -2.07666,-1.22584 -0.61561,-1.47304 -1.584,0.002 -0.48475,0.61457 0.49271,1.22757 -0.49324,-1.35038 -3.71086,-0.17269 -5.3e-4,-1.23809 -2.67467,-1.60984 3.6893,-0.66093 0.1397,-1.14911 2.17015,-0.0822 0.91348,-1.89347 -1.42361,-1.94868 1.8303,-0.82627 1.08976,-1.59779 -0.12344,-0.36833"
       id="path172" />
       </svg>
