<?xml version="1.0" encoding="UTF-8" standalone="no"?>
<svg
   viewBox="0 0 153.61173 160.81667"
   version="1.1"
   id="svg1"
   xmlns="http://www.w3.org/2000/svg">
   <style>path {fill:#e0e0e0;fill-opacity:1;stroke:#ffffff;stroke-width:0.529167}</style>
   <path
       onclick="pokaz(this)"
       d="m 149.45872,83.568947 0.50422,1.16568 1.51408,0.58647 -0.64926,0.58029 -2.5236,-0.73496 -2.30886,2.68552 c 0,0 1.0087,1.89468 1.0087,1.89468 0,0 -1.1539,0.21502 -1.1539,0.21502 l -1.58637,-0.29573 c 0,0 -0.72159,1.01666 -0.72159,1.01666 0,0 1.081,1.53117 1.081,1.53117 l -1.22621,0.57851 c 0,0 -0.36017,-0.80145 -0.36017,-0.80145 l -1.65831,-0.80507 c 0,0 -0.93792,1.01589 -0.93792,1.01589 l -1.08132,-0.94895 -2.88396,-1.90021 -1.73141,1.30484 -3.60495,-2.84823 c 0,0 0.79426,-2.18081 0.79426,-2.18081 0,0 1.51444,0.2227 1.51444,0.2227 l 0.93875,-2.76251 c 0,0 -0.43204,-1.67495 -0.43204,-1.67495 0,0 2.01948,-0.2124 2.01948,-0.2124 0,0 -0.64828,-1.89391 -0.64828,-1.89391 l 2.0918,-0.72158 0.36113,-1.16329 -2.23512,-1.46198 3.10144,-0.64582 c 0,0 -0.93652,-2.47711 -0.93652,-2.47711 l 1.44259,-0.35957 3.31708,1.24687 2.59665,-0.86558 1.87481,0.44209 0.36002,1.31096 2.30738,0.58894 0.71961,3.20384 1.08167,0.0763 c 0,0 1.08228,-1.23386 1.08228,-1.23386 l 0.79277,0.94824 c 0,0 -1.65979,2.54196 -1.65979,2.54196 l -2.16474,2.8313"
       id="path320" /><path
       onclick="pokaz(this)"
       d="m 126.51935,95.506947 -2.38019,0.35706 -1.29866,1.16051 -1.80205,-2.84294 c 0,0 -1.87605,2.03207 -1.87605,2.03207 0,0 -4.03887,-0.81198 -4.03887,-0.81198 0,0 -0.93818,1.37994 -0.93818,1.37994 l -4.11084,-1.39443 -5.12233,2.67784 c 0,0 -0.0721,-0.0723 -0.0721,-0.0723 0,0 -0.14422,-0.14588 -0.14422,-0.14588 l -0.93676,-3.13188 4.40161,-4.13543 -1.44235,-1.02301 -0.79256,-2.84057 -0.79338,-0.36613 0.9384,-1.96226 0.28889,-1.0908 1.08215,-0.36075 3.17394,0.3004 1.22669,-1.16091 -1.44135,-4.00711 1.94803,-1.08588 c 0,0 -0.86503,-1.74924 -0.86503,-1.74924 l 2.66964,-1.52051 -2.1645,1.23087 1.51442,1.24169 2.16374,0.73406 1.37012,1.16848 2.45316,-1.95778 1.44227,0.95033 2.59657,0.15314 -0.14386,-1.01931 5.33771,-0.42093 1.01079,-2.5442 c 0,0 0.0728,-1.6736 0.0728,-1.6736 l 1.22647,-0.86976 -0.072,-0.14574 4.1828,1.10405 1.58684,-0.28643 1.44187,1.31418 -0.5049,0.14405 c 0,0 0.93649,2.47698 0.93649,2.47698 l -3.10145,0.64584 2.23513,1.46199 c 0,0 -0.36111,1.16329 -0.36111,1.16329 l -2.09179,0.72157 c 0,0 0.64828,1.89391 0.64828,1.89391 0,0 -2.01949,0.21241 -2.01949,0.21241 0,0 0.43201,1.67505 0.43201,1.67505 l -0.93874,2.76251 c 0,0 -1.51445,-0.2227 -1.51445,-0.2227 0,0 -0.79422,2.18067 -0.79422,2.18067 l 3.60468,2.84824 c 0,0 0.14433,-0.14505 0.14433,-0.14505 l -0.14457,0.72715 0.50335,3.49409 -1.87534,0.6495 -0.003,-0.43657 -4.54263,-2.41419 c 0,0 -1.22616,0.21473 -1.22616,0.21473 l -1.08122,2.76119"
       id="path322" /><path
       onclick="pokaz(this)"
       d="m 117.60289,84.090177 -0.35772,2.08653 1.22391,2.20763 1.21246,-1.10561 0.97512,0.61259 c 0,0 1.21118,-1.47373 1.21118,-1.47373 0,0 -0.73311,-0.98097 -0.73311,-0.98097 0,0 -1.22049,-1.22597 -1.22049,-1.22597 l -1.21502,0.36933 -1.09633,-0.4898"
       id="path324" /><path
       onclick="pokaz(this)"
       d="m 103.52706,100.31708 c 0,0 1.1548,-2.107043 1.1548,-2.107043 0,0 0.43285,-0.21702 0.43285,-0.21702 l -0.36057,-0.29218 0.072,0.29136 -2.38022,-0.66178 -2.669377,1.59335 v -0.94599 l -4.39949,-3.06891 -0.36119,1.74551 c 0,0 -0.72117,-0.80256 -0.72117,-0.80256 0,0 -0.79357,0.14329 -0.79357,0.14329 0,0 -0.64894,-1.16626 -0.64894,-1.16626 l -0.36063,-0.29207 v 0.14556 l -1.65944,0.72303 -0.93845,2.32611 -1.94791,0.28548 -0.14455,1.01847 1.00976,0.9489 -1.87587,0.649653 1.58676,1.45987 c 0,0 0.43249,1.23833 0.43249,1.23833 l -1.37046,-0.73152 c 0,0 -1.44291,0.21416 -1.44291,0.21416 0,0 -0.36092,0.87228 -0.36092,0.87228 l -1.00986,-0.58502 -2.16448,0.57608 -1.29852,-0.29475 v 1.16433 l -0.86593,0.87085 v 0.80047 l 4.32806,2.26816 2.16344,2.98953 -0.93816,1.45277 0.72099,1.60285 1.08106,4.005 2.59689,0.1527 c 0,0 1.51424,2.18713 1.51424,2.18713 l 2.16381,0.80626 c 0,0 1.22698,-2.61601 1.22698,-2.61601 l 1.803,1.242 c 0,0 1.37004,1.45905 1.37004,1.45905 0,0 0.9384,-2.25298 0.9384,-2.25298 l 3.101707,-0.50086 2.59752,-2.83025 -2.52367,-2.77203 c 0,0 1.51545,-2.17869 1.51545,-2.17869 l 2.3082,-0.13904 0.7216,-1.01661 -0.79256,-2.69452 -2.81305,-0.009 -0.43244,-1.16546 2.52542,-2.46695 -2.09031,-3.42477"
       id="path326" /><path
       onclick="pokaz(this)"
       d="m 97.362263,71.223487 1.21913,0.73528 c 0,0 0.49223,1.59512 0.49223,1.59512 l 1.704387,0.36658 0.1238,0.61354 -3.039007,0.61654 c 0,0 0.85588,1.22652 0.85588,1.22652 l 1.338577,0.12146 c 0,0 0.003,0.98184 0.003,0.98184 l 0.60997,0.49033 0.006,1.59546 c 0,0 0.855,0.98103 0.855,0.98103 l 0.84979,-0.49173 1.22074,1.2261 -0.35976,1.47304 2.42941,-0.98411 0.003,0.85905 c 0,0 0.73028,0.12202 0.73028,0.12202 l -0.35939,1.59573 c 0,0 -1.08789,1.96461 -1.08789,1.96461 l 0.97441,0.36718 0.61847,2.94455 1.46304,0.98026 -4.2426,4.17645 0.98425,3.18955 -2.43491,-0.61108 -2.670437,1.598 -0.003,-0.85897 -4.38996,-3.06335 c 0,0 -0.35891,1.71842 -0.35891,1.71842 0,0 -0.7329,-0.85826 -0.7329,-0.85826 l -0.85063,0.24629 -0.61262,-1.22655 -0.36578,-0.24507 -0.37061,-1.59499 -0.85632,-1.34908 -0.85159,0.001 -0.25069,-2.08605 -2.07071,-0.73427 -0.12605,-1.22714 c 0,0 -1.09577,-0.24438 -1.09577,-0.24438 0,0 -0.49231,-1.59498 -0.49231,-1.59498 l -1.21483,0.49212 -1.09712,-0.61256 c 0,0 0.72556,-1.22801 0.72556,-1.22801 l -2.31679,-1.47056 -1.70506,-0.48926 c 0,0 -1.21666,0.002 -1.21666,0.002 l -0.25344,-2.82258 1.09323,-0.49202 0.84947,-0.61452 c 0,0 5.47873,1.0994 5.47873,1.0994 l 0.60655,-0.49152 -2.07261,-1.22536 -0.003,-0.9819 3.65152,0.48747 0.2368,-1.84129 3.15965,-0.98486 -0.004,-1.22737 1.58459,0.85767 c 0,0 0.60134,-1.96434 0.60134,-1.96434 l 1.82658,0.48924 -0.24765,-1.22714 1.21915,0.73528 0.23942,-1.10485"
       id="path328" /><path
       onclick="pokaz(this)"
       d="m 79.529353,82.531787 c 0,0 1.095,-0.002 1.095,-0.002 l 1.70503,0.48927 2.43893,1.59313 -0.8477,1.1054 1.2188,0.61246 1.09318,-0.49199 c 0,0 0.49231,1.59499 0.49231,1.59499 0,0 1.21658,-0.002 1.21658,-0.002 l 0.126,1.22714 2.07073,0.73427 c 0,0 0.12862,1.96345 0.12862,1.96345 0,0 0.85201,0.12187 0.85201,0.12187 l 0.97755,1.22624 0.37188,1.96313 -1.70093,0.61531 -0.84325,2.33252 -1.94511,0.37015 -0.23982,0.98197 1.09791,0.85789 -1.94424,0.615613 1.58671,1.47092 0.49094,1.22664 -1.34033,-0.61217 c 0,0 -1.45891,0.24694 -1.45891,0.24694 l -0.36232,0.73671 -1.09665,-0.48972 -2.188,0.49318 c 0,0 -1.21742,-0.24416 -1.21742,-0.24416 l 0.004,1.22717 c 0,0 -0.84849,0.85989 -0.84849,0.85989 0,0 -1.95442,-2.20683 -1.95442,-2.20683 l 1.81165,-3.683533 c 0,0 -1.95535,-2.45242 -1.95535,-2.45242 l -0.37642,-3.19035 -0.85693,-1.47185 c 0,0 0.72292,-1.9644 0.72292,-1.9644 l -1.83468,-2.69822 0.24115,-0.61389 2.43067,-0.73879 c 0,0 1.21224,-1.22854 1.21224,-1.22854 0,0 -0.37423,-2.57707 -0.37423,-2.57707 m -4.967283,5.89624 1.212717,-1.1058 -1.212717,1.1058"
       id="path330" /><path
       onclick="pokaz(this)"
       d="m 102.52164,36.626577 1.29847,0.73199 0.21616,0.87429 -2.81358,-0.59108 c 0,0 -0.86622,1.23497 -0.86622,1.23497 l -4.256607,-0.81396 -2.95857,0.71898 c 0,0 0.72093,2.18625 0.72093,2.18625 0,0 -0.1448,1.74681 -0.1448,1.74681 0,0 -0.14428,-0.14598 -0.14428,-0.14598 l -0.57777,2.03663 -1.58737,-0.15042 -2.88634,0.64638 -2.45226,-4.30292 1.66047,-3.19828 c 0,0 -0.86553,-1.45883 -0.86553,-1.45883 l 2.38207,-3.26893 c 0,0 -1.6596,-0.2235 -1.6596,-0.2235 l -3.3909,-2.77734 c 0,0 -0.79335,-1.74998 -0.79335,-1.74998 l -1.08265,0.79756 -2.02012,-2.044988 -1.2268,0.0019 -2.30891,-1.900449 c 0,0 0.6499,-1.818349 0.6499,-1.818349 l -1.731779,-1.024863 -0.504984,-1.093814 1.082703,-0.579147 -0.2163,-1.092914 -0.865212,-3.862123 1.732382,-1.378161 -5.339817,-3.949436 0.28866,0.219382 4.692117,-3.9904458 c 0,0 4.61936,-1.514475 4.61936,-1.514475 l 3.17553,-0.208322 2.16522,-0.721307 c 0,0 0.14481,-1.820122 0.14481,-1.820122 l 5.12418,-1.22147496 -2.59784,-0.66376 3.75233,1.03166296 0.14433,-0.07255 0.0715,2.403369 2.38014,4.303977 -0.28935,2.5477788 2.66965,1.464866 -2.38133,0.210894 -1.01132,3.710252 c 0,0 1.226,2.552303 1.226,2.552303 l 1.29789,3.280569 0.72062,3.278716 3.319187,-0.426429 2.23573,3.35598 1.08236,-0.28787 1.58755,-0.723108 v 1.892988 l 0.4326,0.94782 -1.58713,-0.58748 c 0,0 -1.15504,1.96215 -1.15504,1.96215 l 1.73111,1.53437 2.16427,0.73464 c 0,0 -0.0723,0.14542 -0.0723,0.14542 l -1.58795,2.10629 -1.87558,-1.02497 -1.87629,1.30463 0.36076,0.72451"
       id="path332" /><path
       onclick="pokaz(this)"
       d="m 92.493933,25.604034 1.80412,-0.576819 -0.36135,1.891904 c 0,0 0.36045,1.311728 0.36045,1.311728 l -1.22704,1.23385 -3.31866,-1.90336 c 0,0 1.2995,-2.325921 1.2995,-2.325921 l 1.44309,0.368591"
       id="path334" /><path
       onclick="pokaz(this)"
       d="m 119.85185,40.029117 c 0,0 0.14369,1.60192 0.14369,1.60192 l 0.79336,0.43915 c 0,0 -0.0724,0.87332 -0.0724,0.87332 l -1.94773,-0.15161 0.72017,3.35068 3.02947,0.73713 c 0,0 1.37118,-1.52442 1.37118,-1.52442 l 2.45232,0.8082 c 0,0 -0.43582,7.64143 -0.43582,7.64143 l 1.51426,1.31469 c 0,0 -2.23703,2.3224 -2.23703,2.3224 l -3.17261,-3.06652 c 0,0 -6.2029,-2.63916 -6.2029,-2.63916 0,0 -4.97813,1.2224 -4.97813,1.2224 v 2.83898 l -1.94792,0.28535 -0.43243,-1.23873 -2.88555,-0.29998 -1.22568,-2.55138 c 0,0 -2.81411,1.37451 -2.81411,1.37451 0,0 -1.22655,0.21478 -1.22655,0.21478 l -1.442857,-0.36836 -1.44325,1.01481 -0.79337,-0.94879 1.01017,-0.3609 -0.1439,-1.31077 -1.08217,-0.29443 -1.22664,0.36023 0.28922,-2.25575 1.2266,-0.14186 0.43321,-1.01791 c 0,0 -0.86532,-1.74979 -0.86532,-1.74979 l 1.15445,-0.0697 c 0,0 -0.0719,-0.72813 -0.0719,-0.72813 l -1.2264,-0.58616 c 0,0 -2.38037,-2.40969 -2.38037,-2.40969 0,0 0.1448,-1.74681 0.1448,-1.74681 l -0.72093,-2.18638 2.95857,-0.71885 c 0,0 4.256607,0.81397 4.256607,0.81397 0,0 0.86617,-1.23497 0.86617,-1.23497 0,0 2.81358,0.59108 2.81358,0.59108 l -0.21619,-0.87429 -1.29844,-0.73211 c 0,0 -0.36055,-0.72905 -0.36055,-0.72905 l 1.87629,-1.30464 1.87558,1.02497 c 0,0 1.73231,-2.25152 1.73231,-2.25152 l 2.23562,2.84612 -1.51546,1.16006 0.57685,0.94824 -0.36118,1.38208 c 0,0 1.58728,-0.21351 1.58728,-0.21351 0,0 -0.14491,1.81949 -0.14491,1.81949 l 2.16395,1.09849 c 0,0 0.57753,-1.09019 0.57753,-1.09019 l 0.7933,0.80328 2.95804,-0.79171 c 0,0 0.64985,-1.59954 0.64985,-1.59954 l 2.66911,0.29982"
       id="path336" /><path
       onclick="pokaz(this)"
       d="m 109.29497,59.796137 c 0,0 -1.22573,-1.96892 -1.22573,-1.96892 0,0 0.86619,-1.52599 0.86619,-1.52599 0,0 -0.0721,-0.21854 -0.0721,-0.21854 l 1.94794,-0.28535 v -2.83898 c 0,0 4.97814,-1.2224 4.97814,-1.2224 l 6.20289,2.63917 3.17262,3.06652 c 0,0 0.14433,-0.14508 0.14433,-0.14508 l 0.28807,1.16538 3.60469,4.3778 -0.0734,3.20199 1.29807,0.58605 c 0,0 -0.36128,1.60004 -0.36128,1.60004 0,0 1.00875,2.47748 1.00875,2.47748 l -1.22651,0.86963 c 0,0 -0.0727,1.67375 -0.0727,1.67375 0,0 -1.01079,2.54405 -1.01079,2.54405 l -5.3377,0.42106 0.14388,1.01928 -2.5966,-0.15314 -1.44224,-0.95033 -2.45319,1.95778 -1.37009,-1.16848 -2.16374,-0.73416 -1.51442,-1.24169 2.1645,-1.23087 c 0,0 -1.80268,-2.04311 -1.80268,-2.04311 v -1.67405 l 2.81437,-3.33957 c 0,0 -4.32647,-5.47185 -4.32647,-5.47185 l 0.21688,-1.38237 -1.80348,-0.005"
       id="path338" /><path
       onclick="pokaz(this)"
       d="m 103.36831,82.706407 0.21682,-1.38221 c 0,0 -1.15385,-1.24063 -1.15385,-1.24063 l -0.86577,0.43418 c 0,0 -0.72117,-0.87545 -0.72117,-0.87545 0,0 -0.0716,-1.60142 -0.0716,-1.60142 l -0.72128,-0.51147 0.14457,-0.94577 c 0,0 -1.442747,-0.22262 -1.442747,-0.22262 0,0 -0.8654,-1.09432 -0.8654,-1.09432 l 3.102237,-0.64593 -0.21624,-0.65569 -1.659147,-0.36872 -0.50453,-1.60282 -1.22624,-0.65868 -0.28887,0.94546 c 0,0 0.64986,-1.96329 0.64986,-1.96329 l -1.44208,-2.84294 -0.86564,-0.36645 1.44304,-0.43252 1.37065,0.36809 -0.21588,-1.8932 -1.44258,-1.16893 -1.80362,-0.15095 -1.94725,-2.77178 0.0724,-0.65492 c 0,0 -1.29807,-2.26052 -1.29807,-2.26052 l 2.02028,-0.13949 -0.14401,-1.09236 1.65931,0.4418 0.79406,-1.52624 1.65939,0.0784 0.43328,-1.23624 2.309047,-1.08489 -0.0722,1e-4 c 0,0 1.22658,-0.21464 1.22658,-0.21464 l 2.81411,-1.37453 c 0,0 1.22565,2.55137 1.22565,2.55137 l 2.88555,0.29983 0.50451,1.4574 c 0,0 -0.8662,1.52599 -0.8662,1.52599 0,0 1.22576,1.96892 1.22576,1.96892 l 1.80351,0.0108 -0.21688,1.38237 c 0,0 4.32647,5.47185 4.32647,5.47185 l -2.81438,3.33957 v 1.67391 l 1.80266,2.04322 -2.66964,1.52053 c 0,0 0.86503,1.74924 0.86503,1.74924 l -1.94802,1.08588 1.44131,4.00711 -1.22666,1.16091 -3.17394,-0.3004 -1.08217,0.36076 0.0723,-0.50925 -0.64918,-0.14737 v -0.87329 l -2.45364,0.93319"
       id="path340" /><path
       onclick="pokaz(this)"
       d="m 74.819768,63.021407 0.365045,-2.6e-4 0.24556,0.61357 c 0,0 1.21237,-1.22862 1.21237,-1.22862 l 2.43221,-0.37045 1.82642,0.36664 c 0,0 0.49239,1.59533 0.49239,1.59533 l 1.46092,0.24418 c 0,0 1.22286,1.71738 1.22286,1.71738 l 1.82721,0.61206 0.97115,-0.61463 2.43197,-0.37044 c 0,0 1.21013,-1.84227 1.21013,-1.84227 0,0 1.21576,-0.24659 1.21576,-0.24659 l -0.614,-1.59518 -0.004,-1.10471 1.58205,0.12134 2.07822,2.82125 1.82488,-0.003 1.46466,1.34885 c 0,0 0.12811,1.84102 0.12811,1.84102 l -1.46116,-0.36692 -1.33649,0.49218 0.8533,0.49019 1.46982,2.82152 c 0,0 -0.60177,1.84163 -0.60177,1.84163 l -1.21915,-0.73528 0.24763,1.22714 -1.82658,-0.48924 -0.6009,2.08708 -1.58459,-0.85767 0.004,1.10464 -3.15912,1.1076 -0.35843,1.84139 -3.65152,-0.48747 0.003,0.85916 2.07262,1.22539 -0.48491,0.49138 -5.60043,-1.09926 -0.84902,0.73723 -1.09326,0.49199 v -0.12273 l -2.7985,0.002 -0.736202,-1.71765 -1.944106,0.73829 c 0,0 -1.104371,-2.57654 -1.104371,-2.57654 l -0.132741,-3.06863 0.0045,1.22745 0.850847,-0.24629 c 0,0 0.604414,-1.10529 0.604414,-1.10529 l -0.616823,-2.33164 0.85,-0.49179 c 0,0 -1.100878,-1.59474 -1.100878,-1.59474 l 0.727869,-0.61442 -0.371211,-1.7182 -1.219464,-0.73541 c 0,0 -0.0048,-1.3503 -0.0048,-1.3503 l 1.214147,-0.73764 c 0,0 1.580938,-0.24693 1.580938,-0.24693"
       id="path342" /><path
       onclick="pokaz(this)"
       d="m 82.069353,46.072197 0.12036,-0.3684 3.04112,-0.24804 c 0,0 1.222,1.47214 1.222,1.47214 0,0 1.57568,-1.72 1.57568,-1.72 l 3.40386,-0.86217 1.58255,0.24421 c 0,0 0.60143,-1.96469 0.60143,-1.96469 0,0 2.44202,2.45321 2.44202,2.45321 l 1.21883,0.6128 0.003,0.73655 c 0,0 -1.09501,0.002 -1.09501,0.002 0,0 0.85815,1.84065 0.85815,1.84065 l -0.48318,0.98245 -1.21621,0.1238 -0.23511,2.33256 1.21534,-0.3693 c 0,0 1.09582,0.24458 1.09582,0.24458 l 0.005,1.35027 -0.97203,0.3691 c 0,0 0.85511,0.98126 0.85511,0.98126 l 1.45605,-1.10601 1.461637,0.48977 -2.307667,1.10675 -0.36065,1.22782 c 0,0 -1.70326,0.002 -1.70326,0.002 0,0 -0.72477,1.47365 -0.72477,1.47365 l -1.705,-0.48953 0.12512,0.9819 -1.91889,0.17205 c 0,0 1.19758,2.28357 1.19758,2.28357 l 0.003,0.73649 -1.4604,-0.12146 -0.23984,0.98221 0.61399,1.59517 -1.21576,0.24658 c 0,0 -1.08805,1.96492 -1.08805,1.96492 0,0 -2.43242,0.24771 -2.43242,0.24771 l -0.97115,0.61462 -1.94929,-0.73472 c 0,0 -1.22283,-1.71738 -1.22283,-1.71738 0,0 -1.46095,-0.24418 -1.46095,-0.24418 0,0 -0.49239,-1.59533 -0.49239,-1.59533 l -1.70431,-0.24399 -2.43221,0.37044 -1.334451,1.10601 c 0,0 -0.366818,-0.4907 -0.366818,-0.4907 l -1.096883,-0.49006 -0.24601,-0.73631 0.798407,-0.86738 1.804085,-0.50797 0.18862,-0.71398 1.75972,0.35319 2.23729,-2.04671 c 0,0 -1.09085,-2.23726 -1.09085,-2.23726 0,0 1.45926,-0.24679 1.45926,-0.24679 0,0 0.11641,-1.4732 0.11641,-1.4732 l -0.97649,-0.85849 2.67017,-1.84367 -0.003,-0.73657 c 0,0 0.72696,-0.85998 0.72696,-0.85998 l -1.21938,-0.73551 -0.13266,-3.06891 m -7.737742,13.87872 -1.579192,0.73795 1.579192,-0.73795"
       id="path344" /><path
       onclick="pokaz(this)"
       d="m 86.064563,40.799057 2.45226,4.30292 -0.50512,0.14405 c 0,0 -1.58789,1.74236 -1.58789,1.74236 l -1.22632,-1.45974 -2.95857,0.28223 -0.21656,0.29052 -2.7e-4,-0.0724 -2.59794,0.86572 -1.22661,-0.58618 -1.73201,0.65002 -0.21627,-0.9472 -2.814113,-1.24624 c 0,0 -0.866351,1.8175 -0.866351,1.8175 l -1.370965,-0.805 -1.876584,1.37761 -2.597441,-2.84745 -0.866299,1.3807 c 0,0 0.721916,-1.23547 0.721916,-1.23547 0,0 -0.360627,-1.31167 -0.360627,-1.31167 l -1.804247,-0.0108 -0.576871,-2.84136 -0.144277,-0.29175 1.876557,-0.64953 1.010259,0.65839 3.031331,-1.00994 -1.659308,-3.13611 2.165218,-0.72133 c 0,0 0.433361,-1.74617 0.433361,-1.74617 l -1.587474,-1.31562 0.433599,-3.12975 2.959365,-2.029595 0.216932,-2.038191 1.659969,-0.358801 0.216773,-1.091618 1.298972,0.149693 c 0,0 0.793595,1.167633 0.793595,1.167633 l 2.52536,2.119471 1.2268,-0.0019 c 0,0 2.02012,2.045118 2.02012,2.045118 l 1.08265,-0.79766 c 0,0 0.79338,1.74998 0.79338,1.74998 l 3.3909,2.77733 c 0,0 1.6596,0.2235 1.6596,0.2235 l -2.3821,3.26893 c 0,0 0.86553,1.45883 0.86553,1.45883 l -1.66015,3.20808"
       id="path346" /><path
       onclick="pokaz(this)"
       d="m 75.772268,23.585263 c 0,0 -1.298998,-0.149696 -1.298998,-0.149696 l -0.216747,1.091644 -1.65997,0.358802 -0.216931,2.038191 -2.959365,2.029593 -0.433599,3.12976 1.587473,1.31561 c 0,0 -0.433361,1.74617 -0.433361,1.74617 l -2.165217,0.72133 1.659308,3.13611 -3.031332,1.00997 -1.010258,-0.65839 -1.876557,0.64952 -3.030538,-4.81488 0.866246,-0.94393 -0.577241,-0.94832 c 0,0 -3.536421,-0.73911 -3.536421,-0.73911 0,0 -0.938028,-1.96895 -0.938028,-1.96895 l -0.288184,-3.714754 2.09341,-1.595437 -1.082437,-1.751145 1.083284,-3.929063 -2.309125,-4.376737 0.577506,-0.362321 0.794359,-2.47351 3.897841,-0.133278 c 0,0 0.07216,-0.07252 0.07216,-0.07252 l 1.15479,0.295037 1.515956,-1.087649 1.65997,0.515117 0.505698,-2.4744888 3.320256,-0.644816 2.092801,1.3902798 5.339826,3.949435 -1.732417,1.378162 0.865247,3.862123 0.21627,1.09294 -1.082655,0.579147 0.504931,1.093946 1.731834,1.024864 c 0,0 -0.64992,1.818322 -0.64992,1.818322 0,0 -0.21646,-0.219117 -0.21646,-0.219117 l -0.793567,-1.167739"
       id="path348" /><path
       onclick="pokaz(this)"
       d="m 52.806435,29.993467 c 0,0 -0.865929,-1.75037 -0.865929,-1.75037 0,0 0.649764,-1.235952 0.649764,-1.235952 l 1.515957,-1.305983 2.093066,0.880322 0.0011,0.291253 2.09341,-1.595437 -1.082437,-1.751145 1.08331,-3.929063 -2.309125,-4.376737 -2.021231,1.086062 -3.537215,1.15398 -2.381964,-1.099873 c 0,0 -1.804882,1.887776 -1.804882,1.887776 l -1.01047,-1.31408 0.721783,0.949034 -0.216701,1.237456 c 0,0 -1.155118,1.161494 -1.155118,1.161494 0,0 1.010364,2.260812 1.010364,2.260812 0,0 -0.649763,0.799068 -0.649763,0.799068 l -1.515798,-1.024308 -3.104092,0.427197 c 0,0 -4.042569,-0.668153 -4.042569,-0.668153 l -1.227296,0.651563 0.21654,0.510461 -1.877377,5.966093 -1.876981,0.35816 1.082569,4.7371 -1.227269,0.87003 0.216376,3.35042 2.598817,-0.57457 -0.505434,1.8918 c 0,0 0.360918,0.21951 0.360918,0.21951 l 1.3716,-0.86961 -1e-5,0.14563 c 0,0 0.07216,-0.0725 0.07216,-0.0725 l 1.80467,-0.43138 2.165429,1.46307 c 0,0 0.577347,1.45804 0.577347,1.45804 l 3.53695,0.15649 3.104357,-4.4323 1.371467,-0.35988 c 0,0 -0.649393,-2.04089 -0.649393,-2.04089 l 2.021099,-0.13938 0.361156,-2.03779 1.371468,-0.35986 0.2168,-2.0383 1.442534,-0.5053"
       id="path350" /><path
       onclick="pokaz(this)"
       d="m 30.864539,22.423742 -2.671233,-0.299773 -2.237978,-2.046287 c 0,0 0.288872,-2.256843 0.288872,-2.256843 l -3.03239,1.738339 0.144307,2.986616 c 0,0 -3.393281,-0.447595 -3.393281,-0.447595 l -4.620948,2.971535 2.165958,8.746333 2.887927,0.44598 2.598949,3.21231 3.898371,1.03147 1.515798,4.15555 1.010629,0.44 0.577612,-1.60022 1.154906,1.67835 c 0,0 0.505354,-0.87235 0.505354,-0.87235 l 1.154959,1.09585 c 0,0 0.649711,-0.72613 0.649711,-0.72613 l 1.804617,0.66085 0.288819,-1.09135 -0.144152,-3.05885 -1.876955,1.23214 c 0,0 0.649844,-2.47385 0.649844,-2.47385 l -2.598817,0.57457 -0.216377,-3.35042 1.22727,-0.87003 -1.082569,-4.7371 1.876981,-0.35817 1.877377,-5.966088 c 0,0 -1.082701,-2.406756 -1.082701,-2.406756 l -3.32105,1.591866"
       id="path468" /><path
       onclick="pokaz(this)"
       d="m 11.010206,35.909557 -3.1046206,-0.30089 -0.505407,0.14408 2.9604226,4.88844 -3.6099746,1.9553 c 0,0 3.8266686,4.96358 3.8266686,4.96358 l -0.144349,3.2766 0.577586,0.2931 4.764881,1.54361 3.320785,-1.73762 0.721916,0.73035 1.949212,-1.15919 c 0,0 0.288792,-1.45545 0.288792,-1.45545 l 1.443832,0.44133 3.826139,-2.82813 1.51601,-0.50507 -0.360866,-1.53029 1.3716,-0.50557 -0.43307,-1.0936 0.577586,-1.52742 -0.577612,1.60023 -1.010629,-0.44 -1.515798,-4.15555 -3.898371,-1.03148 -2.598949,-3.2123 -2.599081,-0.44508 -1.082993,0.87056 c 0,0 -1.588373,-1.89836 -1.588373,-1.89836 l -2.671498,-0.22683 0.288819,2.40427 -1.732809,0.94146"
       id="path470" /><path
       onclick="pokaz(this)"
       d="m 33.317227,53.163037 0.866166,0.58507 0.866272,-1.16239 c 0,0 1.082649,1.45954 1.082649,1.45954 0,0 -0.577638,2.61951 -0.577638,2.61951 l 0.577241,2.91412 c 0,0 1.443461,1.89733 1.443461,1.89733 0,0 0.144222,1.8206 0.144222,1.8206 l 1.443513,0.73239 c 0,0 0.577215,2.25856 0.577215,2.25856 l -1.227164,1.74369 1.010206,3.20622 0.216514,0.0735 -1.660128,0.86873 -6.062927,0.12842 -3.103563,-2.41173 -0.794014,-0.0754 c 0,0 1.371335,2.62501 1.371335,2.62501 l 2.57e-4,2.32976 -1.443646,0.57811 0.216537,0.14625 c 0,0 -0.649684,0.94456 -0.649684,0.94456 0,0 0.649684,-0.94456 0.649684,-0.94456 l -5.413639,-4.02008 c 0,0 -0.649711,1.67264 -0.649711,1.67264 l -1.443725,0.43265 -2.526533,0.64775 -1.876875,-4.2283 -2.093515,0.35771 c 0,0 -1.876955,-0.22393 -1.876955,-0.22393 l -0.144441,-4.66037 -0.721942,-0.43905 1.22727,-1.23409 -3.5374786,-1.17555 -3.176588,0.7915 -0.50538,0.43537 -2.815696,-1.82885 1.588346,-0.35936 -0.216656,-1.67539 1.516142,-0.2867 0.288766,-1.23701 1.44391,-1.23359 -2.960158,-1.5381 3.32105,-2.97551 1.43e-4,-3.13134 3.3210496,1.53937 4.764881,1.54363 3.320786,-1.73765 c 0,0 0.721915,0.73038 0.721915,0.73038 l 1.949212,-1.15922 0.288793,-1.45542 1.443831,0.4413 3.826139,-2.82813 1.515984,-0.50519 3.609181,1.54019 -1.010709,1.67164 c 0,0 0.433018,1.89457 0.433018,1.89457 l 1.443646,0.80521 c 0,0 -7.94e-4,1.09177 -7.94e-4,1.09177"
       id="path472" /><path
       onclick="pokaz(this)"
       d="m 16.021414,57.793237 c 0,0 1.948683,0.24388 1.948683,0.24388 l 1.953313,1.47166 -0.605869,0.73724 2.808287,2.20758 c 0,0 -0.361474,0.98255 -0.361474,0.98255 l -2.435965,-0.36615 0.369861,1.22745 0.490167,0.859 -2.43086,0.98443 -2.442104,-1.96225 0.60587,-0.73724 -0.73414,-0.9816 0.972,-0.49199 c 0,0 -0.854948,-0.73597 -0.734139,-0.98161 0.242064,-0.36856 0.596503,-3.19299 0.596503,-3.19299"
       id="path474" /><path
       onclick="pokaz(this)"
       d="m 65.58581,47.289287 -1.371151,-0.14973 -2.165217,0.7943 -1.082728,0.94321 -0.288978,1.81925 -1.948709,0.6494 c 0,0 -1.154986,1.81665 -1.154986,1.81665 0,0 0.938424,-1.52611 0.938424,-1.52611 l -1.80414,-0.87911 -3.319728,-1.53903 -2.959364,2.24811 -2.670175,-2.77495 -2.887133,0.28253 c 0,0 -1.299052,-1.82433 -1.299052,-1.82433 l -0.721809,0.0706 c 0,0 -1.226926,-1.53281 -1.226926,-1.53281 l -1.515904,0.79631 -1.587923,-1.0242 -0.216392,-1.96675 1.876901,-1.45056 -0.144338,-0.29162 c 0,0 3.53695,0.15636 3.53695,0.15636 l 3.104356,-4.4323 1.371468,-0.35989 -0.649394,-2.04089 2.021073,-0.13937 0.361156,-2.03777 1.371468,-0.35989 0.216802,-2.03829 1.443673,-0.50517 c 0,0 -0.865929,-1.75038 -0.865929,-1.75038 0,0 0.649764,-1.235948 0.649764,-1.235948 l 1.515957,-1.305983 2.093065,0.880322 0.288132,4.005789 0.938027,1.96898 c 0,0 3.536421,0.73911 3.536421,0.73911 l 0.577236,0.94843 -0.866241,0.94392 3.174731,5.10673 0.576871,2.84136 1.804246,0.0108 c 0,0 0.360627,1.31156 0.360627,1.31156 l -0.721915,1.23561 -0.288978,1.59554"
       id="path572" /><path
       onclick="pokaz(this)"
       d="m 71.194976,62.944677 -1.370832,-1.32418 -0.433097,0.65875 -0.865928,-0.14936 -0.360601,-1.32117 -1.587579,-0.15154 c 0,0 0.07218,-10e-5 0.07218,-10e-5 0,0 -1.587235,-2.64526 -1.587235,-2.64526 l -1.659652,-1.03184 0.144489,-1.24646 c 0,0 -3.319727,-0.23014 -3.319727,-0.23014 l -1.732121,0.43487 -0.505355,1.39206 -0.649499,-0.22202 c 0,0 0.288819,-1.17269 0.288819,-1.17269 l -0.07187,-2.7141 c 0,0 1.154932,-1.83017 1.154932,-1.83017 l 1.948683,-0.65418 0.288925,-1.83277 1.082709,-0.95031 2.165192,-0.8002 c 0,0 1.37115,0.15097 1.37115,0.15097 l 0.288925,-1.61274 c 0,0 0.866246,-1.39102 0.866246,-1.39102 l 2.597546,2.86861 1.876531,-1.3879 1.370992,0.81111 c 0,0 0.866298,-1.8311 0.866298,-1.8311 l 2.814106,1.25571 0.2163,0.95409 1.73201,-0.65482 1.22661,0.5906 2.59795,-0.87209 0.14375,2.78739 1.24137,1.05338 c 0,0 -0.727,0.85998 -0.727,0.85998 l 0.003,0.73657 -2.36802,1.77049 c 0,0 0.62317,0.78316 0.62317,0.78316 l -0.0654,1.62174 -1.45028,0.0605 c 0,0 1.08191,2.42353 1.08191,2.42353 l -2.23729,2.04671 -1.73173,-0.4453 -0.21661,0.80608 -1.804091,0.50798 c 0,0 0.07215,-1e-4 0.07215,-1e-4 l -0.288475,-0.88104 c 0,0 -3.031066,1.23761 -3.031066,1.23761 l 0.288528,0.73436 -0.360839,0.80549"
       id="path574" /><path
       onclick="pokaz(this)"
       d="m 54.031456,62.762117 -1.082675,0.94319 -0.577771,2.98317 -1.226899,-0.0762 -2.237449,1.01261 0.50501,1.74866 -3.175794,2.5387 c 0,0 -0.649525,-0.22036 -0.649525,-0.22036 l -6.062663,-0.45461 -1.010205,-3.20622 c 0,0 1.227163,-1.74368 1.227163,-1.74368 0,0 -0.577241,-2.25867 -0.577241,-2.25867 l -1.443514,-0.73242 c 0,0 -0.144221,-1.8206 -0.144221,-1.8206 0,0 -1.443461,-1.8973 -1.443461,-1.8973 l -0.577242,-2.91412 0.577639,-2.61937 c 0,0 -1.082649,-1.45958 -1.082649,-1.45958 l -0.866272,1.1624 -0.866167,-0.58505 -5.29e-4,-1.09228 -1.443646,-0.80534 c 0,0 -0.433017,-1.89447 -0.433017,-1.89447 0,0 1.010708,-1.67163 1.010708,-1.67163 l -3.609181,-1.5402 -0.360865,-1.53029 1.3716,-0.50544 -0.43307,-1.0936 c 0,0 0.577612,-1.52755 0.577612,-1.52755 0,0 1.154906,1.67839 1.154906,1.67839 0,0 0.505354,-0.87225 0.505354,-0.87225 l 1.154933,1.09585 c 0,0 0.649711,-0.72626 0.649711,-0.72626 l 1.804617,0.66085 0.288819,-1.09135 -0.144158,-2.91306 0.07216,-0.0725 1.80467,-0.43135 2.165429,1.46304 c 0,0 0.721678,1.7498 0.721678,1.7498 l -1.876901,1.45055 0.216389,1.96665 1.587923,1.02431 1.515904,-0.79643 c 0,0 1.226926,1.53292 1.226926,1.53292 l 0.72181,-0.0706 1.299051,1.82419 2.887133,-0.28249 2.670175,2.77495 2.959365,-2.24809 c 0,0 3.319727,1.53914 3.319727,1.53914 l 1.804141,0.8791 c 0,0 -0.938451,1.52612 -0.938451,1.52612 l 0.07182,2.69398 -0.288845,1.16399 0.649499,0.22029 -0.433229,1.30921 -1.876398,-0.1512 -2.02102,1.59555 0.360971,2.76727"
       id="path576" /><path
       onclick="pokaz(this)"
       d="m 59.876101,69.186197 -0.721783,0.72591 -0.07221,0.58217 1.371045,0.36798 1.876009,1.67984 c 0,0 -0.505169,0.0717 -0.505169,0.0717 0,0 0.07189,1.8201 0.07189,1.8201 0,0 -1.371106,-0.14971 -1.371106,-0.14971 0,0 -0.64971,1.3812 -0.64971,1.3812 0,0 -0.865955,0.001 -0.865955,0.001 l -0.937948,-1.31305 -3.608652,1.80932 -0.938054,-0.80351 -1.80422,0.14029 0.216371,1.09257 -1.515533,-0.0771 -0.288846,1.30945 -3.175529,-0.0817 c 0,0 0.649737,-1.74524 0.649737,-1.74524 l -1.082516,-0.51271 -0.144346,0.0726 -0.28829,-3.49515 3.320256,-2.68366 c 0,0 -0.50501,-1.74879 -0.50501,-1.74879 l 2.237449,-1.01251 1.226899,0.0762 0.577771,-2.98317 1.082675,-0.94319 -0.360495,-2.76754 2.02102,-1.59568 1.876398,0.15134 0.938636,-2.69081 1.732121,-0.43167 c 0,0 3.31973,0.22841 3.31973,0.22841 l -0.144542,1.23724 1.659652,1.02426 c 0,0 1.587156,2.62559 1.587156,2.62559 0,0 -0.07218,1.1e-4 -0.07218,1.1e-4 l -1.515957,2.9075 c 0,0 -0.07258,1.96543 -0.07258,1.96543 l -2.020544,-0.2972 -2.81464,1.01073 c 0,0 -0.505433,1.74559 -0.505433,1.74559 l -1.154695,0.28781 1.371018,1.01907"
       id="path578" /><path
       onclick="pokaz(this)"
       d="m 75.110809,63.188097 -1.731909,0.35877 -1.082569,0.79754 -0.25154,1.00965 1.226556,0.73157 0.539565,2.04862 -0.721731,0.65293 1.082067,1.53192 -0.866008,0.5798 0.50464,2.25798 -0.505354,1.09046 -0.79375,0.21604 -0.07197,-1.16493 -5.917142,0.49212 -2.164529,-1.68063 -2.02065,0.4309 -1.876001,-1.67984 -1.371045,-0.36798 0.07221,-0.58217 0.721783,-0.72591 -1.370991,-1.02314 1.154694,-0.28781 0.505434,-1.74562 2.814629,-1.01089 2.02057,0.29723 c 0,0 0.07255,-1.9653 0.07255,-1.9653 l 1.515983,-2.9075 1.587553,0.15034 0.360574,1.31149 c 0,0 0.865929,0.14812 0.865929,0.14812 l 0.433096,-0.65384 1.370806,1.31438 0.360945,-0.7996 -0.288475,-0.72893 3.031066,-1.22843 0.288767,0.99271 -0.938583,0.67969 c 0,0 0.36068,0.72898 0.36068,0.72898 0,0 1.298839,-0.002 1.298839,-0.002 l -0.216588,0.73245"
       id="path580" /><path
       onclick="pokaz(this)"
       d="m 69.104768,90.175597 -0.216297,-0.94681 -0.288634,0.0715 0.144463,-0.72747 -0.4327,-1.31138 -2.452899,-2.33624 -1.876081,-0.29655 -0.432779,-1.0931 c 0,0 1.660128,-2.61567 1.660128,-2.61567 l -1.082331,-0.36706 0.361447,-3.78407 1.876372,-1.01359 c 0,0 0.07258,-1.96514 0.07258,-1.96514 l 5.989372,-0.49191 0.215874,2.91227 c 0,0 0.897969,2.39913 0.897969,2.39913 l 1.944106,-0.73829 c 0,0 0.736195,1.71765 0.736195,1.71765 l 2.79824,-0.002 0.87146,5.52238 c 0,0 -1.26154,1.30935 -1.26154,1.30935 l -2.38112,0.72083 -0.28874,0.58155 -0.216394,-0.29178 -3.319463,2.82892 -1.442931,-0.73189 -1.876214,0.6503"
       id="path582" /><path
       onclick="pokaz(this)"
       d="m 61.169914,100.05249 -4.112948,-0.157263 0.21681,-2.11011 2.09259,0.15151 2.959089,-3.41233 -0.360468,-1.82065 1.587526,-0.43217 2.453878,-2.90433 1.082305,0.22145 1.803955,-0.35872 0.216297,0.94681 1.876161,-0.64966 1.442931,0.73203 3.319463,-2.82893 2.09172,3.06282 c 0,0 -0.72192,1.96302 -0.72192,1.96302 l 0.7933,1.53059 0.36007,3.05779 2.01954,2.55299 -2.16535,4.287573 c 0,0 -2.09172,-2.62586 -2.09172,-2.62586 l -3.246433,-0.80978 -4.7625,2.24261 -1.875632,-1.82483 c 0,0 -3.391429,0.35428 -3.391429,0.35428 l -1.587225,-1.16891"
       id="path584" /><path
       onclick="pokaz(this)"
       d="m 46.448497,122.08435 4.988719,-0.005 0.246962,0.98144 -1.702091,0.37005 0.24833,1.34956 c 0,0 2.069359,0.24308 2.069359,0.24308 l 0.970677,-0.73736 1.705663,0.61163 c 0,0 0.848545,-0.85992 0.848545,-0.85992 l 0.23884,-1.2274 5.70707,-3.07419 -0.0064,-1.71797 -2.194965,-1.34742 2.915452,-1.23036 1.948894,0.61142 c 0,0 0.479981,-1.84123 0.479981,-1.84123 l 1.456399,-0.98333 2.925233,1.46939 c 0,0 1.467908,2.20721 1.467908,2.20721 l 2.666736,-2.70245 c 0,0 2.059331,-2.45647 2.059331,-2.45647 0,0 1.217453,0.24411 1.217453,0.24411 l 0.72509,-1.3506 2.79374,-1.23012 0.35925,-1.59565 c 0,0 -0.73345,-0.98092 -0.73345,-0.98092 l 0.23714,-1.71826 -1.58811,-1.83909 c 0,0 -0.36279,0.61397 -0.36279,0.61397 0,0 -2.07746,-2.57493 -2.07746,-2.57493 l -3.166267,-0.85574 c 0,0 -4.858543,2.21409 -4.858543,2.21409 0,0 -1.710082,-1.83907 -1.710082,-1.83907 l -3.405452,0.37174 -1.586238,-1.225663 -4.258733,0.004 0.486728,-5.3e-4 -0.97208,0.369203 c 0,0 -0.730514,-0.12198 -0.730514,-0.12198 0,0 -0.972556,0.24648 -0.972556,0.24648 0,0 0.366845,0.49054 0.366845,0.49054 0,0 1.22129,1.22603 1.22129,1.22603 l -1.333976,1.2287 0.01077,2.94534 c 0,0 -1.215893,0.24676 -1.215893,0.24676 0,0 -0.244258,-0.24522 -0.244258,-0.24522 l -0.118512,0.85921 c 0,0 0.734589,1.2265 0.734589,1.2265 0,0 -0.972529,0.24648 -0.972529,0.24648 l -1.218142,-0.36687 0.124831,0.85894 c 0,0 0.982001,2.33072 0.982001,2.33072 0,0 -0.482203,1.22772 -0.482203,1.22772 0,0 2.43668,0.8564 2.559738,1.22444 0.122562,0.24529 0.738134,2.20813 0.617352,2.45369 7.94e-4,0.24542 -3.399631,1.96723 -3.399631,1.96723 0,0 -3.41339,-1.71429 -3.41339,-1.71429 0,0 -3.160448,0.86252 -3.160448,0.86252 l -0.964353,2.45546 0.486727,-5.3e-4 c 0,0 0.981181,2.0851 0.981181,2.0851"
       id="path586" /><path
       onclick="pokaz(this)"
       d="m 59.873456,75.665847 c 0,0 0.64971,-1.38121 0.64971,-1.38121 0,0 1.371098,0.14971 1.371098,0.14971 0,0 -0.07189,-1.82009 -0.07189,-1.82009 l 2.525819,-0.50221 2.164529,1.68064 c 0,0 -0.07215,1e-4 -0.07215,1e-4 0,0 -0.07258,1.96514 -0.07258,1.96514 l -1.876372,1.01359 -0.361447,3.78407 1.082331,0.36706 c 0,0 -1.660102,2.61567 -1.660102,2.61567 l 0.0721,0.29133 -3.103033,0.4277 -1.226688,-0.4403 -1.659837,0.72311 -2.45364,0.42955 -0.216635,0.94573 -1.804194,0.57708 -1.804035,-0.73311 -2.236973,-1.53508 7.94e-4,-2.76622 -2.092933,-0.0104 -0.793989,1.23515 -0.50501,-1.74847 -1.226978,0.94268 -1.443355,-0.87775 -0.793645,-2.62287 c 0,0 3.319992,-1.00954 3.319992,-1.00954 0,0 -0.793776,-1.02145 -0.793776,-1.02145 l 1.732227,-0.86855 1.082489,0.51281 c 0,0 -0.649737,1.74525 -0.649737,1.74525 l 3.175529,0.0817 0.288846,-1.30959 1.515533,0.0771 -0.216371,-1.09257 1.804247,-0.14031 0.938027,0.80354 3.608652,-1.80922 0.937922,1.31305 0.86569,0.007"
       id="path588" /><path
       onclick="pokaz(this)"
       d="m 48.75831,84.875987 -2.525818,-0.73525 -0.721863,1.59941 0.432911,0.87477 -0.360997,1.38202 -0.216475,-0.29181 -1.804273,0.35875 -1.010258,-1.31315 c 0,0 -0.649632,0.87167 -0.649632,0.87167 l -1.443381,-0.44096 -0.505354,1.59994 -2.742671,0.28334 c 0,0 -1.154615,-2.04158 -1.154615,-2.04158 l -2.309601,0.13891 -1.443302,-3.71687 c 0,0 0.649737,-2.25483 0.649737,-2.25483 0,0 -1.443566,-0.14972 -1.443566,-0.14972 l -0.288634,-1.38409 -3.103827,-0.37303 c 0,0 -1.010444,-2.11426 -1.010444,-2.11426 0,0 1.154959,-1.67108 1.154959,-1.67108 l -0.216535,-0.14613 1.443672,-0.57825 -2.59e-4,-2.32974 c 0,0 -1.371335,-2.62501 -1.371335,-2.62501 l 0.794014,0.0754 3.103563,2.41173 6.062927,-0.1284 1.660128,-0.86876 5.846233,0.3813 c 0,0 0.649526,0.22036 0.649526,0.22036 l -0.144378,0.14512 0.288316,3.49515 0.144349,-0.0726 -1.732227,0.86855 c 0,0 0.793803,1.02145 0.793803,1.02145 l -3.319992,1.00938 0.793644,2.62303 1.443355,0.87775 1.227006,-0.94281 c 0,0 0.50501,1.7486 0.50501,1.7486 0,0 0.793962,-1.23515 0.793962,-1.23515 l 2.092933,0.0101 -7.94e-4,2.76596 0.216498,0.14622 -0.576712,0.50432"
       id="path590" /><path
       onclick="pokaz(this)"
       d="m 14.330727,77.787807 -3.970338,-1.75901 -0.7219416,-1.60385 -6.208712,0.20019 c 0,0 -1.083019,-1.82348 -1.083019,-1.82348 0,0 -1.37186497,-2.1884 -1.37186497,-2.1884 0,0 1.01070897,-1.67163 1.01070897,-1.67163 l -1.66057797,-0.51464 0.28874,-1.01854 1.66055097,-0.21355 3.754173,-3.77508 3.176587,-0.7915 3.5374796,1.17557 c 0,0 -1.22727,1.23423 -1.22727,1.23423 l 0.721942,0.43905 0.144441,4.6601 c 0,0 1.876954,0.22405 1.876954,0.22405 l 2.093516,-0.35787 1.876875,4.2283 2.526532,-0.64778 1.443726,-0.43264 0.649711,-1.67262 5.413639,4.02008 c 0,0 -1.227164,1.8165 -1.227164,1.8165 l -2.309839,-0.15235 c 0,0 0.0722,1.16509 0.0722,1.16509 l -1.227137,0.72437 -1.082728,-0.43992 -2.742935,1.44807 -1.515878,-1.09654 -1.154985,0.87029 -2.237793,-0.29779 -0.505381,-1.74873"
       id="path592" /><path
       onclick="pokaz(this)"
       d="m 60.468768,96.665827 -1.957626,-2.94376 c 0,0 0.234384,-2.45499 0.234384,-2.45499 l -1.828376,-0.85733 c 0,0 0.603461,-1.35072 0.603461,-1.35072 l 2.194772,1.22521 1.096486,0.36711 -0.247843,-1.22714 -1.950482,-0.97997 c 0,0 -1.947836,-0.24355 -1.947836,-0.24355 0,0 -1.221369,-1.22621 -1.221369,-1.22621 l 0.60661,-0.49157 -1.218671,-0.4898 0.239768,-0.98219 2.431944,-0.49334 1.791388,-0.70186 1.226688,0.44029 3.063864,-0.35808 0.367718,0.73609 c 0,0 1.826075,0.24371 1.826075,0.24371 0,0 2.442448,2.45234 2.442448,2.45234 0,0 0.491119,1.22688 0.491119,1.22688 l -0.119009,0.73652 c 0,0 -1.580859,0.24704 -1.580859,0.24704 0,0 -0.973852,-0.12176 -0.973852,-0.12176 l -2.544921,2.82548 -1.580039,0.49255 0.371766,1.84063 c 0,0 -1.817544,2.08833 -1.817544,2.08833 m 8.615351,-6.51352 0.607484,-0.24607 -0.607484,0.24607"
       id="path594" /><path
       onclick="pokaz(this)"
       d="m 57.055643,99.893737 c 0,0 0.505116,-5.3e-4 0.505116,-5.3e-4 l -1.010285,0.433823 -0.79375,-0.14782 c 0,0 -0.938107,0.21563 -0.938107,0.21563 0,0 -1.370832,-1.750593 -1.370832,-1.750593 l 0.722312,-5.16573 -4.041246,0.13394 -1.732015,0.50462 -0.576924,-3.49541 -2.23692,-2.62697 c 0,0 0.360998,-1.382 0.360998,-1.382 l -0.432911,-0.87479 c 0,0 0.721862,-1.59928 0.721862,-1.59928 l 2.525819,0.73526 0.5774,-0.5079 2.02049,1.38888 1.804062,0.73311 1.804194,-0.57709 1.226687,0.4403 -0.649552,0.65315 1.154457,1.09519 1.948338,0.36959 1.948207,0.87911 0.216276,1.23798 -1.01018,-0.29405 -2.23684,-1.24384 c 0,0 -0.57748,1.38129 -0.57748,1.38129 l 1.803877,0.87857 -0.216848,2.40133 1.875685,2.98953 c 0,0 -1.08257,1.23423 -1.08257,1.23423 l -2.092589,-0.15151 -0.216802,2.11206"
       id="path596" /><path
       onclick="pokaz(this)"
       d="m 58.135143,126.31504 0.144513,-1.38221 -2.236523,-1.31599 -0.07226,0.43646 0.14447,-1.23672 5.772676,-3.11309 -0.07191,-1.67396 -2.092243,-1.31564 2.742139,-1.30233 2.092245,0.73347 0.361104,-1.89105 1.443196,-1.01471 c 0,0 3.030008,1.46389 3.030008,1.46389 0,0 1.442535,2.1871 1.442535,2.1871 l 2.597838,-2.68526 c 0,0 0.0721,-0.0725 0.0721,-0.0725 l 1.22637,0.51282 1.370912,-0.57835 0.28807,2.25668 -0.93786,0.0697 0.14396,1.383 2.23625,0.95218 -0.0724,1.01854 1.00997,0.0749 -0.86662,4.07246 c 0,0 -0.72144,0.14351 -0.72144,0.14351 l -2.236437,0.0663 -2.453085,1.01201 0.216165,1.31032 -2.020147,0.43103 c 0,0 -1.587632,2.32415 -1.587632,2.32415 l -1.442932,-0.0769 c 0,0 -0.432646,-1.09265 -0.432646,-1.09265 l -2.380906,0.28459 c 0,0 -3.463129,0.0629 -3.463129,0.0629 0,0 0.07215,-1.1e-4 0.07215,-1.1e-4 l -0.432837,-0.43783 c 0,0 -0.649076,-1.74816 -0.649076,-1.74816 l -1.226661,0.72438 -1.009914,-0.58319"
       id="path598" /><path
       onclick="pokaz(this)"
       d="m 96.594973,131.36858 -3.24591,-0.008 c 0,0 -0.0725,1.16388 -0.0725,1.16388 l -1.80337,0.28609 c 0,0 0.86519,1.38475 0.86519,1.38475 0,0 -1.44201,-2.2593 -1.44201,-2.2593 l 1.15517,-3.85313 -1.87505,-1.60586 -3.31867,1.8827 -4.11162,-0.88435 -0.43257,-1.23811 -3.31787,-1.75549 -0.0719,-0.65503 -1.01,0.0699 0.86662,-4.07246 -1.00997,-0.0749 0.0724,-1.01854 -2.236257,-0.95218 -0.144013,-1.383 0.9379,-0.0697 -0.28811,-2.25668 -1.370859,0.57835 -1.22637,-0.51281 c 0,0 -0.07215,0.0725 -0.07215,0.0725 0,0 2.020596,-2.32291 2.020596,-2.32291 0,0 1.298603,0.22192 1.298603,0.22192 l 0.79388,-1.45327 2.74188,-1.22934 0.3611,-1.59993 c 0,0 -0.72123,-0.94806 -0.72123,-0.94806 0,0 0.14468,-1.67335 0.14468,-1.67335 l 0.2885,0.29186 c 0,0 0.0721,-0.0725 0.0721,-0.0725 v 0.80047 c 0,0 4.32805,2.26803 4.32805,2.26803 l 2.1635,2.9898 c 0,0 -0.93818,1.45264 -0.93818,1.45264 l 0.72099,1.60295 1.08106,4.005 2.59688,0.1527 c 0,0 1.51426,2.18713 1.51426,2.18713 l 2.16379,0.80626 c 0,0 1.22701,-2.61599 1.22701,-2.61599 l -1.08265,2.32543 1.44185,2.84162 3.75047,0.73792 1.586937,-0.35943 c 0,0 1.08151,1.38528 1.08151,1.38528 l -0.0721,-0.0735 1.72942,5.24324 c 0,0 -1.37117,2.54257 -1.37117,2.54257 l -2.23618,0.86704 c 0,0 -0.864867,-2.18493 -0.864867,-2.18493 l -0.79322,-0.65704 c 0,0 0.64963,-1.59885 0.64963,-1.59885 l -1.00968,-0.43926 c 0,0 -1.5145,1.66867 -1.5145,1.66867"
       id="path600" /><path
       onclick="pokaz(this)"
       d="m 90.879973,131.93479 c 0,0 1.44204,2.2593 1.44204,2.2593 l -2.81358,1.9568 -1.0096,-0.87577 -2.52563,3.84916 -2.38073,1.15766 c 0,0 0.14375,2.18297 0.14375,2.18297 l -1.08217,0.72464 0.72049,3.49409 2.45247,0.0792 0.28832,0.80097 -1.29852,0.6513 c 0,0 1.37004,1.74964 1.37004,1.74964 l -3.31788,-0.15431 c 0,0 -0.57753,2.10826 -0.57753,2.10826 0,0 0.57692,0.58348 0.57692,0.58348 l -1.0106,3.19828 -6.636278,0.419 0.07284,-3.05514 -2.380138,-1.75231 c 0,0 1.154615,-2.03399 1.154615,-2.03399 0,0 -1.442455,-1.45888 -1.442455,-1.45888 l -0.937948,0.72509 -0.07213,-0.36404 c 0,0 -1.15398,-1.23992 -1.15398,-1.23992 l -0.432435,-2.11101 c 0,0 -0.504798,-0.94712 -0.504798,-0.94712 l 1.442878,-0.43273 -0.216111,-1.45568 -0.648838,-2.32993 -2.452555,-1.46179 -1.082225,0.43365 -0.865691,-0.29342 -1.010417,2.03459 -1.009915,-0.58478 c 0,0 -0.07176,-2.40131 -0.07176,-2.40131 l 1.226688,-1.01528 c 0,0 -0.504693,-2.03878 -0.504693,-2.03878 l -1.803796,0.79547 -1.370674,-0.80401 c 0,0 -0.865505,-1.74869 -0.865505,-1.74869 l 1.082913,-4.21745 c 0,0 3.463131,-0.0628 3.463131,-0.0628 l 2.380906,-0.28459 c 0,0 0.432647,1.09265 0.432647,1.09265 l 1.442931,0.0769 c 0,0 1.587633,-2.32404 1.587633,-2.32404 l 2.020146,-0.43114 -0.216164,-1.31033 2.453084,-1.012 2.236414,-0.0663 1.73146,-0.21349 0.0719,0.65503 3.31788,1.75545 c 0,0 0.43254,1.23815 0.43254,1.23815 l 4.11162,0.88434 3.31867,-1.88272 1.87505,1.60586 -1.15507,3.85207"
       id="path602" /><path
       onclick="pokaz(this)"
       d="m 71.194976,137.27143 0.358325,-1.84078 2.793471,-1.23021 -0.250375,-1.96284 2.182626,-1.96564 c 0,0 0.85595,1.22595 0.85595,1.22595 l 2.31696,1.59234 -2.30508,1.72037 c 0,0 1.22571,2.57506 1.22571,2.57506 0,0 -1.33236,1.59652 -1.33236,1.59652 l -2.435568,-0.73324 -1.945005,0.37039 -1.46468,-1.34789"
       id="path604" /><path
       onclick="pokaz(this)"
       d="m 92.044143,144.59774 -2.88502,-0.29866 -1.58713,0.94152 0.28808,1.67391 -1.8755,0.43154 -0.14412,-0.5824 -2.45247,-0.0792 -0.72049,-3.49382 1.08217,-0.72464 c 0,0 -0.14374,-2.18308 -0.14374,-2.18308 l 2.38072,-1.15766 2.52563,-3.84916 1.0096,0.87577 2.81358,-1.95669 c 0,0 -0.86522,-1.38473 -0.86522,-1.38473 l 1.80338,-0.28612 c 0,0 0.0725,-1.1639 0.0725,-1.1639 l 3.24591,0.008 c 0,0 1.51519,-1.66928 1.51519,-1.66928 l 1.00967,0.43929 -0.6496,1.59885 0.79322,0.65688 c 0,0 0.864837,2.18493 0.864837,2.18493 l -0.721357,0.3619 v 0.87301 l 3.245117,1.68204 -0.1446,1.09088 -0.79367,0.94358 v 1.60044 c 0,0 -1.0822,1.08831 -1.0822,1.08831 l 2.01906,1.24222 v 0.14547 l -1.58715,1.37792 -0.8654,-0.29334 c 0,0 -0.648837,-0.87461 -0.648837,-0.87461 l -3.31735,-2.04592 c 0,0 -1.08243,1.88868 -1.08243,1.88868 l -4.03887,-1.02931 0.937,1.96696"
       id="path606" /><path
       onclick="pokaz(this)"
       d="m 101.03997,144.96551 -0.48516,0.3686 c 0,0 0.97723,1.22552 0.97723,1.22552 l -1.571137,2.82337 c 0,0 1.587917,1.96075 1.587917,1.96075 l -0.23892,1.22695 -0.85003,0.36901 0.0111,3.18929 c 0,0 0.61065,0.7352 0.61065,0.7352 0,0 -1.695707,1.96471 -1.695707,1.96471 l -2.0679,-0.12005 -1.22397,-2.20639 c 0,0 -1.8234,0.24763 -1.8234,0.24763 0,0 -0.60595,0.61407 -0.60595,0.61407 0,0 -0.2441,-0.24504 -0.2441,-0.24504 l -2.67309,0.73936 -1.70447,-0.48853 -1.20536,3.06811 c 0,0 -3.29036,-1.83581 -3.29036,-1.83581 l -0.24326,2.6e-4 -0.24765,-1.22634 c 0,0 -1.46568,-1.71554 -1.46568,-1.71554 l -0.85146,0.001 1.08331,-3.19087 c 0,0 -0.61037,-0.61259 -0.61037,-0.61259 l 0.60074,-2.08622 c 0,0 3.28454,0.11863 3.28454,0.11863 0,0 -1.46569,-1.71564 -1.46569,-1.71564 l 1.33578,-0.61502 v -0.24535 l 1.82271,-0.49292 -0.37055,-1.59433 1.69934,-0.98348 2.79876,0.36465 c 0,0 -0.85833,-1.96181 -0.85833,-1.96181 0,0 4.01717,0.97658 4.01717,0.97658 0,0 1.20975,-1.84158 1.20975,-1.84158 l 3.29115,2.08153 0.489507,0.85812 0.9738,0.24416 m -0.18987,15.21063 v -0.36796 0.36796"
       id="path608" /><path
       onclick="pokaz(this)"
       d="m 39.873602,88.707157 c 0,0 0.602562,-1.59636 0.602562,-1.59636 l 1.462219,0.48956 0.605288,-0.85985 c 0,0 0.978138,1.22653 0.978138,1.22653 l 1.824064,-0.37004 2.444776,2.94349 0.622089,3.68167 1.701376,-0.61542 c 0,0 4.136761,-0.12693 4.136761,-0.12693 l -0.710724,5.27844 c 0,0 1.711669,2.207393 1.711669,2.207393 0,0 1.22129,1.22603 1.22129,1.22603 l -1.333976,1.2287 0.01077,2.94534 c 0,0 -1.215892,0.24676 -1.215892,0.24676 l -1.59266,-2.94376 -3.28586,-0.11926 -1.837981,-3.43456 -1.698202,1.47458 c 0,0 -0.734695,-1.22659 -0.734695,-1.22659 0,0 -3.153833,2.70352 -3.154891,2.45801 l 0.478551,-2.20975 -3.163093,0.24876 0.725593,-1.228143 1.580198,-0.4926 -0.863283,-3.06758 -2.92444,-0.97896 0.726996,-0.85995 1.579801,-0.61531 c 0,0 -0.857832,-1.59483 -0.857832,-1.59483 l 1.701509,-0.61545 c 0,0 -0.0059,-1.5957 -0.0059,-1.5957 0,0 -0.734298,-1.10397 -0.734298,-1.10397"
       id="path610" /><path
       onclick="pokaz(this)"
       d="m 60.802143,143.34891 2.54e-4,-0.94583 c 0,0 -0.793432,-1.09347 -0.793432,-1.09347 l 0.865848,-0.43429 0.793602,0.0751 1.876028,-1.30461 1.154192,0.73073 -1.009941,-0.58492 c 0,0 -0.07173,-2.40128 -0.07173,-2.40128 l 1.226634,-1.01526 c 0,0 -0.504639,-2.03877 -0.504639,-2.03877 l -1.803824,0.7956 -1.370711,-0.80415 c 0,0 -0.865505,-1.74871 -0.865505,-1.74871 l 1.082914,-4.21746 c 0,0 0.07216,-1e-4 0.07216,-1e-4 0,0 -0.432816,-0.43783 -0.432816,-0.43783 l -0.649076,-1.74818 -1.226661,0.72427 -1.010047,-0.58489 0.144513,-1.38223 -2.236523,-1.31599 -0.07226,0.43646 c 0,0 -0.938133,0.94348 -0.938133,0.94348 l -1.659467,-0.73232 -0.938133,0.87069 -2.092484,-0.29681 -0.216304,-1.38334 1.587499,-0.35952 -0.144189,-0.94631 -5.051161,-0.014 c 0,0 0.360733,0.6559 0.360733,0.6559 l -0.432964,0.21719 c 0,0 1.442984,1.60496 1.442984,1.60496 l -0.505565,4.21931 1.803823,0.73261 1.298919,-1.08797 0.721228,2.54879 -2.670175,4.35874 -1.659626,0.50493 c 0,0 -0.649605,1.59909 -0.649605,1.59909 l 0.360574,1.96564 c 0,0 0.07224,-0.14536 0.07224,-0.14536 l 3.535362,0.80991 c 0,0 0.07209,0.87329 0.07209,0.87329 0,0 -1.010258,1.01605 -1.010258,1.01605 l 1.659387,0.95025 0.721175,2.69425 1.80377,-0.28622 0.793565,0.58414 0.144296,0.0734 c 0,0 -0.144341,0.21795 -0.144341,0.21795 0,0 1.154615,-1.67039 1.154615,-1.67039 l 1.082146,0.65767 1.082384,-1.08849 1.587129,0.58626 1.659441,-1.37858"
       id="path612" /><path
       onclick="pokaz(this)"
       d="m 70.480601,146.93931 1.153954,1.23989 0.504666,1.60184 c 0,0 -0.43307,1.23568 -0.43307,1.23568 l -1.298442,-0.29443 c 0,0 -1.154457,1.23362 -1.154457,1.23362 l -0.576845,-1.52926 -1.010126,0.79758 -0.937868,0.36134 -1.875446,-1.31458 c 0,0 -1.659626,2.10548 -1.659626,2.10548 0,0 -5.482695,-1.97893 -5.482695,-1.97893 l -0.360892,1.01764 c 0,0 -0.937736,-1.02105 -0.937736,-1.02105 0,0 0.865902,-1.01629 0.865902,-1.01629 0,0 -1.15406,-2.11302 -1.15406,-2.11302 l -1.875684,-1.02356 c 0,0 1.154615,-1.6704 1.154615,-1.6704 l 1.082146,0.65768 1.082357,-1.08847 1.58713,0.58623 1.659599,-1.37797 2.54e-4,-0.94583 c 0,0 -0.793433,-1.09347 -0.793433,-1.09347 l 0.865849,-0.43429 0.793602,0.0751 1.876028,-1.3046 1.154192,0.73072 c 0,0 1.010364,-2.03459 1.010364,-2.03459 l 0.865691,0.29332 1.082225,-0.43365 2.452608,1.46177 0.648811,2.32994 0.216138,1.45579 -1.442905,0.43262 0.504799,0.94713 c 0,0 0.432329,2.1109 0.432329,2.1109"
       id="path614" />
  </svg>
