<?xml version="1.0" encoding="UTF-8" standalone="no"?>
<svg
   viewBox="0 0 91.905273 87.148552"
   version="1.1"
   id="svg1"
   xmlns="http://www.w3.org/2000/svg">
   <style>path {fill:#e0e0e0;fill-opacity:1;stroke:#ffffff;stroke-width:0.529167}</style>
    <path
       onclick="pokaz(this)"
       d="m 30.560376,5.1148615 c 0,0 2.092431,-0.21307 2.092431,-0.21307 0,0 -1.154377,-1.16671 -1.154377,-1.16671 l 0.649393,-0.72575 2.886075,-0.13835 c 0,0 -0.721439,-1.23838 -0.721439,-1.23838 l -0.144307,-0.0734 c 0,0 0.938028,-1.23429 0.938028,-1.23429 l 2.886075,1.24381 1.010126,-0.65222 c 0,0 1.01002,1.16644 1.01002,1.16644 0,0 4.112418,-0.13542 4.112418,-0.13542 l 2.52492,1.89757 -1.3e-4,1.60015 2.88528,5.3895605 -1.58715,0.50527 -0.14448,2.03616 -2e-5,-0.0724 -4.61724,1.58893 -1.94781,-0.87754 c 0,0 -4.617246,0.93424 -4.617246,0.93424 0,0 -0.865796,0.87072 -0.865796,0.87072 l -1.803717,-0.01 c 0,0 -0.721546,1.16194 -0.721546,1.16194 l -0.577162,-0.87418 -0.144298,0.0726 0.360812,-1.8175 -3.3909,-1.68127 0.865955,-4.4349505 -0.649288,-2.69293 0.865876,-0.42928"
       id="path38" />
    <path
       onclick="pokaz(this)"
       d="m 15.479126,10.406522 h -0.288634 c 0,0 1.082358,-2.5433805 1.082358,-2.5433805 0,0 1.082384,-1.16123 1.082384,-1.16123 l 2.958571,0.66199 c 0,0 3.752056,-2.173 3.752056,-2.173 l 5.627952,0.30485 0.649287,2.76569 -0.865954,4.4349505 3.390899,1.68127 -0.360812,1.8175 -1.731592,0.21394 c 0,0 -0.721545,1.01664 -0.721545,1.01664 0,0 -3.751792,-2.04582 -3.751792,-2.04582 l -3.030537,-0.0802 -1.226635,6.32512 -3.102504,-0.22563 c 0,0 -1.298813,-1.82153 -1.298813,-1.82153 l -3.752056,-0.37277 -3.9687497,-1.53715 -0.07214,-0.43656 1.4431957,-0.43302 c 0,0 1.515295,-1.74201 1.515295,-1.74201 0,0 -1.53e-4,-2.25505 -1.53e-4,-2.25505 l 2.814108,-0.0654 c 0,0 -0.144317,-2.32955 -0.144317,-2.32955"
       id="path40" />
    <path
       onclick="pokaz(this)"
       d="m 6.6764393,25.858192 1.154536,-0.36084 -0.144367,-0.94596 2.8863387,-0.72046 c 0,0 0.0721,-1.30908 0.0721,-1.30908 l -0.6494727,-0.72898 3.3191977,-1.66505 0.721545,-0.87106 3.607859,0.29966 c 0,0 1.298813,1.82161 1.298813,1.82161 l -0.938027,-0.0747 -0.07203,5.81845 3.607594,4.59053 -2.886075,1.08413 -1.15443,-0.29359 c 0,0 1.6e-5,-0.21817 1.6e-5,-0.21817 l -1.082305,-0.72996 -3.463396,0.21005 -2.66991,-1.53376 -1.6596257,0.35978 -0.865901,-0.29305 c 0,0 0.649393,-0.8712 0.649393,-0.8712 l -1.371177,-3.20384 -0.360759,-0.36483"
       id="path42" />
    <path
       onclick="pokaz(this)"
       d="m 46.863999,25.672982 -1.37072,0.94216 -1.58698,-1.24018 -1.65914,-1.0948 -0.36066,-0.65548 1.01002,-0.43391 5.3e-4,-1.16364 c 0,0 -0.86558,-1.7476 -0.86558,-1.7476 l 1.0822,-0.79743 -1.44278,-1.16721 -0.57705,-1.52878 2.30872,-1.81261 -0.21642,-0.0733 c 0,0 4.61724,-1.58896 4.61724,-1.58896 l 2.01988,0.65953 c 0,0 -0.57734,2.18048 -0.57734,2.18048 l 2.45247,2.04248 -0.64942,1.7439 1.51479,0.80364 6.78075,0.37992 1.29852,-1.015 2.23599,0.51448 0.64913,0.2924 -0.86561,0.28884 -3.60706,3.2639 -3.24591,0.42852 c 0,0 0.0722,0.14568 0.0722,0.14568 0,0 -3.82323,-0.22733 -3.82323,-0.22733 l -0.14442,1.16329 -1.87557,0.57722 10e-6,-0.14547 -1.22629,-0.43929 -2.1e-4,-0.7272 0.50501,-0.50787 c 0,0 -0.86553,-1.31117 -0.86553,-1.31117 l -1.15424,0.28818 -0.43313,1.9626"
       id="path44" />
    <path
       onclick="pokaz(this)"
       d="m 28.631564,41.124652 c 0,0 -3.291682,-1.83444 -3.291682,-1.83444 l -0.496887,-2.69716 -1.580198,0.37031 c 0,0 -1.469284,-2.45054 -1.469284,-2.45054 l -2.31304,-0.36441 -0.979435,-1.59287 2.815432,-1.03844 c 0,0 -3.444875,-4.47966 -3.444875,-4.47966 l 0.09914,-5.88751 4.016639,0.36206 1.192398,-6.3799 c 0,0 3.04165,-0.004 3.04165,-0.004 l 3.780102,2.20229 c 0,0 0.725805,-1.10493 0.725805,-1.10493 l 1.824011,-0.24794 0.611558,0.85767 c 0,0 0.603673,-1.2274 0.603673,-1.2274 l 1.824884,-0.003 0.848387,-0.85979 4.619627,-0.86521 2.21639,1.12795 -2.18057,1.78318 0.34523,1.38099 1.46442,1.22434 c 0,0 -0.87202,0.8881 -0.87202,0.8881 0,0 0.86559,1.7476 0.86559,1.7476 l -5.3e-4,1.16363 -1.01002,0.43392 0.24494,0.5384 1.64557,1.11382 1.58597,1.22401 1.33442,-0.98306 0.47927,-1.96294 c 0,0 1.21552,-0.24707 1.21552,-0.24707 l 0.9247,1.42552 -0.50501,0.50787 -0.10154,0.59153 1.27505,0.66127 -0.32845,1.28929 -2.08894,-0.29919 c 0,0 -0.85966,0.97695 -0.85966,0.97695 l -2.18456,1.35226 -0.97957,-1.71543 0.96722,-1.59573 -0.61053,-0.61227 -1.33951,-0.36592 c -0.36494,0 -0.96906,1.10517 -0.96906,1.10517 l -1.583745,-0.61082 -5.349874,0.7438 -0.854816,-0.85723 c 0,0 -0.726705,0.85958 -0.726705,0.85958 0,0 -0.612457,-1.10289 -0.612457,-1.10289 h -0.729959 c 0,0 -1.452483,1.96448 -1.452483,1.96448 l -1.217057,-0.12083 c 0,0 -1.211951,1.22824 -1.211951,1.22824 l 1.229598,3.43218 c 0,0 -1.215654,0.24712 -1.215654,0.24712 l 0.49313,1.71619 c 0,0 1.703203,-0.003 1.703203,-0.003 l 0.85807,1.71564 1.579192,-0.61561 1.947809,0.36497 0.0013,0.36787 c 0,0 0.85479,0.85715 0.85479,0.85715 l 1.096698,0.48884 -0.239607,0.98142 -7.94e-4,-0.24527 -1.336754,0.36994 -2.425621,1.96583 c 0,0 -1.711933,-2.32738 -1.711933,-2.32738 l -1.936248,2.70086 -0.120263,0.36807"
       id="path46" />
    <path
       onclick="pokaz(this)"
       d="m 34.449751,35.594862 -1.947809,-0.36497 -1.579193,0.61561 c 0,0 -0.85762,-1.59298 -0.85762,-1.59298 0,0 -1.703202,0.003 -1.703202,0.003 l -0.493131,-1.7162 1.215179,-0.36978 -1.229598,-3.43217 1.21195,-1.22825 1.217507,0.24347 c 0,0 1.452006,-2.08712 1.452006,-2.08712 0,0 0.730409,0.12158 0.730409,0.12158 l 0.612458,1.10286 0.726228,-0.98221 c 0,0 0.854816,0.85722 0.854816,0.85722 l 5.349875,-0.74379 1.583743,0.61081 c 0,0 0.60457,-0.982 0.96951,-0.98253 l 1.21785,0.36611 0.73171,0.48945 c 0,0 -0.96676,1.71836 -0.96676,1.71836 l 1.22332,1.83769 c 0,0 -0.60547,0.73671 -0.60547,0.73671 0,0 -3.284535,0.005 -3.284535,0.005 l -1.943153,0.86138 -0.47969,1.84026 c 0,0 -1.945481,0.2482 -1.945481,0.2482 l 0.0059,1.59425 -1.216502,0.003 -0.609652,-0.367 -0.240994,0.61357"
       id="path48" />
    <path
       onclick="pokaz(this)"
       d="m 36.487043,33.742772 1.908201,-0.28839 c 0,0 0.587322,-1.82899 0.587322,-1.82899 l 1.897195,-0.83727 3.386928,0.11753 c 0,0 0.44046,-0.80428 0.44046,-0.80428 0,0 -0.14676,-0.22003 -0.14676,-0.22003 l 2.14958,-1.43203 c 0,0 0.85966,-0.97695 0.85966,-0.97695 l 2.27496,0.29813 c 0,0 0.95377,1.83256 0.95377,1.83256 l 0.88006,3.80921 -1.39451,1.38779 -0.14688,0.80491 -1.90799,-0.29718 -0.22067,3.8063 -2.20199,3.43562 c 0,0 -3.00884,-0.95867 -3.00884,-0.95867 l -0.95393,-0.88067 -1.100802,0.003 -0.366765,-1.75792 -1.614514,-0.44304 -2.128414,0.80047 -0.733822,-1.09995 0.220263,-0.87802 -1.100852,-0.44186 -0.880639,-0.88053 -0.07331,-0.4395 c 0,0 0.07336,1e-4 0.07336,1e-4 l 0.513794,-0.43809 0.58711,0.14787 1.174274,0.0755 c 0,0 0.07354,-1.61446 0.07354,-1.61446"
       id="path50" />
    <path
       onclick="pokaz(this)"
       d="m 42.030059,40.780692 c 0,0 -1.082035,0.003 -1.082035,0.003 0,0 -0.360575,-1.74602 -0.360575,-1.74602 l -1.826868,-0.52046 -1.834409,0.69864 c 0,0 -0.739193,-0.91578 -0.739193,-0.91578 l 0.07217,-0.21791 -1.442852,0.36018 -2.380774,1.95789 -1.731354,-2.25841 -1.947968,2.68632 -2.741613,6.2476 2.020041,0.009 0.36068,1.6007 c 0,0 -0.937895,1.08866 -0.937895,1.08866 l 0.793512,2.98317 4.039923,-0.42711 -0.505169,5.01623 2.091955,1.16811 0.360812,-2.83501 1.731248,0.87649 c 0,0 0.64934,-1.81637 0.64934,-1.81637 l -0.504877,-1.67365 1.442905,-2.83263 1.659096,0.8037 2.09201,-0.94046 1.08228,-3.34248 3.4626,-2.02801 -0.14408,-2.18183 -2.74108,-0.87902 -0.93777,-0.88355"
       id="path52" />
    <path
       onclick="pokaz(this)"
       d="m 48.448859,45.093402 c 0,0 -0.79362,1.74329 -0.79362,1.74329 0,0 -2.01957,-2.04068 -2.01957,-2.04068 l -3.24617,1.95572 -1.08228,3.34248 -2.092005,0.94046 -1.659096,-0.80359 -1.442905,2.83263 0.504878,1.67354 -0.649341,1.81634 c 0,0 0.504878,1.31008 0.504878,1.31008 l 1.153928,4.2926 c 0,0 3.750733,1.17179 3.750733,1.17179 l 5.48217,-1.73262 c 0,0 3.75047,2.4077 3.75047,2.4077 l 0.72146,-1.81604 -1.08183,-0.72943 0.7216,-3.05197 2.66859,1.82372 1.22618,-0.28803 c 0,0 0.79317,1.52855 0.79317,1.52855 l 1.65902,-1.08685 -0.50446,-3.2729 2.16377,0.009 -1.15383,-1.31138 1.51488,-2.03229 -2.23565,-1.75011 c 0,0 2.09195,-2.32196 2.09195,-2.32196 l -2.52407,-2.76886 -2.30807,-0.36888 0.28837,1.30942 -4.25556,0.20838 -0.2162,-1.89113 -1.73106,-1.09853"
       id="path54" />
    <path
       onclick="pokaz(this)"
       d="m 49.986089,26.493192 1.94394,-0.61605 c 0,0 0.11711,-1.22653 0.11711,-1.22653 l 3.77216,0.36232 0.49469,2.20662 2.6805,1.2223 1.95058,1.22338 -1.09103,0.98263 -2.77257,6.74847 1.5857,1.2238 c 0,0 -0.35496,2.69822 -0.59685,3.06652 -0.24189,0.36819 0.98203,2.45078 0.98203,2.45078 l -2.18744,0.49387 -0.59997,2.20801 h 0.36486 l -2.19065,-0.36444 0.2478,1.22576 -4.25556,0.37454 -0.25009,-1.83885 -1.70741,-1.22351 c 0,0 -0.72298,1.84039 -0.72298,1.84039 0,0 -2.07557,-2.08127 -2.07557,-2.08127 0,0 0.12163,-2.1e-4 0.12163,-2.1e-4 l -0.008,-2.20718 2.21898,-3.43879 0.22066,-3.8063 1.90799,0.29718 0.12467,-0.66153 1.33345,-1.22828 -0.74393,-3.80047 c 0,0 -1.27254,-2.03751 -1.27254,-2.03751 l 0.40833,-1.39493"
       id="path56" />
    <path
       onclick="pokaz(this)"
       d="m 56.264649,46.839652 0.59997,-2.208 2.18699,-0.61648 c 0,0 -1.22349,-1.95998 -0.98158,-2.32818 0.36354,-0.36843 0.59733,-2.94375 0.59733,-2.94375 l -1.58571,-1.22378 2.77231,-6.87123 1.09103,-0.98263 -1.95058,-1.22338 -2.6805,-1.2223 -0.49559,-2.45189 3.16071,-0.4952 3.63723,-3.19378 c 0,0 0.97216,-0.2467 0.97216,-0.2467 l 0.61579,2.08386 2.43882,1.7132 -1.21221,1.10546 c 0,0 1.59009,2.45015 1.59009,2.45015 l -1.08339,3.06731 1.46127,0.48829 c 0,0 -0.11671,1.34903 -0.11671,1.34903 l -1.7045,-0.48792 0.008,2.08455 1.8306,1.71389 -1.69688,1.59663 c 0,0 0.49321,1.83848 0.49321,1.83848 0,0 -1.45272,1.84148 -1.45272,1.84148 0,0 0.61257,1.22517 0.61257,1.22517 l -1.45585,0.98317 0.37386,2.45166 -2.79506,0.6174 c 0,0 -2.54458,2.57884 -2.54458,2.57884 0,0 -2.44152,-2.4484 -2.44152,-2.4484 0,0 -0.24416,-0.24484 -0.24416,-0.24484"
       id="path58" />
    <path
       onclick="pokaz(this)"
       d="m 7.9041063,43.320692 c 0,0 -0.07214,-0.21844 -0.07214,-0.21844 l -2.814109,-0.87929 -1.58742,0.86908 -0.505143,-0.72845 c 0,0 1.370859,-2.46957 1.370859,-2.46957 l -0.866087,-2.83845 -1.731803,0.57774 -1.58760601,-0.73099 c 0,0 0.07216,1.3e-4 0.07216,1.3e-4 0,0 0.93802701,-1.08883 0.93802701,-1.08883 0,0 0.07207,-1.96364 0.07207,-1.96364 l 1.082198,-3.05223 0.649394,-0.79846 2.236946,-0.57663 1.298681,-3.77931 c 0,0 0.577321,0.58338 0.577321,0.58338 l 1.371203,3.20357 c 0,0 -0.649394,0.8713 -0.649394,0.8713 l 0.865902,0.29295 1.6596257,-0.35978 2.66991,1.53374 3.463396,-0.2099 1.082199,0.7302 -0.07208,0.65402 -1.515216,-0.43995 c 0,0 -0.649367,1.23492 -0.649367,1.23492 l -6e-5,2.83633 -0.793645,1.16192 -1.370938,-1.31239 -2.597547,0.86662 -0.432991,-1.38287 c 0,0 -0.5772407,0.14412 -0.5772407,0.14412 l -0.937816,4.65243 0.64942,0.51054 c 0,0 0.07217,1.23658 0.07217,1.23658 l -1.370753,0.86958"
       id="path60" />
    <path
       onclick="pokaz(this)"
       d="m 9.4916063,36.044652 -0.937816,4.65243 0.64942,0.51054 c 0,0 0.07218,1.23659 0.07218,1.23659 l -1.370912,0.86958 1.082516,4.58417 2.5253687,0.73305 c 0,0 3.246702,-1.30156 3.246702,-1.30156 l 2.886075,-0.50242 6.493139,-0.56663 2.813579,-1.30257 1.803691,-4.141 -0.144295,0.3632 -3.246438,-1.82565 -0.504984,-2.69188 -1.51511,0.43278 c 0,0 -1.442984,-2.4761 -1.442984,-2.4761 l -2.308807,-0.29633 c 0,0 -0.938001,-1.52956 -0.938001,-1.52956 l -1.154377,-0.29332 -0.07237,0.43585 -1.515216,-0.43995 c 0,0 -0.649367,1.23492 -0.649367,1.23492 l -8.7e-5,2.83633 c 0,0 -0.793644,1.16192 -0.793644,1.16192 l -1.370965,-1.31239 -2.597547,0.86662 -0.432991,-1.38287 c 0,0 -0.5769227,0.14412 -0.5769227,0.14412"
       id="path62" />
    <path
       onclick="pokaz(this)"
       d="m 15.315085,58.560692 0.488976,0.61233 -0.240025,0.85875 1.83097,1.59108 2.792412,-1.47596 c 0,0 -0.129148,-1.9617 -0.129148,-1.9617 l 0.972291,-0.2468 1.835547,2.81728 c 0,0 3.53007,0.60733 3.53007,0.60733 l 0.117923,-0.9811 4.131204,-1.23283 0.357981,-1.83983 0.851059,-0.12396 0.468048,-4.90537 -4.134644,0.37441 -0.741072,-2.94164 c 0,0 0.969487,-0.98253 0.969487,-0.98253 0,0 -0.493131,-1.71601 -0.493131,-1.71601 l -1.94646,0.003 c 0,0 0.965306,-2.08621 0.965306,-2.08621 l -2.793471,1.23068 -6.567223,0.62341 c 0,0 -2.918089,0.49512 -2.918089,0.49512 l -1.822159,0.73864 c 0,0 -0.24239,0.24566 -0.24239,0.24566 l 0.366421,0.36732 c 0,0 1.102995,2.08301 1.102995,2.08301 l -2.787385,2.82496 1.46468,1.22394 2.18993,-0.004 c 0,0 0.379571,3.80074 0.379571,3.80074 m 16.418454,-1.25262 1.219227,0.73375 -1.219227,-0.73375"
       id="path64" />
    <path
       onclick="pokaz(this)"
       d="m 28.155314,75.811522 -0.1235,-0.49022 -0.743797,-3.67691 -0.973137,0.003 c 0,0 -1.331542,1.7187 -1.331542,1.7187 l -1.463014,-0.85579 -1.826577,-0.48739 c 0,0 0.598434,-2.5758 0.598434,-2.5758 l -2.680493,-1.09908 -2.327355,-4.16507 c 0,0 0.233453,-2.57537 0.233453,-2.57537 l 2.792412,-1.47596 -0.250801,-1.96148 0.972291,-0.24681 1.835547,2.81729 3.651779,0.60716 0.117922,-0.98113 4.131204,-1.23282 c 0,0 0.357981,-1.83981 0.357981,-1.83981 l 0.729404,-0.12377 2.07256,1.2228 0.475933,-2.82099 1.706218,0.85556 0.612802,1.22518 0.9897,4.41245 c 0,0 3.896781,1.21976 3.896781,1.21976 0,0 5.34485,-1.84777 5.34485,-1.84777 l 3.65786,2.4461 c 0,0 0.12163,-1.9e-4 0.12163,-1.9e-4 l 1.82843,1.10043 1.58289,0.48779 c 0,0 0.73877,2.45075 0.73877,2.45075 0,0 1.70175,-0.24802 1.70175,-0.24802 l 2.19223,0.85458 1.82915,1.34548 -0.23737,1.59409 -0.72379,1.59486 c 0,0 -1.82327,0.24826 -1.82327,0.24826 l -3.65575,-1.95541 -2.18369,1.47474 -2.67784,-0.60849 -0.83768,3.67929 -3.65045,-0.48426 -1.21396,0.61502 -1.22727,-2.94031 -1.826263,-0.48734 0.36031,-1.22661 -2.434908,-0.60894 c 0,0 -1.087781,1.84082 -1.087781,1.84082 l -2.183871,1.47484 -1.096089,-0.36597 -0.357055,2.08481 c 0,0 -1.337072,0.24743 -1.337072,0.24743 l -0.360733,1.104 -1.952678,-1.71312 -1.94482,0.37105"
       id="path66" />
    <path
       onclick="pokaz(this)"
       d="m 26.604855,84.357572 2.434564,-4.49792 c 0,0 -1.230551,-1.24619 -1.230551,-1.24619 l 0.478975,-2.99667 c 0,0 1.715188,-0.25252 1.715188,-0.25252 l 1.967892,1.74432 c 0,0 0.118332,-1.12366 0.363484,-1.12406 0,0 1.224836,-0.25175 1.224836,-0.25175 l 0.482309,-2.12288 0.982027,0.37285 2.323307,-1.50183 c 0,0 1.218723,-1.87449 1.218723,-1.87449 l 2.209139,0.74533 -0.240935,1.12384 1.840916,0.62109 1.23735,3.11864 c 0,0 -0.9712,2.49809 -0.9712,2.49809 0,0 -0.86125,-0.87233 -0.86125,-0.87233 l -0.48699,0.87461 c 0,0 -0.11322,2.4966 -0.11322,2.4966 0,0 -0.854714,0.87519 -0.854714,0.87519 l -0.722313,3.49621 0.125844,0.87347 -0.856562,0.37594 -3.199077,-3.23982 -2.085155,-0.37089 -1.223856,0.50138 c 0,0 -1.708045,2.1249 -1.708045,2.1249 l -2.330846,-0.4953 c 0,0 -0.612431,0.12586 -0.612431,0.12586 0,0 -1.107493,-1.12152 -1.107493,-1.12152"
       id="path68" />
    <path
       onclick="pokaz(this)"
       d="m 68.782079,76.975692 -1.08159,-0.80198 c 0,0 -0.72083,-1.96429 -0.72083,-1.96429 l -1.51431,-0.51234 c 0,0 -0.86503,-2.47362 -0.86503,-2.47362 l -1.5866,-0.01 -1.22621,1.37861 -1.65865,-0.7307 0.14429,-0.29041 0.21657,-1.45354 -1.80282,-1.38528 -2.23565,-0.95009 -1.65886,0.35983 c 0,0 -0.79306,-2.54637 -0.79306,-2.54637 l -1.58668,-0.43974 -1.80303,-1.09471 -0.0721,-0.14552 c 0,0 0.0722,0.0722 0.0722,0.0722 0,0 0.72146,-1.81605 0.72146,-1.81605 l -1.08183,-0.72945 0.7216,-3.05197 2.66859,1.82375 1.22618,-0.28816 c 0,0 0.79317,1.52868 0.79317,1.52868 l 1.65902,-1.08685 -0.50446,-3.2729 2.16377,0.009 -1.15382,-1.31135 c 0,0 1.51487,-2.03229 1.51487,-2.03229 l -2.23565,-1.75012 c 0,0 2.09195,-2.32198 2.09195,-2.32198 0,0 -0.14421,-0.21849 -0.14421,-0.21849 0,0 2.52473,-2.61179 2.52473,-2.61179 l 2.74082,-0.50257 6.77863,5.03237 c 0,0 -0.0721,1.4e-4 -0.0721,1.4e-4 l 0.5044,2.40045 2.16331,1.16827 2.09145,-0.57687 c 0,0 1.87455,2.18535 1.87455,2.18535 l -0.21672,1.81695 -1.80316,1.74083 c 0,0 1.08122,2.54693 1.08122,2.54693 0,0 -1.01002,2.25129 -1.01002,2.25129 l 1.44179,2.3296 -0.86569,1.81546 c 0,0 1.29757,2.03827 1.29757,2.03827 0,0 -0.0722,0.87218 -0.0722,0.87218 l 2.01866,1.89455 c 0,0 -0.50501,1.16191 -0.50501,1.16191 l -1.94694,-0.009 -2.01945,1.8856 -0.0724,1.52633 -2.52397,0.72136 c 0,0 -1.08135,-1.89238 -1.08135,-1.89238 l -0.86543,0.57965 -0.21603,-1.89045 -1.51463,1.02156"
       id="path70" />
    <path
       onclick="pokaz(this)"
       d="m 65.038229,56.258822 1.2977,2.83845 -0.86561,1.23401 c 0,0 0.4326,0.80068 0.4326,0.80068 l -1.65897,1.52303 c 0,0 -1.08161,-1.16573 -1.08161,-1.16573 l -1.00976,0.43394 c 0,0 -0.79314,-1.3104 -0.79314,-1.3104 l 1.01002,-2.1789 0.36102,-2.98 2.30778,0.80497"
       id="path72" />
    <path
       onclick="pokaz(this)"
       d="m 91.642079,66.207152 -0.43362,4.21534 c 0,0 -4.6863,-1.6097 -4.6863,-1.6097 l -2.16392,3.19352 -1.73062,0.3597 -2.09073,-1.822 -2.95646,0.57502 -1.29759,-2.03835 0.86569,-1.81546 c 0,0 -1.44177,-2.3295 -1.44177,-2.3295 0,0 1.00999,-2.25142 1.00999,-2.25142 0,0 -1.08122,-2.54693 -1.08122,-2.54693 l 1.80319,-1.74069 0.21672,-1.81708 -1.87454,-2.18533 -2.09148,0.57685 -2.16329,-1.16811 c 0,0 -0.50443,-2.40049 -0.50443,-2.40049 l 3.96664,-0.86339 c 0,0 0.79348,-1.16144 0.79348,-1.16144 l 1.22605,-0.43349 1.36999,1.02105 2.09156,-1.15842 4.83182,-0.71599 c 0,0 0.2881,1.52749 0.2881,1.52749 l 1.87479,0.29509 2.23382,6.54817 -1.08243,3.48721 1.51389,1.31188 c 0,0 -0.57722,1.59798 -0.57722,1.59798 l 2.09019,3.34857"
       id="path74" />
    <path
       onclick="pokaz(this)"
       d="m 64.800109,19.481732 -0.24641,-0.85807 2.66409,-3.19246 1.82801,0.97843 c 0,0 0.84513,-1.7181 0.84513,-1.7181 l 2.67493,-0.24913 1.21182,-1.22809 c 0,0 3.77032,-0.006 3.77032,-0.006 0,0 1.21089,-1.47333 1.21089,-1.47333 l 1.82033,-1.10627 c 0,0 1.83131,1.95947 1.83131,1.95947 0,0 0.96809,-1.35032 0.96809,-1.35032 l 0.86056,2.57399 -2.6633,3.43747 c 0,0 0.85524,1.10239 0.85524,1.10239 l -1.09186,0.73736 c 0,0 0.60939,0.36698 0.73234,0.73467 0.24411,0.2449 0.0154,4.29181 0.0198,5.51789 h -0.24323 l -1.21259,0.98277 c 0,0 -3.03821,0.61761 -3.03821,0.61761 0,0 -1.22148,-1.46962 -1.22148,-1.46962 l -1.21306,0.86013 c 0,0 -1.21618,0.003 -1.21618,0.003 l 0.11763,-1.10379 c 0,0 -0.61478,-1.83846 -0.61478,-1.83846 0,0 -3.16336,-0.36322 -3.16336,-0.36322 l -0.37383,-2.45203 -0.97613,-0.85698 c 0,0 -0.60587,0.61404 -0.60587,0.61404 l -2.43389,-0.36435 -1.09649,-0.48893"
       id="path76" />
    <path
       onclick="pokaz(this)"
       d="m 86.376879,38.637572 0.28789,2.40006 -1.94715,0.43161 0.0716,1.96329 2.45174,0.36925 1.51416,0.65786 0.36023,1.38224 -2.16342,0.50385 -1.58692,2.03213 -0.0721,-0.29107 c 0,0 -4.83182,0.71599 -4.83182,0.71599 l -2.09156,1.15842 -1.36999,-1.02105 -1.22605,0.43349 c 0,0 -0.79351,1.16144 -0.79351,1.16144 0,0 -3.8944,0.86353 -3.8944,0.86353 l -6.77863,-5.03264 0.0721,-0.0725 -0.43236,-2.47314 1.51477,-1.01441 -0.64892,-1.23761 c 0,0 1.44275,-1.74178 1.44275,-1.74178 0,0 -0.57672,-1.81923 -0.57672,-1.81923 l 1.80338,-1.59543 -1.90757,-1.7253 0.0329,-2.06044 1.73096,0.51313 0.14447,-1.30847 -1.55599,-0.57817 0.99277,-2.93819 c 0,0 -1.45537,-2.45147 -1.45537,-2.45147 0,0 1.15425,-1.16081 1.15425,-1.16081 l -2.38001,-1.60552 -0.57671,-2.18308 c 0,0 -0.0721,1.1e-4 -0.0721,1.1e-4 l 0.21656,-1.23574 1.08204,-0.50643 1.29823,0.7303 2.20298,0.20754 0.53597,-0.38812 1.22798,0.91744 0.28813,2.2551 3.17341,0.29845 0.64879,1.74681 -0.21659,1.09021 1.29823,-0.0694 1.22624,-0.79693 c 0,0 1.22579,1.31183 1.22579,1.31183 l 3.17341,-0.50144 1.00986,-0.94286 0.3606,0.003 c 0,0 1.3698,2.11204 1.3698,2.11204 l -1.37038,0.65119 0.86527,0.72911 -1.29855,1.88757 c 0,0 1.73045,1.74918 1.73045,1.74918 l -2.16394,1.9581 1.29722,4.00209 3.60574,0.51575"
       id="path78" />
    <path
       onclick="pokaz(this)"
       d="m 72.248129,34.668822 c 0,0 -1.22571,-2.1843 -1.22571,-2.1843 l 1.58689,-1.01428 0.50517,-1.74403 3.24538,0.29861 1.4419,2.54839 -1.29839,1.16033 c 0,0 -0.0723,0.94509 -0.0723,0.94509 l -4.18306,-0.01"
       id="path80" />
</svg>
