<?xml version="1.0" encoding="UTF-8" standalone="no"?>
<svg
   viewBox="0 0 71.163841 66.560081"
   version="1.1"
   id="svg1"
   xmlns="http://www.w3.org/2000/svg">
   <style>path {fill:#e0e0e0;fill-opacity:1;stroke:#ffffff;stroke-width:0.529167}</style>
   <path
       onclick="pokaz(this)"
       d="m 40.848909,5.4523319 c 0,0 -2.02173,0.213006 -2.02173,0.213006 0,0 -2.02187,-0.223703 -2.02187,-0.223703 l -0.28921,-1.529212 0.93855,-0.579861 0.57717,-2.036472 -0.86675,-1.02137104 -1.733,0.140941 -0.79414,0.65299204 -4.18809,1.080849 -1.87794,-1.38803004 -2.74346,2.46761004 c 0,0 1.15586,1.458886 1.15586,1.458886 0,0 -0.21602,2.183103 -0.21602,2.183103 l 0.43355,0.947262 -1.87738,0.5774 -0.5053,0.726651 0.36134,0.874316 -0.50488,2.1095231 0.86672,0.511704 -0.14419,0.800285 -0.36105,0.07164 1.66116,1.023329 0.93851,-0.871009 c 0,0 0.65011,0.729589 0.65011,0.729589 l 1.58845,-0.578141 1.15612,2.7686 -0.36068,1.309132 2.02203,0.805815 1.66076,0.0764 1.73334,1.605597 c 0,0 -0.72181,0.871538 -0.72181,0.871538 l 3.10515,1.754584 1.37184,-0.0693 -5.3e-4,-1.60102 c 0,0 0.79375,-1.963023 0.79375,-1.963023 l 1.58834,-0.432541 0.79336,-3.782484 0.86622,-0.870955 -2.6715,-0.298159 -0.65019,-1.530085 c 0,0 0.43267,-2.32791 0.43267,-2.32791 l 1.01071,-0.5795701 c 0,0 -1.01147,-2.622894 -1.01147,-2.622894 l 0.36068,-1.454732 -0.50544,7.94e-4"
       id="path4" /><path
       onclick="pokaz(this)"
       d="m 56.020119,3.9786029 0.25281,2.331535 0.97639,0.612431 c 0,0 0.13155,2.454354 0.13155,2.454354 l -1.5797,0.7383201 c 0,0 0.007,1.718151 0.007,1.718151 l 1.34011,0.243753 1.59925,4.170362 -1.82409,0.49321 0.0163,4.049712 c 0,0 0.86048,2.085023 0.86048,2.085023 l -0.97192,0.492125 0.37108,1.472036 -1.45691,0.983615 c 0,0 -0.85706,-1.225974 -0.85706,-1.225974 l -1.81967,1.59766 c 0,0 -0.12223,-0.122563 -0.12223,-0.122563 0,0 -2.07941,-2.451523 -2.07941,-2.451523 l -2.91783,0.985546 -0.13756,-3.926681 c -0.002,-0.368141 1.21153,-1.474178 1.21153,-1.474178 l -5.25436,-4.779434 c 0,0 -0.72753,0.737288 -0.72753,0.737288 l -0.83687,3.805502 c 0,0 -0.85127,0.246563 -0.85127,0.246563 l -2.447,-2.942167 0.21362,-7.3641481 0.59483,-3.437202 2.67864,-0.0038 4.00712,-2.7051 3.40519,-0.986075 -0.002,-0.490935 2.1979,1.592871 2.4325,-0.616664 c 0,0 1.59006,1.838986 1.59006,1.838986 l -5.3e-4,-0.122732"
       id="path6" /><path
       onclick="pokaz(this)"
       d="m 64.386249,5.4417489 -1.73244,1.30548 -5.05407,-2.924704 0.21608,-2.91068104 -0.21611,2.69240004 -1.44386,0.505698 c 0,0 0.21701,2.256711 0.21701,2.256711 l 0.93866,0.657516 c 0,0 0.21701,2.329418 0.21701,2.329418 l -1.66034,0.8690241 c 0,0 -0.0718,1.673701 -0.0718,1.673701 l 1.44396,0.294905 1.66121,4.152635 -1.94916,0.431509 8e-4,4.002616 c 0,0 0.86667,2.039832 0.86667,2.039832 l -1.01061,0.506889 0.43342,1.529291 -1.51588,0.942076 c 0,0 -0.86656,-1.312122 -0.86656,-1.312122 l -1.80454,1.596417 1.08315,1.239811 c 0,0 0.36116,0.946917 0.36116,0.946917 0,0 -0.64948,1.308232 -0.64948,1.308232 l 2.02155,0.951124 c 0,0 1.8051,1.823667 1.8051,1.823667 l -0.21651,0.363353 3.68168,0.591396 1.08344,3.931973 1.80456,-0.504745 -0.21655,-0.07337 -0.86699,-4.659048 c 0,0 1.44349,-1.597025 1.44349,-1.597025 l 0.93834,-0.507074 c 0,0 0.86609,-1.016503 0.86609,-1.016503 l -1.87714,-1.823958 0.0719,-1.673463 1.22708,-0.651722 0.43286,-1.67259 1.80457,-0.79576 1.58829,1.386575 -1.66047,-1.459495 1.58747,-4.434945 c 0,0 -1.08315,-2.404163 -1.08315,-2.404163 l 2.59826,-3.777456 c 0,0 -0.36121,-2.0386151 -0.36121,-2.0386151 0,0 -0.21656,2.62e-4 -0.21656,2.62e-4 l -3.53748,-1.683067 -1.22788,-4.151577 c 0,0 -1.51609,-0.222377 -1.51609,-0.222377 l 0.36121,1.965139"
       id="path8" /><path
       onclick="pokaz(this)"
       d="m 64.751369,42.327311 c 0,0 -3.68141,-0.227515 -3.68141,-0.227515 0,0 -0.072,1.236715 -0.072,1.236715 l 1.8052,3.642254 c 0,0 -0.43297,0.726572 -0.43297,0.726572 0,0 -1.29958,-1.60393 -1.29958,-1.60393 l -0.86611,0.579914 -1.29945,-0.657993 c 0,0 -0.36023,4.000765 -0.36023,4.000765 0,0 0.64995,1.747784 0.64995,1.747784 0,0 -1.65989,1.960298 -1.65989,1.960298 0,0 0.64981,0.874554 0.64981,0.874554 l -2.31042,-2.842948 -1.1548,0.870162 -1.51603,-0.658548 -1.51575,1.014968 -1.37168,-0.512736 -0.21653,0.145097 -0.65003,-1.60229 1.08212,-3.562614 -3.32158,-3.355446 c 0,0 1.51556,-2.251895 1.51556,-2.251895 l -0.36105,-0.437409 h 0.21658 l 0.57732,-1.017217 -1.01084,-0.730304 2.59858,-1.594273 1.73214,-2.396913 2.38242,0.588195 0.28837,-2.036789 1.80467,-0.504798 0.50514,-1.017403 c 0,0 3.68168,0.591397 3.68168,0.591397 l 1.08346,3.931973 1.80457,-0.504746 -0.21656,-0.07337 3.39275,1.318313 c 0,0 0.50536,0.583353 0.50536,0.583353 0,0 -0.14437,1.86e-4 -0.14437,1.86e-4 l 0.14482,3.201723 0.14438,0.07342 -3.10383,0.501544"
       id="path10" /><path
       onclick="pokaz(this)"
       d="m 35.083639,50.344186 -1.44399,-0.01005 c 0,0 1.01016,-2.398766 1.01016,-2.398766 0,0 -0.79455,-1.384564 -0.79455,-1.384564 l 2.52606,-3.486415 2.59964,2.043986 0.43246,-2.909623 c 0,0 3.53774,0.372665 3.53774,0.372665 l 2.7432,-1.375701 2.67123,0.224896 c 0,0 0.36105,0.437542 0.36105,0.437542 0,0 -1.51555,2.251921 -1.51555,2.251921 l 3.32157,3.355182 -1.08212,3.562614 0.65003,1.60229 0.21654,-0.144991 -1.15486,0.87032 -1.15512,-0.43942 0.3606,-1.672564 -1.37173,-0.51263 c 0,0 -1.37131,1.524556 -1.37131,1.524556 l 0.3615,2.401887 -0.5053,0.144304 c 0,0 -4.54818,-0.81153 -4.54818,-0.81153 0,0 -8e-4,-1.382368 -8e-4,-1.382368 l -1.73283,-0.731891 0.57732,-1.017217 c 0,0 -1.08297,-0.221033 -1.08297,-0.221033 l -0.79401,0.507365 10e-5,-0.873125 -1.01081,-0.293555 -1.29929,1.015471 c 0,0 -0.50546,-0.649367 -0.50546,-0.649367"
       id="path12" /><path
       onclick="pokaz(this)"
       d="m 22.433909,37.988144 2.5254,-7.679796 0.97906,1.20613 2.31394,0.119618 0.36997,1.145646 c 0,0 0.48988,0.693975 0.48988,0.693975 0,0 1.58181,-0.247544 1.58181,-0.247544 l 0.48011,-1.688015 2.43345,-0.402114 -0.25352,-2.45401 1.45855,-0.615527 -6.83657,-4.448439 -0.24962,-1.48553 c 0,0 1.82542,-0.250039 1.82542,-0.250039 l 0.47842,-2.105633 1.70616,0.369279 c 0,0 0.60172,-1.734344 0.60172,-1.734344 l 0.48704,-5.29e-4 1.70513,0.121647 c 0,0 1.71165,1.731275 1.71165,1.731275 l -0.727,0.867701 3.05144,1.8533 1.27593,-0.06268 -5.3e-4,-1.60102 c 0,0 0.79375,-1.963024 0.79375,-1.963024 l 1.58835,-0.43254 0.81555,-3.756025 0.84828,-0.982901 5.13291,4.822296 c 0,0 -1.21295,1.115907 -1.21147,1.487329 l 0.25945,3.961606 2.91835,-0.870532 c 0,0 2.07899,2.349659 2.07899,2.349659 0,0 1.22282,1.360249 1.22282,1.360249 l 0.36867,0.866166 c 0,0 -0.72546,1.239036 -0.72546,1.239036 l 2.07394,1.111462 c 0,0 1.8334,1.854544 1.8334,1.854544 l -0.72543,1.238991 -1.82351,0.621453 -0.23553,1.981121 -2.43663,-0.491887 c 0,0 -1.69484,2.354474 -1.69484,2.354474 l -2.54998,1.612847 0.85463,0.617855 -0.48246,1.114822 -3.0443,-0.243417 -2.67282,1.365462 c 0,0 -3.65363,-0.366316 -3.65363,-0.366316 l -0.35317,2.971535 -3.90842,-3.089539 c 0,0 -0.60976,-0.246751 -0.60976,-0.246751 l -1.95202,-0.987742 -2.43096,0.993801 -2.43711,-0.49186 -0.49464,-1.856449 -1.21552,0.496914 -2.55997,-0.739352 c 0,0 -0.97917,-1.236741 -0.97917,-1.236741"
       id="path14" /><path
       onclick="pokaz(this)"
       d="m 40.772189,36.480019 0.9499,0.788855 0.65019,1.748049 c 0,0 0.79417,0.147532 0.79417,0.147532 l -7.9e-4,-1.091486 1.80475,-0.650478 c 0,0 0.14392,-2.037133 0.14392,-2.037133 l -1.87735,-1.096195 1.22716,-0.870188 c 0,0 -0.57774,-0.729112 -0.57774,-0.729112 l -0.9385,0.28866 -1.94956,-0.878099 0.23834,-1.093232 0.0829,-2.861204 -3.44752,-0.329194 -0.27289,1.669256 c 0,0 0.80512,1.770353 0.80512,1.770353 l -0.11287,0.814996 c 0,0 -0.67726,-0.768297 -0.67726,-0.768297 l -2.09476,0.366766 c 0,0 -0.86449,1.168849 -0.86449,1.168849 l 1.4633,0.509509 c 0,0 1.12961,0.22098 1.12961,0.22098 0,0 -0.57769,1.349242 -0.57769,1.349242 l 1.05743,0.577242 1.1778,0.6019 1.86687,0.382508"
       id="path16" /><path
       onclick="pokaz(this)"
       d="m 22.015869,52.566686 0.36275,5.67637 1.5889,1.531779 -1.80488,0.504931 -0.21629,1.018223 -0.93877,-0.438891 c 0,0 -7.9e-4,-1.382448 -7.9e-4,-1.382448 l -1.73302,-0.440796 c 0,0 -0.86614,1.016608 -0.86614,1.016608 l -0.65011,-0.802005 c 0,0 0.64931,-1.672007 0.64931,-1.672007 0,0 -0.79475,-1.530059 -0.79475,-1.530059 l -1.22724,0.79748 -4.11666,-2.48412 -0.21729,-1.965219 -1.87733,0.432012 c 0,0 -1.58922,-1.604883 -1.58922,-1.604883 l -1.94977,-0.07699 -1.08354,-0.948637 c 0,0 -1.01098,0.0026 -1.01098,0.0026 l -0.50559,-0.219552 c 0,0 -1.15543,0.0026 -1.15543,0.0026 0,0 -0.72242,-0.729535 -0.72242,-0.729535 l -1.37237,-0.658389 -0.43344,-0.364993 0.28871,-0.435901 2.59906,-1.95842 1.9503,1.314768 1.58855,-0.432726 -0.0739,-4.584965 2.16492,-4.288366 2.09418,-0.140309 -0.289,-0.437488 2.52748,0.0087 0.43349,0.65606 -1.08267,1.525561 3.17765,0.735754 c 0,0 3.89757,-5.885127 3.89757,-5.885127 l 1.44442,0.73144 c 0,0 -0.93835,1.162077 -0.93835,1.162077 l 0.36174,2.256869 2.16606,-0.576765 c 0,0 0.7225,1.384459 0.7225,1.384459 l 2.52743,0.73406 1.29956,-0.433388 c 0,0 0.65034,1.748156 0.65034,1.748156 l 2.31064,0.442383 2.45459,-0.939774 1.87748,0.950569 -1.8765,2.687902 c 0,0 0.50585,1.674839 0.50585,1.674839 l -2.52708,-0.297365 c 0,0 0.57816,2.111692 0.57816,2.111692 l -1.15519,0.07035 -3.82561,3.483239 -1.29977,-0.439764 -1.58811,1.233117 -1.29923,0.276093"
       id="path18" /><path
       onclick="pokaz(this)"
       d="m 37.033619,56.588352 c 0,0 -1.58781,1.887829 -1.58781,1.887829 l -1.51607,0.14179 c 0,0 -0.0722,-0.145627 -0.0722,-0.145627 l -1.22785,-1.894734 -1.29966,-0.366977 5.3e-4,1.891718 c 0,0 -1.87663,1.887194 -1.87663,1.887194 l -1.29956,0.0026 -0.43333,-0.510249 c 0,0 -1.01074,0.215821 -1.01074,0.215821 0,0 -1.73286,-0.222541 -1.73286,-0.222541 l -1.01068,0.434102 -0.21662,-0.07332 0.21658,-0.07268 -1.5889,-1.531805 c 0,0 -0.36275,-5.676371 -0.36275,-5.676371 l 1.29958,-0.287893 1.58811,-1.233197 1.29977,0.439897 3.82561,-3.483505 1.15519,-0.07035 c 0,0 -0.57816,-2.111534 -0.57816,-2.111534 l 2.52709,0.297339 -0.50586,-1.674971 1.8765,-2.687638 0.57767,0.29247 1.29984,1.021954 -2.52605,3.486414 c 0,0 0.79454,1.384591 0.79454,1.384591 0,0 -1.01015,2.398766 -1.01015,2.398766 0,0 1.44393,-0.0026 1.44393,-0.0026 0,0 0.50554,0.656087 0.50554,0.656087 l 1.29929,-1.015471 1.01082,0.293582 -1.1e-4,0.873098 0.79404,-0.507391 1.08297,0.220927 -0.57733,1.017244 1.73284,0.731863 7.9e-4,1.382395 c 0,0 4.54819,0.811504 4.54819,0.811504 0,0 -0.50488,2.108756 -0.50488,2.108756 l -1.80464,0.504904 -1.1552,-0.584914 -1.22706,0.870161 c 0,0 0.57793,1.674866 0.57793,1.674866 0,0 -0.72165,1.089554 -0.72165,1.089554 l -0.5054,-0.292259 c 0,0 -1.01098,-1.093787 -1.01098,-1.093787 l -0.86635,-0.07482 -1.22793,-2.402601"
       id="path20" /><path
       onclick="pokaz(this)"
       d="m 59.052249,57.911269 c 0,0 0.57782,1.624012 0.57782,1.624012 l 0.79409,0.518346 0.28898,1.180756 -2.88713,0.06641 -4.18624,1.907275 -0.0718,1.548686 c 0,0 -6.85721,1.532043 -6.85721,1.532043 l -3.89837,-0.894609 c 0,0 -0.14484,-1.62306 -0.14484,-1.62306 0,0 -2.16577,-0.226668 -2.16577,-0.226668 l -10e-4,-2.729177 0.86593,-1.325563 -0.57803,-1.698016 1.227,-0.882042 1.15522,0.592905 1.80462,-0.511836 0.50475,-2.137887 0.5053,-0.146261 -0.36163,-2.435066 c 0,0 1.37123,-1.545617 1.37123,-1.545617 l 1.37175,0.519853 -0.36049,1.695636 1.15514,0.445452 1.1548,-0.882227 1.37171,0.519748 1.51567,-1.028832 1.51608,0.667649 1.15478,-0.882253 2.31058,2.882371 c 0,0 1.80506,2.217208 1.80506,2.217208 l -0.9376,1.030552"
       id="path22" /><path
       onclick="pokaz(this)"
       d="m 32.215559,18.490999 c 0,0 -0.48032,1.648698 -0.48032,1.648698 l -1.70617,-0.369279 -0.47842,2.105633 -1.68672,0.479293 c 0,0 0.11093,1.256268 0.11093,1.256268 l 6.83657,4.448439 -1.45854,0.615527 0.25352,2.454011 -2.43308,0.494135 c 0,0 -0.48051,1.595993 -0.48051,1.595993 0,0 -1.58181,0.247545 -1.58181,0.247545 0,0 -0.6113,-0.612749 -0.6113,-0.612749 l -0.24854,-1.226873 c 0,0 -1.21759,0.0026 -1.21759,0.0026 0,0 -1.09633,-0.121258 -1.09633,-0.121258 l -1.02557,-0.942922 -1.464,4.356893 -1.01523,2.972065 -2.06743,0.6164 c 0,0 -0.37491,-2.331138 -0.37491,-2.331138 0,0 0.96906,-1.228487 0.96906,-1.228487 l -1.4637,-0.611611 -3.99388,5.895975 -3.16892,-0.73197 1.08932,-1.596866 -0.48964,-0.612907 h 0.48707 l -0.0127,-3.068109 c 0,0 0.72401,-1.59639 0.72401,-1.59639 0,0 -1.2228,-1.225629 -1.2228,-1.225629 l 3.0345,-2.335874 c 0,0 -1.71193,-1.715902 -1.71193,-1.715902 l 1.21417,-0.860716 2.67732,-0.37174 -1.2238,-1.471136 c 0,0 0.12177,-1.72e-4 0.12177,-1.72e-4 0,0 0.60378,-1.22809 0.60378,-1.22809 0,0 -0.61293,-0.981049 -0.61293,-0.981049 l 2.43239,-0.739589 c 0,0 -0.007,-1.718231 -0.007,-1.718231 0,0 -1.2228,-1.225762 -1.2228,-1.225762 l 0.48202,-1.227984 2.31822,1.101619 0.1071,-3.559439 1.45822,-0.738267 2.19187,-0.0031 c 0,0 -0.49012,-0.73578 -0.49012,-0.73578 0,0 1.09543,-0.12415 1.09543,-0.12415 l 1.17364,0.873231 1.08598,-0.698844 0.5891,0.557371 1.64946,-0.405924 1.15612,2.7686 -0.36068,1.309132 1.54581,0.619654"
       id="path26" />
</svg>
