<?xml version="1.0" encoding="UTF-8" standalone="no"?>
<svg
   viewBox="0 0 96.565155 117.57446"
   version="1.1"
   id="svg1"
   xmlns="http://www.w3.org/2000/svg">
   <style>path {fill:#e0e0e0;fill-opacity:1;stroke:#ffffff;stroke-width:0.529167}</style>
   <path
       onclick="pokaz(this)"
       d="m 14.360878,62.808167 2.43528,0.977 c 0,0 0.49549,2.57371 0.49549,2.57371 l 2.43041,-0.37158 0.85717,1.71492 -1.45728,0.49268 0.49589,2.69611 c 0,0 -1.81684,1.96429 -1.81684,1.96429 l 0.0127,3.55494 c 0,0.24517 1.82374,-0.003 1.82374,-0.003 l -1.68521,4.7834 1.59438,3.9198 -2.42112,2.94587 0.003,0.4903 -0.97088,0.49192 c 0,0 -0.72512,1.22692 -0.72512,1.22692 l -0.97568,-0.85638 c 0,0 -0.9683,1.22735 -0.9683,1.22735 l -1.70344,-0.36491 -1.0986,-1.22394 0.47191,-4.046 -2.0787996,-3.30624 0.60227,-1.59459 -1.58549,-1.34588 1.08204,-3.43429 -2.21234,-6.61644 -1.82531,-0.36488 -0.36917,-1.22542 c 0,0 1.69534,-1.96427 1.69534,-1.96427 l 2.18655,-0.61643 -0.36918,-1.22541 h 0.24321 l 0.23529,-2.20718 c 0,0 0.97322,0.12107 0.97322,0.12107 l 1.7119596,2.69452 2.91571,-0.74015 v -0.3678"
       id="path246" /><path
       onclick="pokaz(this)"
       d="m 17.800468,72.835877 c 0,0 1.81869,-2.15863 1.81869,-2.15863 l -0.49773,-2.50187 1.57884,-0.49287 c 0,0 -0.73556,-1.71511 -0.73556,-1.71511 l 1.44862,-2.94454 3.41524,3.05937 c 0,0 0.72646,-0.85926 0.72646,-0.85926 0,0 0.97692,1.22436 0.97692,1.22436 l 2.30828,-0.49395 1.94694,0.48728 c 0,0 -1.81679,1.96424 -1.81679,1.96424 l 2.06806,0.36452 -1.9237,6.13225 3.04482,1.58866 c 0,0 -0.96612,1.84021 -0.96612,1.84021 l 0.87323,6.37249 1.21909,0.97856 c 0,0 -1.2101,1.59538 -1.2101,1.59538 l -3.04218,-0.85299 1.2328,4.90061 -0.60264,1.47177 -1.46095,-0.61036 -2.78924,1.96572 -1.83647,-3.674 c 0,0 -2.43057,0.24915 -2.43057,0.24915 l -0.98126,-2.4498 -2.9165,0.37253 -0.003,-0.61285 2.42072,-3.06837 -1.59443,-3.91981 1.68566,-4.6609 -1.93413,0.17976 -0.0238,-3.73168"
       id="path248" /><path
       onclick="pokaz(this)"
       d="m 27.113798,71.883377 c 0,0 -3.82058,-1.82621 -3.82058,-1.82621 l -0.64966,2.54297 3.45995,2.55222 0.79315,-0.36168 0.21719,-2.90725"
       id="path250" /><path
       onclick="pokaz(this)"
       d="m 33.172758,77.413167 -1.08117,-0.72943 c 0,0 0.0721,-0.0724 0.0721,-0.0724 l -3.09959,-1.5335 1.9485,-6.10182 -2.09071,-0.36827 c 0,0 1.87518,-2.03129 1.87518,-2.03129 0,0 -0.0721,-1e-4 -0.0721,-1e-4 l 1.442,-0.14203 c 0,0 1.2263,-2.03269 1.2263,-2.03269 l 2.45096,0.80534 v -1.45399 l 1.08128,0.43876 1.44208,-0.57828 2.52217,3.13161 1.8747,-0.9407 1.29744,0.51186 c 0,0 -0.64931,1.45235 -0.64931,1.45235 l 1.58591,0.14904 c 0,0 1.15295,1.23841 1.15295,1.23841 0,0 -1.37049,2.25023 -1.37049,2.25023 l 2.88316,0.73345 c 0,0 -0.36118,1.96189 -0.36118,1.96189 l -2.09068,0.50406 -0.28898,1.67113 -1.65817,0.43241 c 0,0 -1.29702,-1.60216 -1.29702,-1.60216 l -0.72109,0.57984 -1.65783,-0.7306 -2.81225,2.31974 -1.51358,-1.0939 -2.09169,1.23098"
       id="path252" /><path
       onclick="pokaz(this)"
       d="m 46.640048,108.10484 -2.95487,-0.80576 c 0,0 0.0726,-1.52596 0.0726,-1.52596 l 0.72218,-3.7047 -2.73791,-3.712373 4.90644,-13.43501 1.51484,-2.90406 2.16223,0.73175 c 0,0 0.14518,-2.61625 0.14518,-2.61625 l 2.52314,-0.64857 c 0,0 5.33162,5.68113 5.33162,5.68113 l -0.36071,0.79857 -1.44153,-0.0761 c 0,0 -0.64957,2.17903 -0.64957,2.17903 l -2.0909,1.52159 -0.1456,3.63352 1.44047,2.69214 -2.74082,4.572533 1.00706,5.08926 3.24273,1.53305 c 0,0 -0.79359,2.03295 -0.79359,2.03295 l 0.35949,2.10812 -2.01824,0.57698 -1.87344,-1.23926 -1.94598,-0.14957 -1.87277,-3.0562 -1.80224,0.72305"
       id="path254" /><path
       onclick="pokaz(this)"
       d="m 39.575668,74.952547 -2.81225,2.31973 -1.51358,-1.09376 -2.09108,1.23097 -1.08117,-0.72943 -0.86569,1.74274 0.86308,6.39868 1.15313,0.94742 c 0,0 -1.22608,1.66907 -1.22608,1.66907 l -2.9554,-0.87887 1.15195,4.87257 c 0,0 -0.57717,1.37972 -0.57717,1.37972 l 0.93671,1.45571 2.23475,0.22299 3.17024,4.65852 0.21497,3.852343 5.69357,2.77389 1.94622,-0.14108 0.65003,-3.5597 -2.73791,-3.712373 c 0,0 4.9067,-13.43501 4.9067,-13.43501 l 1.51484,-2.90407 2.16221,0.73176 c 0,0 0.1452,-2.61625 0.1452,-2.61625 l 2.2348,-0.64921 v -0.14534 l -3.09906,-1.60602 0.21669,-1.08987 c 0,0 -0.86447,-1.38292 -0.86447,-1.38292 l -2.1622,-1.02259 -1.58605,0.35986 -0.28895,1.67113 -1.65817,0.43241 c 0,0 -1.29704,-1.60218 -1.29704,-1.60218 l -0.7211,0.57996 -1.65724,-0.73072"
       id="path256" /><path
       onclick="pokaz(this)"
       d="m 59.975048,82.995877 c 0,0 1.00827,1.89198 1.00827,1.89198 l 1.22508,0.5115 1.72654,7.48956 -0.14767,8.138843 -0.93731,0.87006 -2.7e-4,1.01732 1.29699,0.58415 c 0,0 -1.51447,2.39477 -1.51447,2.39477 l 0.43211,0.72763 c 0,0 1.22571,-1.23277 1.22571,-1.23277 l -0.36118,1.8887 1.72971,-0.14169 0.35984,1.0908 c 0,0 1.58459,1.96535 1.58459,1.96535 0,0 1.08098,-0.003 1.08098,-0.003 l 1.00854,0.80145 c 0,0 -0.7933,1.30619 -0.7933,1.30619 l 0.14351,1.38092 c 0,0 0.79155,2.54484 0.79155,2.54484 l -1.58586,1.01385 c 0,0 -3.24141,-3.2766 -3.24141,-3.2766 l -2.73844,-0.29638 c 0,0 -0.79327,1.23356 -0.79327,1.23356 l -2.01737,-1.3122 c 0,0 -1.36832,-2.47353 -1.36832,-2.47353 l -1.94606,0.35912 -0.35941,-2.32614 c 0,0 0.79362,-2.03295 0.79362,-2.03295 l -3.24274,-1.53305 -1.00703,-5.08926 2.74082,-4.572533 -1.44044,-2.69214 0.14557,-3.63352 2.0909,-1.52159 0.64957,-2.17893 1.44153,0.0761 0.36074,-0.7987 c 0,0 -5.61975,-5.9727 -5.61975,-5.9727 l 3.46101,-2.82681 c 0,0 -0.64796,-1.89129 -0.64796,-1.89129 l 2.23472,-0.50364 0.9352,4.43574 3.243,1.09757 -1.94776,3.48827"
       id="path258" /><path
       onclick="pokaz(this)"
       d="m 47.301508,74.105877 0.36115,-1.96178 -2.88316,-0.73356 1.29839,-2.17768 2.09087,-0.7948 c 0,0 0.0727,-1.45376 0.0727,-1.45376 l -1.51344,-1.09384 0.64931,-1.37969 -0.7915,-3.99997 v 0.29075 l 4.90273,-1.36973 c 0,0 1.65706,2.33006 1.65706,2.33006 l 1.22502,1.0932 c 0,0 4.03648,0.51824 4.03648,0.51824 l 3.46128,-2.75431 -0.21574,-1.23634 3.10012,-1.66463 c 0,0 0.43186,1.45484 0.43186,1.45484 l 2.45088,-0.43048 c 0,0 0.86442,1.16509 0.86442,1.16509 0,0 1.36946,-0.003 1.36946,-0.003 l 1.22658,-2.75934 1.65741,0.80351 c 0,0 0.4332,-1.59822 0.4332,-1.59822 l 3.0271,0.22522 c 0,0 1.08045,1.38353 1.08045,1.38353 l -3.24565,4.93527 -1.22552,0.57873 c 0,0 -0.0729,1.81697 -0.0729,1.81697 l -2.30722,1.73905 -2.45287,5.15488 -2.3068,0.79436 v 2.10775 l -3.38931,4.20793 c 0,0 -0.36047,0.21728 -0.36047,0.21728 l -3.243,-1.09757 -0.93519,-4.43601 -2.23473,0.50366 0.64797,1.8914 -3.46102,2.82681 c 0,0 0.28822,0.29139 0.28822,0.29139 l -2.52315,0.64839 2.23483,-0.64905 v -0.14537 l -3.0988,-1.60612 0.21667,-1.08977 c 0,0 -0.86448,-1.38303 -0.86448,-1.38303 l -2.1622,-1.02245 -1.58604,0.3597 2.09047,-0.49864"
       id="path260" /><path
       onclick="pokaz(this)"
       d="m 62.806088,64.977757 0.28713,2.76278 1.58525,1.09399 2.37863,-0.21261 0.4332,-1.59814 1.15337,-0.36068 -1.44121,-0.73022 c 0,0 -0.57671,0.21674 -0.57671,0.21674 l -0.35986,-1.16385 c 0,0 -1.36943,-0.14851 -1.36943,-0.14851 l -0.72057,-0.51048 c 0,0 -0.64876,0.0709 -0.64876,0.0709 l -0.72104,0.58004"
       id="path262" /><path
       onclick="pokaz(this)"
       d="m 44.629218,55.108797 -0.57727,1.45259 c 0,0 0.57666,0.21952 0.57666,0.21952 0,0 -0.93771,1.30628 -0.93771,1.30628 l 1.72937,2.33042 1.1534,0.0754 0.7915,3.99997 -0.64932,1.3797 1.51345,1.09384 c 0,0 -0.0727,1.45365 -0.0727,1.45365 l -2.09087,0.79481 0.0721,-0.0725 c 0,0 -1.15297,-1.23841 -1.15297,-1.23841 l -1.58591,-0.14904 c 0,0 0.64934,-1.45235 0.64934,-1.45235 l -1.29744,-0.51186 -1.87471,0.94073 -2.52216,-3.13188 -1.44206,0.57828 -1.0813,-0.43863 v 1.45386 l 1.3e-4,-1.38118 -4.68445,-6.04493 c 0,0 0.50538,-2.1072 0.50538,-2.1072 0,0 -5.33505,-1.53932 -5.33505,-1.53932 l 1.73154,-3.55838 c 0,0 -0.72078,-0.87416 -0.72078,-0.87416 0,0 0.0727,-1.89031 0.0727,-1.89031 l 0.43302,-1.23492 c 0,0 -1.29749,-1.31193 -1.29749,-1.31193 0,0 0.72165,-2.03402 0.72165,-2.03402 0,0 -0.93689,-1.60186 -0.93689,-1.60186 0,0 0.79277,1.38332 0.79277,1.38332 l 2.37953,-0.28517 c 0,0 0.7938,-2.10661 0.7938,-2.10661 l 1.80261,-0.0689 -0.28723,-3.70893 1.73074,-0.72298 1.36954,1.31215 2.23512,0.0777 c 0,0 0.0728,-2.03581 0.0728,-2.03581 l 1.226,-0.79681 v -2.03595 l -3.24485,0.28297 0.21654,-0.65383 2.59604,-1.01174 c 0,0 1.2265,-2.17829 1.2265,-2.17829 l 2.95566,1.17051 c 0,0 1.65751,2.18541 1.65751,2.18541 l -1.1544,2.25131 1.8742,0.87699 c 0,0 -0.14475,1.59928 -0.14475,1.59928 l -0.21609,-0.58222 -2.01927,1.44923 0.43219,1.1644 -0.79393,2.32476 -1.29754,-0.58475 -1.73062,0.72284 c 0,0 0.86487,0.87463 0.86487,0.87463 l 0.0715,1.74514 0.93704,0.58378 c 0,0 1.00928,0.22056 1.00928,0.22056 l 0.57632,1.31008 -2.66885,3.55626 1.08063,2.25627 c 0,0 2.09072,0.22312 2.09072,0.22312 0,0 0.57605,1.89145 0.57605,1.89145 l 1.29884,0.80359"
       id="path264" /><path
       onclick="pokaz(this)"
       d="m 32.828798,48.705877 1.15364,-0.0704 c 0,0 0.50501,-0.94406 0.50501,-0.94406 l 1.58604,0.51276 1.21931,0.97888 1.00504,-0.53046 0.30406,0.59322 -0.65659,1.08932 1.53892,2.73949 -0.61417,0.941 -0.6581,-1.03744 -1.16245,1.09903 0.0238,1.59181 -1.3308,0.67739 c 0,0 -0.99311,1.984 -0.99311,1.984 0,0 -0.82391,-2.57368 -0.82391,-2.57368 l 0.3293,-1.4151 -1.32305,-0.51358 0.39933,-2.02242 c 0,0 -0.9825,-0.13502 -0.9825,-0.13502 l -2.36945,-0.77274 0.99912,-0.77787 c 0,0 1.59335,-0.2135 1.59335,-0.2135 l 0.25723,-1.2007"
       id="path266" /><path
       onclick="pokaz(this)"
       d="m 39.602128,49.949417 2.66885,-3.556 -0.57634,-1.31011 c 0,0 -1.00925,-0.22053 -1.00925,-0.22053 l -0.93708,-0.58391 -0.0714,-1.74516 c 0,0 -0.8649,-0.87448 -0.8649,-0.87448 l 1.73061,-0.723 1.29757,0.58489 0.79391,-2.32476 -0.43217,-1.16438 2.01925,-1.44933 0.64833,1.52841 c 0,0 0.86511,0.14759 0.86511,0.14759 0,0 0.0718,0.72721 0.0718,0.72721 l 1.36951,0.80311 3.02683,2.55191 c 0,0 0.43196,1.52778 0.43196,1.52778 l 2.01838,0.51374 -0.0726,1.23574 -1.15347,0.0704 -0.14465,1.16289 c 0,0 -1.3697,0.003 -1.3697,0.003 l -0.28913,1.9622 -1.15382,0.94239 c 0,0 0.14321,2.54495 0.14321,2.54495 l -1.51421,0.79605 0.21511,3.05382 -0.79298,-0.0748 c 0,0 -0.86551,1.16102 -0.86551,1.16102 l -1.5858,-0.65794 0.57729,-1.45261 -1.29741,-0.8027 c 0,0 -0.57602,-1.89161 -0.57602,-1.89161 0,0 -2.09072,-0.22302 -2.09072,-0.22302 0,0 -1.08066,-2.26184 -1.08066,-2.26184"
       id="path268" /><path
       onclick="pokaz(this)"
       d="m 58.281718,38.731087 -1.51382,-0.14907 0.21556,1.74535 -1.15348,0.0704 c 0,0 0.72033,1.38305 0.72033,1.38305 l -1.29797,0.86932 -0.21653,0.65386 1.00899,0.65672 c 0,0 -0.43286,0.79862 -0.43286,0.79862 l -1.65788,-0.4401 c 0,0 -1.29768,0.14231 -1.29768,0.14231 l -2.6e-4,-0.0723 -2.01835,-0.51377 c 0,0 -0.43196,-1.52778 -0.43196,-1.52778 l -3.0271,-2.55202 -1.36948,-0.80301 -0.0718,-0.72731 c 0,0 -0.86508,-0.14748 -0.86508,-0.14748 l -0.64834,-1.52842 0.21609,0.58217 c 0,0 0.14475,-1.59922 0.14475,-1.59922 l -1.8742,-0.87715 c 0,0 1.1544,-2.25118 1.1544,-2.25118 l -1.08098,-1.45677 2.52407,-1.59353 0.21685,-1.5992 c 0,0 1.36994,-0.14197 1.36994,-0.14197 0,0 0.79256,1.3834 0.79256,1.3834 0,0 0.57713,-0.87112 0.57713,-0.87112 0,0 1.08098,1.16607 1.08098,1.16607 l 0.43223,0.94634 2.09039,0.95025 0.2169,-1.52641 -1.44094,-2.47565 0.72104,-0.21632 1.58573,0.87635 c 0,0 0.0715,1.52712 0.0715,1.52712 l 1.65767,1.24016 c 0,0 4.47013,-0.86159 4.47013,-0.86159 l 2.667,0.5154 -0.9375,0.79754 -2.16297,0.6491 -0.14459,0.94477 1.51365,0.58534 -0.86598,2.17916 -1.29754,-0.22127 c 0,0 -0.64947,1.59795 -0.64947,1.59795 l 1.00875,1.89196"
       id="path270" /><path
       onclick="pokaz(this)"
       d="m 56.985258,40.318587 -1.15348,0.0704 c 0,0 0.72033,1.38306 0.72033,1.38306 l -1.29797,0.86931 -0.21653,0.65387 1.00899,0.65672 c 0,0 -0.43286,0.79862 -0.43286,0.79862 l -1.65788,-0.44011 c 0,0 -1.29768,0.14232 -1.29768,0.14232 l -2.6e-4,-0.0723 c 0,0 -0.0726,1.23577 -0.0726,1.23577 l -1.15348,0.0704 -0.14462,1.16279 -1.36972,0.003 -0.28911,1.96228 -1.15383,0.94242 c 0,0 0.1432,2.54479 0.1432,2.54479 l -1.51421,0.7961 0.21513,3.05382 -0.79298,-0.0748 c 0,0 -0.86554,1.16117 -0.86554,1.16117 l -1.00912,-0.43857 -0.93768,1.30641 c 0,0 1.72934,2.33029 1.72934,2.33029 l 1.15343,0.0754 v 0.29078 l 4.90246,-1.36975 -0.36023,-0.50975 2.52407,-2.53843 3.17236,-1.01032 0.57732,-1.59789 -0.93655,-1.38346 c 0,0 1.58663,-1.81364 1.58663,-1.81364 l 0.50612,-3.63378 c 0,0 -0.8641,-2.32844 -0.8641,-2.32844 l 6.34391,-0.92999 1.15412,-1.74201 -1.80152,-1.3856 2.81199,-1.52 c 0,0 0.43241,0.21918 0.43241,0.21918 l 1.73259,-5.73935 0.9371,-0.003 -6.19945,0.058 -3.09986,-0.0801 c 0,0 -0.7938,1.96122 -0.7938,1.96122 0,0 -1.29754,-0.2214 -1.29754,-0.2214 0,0 -0.64947,1.59795 -0.64947,1.59795 0,0 1.00848,1.8928 1.00848,1.8928 l -1.51381,-0.14906 0.21473,1.74217"
       id="path272" /><path
       onclick="pokaz(this)"
       d="m 73.177758,56.352337 c 0,0 -0.43321,1.59819 -0.43321,1.59819 l -1.6574,-0.80351 -1.22658,2.75933 c 0,0 -1.36946,0.003 -1.36946,0.003 0,0 -0.86442,-1.16499 -0.86442,-1.16499 l -2.45089,0.43035 c 0,0 -0.43185,-1.45484 -0.43185,-1.45484 l -3.10012,1.66476 0.21571,1.23621 -3.46101,2.75431 -4.03648,-0.51821 -1.22502,-1.09323 -2.01735,-2.83977 c 0,0 2.5241,-2.53844 2.5241,-2.53844 l 3.17236,-1.01031 c 0,0 0.57732,-1.59793 0.57732,-1.59793 0,0 -0.93658,-1.38343 -0.93658,-1.38343 0,0 1.58666,-1.81377 1.58666,-1.81377 l 0.50612,-3.63378 c 0,0 -0.8641,-2.32847 -0.8641,-2.32847 0,0 6.34391,-0.92985 6.34391,-0.92985 l 1.15411,-1.74202 -1.80152,-1.3857 2.81199,-1.5199 2.81067,1.16996 1.152,2.91068 0.57719,-1.16178 c 0,0 1.29743,-0.003 1.29743,-0.003 l -1.80371,3.70311 3.09827,2.69716 c 0,0 3.89149,1.46315 3.89149,1.46315 l -2.59641,3.48297 c 0,0 5.18901,1.02995 5.18901,1.02995 l -2.38022,3.70152 c 0,0 -1.22457,-1.45661 -1.22457,-1.45661 l -3.0271,-0.22556"
       id="path274" /><path
       onclick="pokaz(this)"
       d="m 66.563168,39.180877 1.80393,-5.76474 0.97243,-0.003 c 0,0 5.22869,0.60545 5.22869,0.60545 l 5.08979,-4.54343 2.05894,-2.20969 2.80246,2.08015 4.24418,-2.94825 c 0,0 0.60974,0.61209 0.60974,0.61209 l -0.72721,0.61402 0.004,1.22592 2.67785,1.22206 -0.96303,2.82098 c 0,0 3.89228,0.97507 3.89228,0.97507 l 0.3714,2.08341 1.21607,0.24342 0.36661,0.61238 -3.88011,2.70245 c 0,0 -1.20965,1.71794 -1.20965,1.71794 l -1.5775,0.73779 -2.6633,3.19114 -1.57668,0.98301 0.005,1.34834 -1.57384,1.84105 c 0,0 -1.0934,0.12422 -1.0934,0.12422 0,0 0.005,1.47093 0.005,1.47093 l -2.66277,3.31364 -0.36423,0.12313 c 0,0 0.12116,-0.12276 0.12116,-0.12276 0,0 -5.10778,-0.97285 -5.10778,-0.97285 l 2.54045,-3.55864 c 0,0 -3.89414,-1.46511 -3.89414,-1.46511 l -3.04774,-2.6924 1.81086,-3.68035 -1.21546,0.003 -0.7256,1.10437 -1.10381,-2.94057 -2.43393,-0.85461 m 29.52485,-2.49494 v 0.12261 -0.12261"
       id="path276" /><path
       onclick="pokaz(this)"
       d="m 51.137968,25.687127 1.29788,-0.36036 c 0,0 0.43334,-1.96218 0.43334,-1.96218 l 2.59548,-0.0662 1.94712,-1.44944 -1.80231,-0.0771 1.80297,-1.44976 -2.09055,-0.51414 0.50602,-3.34353 -0.28787,-1.30969 2.73976,-0.50208 -2.95619,0.50165 -1.15385,0.65149 -0.86471,-1.16557 -1.87481,0.64966 -2.7387,-2.69743 -3.67718,-0.30009 c 0,0 -0.50453,-0.51028 -0.50453,-0.51028 l -0.93771,0.94293 c 0,0 0.79285,0.802 0.79285,0.802 l -0.93835,2.76093 c 0,0 1.00936,0.22069 1.00936,0.22069 l -3.24538,2.02803 c 0,0 -0.57653,-0.94687 -0.57653,-0.94687 l -1.7304,-0.29522 c 0,0 -1.3707,2.03285 -1.3707,2.03285 l 0.50327,4.29154 c 0,0 -0.86596,2.10661 -0.86596,2.10661 l -1.5154,3.55918 -1.15369,0.0703 c 0,0 -0.14417,-0.14583 -0.14417,-0.14583 l 0.072,0.36382 -0.14459,1.23571 -1.08194,1.08821 1.51384,1.02163 h 0.50475 l 0.21653,-0.65397 2.59601,-1.0116 c 0,0 1.22651,-2.17842 1.22651,-2.17842 0,0 2.95566,1.17067 2.95566,1.17067 0,0 1.65753,2.18538 1.65753,2.18538 0,0 -1.08098,-1.45682 -1.08098,-1.45682 l 2.52407,-1.59351 0.21688,-1.59919 1.36993,-0.14195 c 0,0 0.79256,1.3834 0.79256,1.3834 l 0.57711,-0.87114 1.08101,1.16612 c 0,0 0.43222,0.94628 0.43222,0.94628 l 2.09037,0.95031 0.21691,-1.52641 c 0,0 -1.44095,-2.47571 -1.44095,-2.47571 0,0 0.14417,-1.8e-4 0.14417,-1.8e-4 0,0 -0.43238,-0.43736 -0.43238,-0.43736 0,0 0.79343,-1.08675 0.79343,-1.08675"
       id="path652" /><path
       onclick="pokaz(this)"
       d="m 33.622548,28.253587 -1.22563,-0.51202 0.43281,-0.43519 -1.15335,-1.09357 -1.51458,0.94152 -1.29654,-4.58444 1.94699,-0.14071 c 0,0 0.0726,-1.23605 0.0726,-1.23605 l 3.10092,-1.01034 -1.15338,-1.09373 0.79331,-0.28887 c 0,0 0.28916,-2.32633 0.28916,-2.32633 l -1.08143,-0.5117 -1.9458,-3.71369 -1.87452,-1.24108 1.011,-4.5791495 -1.51397,-1.2402 1.0107,-3.63379 3.10039,1.31701 2.16345,-0.28545 c 0,0 1.58715,-2.10503004 1.58715,-2.10503004 l 2.45184,-0.21196 2.88396,1.09836004 c 0,0 -0.79364,1.30702 -0.79364,1.30702 l 1.8746,0.58663 -0.50634,4.36219 c 0,0 -1.51495,2.10521 -1.51495,2.10521 l 1.94678,0.15029 c 0,0 1.80192,1.8953395 1.80192,1.8953395 0,0 -0.93769,0.94297 -0.93769,0.94297 l 0.79285,0.80198 -0.93834,2.76093 c 0,0 1.00936,0.22066 1.00936,0.22066 l -3.24538,2.02803 -0.57653,-0.94684 -1.7304,-0.29522 c 0,0 -1.3707,2.03282 -1.3707,2.03282 l 0.50326,4.29154 c 0,0 -0.86595,2.10662 -0.86595,2.10662 l -1.5154,3.55944 -1.15369,0.0703 c 0,0 -0.86495,-1.09328 -0.86495,-1.09328"
       id="path654" /><path
       onclick="pokaz(this)"
       d="m 25.976088,23.887957 1.00873,2.76596 -2.09154,1.15832 c 0,0 -3.09959,-3.93436 -3.09959,-3.93436 l -0.93789,1.52488 -2.2e-4,2.0361 -1.44243,0.57827 c 0,0 0.0721,1.1e-4 0.0721,1.1e-4 l -2.16304,-1.387 v -1.74527 l -3.17209,-4.44394 1.65891,-0.72316 0.0721,-1.1e-4 3.17341,-0.5012 0.21614,0.72776 2.59662,-1.73886 2.16377,-1.15819 1.44338,-3.77825 c 0,0 0.21706,-2.39945 0.21706,-2.39945 l -0.1442,-0.0734 0.28864,-0.65376 2.74187,-4.8656895 1.4419,1.16721 -1.01099,4.5794095 1.87449,1.24095 1.9458,3.71396 1.08146,0.5117 -0.28919,2.3264 -0.7933,0.28893 1.15339,1.09368 -3.10091,1.01034 -0.0725,1.23608 -1.94698,0.14054 v 0.21815 l -0.14423,-0.0734 -2.74108,1.15779"
       id="path656" /><path
       onclick="pokaz(this)"
       d="m 25.473378,13.251707 -1.44338,3.77825 -2.16376,1.15822 -2.59665,1.73887 -0.28824,-0.80066 2.38075,-3.33957 c 0,0 0.0726,-1.67248 0.0726,-1.67248 l 3.53483,-3.62744 0.72105,0.36547 c 0,0 -0.21701,2.39942 -0.21701,2.39942"
       id="path658" /><path
       onclick="pokaz(this)"
       d="m 33.172758,31.904837 1.51384,1.02164 3.74941,-0.28163 v 2.03584 l -1.226,0.79692 -0.0728,2.03568 -2.23512,-0.0777 -1.36951,-1.31205 -1.73074,0.72287 0.2872,3.70893 -1.8026,0.0689 -0.7938,2.10675 -2.37953,0.28517 c 0,0 -0.79278,-1.38348 -0.79278,-1.38348 l -2.59585,0.13919 -3.38905,-0.44436 -2.23443,-3.56844 1.51453,-0.72345 -3.24406,-3.2803 1.65862,0.01 c 0,0 0.0727,-2.39948 0.0727,-2.39948 l 2.09158,-1.08567 c 0,0 -0.79261,-2.25626 -0.79261,-2.25626 l 1.44243,-0.57827 -3e-5,-2.03608 c 0,0 0.93792,-1.52487 0.93792,-1.52487 l 3.0996,3.93435 2.09153,-1.15832 -1.0087,-2.76595 2.74055,-1.15663 0.14423,0.0734 1.29659,4.36615 1.51455,-0.94155 1.15335,1.0935 c 0,0 -0.43278,0.43529 -0.43278,0.43529 l 1.22563,0.51205 0.72075,0.94708 0.072,0.36367 -0.14459,1.23584 -1.0817,1.08095"
       id="path660" /><path
       onclick="pokaz(this)"
       d="m 15.234008,47.779837 c 0,0 1.65899,-1.81383 1.65899,-1.81383 l 0.21688,-1.96275 -1.6582,-1.38552 3.67797,-1.44542 c 0,0 4.61487,0.59277 4.61487,0.59277 l 2.59585,-0.13919 c 0,0 0.93692,1.60186 0.93692,1.60186 0,0 -0.72168,2.03417 -0.72168,2.03417 0,0 1.29749,1.31191 1.29749,1.31191 l -0.43302,1.23492 c 0,0 -0.0726,1.89031 -0.0726,1.89031 0,0 0.72075,0.87419 0.72075,0.87419 l -1.80369,3.70363 -3.17288,0.93771 c 0,0 -1.08217,2.03314 -1.08217,2.03314 l -2.30754,0.64892 -1.58626,-0.29451 -1.08201,1.59695 c 0,0 -1.15377,0.21547 -1.15377,0.21547 l -0.64881,-0.6559 -0.43201,-2.47295 -1.08133,-1.23862 1.4e-4,-2.32672 2.23567,-1.01256 0.36103,-1.74416 -1.15364,-0.51173 c 0,0 0.073,-1.67214 0.073,-1.67214"
       id="path662" /><path
       onclick="pokaz(this)"
       d="m 23.092128,55.214627 3.17289,-0.93771 c 0,0 0.0722,-0.14526 0.0722,-0.14526 0,0 5.33506,1.53927 5.33506,1.53927 l -0.50538,2.10722 c 0,0 4.68445,6.04494 4.68445,6.04494 l -1.4e-4,1.38131 -2.45099,-0.80537 c 0,0 -1.22629,2.03269 -1.22629,2.03269 l -1.44198,0.14203 -1.87441,-0.44045 -2.3794,0.50339 c 0,0 -1.00907,-1.23817 -1.00907,-1.23817 l -0.72123,0.87067 -3.38799,-3.06123 -1.44285,2.8321 -2.52373,0.35764 -0.57618,-2.54577 -2.37927,-0.9507 v -2.61737 l 1.51445,-0.79621 c 0,0 -0.0721,-0.0734 -0.0721,-0.0734 0,0 1.15379,-0.21548 1.15379,-0.21548 l 1.08202,-1.59694 1.58628,0.29451 2.30754,-0.64892 c 0,0 1.08214,-2.03253 1.08214,-2.03253"
       id="path664" /><path
       onclick="pokaz(this)"
       d="m 8.6458784,63.310877 -1.7305,-0.8038 -2.45171,-0.36926 -0.0716,-1.96328 1.94715,-0.43162 -0.28789,-2.40006 -3.60574,-0.51739 -1.29723,-4.00209 2.16392,-1.9581 c 0,0 -1.73042,-1.74929 -1.73042,-1.74929 0,0 1.29852,-1.88744 1.29852,-1.88744 l -0.86524,-0.72927 1.37038,-0.65106 c 0,0 -1.3698,-2.18477 -1.3698,-2.18477 l 2.59617,0.36978 1.58692,-1.4505 1.08146,1.2387 0.64934,-1.23462 1.65854,0.51303 0.36084,-1.16258 5.0479796,0.303 2.09077,1.75003 -0.21688,1.96276 c 0,0 -1.65902,1.81382 -1.65902,1.81382 0,0 -0.0725,1.67215 -0.0725,1.67215 l 1.15364,0.51173 -0.361,1.74416 -2.23567,1.01256 -1.4e-4,2.32672 1.08133,1.23862 c 0,0 0.43198,2.47295 0.43198,2.47295 l 0.72089,0.72872 -1.51445,0.79621 0.0713,2.76278 -3.05461,0.86259 -1.7119596,-2.69452 -0.92967,-0.0718 c 0,0 -0.14528,2.18117 -0.14528,2.18117"
       id="path666" /><path
       onclick="pokaz(this)"
       d="m 14.096298,20.369007 3.17738,4.41034 0.007,1.83943 2.19363,1.34581 c 0,0 0.73784,2.3288 0.73784,2.3288 l -2.06377,0.98396 c 0,0 -0.1129,2.45261 -0.1129,2.45261 l -1.70241,0.003 3.29459,3.18346 -1.57816,0.73801 2.32336,3.67506 c 0,0 -1.33842,-0.24326 -1.33842,-0.24326 l -3.64305,1.35414 c 0,0 -0.36613,-0.3673 -0.36613,-0.3673 0,0 -5.1080396,-0.2377 -5.1080396,-0.2377 0,0 -0.36042,1.22672 -0.36042,1.22672 l -1.70466,-0.61058 -0.60367,1.22711 c 0,0 -1.22044,-1.22441 -1.22044,-1.22441 0,0 -1.45405,1.47359 -1.45405,1.47359 l -2.67679,-0.36388 h -0.36483 0.24323 c -0.005,-1.22618 0.22558,-4.90537 -0.019,-5.27261 0,-0.36791 -0.73147,-0.48943 -0.73147,-0.48943 l 1.09189,-0.73737 c 0,0 -0.85527,-1.10238 -0.85527,-1.10238 l 2.6633,-3.43747 c 0,0 -0.73809,-2.32892 -0.73809,-2.32892 l 0.24149,-0.49088 c 0,0 2.78712,-2.82443 2.78712,-2.82443 l 3.27475,-2.45729 3.0350296,-1.47587 0.47858,-2.20811 1.09321,-0.36943 M 0.68512836,44.669317 c 0,0 -0.62822,0.13836 -0.62822,0.13836 0,0 0.62822,-0.13836 0.62822,-0.13836"
       id="path668" />
</svg>
