<?xml version="1.0" encoding="UTF-8" standalone="no"?>
<svg
   viewBox="0 0 92.827271 138.22206"
   version="1.1"
   id="svg1"
   xmlns="http://www.w3.org/2000/svg">
   <style>path {fill:#e0e0e0;fill-opacity:1;stroke:#ffffff;stroke-width:0.529167}</style>
   <path
       onclick="pokaz(this)"
       d="m 35.888489,116.11377 c 0,0 0.64891,0.65704 0.64891,0.65704 l 1.5149,-0.43225 0.21593,1.1653 c 0,0 1.51466,-0.002 1.51466,-0.002 l 1.51516,-1.16004 1.87534,-0.0667 0.93935,-3.92747 c 0,0 -0.0721,-0.0723 -0.0721,-0.0723 l 1.5871,-0.72305 c 0,0 1.94638,2.33492 1.94638,2.33492 l 3.82217,1.17599 1.80263,0.87876 v 1.60121 c 0,0 1.94715,0.22411 1.94715,0.22411 l 0.72075,0.94826 2.45232,-0.57478 3.67718,1.46648 2.01964,-0.8672 -1.58684,0.65022 c 0,0 1.15285,1.96834 1.15285,1.96834 l 1.80266,0.36925 2.37871,1.97197 -1.80311,0.57679 0.43116,2.98503 -1.0097,0.28808 2.3068,1.46219 -0.50549,1.38118 -4.76303,7.55359 -2.09116,-0.15163 0.14436,-0.2907 -0.79278,-0.94824 c 0,0 -1.08227,1.23386 -1.08227,1.23386 l -1.08167,-0.0763 -0.71962,-3.20384 -2.30737,-0.58904 -0.36002,-1.31083 -1.87481,-0.4422 -2.59665,0.86559 -3.31708,-1.24688 -0.93766,0.21563 -1.44187,-1.31419 -1.58684,0.28644 -4.1828,-1.10405 c 0,0 -0.9367,-2.33159 -0.9367,-2.33159 l 0.36128,-1.60007 -1.29807,-0.58605 0.0734,-3.20225 c 0,0 -3.17209,-3.86689 -3.17209,-3.86689 l 1.80358,-0.79531 0.86628,-1.37512"
       id="path352" /><path
       onclick="pokaz(this)"
       d="m 75.549529,93.306688 c 0,0 1.73085,-0.21308 1.73085,-0.21308 l 0.43183,1.52979 2.59662,-1.01092 v 2.3291 l 5.04798,-0.42119 6.70428,2.71357 0.072,0.14576 -0.43518,4.292602 c 0,0 0.64836,0.94808 0.64836,0.94808 l 0.21241,6.47726 -8.07958,6.96172 -3.24459,-0.083 -5.19298,2.24028 -4.47278,3.91636 -3.89705,5.88275 -2.30682,-1.4623 1.0097,-0.28805 -0.43113,-2.98477 1.80308,-0.57689 -2.37868,-1.97189 -1.80266,-0.36936 -1.15285,-1.96837 1.58682,-0.65021 c 0,0 -0.43178,-1.82065 -0.43178,-1.82065 l 2.16331,0.29766 1.6605,-3.70655 1.73046,0.58745 c 0,0 2.02036,-2.32275 2.02036,-2.32275 l -0.79129,-3.71395 -0.0698,-4.36695 -1.15345,-0.73139 -1.4402,-4.080402 -0.0721,0.0725 3.17447,-2.39207 c 0,0 -0.72078,-0.73006 -0.72078,-0.73006 l 0.21733,-1.8918 1.73088,-0.14018 2.525,-1.73908 c 0,0 1.00846,1.24119 1.00846,1.24119"
       id="path354" /><path
       onclick="pokaz(this)"
       d="m 52.848279,98.479288 -1.65934,0.94118 c 0,0 -1.00967,-0.22149 -1.00967,-0.22149 0,0 -0.93808,0.943322 -0.93808,0.943322 l -2.30852,0.93924 -1.15393,-0.29474 c 0,0 0.93758,0.22128 0.93758,0.22128 l -0.36155,2.03695 -2.81358,1.59266 c 0,0 -0.79449,2.47243 -0.79449,2.47243 l -2.52482,0.72014 c 0,0 0.0716,1.31043 0.0716,1.31043 l 3.74942,3.14113 1.58712,-0.72316 c 0,0 1.94639,2.33503 1.94639,2.33503 l 3.8219,1.17602 1.80266,0.87873 v 1.60121 c 0,0 1.94715,0.22411 1.94715,0.22411 0,0 0.72075,0.94826 0.72075,0.94826 l 2.45229,-0.5748 3.67718,1.46647 2.01967,-0.86719 -0.4318,-1.82065 2.16331,0.29752 1.6605,-3.70655 1.73046,0.58732 c 0,0 2.02033,-2.32267 2.02033,-2.32267 l -0.79127,-3.71395 -0.0698,-4.36722 -1.15345,-0.73138 -1.44021,-4.080142 -0.0721,0.0725 c 0,0 -1.51358,-1.82436 -1.51358,-1.82436 l -10.81828,0.25784 -2.37956,-1.24468 c 0,0 -0.0732,2.32912 -0.0732,2.32912"
       id="path356" /><path
       onclick="pokaz(this)"
       d="m 33.189739,118.36273 1.70034,-0.7379 c 0,0 0.8464,-1.47357 0.8464,-1.47357 l 0.73187,0.61304 1.4583,-0.36949 0.24744,1.22714 c 0,0 1.45955,-0.002 1.45955,-0.002 l 1.57697,-1.22873 1.82395,-0.12431 0.95973,-3.92827 -3.78116,-3.18796 c 0,0 -0.005,-1.35014 -0.005,-1.35014 l 2.43009,-0.73848 c 0,0 0.8431,-2.45549 0.8431,-2.45549 l 2.79214,-1.59795 0.35828,-1.96417 c 0,0 -0.97386,-0.24468 -0.97386,-0.24468 l -0.61438,-1.840682 -0.98134,-2.45414 2.43056,-0.61569 0.35746,-2.20975 -0.86138,-2.94534 4.12591,-2.82654 -0.61224,-1.22706 c 0,0 -1.58123,0.002 -1.58123,0.002 l -0.01,-2.94614 -3.16257,0.002 -3.4118,-1.71612 -1.8192,1.59727 c 0,0 0.37116,1.84113 0.37116,1.84113 l -1.70508,-0.61251 1.46137,0.48992 v 0.24554 c 0,0 -1.2089,2.21057 -1.2089,2.21057 l -1.46095,-0.36716 -2.67071,1.59792 -0.60404,1.22806 -1.70093,0.61511 0.006,1.84136 -1.94381,0.73809 -0.59137,4.91066 -2.30537,1.720402 0.003,0.85926 0.85278,0.36756 0.003,0.85926 -1.94675,-0.12116 0.61963,3.31364 3.0435,0.73395 c 0,0 1.33257,-1.59678 1.33257,-1.59678 l 2.43573,0.85717 c 0,0 -0.46053,7.61047 -0.46053,7.61047 l 1.58543,1.22603 c 0,0 -2.05981,2.33378 -2.05981,2.33378 l 0.24747,1.22717 c 0,0 0.367,0.61333 0.367,0.61333 m -3.175,-3.6793 2.1966,2.08463 -2.1966,-2.08463"
       id="path358" /><path
       onclick="pokaz(this)"
       d="m 83.725149,81.249618 1.29784,0.36801 0.50517,-0.65349 2.81199,0.80946 3.02895,-0.71829 v 1.60126 l -1.0839,3.78143 2.08675,7.28477 c 0,0 -0.79428,1.88979 -0.79428,1.88979 l 0.5752,2.69451 -6.77624,-2.78659 -5.04799,0.42119 v -2.3291 l -2.59659,1.01092 -0.43183,-1.52979 c 0,0 -1.73088,0.21307 -1.73088,0.21307 0,0 -1.00896,-1.24055 -1.00896,-1.24055 l -2.52497,1.73905 -1.7309,0.14018 -0.21733,1.89182 c 0,0 0.72078,0.73007 0.72078,0.73007 l -3.17447,2.39207 c 0,0 -1.51355,-1.82422 -1.51355,-1.82422 0,0 -10.81829,0.25781 -10.81829,0.25781 l -2.37958,-1.24468 -0.0732,2.329 -1.65936,0.94117 c 0,0 -1.00968,-0.22148 -1.00968,-0.22148 0,0 -0.93808,0.943312 -0.93808,0.943312 l -2.30849,0.93925 -1.15393,-0.29475 c 0,0 -0.57621,-1.894332 -0.57621,-1.894332 0,0 -1.08098,-2.33265 -1.08098,-2.33265 l 2.45277,-0.72028 0.36166,-2.25541 -0.93644,-2.91465 4.11268,-2.75352 c 0,0 -0.64863,-1.23954 -0.64863,-1.23954 0,0 -1.44261,0.002 -1.44261,0.002 l -0.14301,-2.83951 -3.17394,0.0625 -3.38958,-1.83065 -1.80408,1.59602 0.28778,1.82081 -1.65891,-0.58754 -2.52349,-3.35677 -1.29741,-2.77071 0.57748,-0.94462 2.0202,-0.57602 3.39037,0.73869 3.39222,-4.35742 2.95619,3.06705 2.88528,-0.0635 3.89626,-2.39016 c 0,0 -1.29778,-1.31451 -1.29778,-1.31451 l 1.22663,-0.86979 0.64873,1.02132 2.95725,0.15504 1.73241,-2.68816 2.16387,0.0107 -0.21569,-1.38387 c 0,0 1.58801,-2.39734 1.58801,-2.39734 l 5.55334,0.96419 2.88184,6.05129 4.39896,0.74197 -1.30006,3.56288 0.93734,0.36682 c 0,0 0.86614,-1.30755 0.86614,-1.30755 0,0 0.72068,0.94859 0.72068,0.94859 0,0 1.00975,-0.21518 1.00975,-0.21518 l 5.98435,2.49375 0.4327,0.86564"
       id="path360" /><path
       onclick="pokaz(this)"
       d="m 58.536819,80.588158 c 0,0 -0.86662,2.25391 -0.86662,2.25391 l 2.7395,2.92047 1.65886,0.011 2.09192,-0.64857 0.6512,-4.14735 -1.94691,-0.87968 -2.59702,1.01094 -1.73082,-0.52077"
       id="path362" /><path
       onclick="pokaz(this)"
       d="m 58.192859,58.675368 -0.21727,1.81941 c 0,0 0.86473,1.75017 0.86473,1.75017 l -1.15559,3.12711 1.58647,0.87865 c 0,0 -0.14526,2.03803 -0.14526,2.03803 l 1.58634,1.09702 0.14367,1.1653 -0.21572,-1.38387 c 0,0 1.58803,-2.39734 1.58803,-2.39734 l 5.55334,0.96406 2.88184,6.05155 4.39896,0.74197 -1.30005,3.56262 0.93734,0.36698 c 0,0 0.86614,-1.30758 0.86614,-1.30758 0,0 0.72067,0.94859 0.72067,0.94859 0,0 1.00978,-0.21518 1.00978,-0.21518 0,0 5.98435,2.49375 5.98435,2.49375 l 0.43217,0.87482 1.29783,0.36801 0.50517,-0.6535 2.81199,0.80947 2.88475,-0.7188 -1.87364,-2.04395 -0.28745,-1.67498 -1.3694,-1.24182 -9.35858,-29.65979 v 0.29123 l -1.51418,-0.80584 -1.15456,0.94276 -2.09106,-1.17173 -1.8034,0.35811 -2.52399,-1.02762 c 0,0 -4.40055,1.15054 -4.40055,1.15054 0,0 -0.72089,-0.87611 -0.72089,-0.87611 l -5.91661,3.40281 0.28803,1.09307 -4.04098,2.68076 -0.93755,-0.51263 -0.64948,0.50752 v 0.87371 l 1.44264,0.22317 c 0,0 1.08151,1.16856 1.08151,1.16856 l -0.21698,1.16422 1.22581,1.02327 c 0,0 0.86561,-0.001 0.86561,-0.001 0,0 0.93618,1.75384 0.93618,1.75384"
       id="path364" /><path
       onclick="pokaz(this)"
       d="m 36.893899,77.243828 -2.02014,0.576 c 0,0 -0.0723,0.14541 -0.0723,0.14541 l -1.51485,-0.36877 1.95117,-8.36666 0.0721,-1e-4 1.87709,-3.41604 c 0,0 0.0729,-1.81999 0.0729,-1.81999 l 3.39196,-2.82892 -0.8654,-0.73083 1.08292,-1.88971 c 0,0 -0.64863,-1.60398 -0.64863,-1.60398 l 2.45364,-1.81243 1.22666,-0.57848 c 0,0 -1.00925,-1.67796 -1.00925,-1.67796 l 2.8149,-2.90354 c 0,0 1.08223,-0.21493 1.08223,-0.21493 l 0.0727,-1.16481 1.22664,-0.50567 -0.003,-0.43698 1.01,-10e-4 1.44264,0.36883 0.71903,5.17208 -1.15472,1.08847 c 0,0 0.50461,0.87537 0.50461,0.87537 l 2.30902,-1.37589 -0.0719,-0.43706 1.44264,0.22305 c 0,0 1.08148,1.16856 1.08148,1.16856 l -0.21693,1.1642 1.22581,1.0233 c 0,0 0.86561,-0.001 0.86561,-0.001 0,0 0.93689,1.7504 0.93689,1.7504 l -0.21727,1.81954 c 0,0 0.86476,1.75014 0.86476,1.75014 l -1.15562,3.12684 1.58644,0.87879 c 0,0 -0.14525,2.03801 -0.14525,2.03801 l 1.58633,1.09704 0.14367,1.16528 -2.16387,-0.0107 -1.73241,2.68817 -2.95725,-0.15505 -0.6487,-1.02118 -1.22664,0.86966 c 0,0 1.29776,1.31463 1.29776,1.31463 l -3.89626,2.39004 -2.88528,0.0635 -2.95619,-3.06705 c 0,0 -3.39222,4.35742 -3.39222,4.35742 l -3.38852,-0.72736"
       id="path366" /><path
       onclick="pokaz(this)"
       d="m 75.655359,46.864368 -2.09105,-1.17173 -1.8034,0.35811 -2.524,-1.02761 c 0,0 -4.40055,1.15054 -4.40055,1.15054 0,0 -0.72088,-0.87612 -0.72088,-0.87612 l -5.91661,3.40281 0.28802,1.09307 -4.04098,2.68076 -0.93755,-0.51266 -0.64947,0.5075 0.0715,1.31091 -2.30902,1.37588 -0.50458,-0.87534 1.15472,-1.08847 -0.71906,-5.17208 -1.44264,-0.36885 -1.58713,-0.0113 -3.39037,-0.95766 c 0,0 1.22753,-2.54463 1.22753,-2.54463 0,0 -1.80274,-2.04491 -1.80274,-2.04491 l 0.57886,-3.93039 2.16564,-2.90592 c 0,0 -0.071,-2.62191 -0.071,-2.62191 l -0.14417,-0.36455 4.25741,-1.7336 -0.93752,-0.8042 1.29891,-0.65109 c 0,0 0.86667,-2.03631 0.86667,-2.03631 0,0 7.86421,-1.50299 7.86421,-1.50299 l 0.9375,0.6586 -0.5054,0.87228 c 0,0 1.4419,1.82539 1.4419,1.82539 0,0 -0.0727,1.09209 -0.0727,1.09209 l 2.52518,-0.64707 2.09119,1.53628 2.30841,-0.13792 1.58668,0.51499 c 0,0 1.51355,2.33526 1.51355,2.33526 l 1.65902,0.0789 2.59739,-1.30202 0.0704,2.98556 1.22577,0.80502 v 2.54852 l 0.14247,3.20411 c 0,0 1.36959,1.53355 1.36959,1.53355 l -0.003,3.27633 -1.51416,-0.80584 -1.15446,0.94816"
       id="path368" /><path
       onclick="pokaz(this)"
       d="m 74.147239,27.417498 c 0,0 1.58829,-2.54341 1.58829,-2.54341 l 0.003,-2.54866 -1.29535,-5.68457 -2.52413,-1.17374 -1.51302,-3.57373 -3.67823,-1.68765 -2.09212,-0.0113 c 0,0 -1.58631,-1.6804699 -1.58631,-1.6804699 l -1.44253,-0.66045 -0.28975,2.3295699 -2.09277,1.23111 2.16233,4.01293 -2.52555,1.15676 -0.50708,4.29525 c 0,0 2.81279,1.68444 2.81279,1.68444 l -2.3091,1.23034 1.29802,1.0967 0.4322,1.31228 -0.43305,0.36274 -0.28879,0.5088 c 0,0 1.4419,1.82538 1.4419,1.82538 0,0 -0.0727,1.09207 -0.0727,1.09207 l 2.52515,-0.64704 2.09119,1.53628 2.30841,-0.13794 1.58671,0.51498 c 0,0 1.51357,2.33529 1.51357,2.33529 l 1.65897,0.0789 2.59744,-1.30204 v 0.36409 c 0,0 0.0722,-0.14543 0.0722,-0.14543 l 0.0737,-2.91227 c 0,0 -1.5149,-2.25894 -1.5149,-2.25894"
       id="path370" /><path
       onclick="pokaz(this)"
       d="m 51.578279,27.049728 c 0,0 -0.86667,2.03618 -0.86667,2.03618 l -1.29892,0.65119 0.93755,0.8041 c 0,0 -4.25741,1.7336 -4.25741,1.7336 0,0 -0.72062,-1.96863 -0.72062,-1.96863 l -0.72131,-0.36653 0.21649,-0.0726 -3.17236,-5.54567 -1.80337,-0.95282 v -2.18498 c 0,0 1.08236,-0.14204 1.08236,-0.14204 l -0.14388,-1.02002 -1.22555,-2.55339 -1.87606,0.13935 -1.65846,-2.84612 -0.86558,-0.65855 c 0,0 0.72191,-0.87154 0.72191,-0.87154 l 0.43386,-2.2565 1.73178,0.0116 c 0,0 0.79418,-1.0899799 0.79418,-1.0899799 l 1.73172,-0.0671 c 0,0 0.93848,-1.01645 0.93848,-1.01645 l 2.30886,0.15355 2.59805,-1.22941 c 0,0 0.72241,-2.0369 0.72241,-2.0369 0,0 0.21754,-2.40294 0.21754,-2.40294 l 0.86617,-0.72544 c 0,0 0.79468,-2.25532998 0.79468,-2.25532998 l 2.30862,0.59065 3.75126,0.88703998 0.43199,1.96808 2.59675,1.17438 -0.86667,1.89071 1.58689,0.73374 2.1649,-1.0851 c 0,0 0.86495,1.53249 0.86495,1.53249 l -0.2885,-0.14663 -0.28972,2.3297099 -2.0928,1.23098 2.16236,4.01293 -2.52558,1.15676 -0.50705,4.29525 2.81279,1.68444 -2.30913,1.23031 1.29802,1.0967 0.43223,1.31228 -0.43307,0.36275 0.21661,-0.36349 -0.9375,-0.65847 c 0,0 -7.86447,1.49807 -7.86447,1.49807"
       id="path372" /><path
       onclick="pokaz(this)"
       d="m 52.663069,16.347328 1.65915,0.44265 -0.36153,1.7467 1.15245,4.0095 -2.74188,0.71897 c 0,0 -2.01996,-0.22529 -2.01996,-0.22529 l 0.003,-3.27739 2.31013,-3.41524"
       id="path374" /><path
       onclick="pokaz(this)"
       d="m 46.789319,49.753618 c 0,0 0.0727,-1.1648 0.0727,-1.1648 l 1.22664,-0.50567 -0.003,-0.43701 c 0,0 -0.57713,7.9e-4 -0.57713,7.9e-4 0,0 -3.39037,-0.95766 -3.39037,-0.95766 0,0 1.22756,-2.54463 1.22756,-2.54463 0,0 -1.80274,-2.0448 -1.80274,-2.0448 0,0 -0.0723,0.14529 -0.0723,0.14529 l -2.88607,0.57309 -0.7946,2.3277 -0.79333,-0.65794 -2.30947,1.81284 -2.16455,0.21142 c 0,0 -0.14505,1.89285 -0.14505,1.89285 l -2.30857,-0.51726 -2.52584,1.44812 -2.16522,1.81343 v 0.14563 l -0.72189,1.01719 -1.44354,1.30612 -3.53668,3.1197 0.79343,0.65791 c 0,0 3.53536,-0.0612 3.53536,-0.0612 0,0 0.64855,2.18657 0.64855,2.18657 l -1.5163,3.19907 1.73127,0.80653 c 0,0 1.08143,2.18787 1.08143,2.18787 l 1.08231,-0.28779 c 0,0 0.36039,0.94763 0.36039,0.94763 l 1.15445,-0.28747 -0.21695,1.30985 1.73116,0.87926 c 0,0 0.64905,0.65739 0.64905,0.65739 l 2.59707,0.29951 1.87709,-3.41604 0.0729,-1.81999 3.39196,-2.82866 -0.86543,-0.73094 c 0,0 1.08294,-1.8896 1.08294,-1.8896 0,0 -0.6486,-1.60398 -0.6486,-1.60398 l 2.45361,-1.81242 1.22666,-0.57862 c 0,0 -1.00928,-1.67796 -1.00928,-1.67796 0,0 2.81491,-2.90354 2.81491,-2.90354 0,0 1.08331,-0.21726 1.08331,-0.21726"
       id="path376" /><path
       onclick="pokaz(this)"
       d="m 21.680359,56.619558 c 0,0 0.73258,0.73626 0.73258,0.73626 l 3.64993,-0.002 c 0,0 0.49384,2.08708 0.49384,2.08708 l -1.44896,3.19352 1.70624,0.85836 -1.21494,0.49194 0.74054,3.06917 -1.09283,0.61468 c 0,0 0.61508,1.96406 0.61508,1.96406 l -0.97161,0.4918 c 0,0 0.85715,1.59555 0.85715,1.59555 l -1.57737,1.22888 c 0,0 -0.61508,-1.96403 -0.61508,-1.96403 l -2.06573,0.73814 -1.20645,2.94745 -2.92258,-0.73459 -1.69694,1.84291 -2.07264,-1.22632 0.8504,-0.36896 -0.2459,-0.73652 -2.43213,0.3701 -0.24895,-1.59602 c 0,0 -0.61391,-1.59578 -0.61391,-1.59578 l -0.85175,0.001 -0.3598597,1.47367 c 0,0 -1.22362,-1.96371 -1.22362,-1.96371 l -2.91676,0.98433 c 0,0 -0.73007,0.001 -0.73007,0.001 l -2.43837,-1.34898 0.35592,-2.57886 -2.44885,-4.29604 -0.009,-2.45597 -0.24339,1.6e-4 c 0,0 3.77058,-0.49369 3.77058,-0.49369 0,0 3.65231,0.4888 3.65231,0.4888 l 2.07158,0.8582 1.9468597,-5.3e-4 c 0,0 1.20819,-2.45671 1.20819,-2.45671 l 2.67388,-0.8613 c 0,0 0.97724,1.1045 0.97724,1.1045 l 2.18416,-1.72053 3.03953,-0.61595 c 0,0 0.12124,-0.12286 0.12124,-0.12286"
       id="path378" /><path
       onclick="pokaz(this)"
       d="m 4.8263993,71.121368 0.73009,-0.001 2.91677,-0.98432 1.22362,1.96371 0.23778,-1.59639 0.9738297,0.12211 0.49225,1.59586 0.37061,1.59594 2.43212,-0.3701 0.12425,0.7366 -0.85,0.49173 2.07267,1.22634 1.81816,-1.96577 2.92259,0.73458 1.20645,-2.94745 1.94405,-0.73803 0.73718,2.08674 1.45526,-1.3516 -0.73546,-1.59562 0.84995,-0.4917 -0.49342,-1.96416 0.97118,-0.6146 -0.61889,-3.06917 1.21494,-0.49194 1.10212,2.08658 0.97245,-0.24623 0.3679,0.85921 1.21576,-0.24639 -0.2391,1.22799 1.70654,0.98104 0.73205,0.61339 2.55772,0.46115 -1.95117,8.36666 2.46658,0.5008 -0.72276,2.08756 -0.65707,-1.26791 -2.62877,0.90202 -1.41261,2.7982 -1.29881,0.65127 -0.19304,0.97232 -1.58189,-0.12159 0.90816,1.9862 -2.74188,0.86513 -0.64995,1.81803 -1.73149,-0.0109 -1.61374,-1.58607 -1.45733,0.73771 -0.006,-1.84152 1.33483,-0.98314 -2.43745,-1.22587 -0.71975,2.94693 0.85847,1.9636 -1.8134,3.31603 -2.43234,0.24745 v 0.12275 l 0.12253,0.24544 -0.12169,1e-4 v -0.24554 l -2.19249,-0.73488 -1.8301,-1.47179 1.20978,-1.96525 1.58335,0.48985 -0.48967,-0.85902 -0.006,-1.84155 -1.57951,0.61505 -1.09373,0.36914 -2.2016497,-3.31311 -3.28375,0.37079 -0.61962,-3.19167 -1.22844,-3.31417 -1.46925,-2.57744 1.08214,-3.68432 2.43274,-0.24729 -0.24336,1.6e-4"
       id="path382" /><path
       onclick="pokaz(this)"
       d="m 38.481399,87.805998 -1.58686,-0.36888 -2.59763,1.66624 -0.64974,1.16276 -1.65949,0.79565 c 0,0 -0.0727,1.67413 -0.0727,1.67413 l -1.94802,0.72197 -0.65114,4.94824 -2.23698,1.740112 -0.0719,-0.800902 -2.66911,-0.29945 c 0,0 -0.64987,1.599542 -0.64987,1.599542 l -2.95804,0.79171 c 0,0 -0.79325,-0.80314 -0.79325,-0.80314 0,0 -0.57756,1.09016 -0.57756,1.09016 l -2.16395,-1.09863 c 0,0 0.14491,-1.819492 0.14491,-1.819492 0,0 -1.58728,0.21352 -1.58728,0.21352 l 0.36118,-1.38208 -0.57685,-0.94811 1.51546,-1.1602 -2.23563,-2.84612 c 0,0 -0.0721,1e-4 -0.0721,1e-4 0,0 0.0722,-0.14529 0.0722,-0.14529 l 2.38099,-0.28385 1.80474,-3.27051 -0.86508,-1.96843 0.65032,-2.91015 2.52474,1.24556 -1.29898,0.94236 c 0,0 -0.0727,1.67426 -0.0727,1.67426 l 1.6596,-0.57719 1.4424,1.38774 1.73149,0.0109 c 0,0 0.64995,-1.81803 0.64995,-1.81803 l 2.74188,-0.86513 c 0,0 -0.86503,-1.8228 -0.86503,-1.8228 l 1.58713,0.0774 0.14467,-1.09151 1.29881,-0.65127 c 0,0 1.37174,-2.61657 1.37174,-2.61657 l 2.66964,-1.08365 c 0,0 1.22534,2.62482 1.22534,2.62482 l 2.52349,3.35677 1.44254,0.51414 c 0,0 0.14417,0.2189 0.14417,0.2189 0,0 -1.2274,2.17495 -1.2274,2.17495"
       id="path384" /><path
       onclick="pokaz(this)"
       d="m 17.235389,77.251768 0.72019,1.40366 -1.40157,1.60185 0.69844,1.90564 1.82536,0.12141 1.21021,-1.84248 -0.85799,-1.841 z"
       id="path783" />
       </svg>
