<?xml version="1.0" encoding="UTF-8" standalone="no"?>
<svg
   viewBox="0 0 116.72477 87.748558"
   version="1.1"
   id="svg1"
   xmlns="http://www.w3.org/2000/svg">
   <style>path {fill:#e0e0e0;fill-opacity:1;stroke:#ffffff;stroke-width:0.529167}</style>
   <path
       onclick="pokaz(this)"
       d="m 99.400021,45.141818 c 0,0 0.722359,1.605571 0.722359,1.605571 0,0 1.44444,-1.88976 1.44444,-1.88976 l -0.65013,-1.823985 2.38345,-1.230736 -5.3e-4,-2.040361 -2.60033,-2.41374 0.21665,-0.800841 c 0,0 -0.21683,-2.478564 -0.21683,-2.478564 l -1.083519,-1.242563 0.36113,-0.363167 3.250409,-0.717655 2.16683,-0.138248 4.83923,-2.388288 3.75576,-1.881849 2.38339,-2.251022 -0.21667,-0.292153 -2.60007,2.10439 c 0,0 -4.6945,2.17006 -4.6945,2.17006 l -4.69476,1.441476 c 0,0 -13.362779,1.484445 -13.362779,1.484445 l -1.01132,-0.29501 -1.30032,-0.587508 -0.14401,4.736836 0.43349,0.876035 c 0,0 -0.21647,2.477135 -0.21647,2.477135 l -1.73342,2.398924 -0.7946,0.07044 c 0,0 -1.08341,1.162341 -1.08341,1.162341 l -0.21664,0.728106 0.79465,0.512789 1.44465,-0.578035 1.95027,-0.649287 1.08355,0.368009 1.01121,-0.579544 1.08352,0.295143 -0.14441,0.582533 0.57785,0.0747 0.0723,1.530615 0.8668,0.367242 1.01118,-0.433811 1.01124,0.294904 0.79449,-0.580284 1.01124,0.294905 0.57782,-0.362427 0.50562,0.438944 1.01169,0.0034"
       id="path428" /><path
       onclick="pokaz(this)"
       d="m 59.156891,9.9453556 c 0,0 -0.36147,-0.876115 -0.36147,-0.876115 l -2.60141,-0.227846 c 0,0 -1.08426,-1.607714 -1.08426,-1.607714 0,0 0.0721,-0.728795 0.0721,-0.728795 l -0.93988,-2.190433 -2.38445,1.085136 -1.22862,-0.587613 c 0,0 -0.3615,-0.73025 -0.3615,-0.73025 0,0 -1.44537,-0.223877 -1.44537,-0.223877 l -0.72337,-2.99190898 5.56445,-0.563403 9.89992,-0.03761 1.51762,1.17181298 13.29584,7.555706 5.05778,4.3915544 0.65045,2.261923 -0.86686,0.652991 c 0,0 -1.01158,-1.461452 -1.01158,-1.461452 l -2.52907,-3.872177 -2.16763,-1.3196364 -3.17923,-1.979427 -6.35873,-3.448844 c 0,0 -0.43341,0.654632 -0.43341,0.654632 l -0.79444,2.184136 3.1795,2.271104 0.14521,4.3013314 c 0,0 1.0115,-0.0014 1.0115,-0.0014 l 1.8791,3.869796 -4.55163,0.348668 c 0,0 -1.08418,-2.336456 -1.08418,-2.336456 l -4.19153,-3.878263 -2.02322,-0.08039 c 0,0 -0.57833,-1.314265 -0.57833,-1.314265 l -1.37297,-0.2922064"
       id="path430" /><path
       onclick="pokaz(this)"
       d="m 37.913501,3.4702076 6.93896,-1.846474 3.16548,-0.73871698 0.7431,2.95036898 c 0,0 1.46331,0.245369 1.46331,0.245369 l 0.36806,0.614574 1.22105,0.614283 2.43264,-1.107281 0.86188,2.212605 0.003,0.737605 c 0,0 1.1031,1.597766 1.1031,1.597766 l 2.55982,0.244962 c 0,0 0.49085,0.860345 0.49085,0.860345 l 1.21995,0.3683274 c 0,0 0.61415,1.229095 0.61415,1.229095 l 2.07184,0.122163 4.15819,3.931973 c 0,0 1.22767,2.335054 1.22767,2.335054 0,0 -0.12232,-0.122883 -0.12232,-0.122883 l -2.54141,4.303183 1.21981,0.368247 0.24612,0.614469 0.005,1.229148 0.24563,0.491543 c 0,0 -0.84794,1.229519 -0.84794,1.229519 0,0 -0.73099,10e-4 -0.73099,10e-4 l -2.06825,0.738347 -1.22034,-0.491146 c 0,0 -1.21788,0.123428 -1.21788,0.123428 0,0 -0.73398,-0.737182 -0.73398,-0.737182 l -3.15939,2.090896 -2.19561,-0.613648 c 0,0 -0.97872,-0.982927 -0.97872,-0.982927 l -1.94705,0.615394 c 0,0 -3.65654,-0.244282 -3.65654,-0.244282 0,0 -0.60378,1.352392 -0.60378,1.352392 l -1.58456,-0.122235 -1.35234,-2.949575 1.70096,-1.229942 -0.4934,-1.47492 -2.07552,-0.982583 c 0,0 0.48244,-1.229493 0.48244,-1.229493 l -0.003,-0.860504 c 0,0 0.48392,-0.860716 0.48392,-0.860716 0,0 -0.48842,-0.245673 -0.48842,-0.245673 0,0 -0.85299,0.0012 -0.85299,0.0012 0,0 -1.22708,-2.089389 -1.22708,-2.089389 l -0.005,-1.229333 1.34295,0.614151 c 0,0 -0.006,-1.598136 -0.006,-1.598136 0,0 0.47845,-2.213028 0.47845,-2.213028 l -1.2201,-0.368353 -1.10676,-2.4583764 c 0,0 -0.85404,-0.245592 -0.85404,-0.245592 0,0 0.60182,-1.844331 0.60182,-1.844331 l -1.58777,-0.860028 c 0,0 -0.005,-1.229466 -0.005,-1.229466 l -2.07227,-0.122229 c 0,0 -0.49048,-0.737526 -0.49048,-0.737526"
       id="path432" /><path
       onclick="pokaz(this)"
       d="m 37.913501,3.5929736 c 0,0 -5.11466,0.985309 -5.11466,0.985309 l -0.36108,1.106672 c 0,0 -3.65125,1.230736 -3.65125,1.230736 0,0 -0.11529,1.598348 -0.11529,1.598348 l 1.21623,-0.615183 0.73377,0.614469 1.58285,-0.369385 1.09987,0.737288 -1.33252,1.9675744 4.39446,1.71958 -3.14536,5.656262 2.07676,1.22854 -2.06414,1.844834 0.49453,1.72085 2.4398,0.613648 -0.48091,1.598268 2.07817,1.59721 c 0,0 0.0105,2.581408 0.0105,2.581408 l 2.68076,-0.0011 c 0,0 0.49393,1.597766 0.49393,1.597766 l 1.94765,-0.492522 0.59677,-3.0734 2.3187,0.859473 0.72861,-0.614945 -1.35234,-2.949575 1.70095,-1.229968 c 0,0 -0.49339,-1.474893 -0.49339,-1.474893 l -1.95369,-0.982637 0.48245,-1.229492 -0.12535,-0.860451 c 0,0 0.48392,-0.860716 0.48392,-0.860716 l -0.36658,-0.245708 c 0,0 -0.85299,0.0012 -0.85299,0.0012 0,0 -1.22709,-2.089388 -1.22709,-2.089388 l -0.005,-1.229334 1.22111,0.614204 c 0,0 -0.006,-1.598163 -0.006,-1.598163 l 0.47844,-2.213001 -1.22009,-0.36838 -0.98492,-2.4584284 c 0,0 -0.97591,-0.245534 -0.97591,-0.245534 0,0 0.60182,-1.844331 0.60182,-1.844331 l -1.58777,-0.860054 -0.005,-1.22944 -1.9504,-0.122287 -0.48998,-0.614575"
       id="path434" /><path
       onclick="pokaz(this)"
       d="m 0.0648506,17.254205 c 0,0 4.87072,-1.231397 4.87072,-1.231397 0,0 3.41048,-0.616056 3.41048,-0.616056 l 4.8580104,-4.182268 8.87783,-4.7982194 c 0,0 5.11545,-0.862436 5.11545,-0.862436 l 4.87204,-0.739378 c 0,0 0.73023,-0.246137 0.73023,-0.246137 l -0.36209,0.860769 c 0,0 -3.65125,1.230736 -3.65125,1.230736 0,0 -0.11529,1.598348 -0.11529,1.598348 l 1.21674,-0.492204 0.73327,0.491543 c 0,0 1.58334,-0.246452 1.58334,-0.246452 l 1.09988,0.737288 c 0,0 -1.33303,1.8446494 -1.33303,1.8446494 0,0 4.395,1.842505 4.395,1.842505 l -3.14537,5.656262 2.07677,1.22854 -2.06465,1.721909 c 0,0 0.49503,1.843801 0.49503,1.843801 l 2.4398,0.613649 c 0,0 -0.4814,1.475369 -0.4814,1.475369 0,0 0.24473,0.245766 0.24473,0.245766 l -1.45984,0.615262 -1.83049,-0.613886 c 0,0 -1.69704,2.213451 -1.69704,2.213451 0,0 0.49352,1.47492 0.49352,1.47492 l -1.21713,0.369305 -0.59619,3.196432 -1.19991,4.548716 -2.4312,1.47619 c 0,0 -0.73628,-1.228884 -0.73628,-1.228884 l -0.13507,-3.195902 -1.21513,0.86106 -2.07944,-1.842981 -4.13544,1.968764 -1.82967,-0.367982 c 0,0 -0.85929,-1.474761 -0.85929,-1.474761 l -3.04191,1.230709 c 0,0 0.73744,1.47484 0.73744,1.47484 l -0.47569,2.827602 c 0,0 0.61246,0.737288 0.61246,0.737288 l -0.96885,1.475582 c 0,0 -1.21775,0.246438 -1.21775,0.246438 0,0 -0.23295,2.581539 -0.23295,2.581539 l -1.5839004,0.12372 0.005,1.229254 -4.8596,3.690143 c 0,0 -0.98023,-1.228725 -0.98023,-1.228725 0,0 1.09178,-1.229783 1.09178,-1.229783 0,0 -1.22402,-1.228672 -1.22402,-1.228672 l -0.005,-1.229281 -1.83296,-1.105455 -0.0187,-4.425421 c 0,0 3.28877,-0.493263 3.28877,-0.493263 l 1.94398,-1.47611 -0.6208,-2.704306 -1.58866,-0.982769 0.35221,-3.196695 1.58457,5e-5 -1.2318,-3.072871 0.47982,-1.844357 -0.98287,-1.843776 -1.831,-0.613965 -1.84917,-4.917282 c 0,0 -0.4876,6.88e-4 -0.4876,6.88e-4"
       id="path436" /><path
       onclick="pokaz(this)"
       d="m 10.883671,22.243189 c 0,0 -1.3725604,2.182415 -1.3725604,2.182415 l 3.0361004,1.031214 5.3e-4,1.166574 1.66248,0.151479 -0.43418,-1.386681 1.22872,-0.06811 c 0,0 0.72247,-0.94533 0.72247,-0.94533 l -0.86764,-0.804889 -0.1449,-0.948293 -2.67467,-0.738426 c 0,0 -0.43347,0.581819 -0.43347,0.581819 0,0 -0.72297,-0.221732 -0.72297,-0.221732"
       id="path438" /><path
       onclick="pokaz(this)"
       d="m 87.697501,35.847005 c 0,0 0.72234,-0.0011 0.72234,-0.0011 l 0.0718,-4.008173 -2.74505,-0.155115 c 0,0 -5.99625,-1.988502 -5.99625,-1.988502 l -0.93933,-1.242272 -1.30048,-0.733319 -1.37263,-2.64e-4 c 0,0 -0.93932,-1.0237 -0.93932,-1.0237 0,0 -0.36127,-0.147071 -0.36127,-0.147071 l -2.38402,0.647753 -1.08376,-0.368141 -4e-5,-0.07253 -0.14448,0.07259 -1.80639,-1.172554 -0.21681,-0.292338 -0.93916,0.507047 0.36155,1.823508 0.93932,0.513345 c 0,0 -1.08349,1.308365 -1.08349,1.308365 l 0.3615,1.604671 c 0,0 1.58972,1.681903 1.58972,1.681903 0,0 1.15591,-0.141732 1.15591,-0.141732 0,0 0.79494,1.533261 0.79494,1.533261 0,0 1.15589,-0.214744 1.15589,-0.214744 l 0.4336,0.948981 1.01139,-0.142285 c 0,0 0.14471,1.531011 0.14471,1.531011 l 1.37264,0.07803 0.14438,-0.655478 1.95046,-0.576448 -2.7e-4,-1.020313 0.72242,-0.07038 c 0,0 0.79447,-1.527783 0.79447,-1.527783 l 1.22816,0.587163 1.73369,-0.649949 1.51709,0.661141 0.86701,1.314847 1.30025,-0.35994 c 0,0 0.93953,1.748896 0.93953,1.748896"
       id="path440" /><path
       onclick="pokaz(this)"
       d="m 72.454851,27.19513 -1.08376,-0.368141 c 0,0 0.50538,-2.330741 0.50538,-2.330741 l 1.58949,0.01154 c 0,0 1.37297,2.045652 1.37297,2.045652 l -2.38405,0.641615"
       id="path442" /><path
       onclick="pokaz(this)"
       d="m 72.957561,17.501855 -4.55163,0.348642 c 0,0 -0.0723,-0.07371 -0.0723,-0.07371 l -2.52807,4.364831 1.30058,0.296095 0.43371,1.167765 1.87883,2.047452 1.80639,1.172448 0.14448,-0.07259 0.50538,-2.257742 1.58949,0.01177 -0.50678,-6.999287 -0.0723,-0.07374 0.0723,0.0682"
       id="path444" /><path
       onclick="pokaz(this)"
       d="m 70.433441,32.799005 c 0,0 -1.58973,-1.681903 -1.58973,-1.681903 l -0.3615,-1.604777 1.0835,-1.308233 -0.93933,-0.513503 -0.36155,-1.823508 0.93917,-0.506915 c 0,0 -1.66204,-1.75514 -1.66204,-1.75514 l -0.4337,-1.167765 0.1446,0.58367 -2.4e-4,1.166231 0.28911,0.656987 c 0,0 -0.8668,1.236133 -0.8668,1.236133 l -0.72253,-0.148307 -2.02289,0.794888 -1.30064,-0.441934 c 0,0 -1.08376,0.142066 -1.08376,0.142066 l -0.79494,-0.804519 -3.10648,2.103173 -2.24006,-0.590894 c 0,0 -0.93957,-1.023752 -0.93957,-1.023752 l -2.02305,0.721889 -3.54066,-0.303821 -0.65,1.382765 -1.66206,-0.224353 -0.7947,0.726175 -2.24033,-0.882465 -0.72184,3.059113 -1.66193,0.431721 -1.4443,3.639608 0.50638,2.042795 c 0,0 -1.15588,1.162209 -1.15588,1.162209 0,0 1.1567,1.971992 1.1567,1.971992 l -1.73352,2.763838 0.8672,0.221689 1.1557,-1.74543 c 0,0 0.9398,1.533842 0.9398,1.533842 l 1.30048,-0.724455 1.51765,0.806926 2.31211,-0.575231 1.37308,0.806344 2.60102,-0.938662 1.15633,1.097254 1.8062,-0.576951 2.52855,-1.449176 0.65053,1.241267 c 0,0 3.17897,-0.207891 3.17897,-0.207891 l 1.80565,-3.055144 2.52841,-1.740535 c 0,0 1.5172,-0.213577 1.5172,-0.213577 l 3.61209,-1.736804 1.15554,-2.547012 c 0,0 -0.0718,1.03e-4 -0.0718,1.03e-4"
       id="path446" /><path
       onclick="pokaz(this)"
       d="m 88.782291,36.725422 c 0,0 -0.43349,-0.876036 -0.43349,-0.876036 0,0 0.0722,-1.03e-4 0.0722,-1.03e-4 0,0 -0.72234,0.0011 -0.72234,0.0011 l -0.93925,-1.752309 -1.30024,0.359939 -0.86701,-1.314847 -1.51709,-0.661141 -1.73369,0.650055 -1.22817,-0.587296 c 0,0 -0.79446,1.527784 -0.79446,1.527784 l -0.72242,0.07038 2.7e-4,1.020418 -1.95046,0.576316 -0.14439,0.655478 -1.37263,-0.07803 c 0,0 -0.14471,-1.530906 -0.14471,-1.530906 0,0 -1.0114,0.142285 -1.0114,0.142285 l -0.4336,-0.948981 c 0,0 -1.15588,0.214628 -1.15588,0.214628 0,0 -0.79494,-1.533261 -0.79494,-1.533261 0,0 -1.08368,0.142066 -1.08368,0.142066 l -1.15554,2.547011 -3.6121,1.736831 -1.5172,0.213439 -2.52841,1.740668 -1.8779,3.054879 0.50609,1.750853 1.01148,-0.06932 1.37292,0.952182 2.67335,0.592032 5.05751,1.62044 1.37255,-0.432646 c 0,0 3.10648,0.666485 3.10648,0.666485 0,0 1.58903,-1.816629 1.58903,-1.816629 l 0.86699,0.658892 1.30019,-0.870082 2.31158,-0.429551 2.81728,0.301042 1.22788,-1.234678 -0.28898,-0.219588 0.21663,-0.728107 1.08342,-1.162341 0.79457,-0.07044 1.73342,-2.39903 c 0,0 0.21624,-2.479358 0.21624,-2.479358"
       id="path448" /><path
       onclick="pokaz(this)"
       d="m 86.038561,61.712672 0.28882,-0.800577 c 0,0 -0.0722,1.04e-4 -0.0722,1.04e-4 l -1.15588,-1.825546 0.21663,-0.509429 c 0,0 0.21644,-2.403978 0.21644,-2.403978 l -1.01139,-1.242139 -1.37316,-6.271683 1.15543,-2.838186 c 0,0 -0.43349,-0.875982 -0.43349,-0.875982 0,0 -0.0722,0.07254 -0.0722,0.07254 l -2.81728,-0.301043 -2.31158,0.429419 -1.30019,0.870082 -0.86699,-0.658892 c 0,0 -1.58903,1.816656 -1.58903,1.816656 l -0.72242,-0.148214 -1.37208,3.420533 4.91278,2.785533 0.21715,3.134254 -1.51689,0.723609 -1.80528,4.51194 0.65027,0.949351 -1.01124,0.43397 c 0,0 0.65048,2.406809 0.65048,2.406809 0,0 -0.50551,0.872701 -0.50551,0.872701 0,0 1.01145,1.023462 1.01145,1.023462 0,0 0.72257,1.67841 0.72257,1.67841 l 2.23925,0.01085 1.22807,0.878443 0.2169,1.603693 -1.30014,0.287179 0.1448,2.47777 1.7336,0.588565 c 0,0 0.79441,-1.017429 0.79441,-1.017429 0,0 1.1557,0.14944 1.1557,0.14944 l 2.88899,-2.540635 -1.01159,-3.354917 c 0,0 0.72218,-1.090639 0.72218,-1.090639 0,0 -0.65024,-1.459309 -0.65024,-1.459309 l 1.7331,-3.786717"
       id="path450" /><path
       onclick="pokaz(this)"
       d="m 97.883961,44.699963 -0.5778,0.362427 -1.01124,-0.294905 -0.79449,0.580284 -1.01124,-0.294904 -1.01118,0.433784 -0.8668,-0.367215 -0.0723,-1.530641 c 0,0 -0.57785,-0.07467 -0.57785,-0.07467 l 0.14441,-0.582559 -1.08352,-0.295143 -1.01121,0.579544 -1.08355,-0.368036 -1.95027,0.649314 -1.44465,0.578035 -0.79465,-0.512789 c 0,0 0.0723,-0.14555 0.0723,-0.14555 0,0 -0.0723,0.14555 -0.0723,0.14555 l 0.28898,0.219589 c 0,0 -1.15565,1.162102 -1.15565,1.162102 l 0.43352,0.875983 -1.15544,2.838185 1.37316,6.271684 1.0114,1.242139 c 0,0 -0.21644,2.403978 -0.21644,2.403978 0,0 1.3,-1.525852 1.3,-1.525852 l 2.23896,-2.17858 c 0,0 1.30014,-0.141409 1.30014,-0.141409 l 1.87806,1.245103 1.44447,-1.598269 0.36123,1.094132 0.50557,-0.362638 c 0,0 1.87777,-2.033984 1.87777,-2.033984 l 2.16686,1.100322 1.51673,1.48e-4 1.516669,-0.869394 0.79438,-1.454626 c 0,0 -2.889249,-2.050071 -2.889249,-2.050071 l 1.300059,-0.505672 -0.57793,-2.042319 2.6e-4,-0.58293 c 0,0 -0.650129,-1.532519 -0.650129,-1.532519 0,0 -1.01118,0.0013 -1.01118,0.0013 l -0.50589,-0.437092"
       id="path452" /><path
       onclick="pokaz(this)"
       d="m 85.284501,58.513859 -0.24168,0.491622 c 0,0 1.22523,1.842453 1.22523,1.842453 l 3.41048,-0.0019 0.73605,1.351174 -0.4848,0.614627 c 0,0 1.22275,1.228037 1.22275,1.228037 l 1.21602,-0.492178 2.44777,3.070225 3.64543,-2.09079 2.318669,1.227296 2.68076,0.367056 0.36677,0.36838 0.36438,-0.245941 4.14523,1.226211 1.09929,0.859367 c 0,0 0.96949,-1.229148 0.96949,-1.229148 0,0 -0.61217,-0.859658 -0.61217,-0.859658 l 3.62982,-6.145212 c 0,0 -0.3733,-2.088462 -0.3733,-2.088462 l -0.85384,-0.368115 -4.86727,0.985573 -1.70591,-0.244795 0.35873,-1.720348 0.84539,-1.843484 -1.7064,-0.367718 c 0,0 -1.22259,-1.228063 -1.22259,-1.228063 l -1.45859,0.738028 -1.09895,-0.736653 -1.458139,0.860902 c 0,0 -1.46151,-2.25e-4 -1.46151,-2.25e-4 l -2.19657,-1.104715 c 0,0 -1.94061,2.089917 -1.94061,2.089917 l -0.48575,0.368882 -0.37015,-1.228566 c 0,0 -1.45487,1.721035 -1.45487,1.721035 l -1.83176,-1.227799 -1.33932,0.1236 c 0,0 -2.18377,2.212975 -2.18377,2.212975 l -1.33405,1.475264 m 29.482519,2.80961 0.24026,-0.86016 -0.24026,0.86016"
       id="path454" /><path
       onclick="pokaz(this)"
       d="m 74.915481,65.39038 c 0,0 -0.65048,-2.406809 -0.65048,-2.406809 l 1.01124,-0.433969 -0.65027,-0.949352 1.80528,-4.511939 1.51688,-0.723609 -0.21714,-3.134255 -4.91278,-2.785533 1.37208,-3.420533 -2.38406,-0.51816 -1.37255,0.432541 -5.05751,-1.620441 -0.7225,-0.148124 -0.43323,1.456081 1.22822,0.222806 -0.57761,1.892882 0.93949,1.752229 -2.45608,1.449309 -0.36068,2.913856 1.51707,-0.359278 0.28911,0.729668 -1.7336,1.451769 -2.02285,0.138985 -1.95043,1.086538 -1.08392,-1.023831 -2.2393,1.814486 c 0,0 -0.65008,0.726519 -0.65008,0.726519 0,0 1.5177,2.409984 1.5177,2.409984 l -2.02289,0.139007 c 0,0 -0.43307,1.893305 -0.43307,1.893305 l 1.95098,1.536806 c 0,0 -1.95016,2.325476 -1.95016,2.325476 l -0.14441,0.363934 c 0,0 1.66201,1.681533 1.66201,1.681533 l 1.15585,-0.360601 c 0,0 1.08398,1.533896 1.08398,1.533896 l 1.73381,-0.140137 c 0,0 0.28906,0.43815 0.28906,0.43815 l 1.51696,-0.577929 c 0,0 0.72266,1.241134 0.72266,1.241134 l -0.6499,1.455234 c 0,0 5.12921,1.036902 5.12921,1.036902 0,0 4.26191,-0.933185 4.26191,-0.933185 0,0 1.08376,1.460765 1.08376,1.460765 0,0 1.44492,1.534821 1.44492,1.534821 0,0 0.4332,-1.382871 0.4332,-1.382871 l 3.32264,-1.00928 1.44457,-0.578114 5.3e-4,0.728609 -0.1448,-2.47777 1.30014,-0.287205 -0.2169,-1.603798 -1.22807,-0.878417 -2.23925,-0.01109 c 0,0 -0.72257,-1.678278 -0.72257,-1.678278 l -1.01145,-1.023462 0.50525,-0.86913"
       id="path456" /><path
       onclick="pokaz(this)"
       d="m 64.654941,45.170922 -0.43323,1.456081 1.22822,0.222806 -0.57761,1.892882 0.93948,1.752229 -2.45607,1.449309 -0.36068,2.913856 1.51706,-0.359278 0.28911,0.729668 -1.7336,1.451769 -2.02284,0.138985 -1.95043,1.086538 -1.08392,-1.023831 -2.2393,1.814486 c 0,0 -0.65008,0.726519 -0.65008,0.726519 0,0 -0.14455,-0.219035 -0.14455,-0.219035 l -2.1671,1.668938 -1.87859,-0.443441 -2.60019,3.562085 0.14466,0.729271 -2.74558,-0.01082 -7.9e-4,-3.206486 c 0,0 -2.16818,-2.193581 -2.16818,-2.193581 0,0 -0.14514,-2.478405 -0.14514,-2.478405 l -2.16771,-0.01117 c 0,0 -1.08458,-2.627418 -1.08458,-2.627418 l -1.51746,-0.150858 -1.4455,-1.098127 c 0,0 0.57769,-1.382844 0.57769,-1.382844 l -0.0733,-3.717396 0.79476,-0.361738 c 0,0 0.86746,1.24206 0.86746,1.24206 l 0.28887,-0.582137 c 0,0 1.1561,-0.214788 1.1561,-0.214788 0,0 -0.6509,-2.115926 -0.6509,-2.115926 0,0 0.72218,-1.601126 0.72218,-1.601126 l 1.58993,0.88011 1.29998,-2.6924 0.50588,0.29329 2.31212,-0.57523 1.37308,0.806344 2.60101,-0.938662 1.15634,1.097253 1.8062,-0.57695 2.52855,-1.449176 0.65053,1.241266 c 0,0 3.17897,-0.207891 3.17897,-0.207891 0,0 -0.0723,1.03e-4 -0.0723,1.03e-4 0,0 0.50609,1.750854 0.50609,1.750854 l 1.01148,-0.06932 1.37292,0.952182 1.95083,0.449316"
       id="path458" /><path
       onclick="pokaz(this)"
       d="m 10.359791,59.905567 -0.24683,-0.737314 1.94736,-0.615632 c 0,0 -0.13265,-2.58109 -0.13265,-2.58109 l 4.02272,0.24367 c 0,0 -0.7389,-1.843272 -0.7389,-1.843272 l 2.92126,-0.861933 c 0,0 0.85868,1.351571 0.85868,1.351571 0,0 1.46339,0.245025 1.46339,0.245025 l 0.37578,2.457979 1.59285,2.088542 0.008,1.966489 c 0,0 1.10181,1.228407 1.10181,1.228407 l 0.12185,-8.2e-5 c 0,0 -0.12236,-0.122814 -0.12236,-0.122814 l 1.69177,-3.442229 4.631,0.120369 1.81668,-2.704835 2.06492,-1.598851 c 0,0 0.59968,-2.33553 0.59968,-2.33553 l 2.80246,-0.0013 c 0,0 0.60423,-1.229386 0.60423,-1.229386 l -0.0156,-3.81 0.72908,-0.491993 c 0,0 0.85847,1.351545 0.85847,1.351545 l 0.24119,-0.614654 c 0,0 1.21798,-0.12352 1.21798,-0.12352 0,0 -0.61825,-2.212023 -0.61825,-2.212023 0,0 0.60272,-1.598136 0.60272,-1.598136 l 1.58753,0.859578 c 0,0 1.45166,-2.581804 1.45166,-2.581804 l -1.09913,-0.614018 -1.2155,0.738055 -0.98131,-1.597396 c 0,0 -1.211,1.844279 -1.211,1.844279 0,0 -0.85397,-0.245409 -0.85397,-0.245409 l 1.81624,-2.827867 -1.22606,-1.84314 c 0,0 1.21351,-1.229731 1.21351,-1.229731 0,0 -0.49543,-1.966463 -0.49543,-1.966463 l 1.44722,-3.688291 c 0,0 -0.24371,2.64e-4 -0.24371,2.64e-4 0,0 -0.49393,-1.597765 -0.49393,-1.597765 l -2.68075,0.0011 c 0,0 -0.0101,-2.458508 -0.0101,-2.458508 l -1.9558,-1.474312 -1.33797,0.61521 -1.95287,-0.736759 c 0,0 -1.69703,2.213477 -1.69703,2.213477 0,0 0.61539,1.474867 0.61539,1.474867 l -1.339,0.369359 -0.59566,3.319198 -1.07804,4.548716 -2.43174,1.353291 c 0,0 -0.85711,-0.98298 -0.85711,-0.98298 l -0.0142,-3.441965 -1.21513,0.86106 -2.2008,-1.720003 -4.01373,1.968659 -1.95207,-0.490829 c 0,0 -0.85929,-1.474761 -0.85929,-1.474761 l -2.91994,1.23063 0.61608,1.597819 -0.35433,2.704571 0.49059,0.737341 c 0,0 -0.84645,1.598453 -0.84645,1.598453 l -1.34014,0.123555 -0.23244,2.704571 -1.4620404,0.123637 0.005,1.229255 -4.98211,3.567377 -0.98022,-1.228725 c 0,0 1.22605,1.72032 1.22605,1.72032 l -0.48133,1.475317 c 0,0 -0.47977,1.844067 -0.47977,1.844067 0,0 0.37134,1.351914 0.37134,1.351914 l 1.21984,0.245187 1.71249,1.4741 0.006,1.474972 c 0,0 1.10307,1.474365 1.10307,1.474365 l 2.8082904,1.22756 m -8.5489504,-4.174595 0.24375,-2.65e-4 -0.24375,2.65e-4"
       id="path460" /><path
       onclick="pokaz(this)"
       d="m 10.682581,62.043401 -1.5899804,-4.3e-5 -2.67388,0.428493 -0.21604,2.040176 1.30141,1.24333 0.21718,0.948213 1.15641,0.149646 0.2172,1.021107 -3.03424,2.905389 1.15869,6.052873 2.45967,6.639983 1.7341404,-0.72308 0.36218,2.333202 2.24026,0.07965 1.80615,-1.305851 2.09595,0.881221 1.30053,-0.57875 4.33573,0.305515 c 0,0 1.51815,2.26396 1.51815,2.26396 l 2.2401,0.371475 c 0,0 -0.0723,0.145529 -0.0723,0.145529 0,0 0.36123,-0.144489 0.36123,-0.144489 l 0.79314,-5.390092 2.67282,-2.250334 -0.0723,-0.07369 1.08188,-6.628077 -2.02345,-0.735383 -1.88026,-4.888971 -4.69847,-4.315618 c 0,0 0.14458,0.146298 0.14458,0.146298 0,0 -0.14454,2.07e-4 -0.14454,2.07e-4 0,0 -1.15665,-1.24288 -1.15665,-1.24288 l 0.0717,-1.967627 c 0,0 -1.5906,-2.119022 -1.5906,-2.119022 l -0.36213,-2.406491 -1.44547,-0.296413 c 0,0 -0.79542,-1.314635 -0.79542,-1.314635 l -2.9628,0.937657 0.86788,1.752283 -4.11956,-0.30533 c 0,0 0.21778,2.624693 0.21778,2.624693 l -1.95115,0.57666 0.2171,0.729615 0.36142,0.146912 c 0,0 -0.14381,1.962441 -0.14381,1.962441"
       id="path462" /><path
       onclick="pokaz(this)"
       d="m 54.616641,61.971963 c 0,0 -0.43307,1.893306 -0.43307,1.893306 l 1.95099,1.536805 c 0,0 -1.95017,2.325476 -1.95017,2.325476 l -2.16622,5.239544 -3.25173,-2.779713 -3.54039,-0.303159 c 0,0 1.87915,2.629588 1.87915,2.629588 l -3.10621,2.030306 -2.74558,-0.0819 -1.6602,5.897033 -1.73414,-0.297153 0.21722,1.676691 -2.67388,-1.53887 -1.51699,1.233836 -1.66209,-0.734034 c 0,0 -1.22875,-1.315799 -1.22875,-1.315799 l 1.08188,-6.627813 -2.02345,-0.735409 -1.88026,-4.888971 -4.69847,-4.315619 1.66097,-3.420004 c 0,0 4.62492,0.161182 4.62492,0.161182 l 1.95024,-2.763044 2.0229,-1.523841 c 0,0 0.64968,-2.330133 0.64968,-2.330133 l 2.60136,-0.137046 1.66233,1.244627 1.51746,0.150857 c 0,0 1.08458,2.627418 1.08458,2.627418 l 2.1677,0.01117 c 0,0 0.14514,2.478405 0.14514,2.478405 0,0 2.16819,2.193581 2.16819,2.193581 l 7.9e-4,3.206485 2.74558,0.01082 -0.14467,-0.729271 2.60019,-3.56235 1.8786,0.443574 2.16709,-1.668939 c 0,0 1.66225,2.629032 1.66225,2.629032 l -2.02295,0.133467"
       id="path464" /><path
       onclick="pokaz(this)"
       d="m 90.084041,62.890067 0.36108,-0.581739 -0.72242,-1.459706 -3.39487,0.0621 -0.28882,0.800577 -1.73313,3.783277 0.65024,1.459441 c 0,0 -0.72218,1.090639 -0.72218,1.090639 l 1.01159,3.354917 -2.88899,2.540608 -0.57785,-0.0746 0.1446,1.093417 c 0,0 -2.02213,2.616253 -2.02213,2.616253 l 1.01145,1.897724 c 0,0 5.92269,1.03923 5.92269,1.03923 0,0 0.72234,0.876618 0.72234,0.876618 l 0.93888,-0.579755 c 0,0 7.36679,-0.121351 7.36679,-0.121351 l -2e-5,-0.947077 2.23872,-1.886955 1.37218,-0.06843 -0.0724,-3.643048 3.105409,-2.758281 c 0,0 -0.14455,-2.186173 -0.14455,-2.186173 0,0 0.86659,-1.162897 0.86659,-1.162897 0,0 -0.50556,-0.803063 -0.50556,-0.803063 l 1.51656,-1.014994 -0.36108,0.217315 -0.43333,-0.365628 -2.59998,-0.373009 -2.383389,-1.173586 c 0,0 -3.61104,2.173817 -3.61104,2.173817 l -2.45591,-3.141134 -1.2278,0.651643 c 0,0 -1.0836,-1.31617 -1.0836,-1.31617"
       id="path466" />
</svg>
