<?xml version="1.0" encoding="UTF-8" standalone="no"?>
<svg
   viewBox="0 0 145.43504 85.587364"
   version="1.1"
   id="svg1"
   xmlns="http://www.w3.org/2000/svg">
   <style>path {fill:#e0e0e0;fill-opacity:1;stroke:#ffffff;stroke-width:0.529167}</style>
   <path
       onclick="pokaz(this)"
       d="m 113.53386,13.043747 -0.93763,-1.751462 0.50622,-3.1305498 32.04104,-2.293858 -0.21751,2.402946 c 0,0 -0.72239,2.0369998 -0.72239,2.0369998 l -2.59808,1.229307 -2.30888,-0.15355 c 0,0 -0.93843,1.016555 -0.93843,1.016555 l -1.73175,0.06713 c 0,0 -0.79417,1.089845 -0.79417,1.089845 l -1.73181,-0.01156 -0.43386,2.256499 c 0,0 -0.72192,0.87167 -0.72192,0.87167 l -1.15413,-0.87802 -2.16493,0.429683 -0.5778,1.309106 -2.9583,-0.44712 -2.23769,1.886215 -0.36028,-1.45804 -3.60786,-0.594942 0.14385,1.311619 -4.61883,0.494215 v 0.29136 c 0,0 -1.15427,-1.1693 -1.15427,-1.1693 l -1.29791,-3.355181 c 0,0 0.57676,-1.449599 0.57676,-1.449599"
       id="path386" /><path
       onclick="pokaz(this)"
       d="m 136.34094,36.647227 -1.65923,-0.58817 -1.80393,0.35811 -2.30825,-1.68267 0.43341,-1.23666 -0.6492,-0.43905 -0.93832,0.79793 -1.6596,-0.0114 -1.299,0.50546 c 0,0 -0.79319,-1.38636 -0.79319,-1.38636 l -0.79365,-0.29395 -1.01044,0.65206 c 0,0 -0.93758,-1.31408 -0.93758,-1.31408 l 0.28908,-1.23716 -1.80358,-1.17145 -1.80377,-0.66153 c 0,0 0.14483,-1.45622 0.14483,-1.45622 l 2.38165,-0.86603 -1.22566,-3.063083 -2.38064,-2.120344 1.51651,-3.054085 c 0,0 -0.14382,-1.457272 -0.14382,-1.457272 l 3.60785,0.594942 0.36029,1.458039 2.23768,-1.886241 2.95831,0.447146 c 0,0 0.57777,-1.309106 0.57777,-1.309106 l 2.16495,-0.429709 2.01975,1.536435 1.65844,2.846123 1.87611,-0.139234 c 0,0 1.22552,2.553255 1.22552,2.553255 l 0.14388,1.020154 c 0,0 -1.08236,0.142039 -1.08236,0.142039 v 2.184881 l 1.80338,0.95292 3.17209,5.5454 -2.66965,0.57372 -2.8149,2.46677 c 0,0 -0.79402,1.16845 -0.79402,1.16845"
       id="path388" /><path
       onclick="pokaz(this)"
       d="m 115.4124,38.615727 -0.0722,-0.0736 c 0,0 -0.0718,-1.01995 -0.0718,-1.01995 l -2.67018,0.71948 -2.23655,-1.68253 c 0,0 -1.08243,0.002 -1.08243,0.002 l -0.79341,-1.38655 -0.28924,1.89278 -2.38138,-0.372 -2.45372,0.13745 -0.86593,-0.43984 c 0,0 -7.361767,1.72365 -7.361767,1.72365 0,0 -4.04045,-5.03951 -4.04045,-5.03951 l 1.66037,-1.3783 -0.43305,-0.0747 1.66026,-0.86858 1.94892,-0.72194 -0.0712,-3.56949 1.51657,-3.345659 1.66036,-1.232747 7.216777,1.699789 1.29913,-0.286993 2.67017,0.591661 1.29987,-2.690812 3.68062,-0.497338 0.21717,-1.965986 4.61883,-0.494215 v 0.145677 l -1.51651,3.054085 2.38064,2.120212 1.22566,3.063346 -2.38165,0.86601 c 0,0 -0.14483,1.45624 -0.14483,1.45624 l 1.8038,0.66154 -1.51519,-0.51494 c 0,0 -1.73263,2.17924 -1.73263,2.17924 l -0.86706,3.20173 2.3078,3.79492 -4.18597,0.3471"
       id="path390" /><path
       onclick="pokaz(this)"
       d="m 95.356983,13.128414 2.52556,2.412656 c 0,0 -1.44407,1.889125 -1.44407,1.889125 0,0 0.50479,1.749954 0.50479,1.749954 l -1.08307,1.526064 -0.14488,2.039144 c 0,0 1.08217,1.6791 1.08217,1.6791 l 0.57777,-1.309213 1.66034,-1.232747 c 0,0 7.216767,1.699657 7.216767,1.699657 l 1.29919,-0.286967 2.67017,0.591767 1.29987,-2.690812 3.68062,-0.49747 0.21707,-1.674495 c 0,0 -1.1543,-1.169405 -1.1543,-1.169405 l -1.29791,-3.355181 0.57785,-1.454891 -0.93763,-1.751462 0.50622,-3.1305498 -17.105567,0.524166 c 0,0 0.36033,2.0410478 0.36033,2.0410478 l -1.01113,2.400512"
       id="path392" /><path
       onclick="pokaz(this)"
       d="m 77.444693,29.675457 0.28922,-2.33005 0.0722,-1.1e-4 v -0.21855 l -0.1438,-2.7686 0.93856,-0.725378 c 0,0 -1.51556,-1.753473 -1.51556,-1.753473 l -1.4437,-0.07788 0.14497,-3.059113 1.08309,-1.38049 c 0,0 -0.72141,-2.40665 -0.72141,-2.40665 0,0 0.57788,-1.892194 0.57788,-1.892194 l 1.66028,0.369994 0.21691,-1.602079 1.44351,1.09773 c 0,0 1.66034,-0.212929 1.66034,-0.212929 l 0.28896,-0.946097 -0.86612,-0.658574 c 0,0 0.72218,-1.3818128 0.72218,-1.3818128 l 1.29945,-0.432673 0.43347,-1.455632 12.55977,0.844471 c 0,0 -0.14436,2.06e-4 -0.14436,2.06e-4 0,0 0.36034,2.0410488 0.36034,2.0410488 l -1.01113,2.400511 2.52555,2.412656 c 0,0 -1.44404,1.889125 -1.44404,1.889125 0,0 0.50477,1.749955 0.50477,1.749955 l -1.08307,1.526063 -0.14489,2.039144 1.08217,1.679101 0.57777,-1.309213 -1.51659,3.345653 0.0712,3.5695 -1.94892,0.72191 -1.66026,0.86858 -1.22698,-0.0767 -1.80398,-1.7543 -6.13568,1.72776 0.21619,1.60322 c 0,0 -2.0211,0.21187 -2.0211,0.21187 l -1.08244,-1.46052 c 0,0 -1.29966,1.81671 -1.29966,1.81671 l -0.21577,-3.78857 c 0,0 -1.29839,-0.22312 -1.29839,-0.22312"
       id="path394" /><path
       onclick="pokaz(this)"
       d="m 93.187403,53.109597 -2.95884,-0.22819 -1.51587,0.94195 -2.38157,-0.51766 -3.0308,-2.63178 -0.72195,0.79877 -0.21627,-1.0932 c 0,0 0.0725,-1.23793 0.0725,-1.23793 0,0 -1.371,-1.67974 -1.371,-1.67974 l -2.23739,-0.59007 -1.00962,-4.44633 1.51582,-0.14065 c 0,0 -1.01015,-1.75144 -1.01015,-1.75144 l -2.45375,-2.41183 4.40452,-6.24999 c 0,0 1.08241,1.46053 1.08241,1.46053 l 2.02113,-0.2119 -0.21617,-1.60322 6.13569,-1.72775 1.80401,1.75429 1.65999,0.15116 -1.66036,1.37842 c 0,0 4.04045,5.03926 4.04045,5.03926 0,0 7.361767,-1.72366 7.361767,-1.72366 l 0.86592,0.43995 -0.21706,1.82018 0.36057,0.94795 8e-5,0.72832 -1.58787,0.50458 -0.57777,1.60052 1.15454,0.44072 -1.30024,4.2926 -2.525187,-2.41165 -1.29942,1.30667 -3.03107,-0.37412 0.36047,1.53069 -2.38172,0.35637 0.86428,5.53799"
       id="path396" /><path
       onclick="pokaz(this)"
       d="m 121.60365,45.264707 -3.31814,-2.85115 0.21685,-1.16449 -3.6793,-2.12423 c 0,0 0.50531,-0.50811 0.50531,-0.50811 l 4.25767,-0.35009 -4.18544,0.35031 -0.0722,-0.0737 c 0,0 -0.0718,-1.01994 -0.0718,-1.01994 l -2.67018,0.71948 -2.23655,-1.68254 c 0,0 -1.08243,0.002 -1.08243,0.002 l -0.79341,-1.38655 -0.28924,1.89278 -2.38138,-0.37201 -2.45372,0.13746 -0.21707,1.82017 0.36055,0.94795 8e-5,0.72843 -1.58784,0.50458 c 0,0 -0.5778,1.60039 -0.5778,1.60039 l 1.15456,0.44072 -1.30024,4.29286 -2.525177,-2.41181 -1.29943,1.30667 -3.03106,-0.37401 0.36044,1.53059 -2.38173,0.35636 0.86461,5.538 -2.5259,-0.15391 c 0,0 0.14385,1.89402 0.14385,1.89402 l 1.65825,6.48705 1.65966,0.80635 3.75232,1.03163 3.752577,-0.64336 c 0,0 3.60786,0.5215 3.60786,0.5215 l 2.09238,0.80772 1.94828,0.011 c 0,0 1.29966,-2.54455 1.29966,-2.54455 l 2.52577,-0.7928 1.00986,1.09554 2.2374,-1.74049 3.03053,-0.49987 3.60892,-3.19247 1.44357,-1.30609 c 0,0 0.72189,-1.01705 0.72189,-1.01705 v -0.14566 c 0,0 -0.14436,0.14513 -0.14436,0.14513 l -4.40029,-3.21839 0.28925,-1.74676 1.1548,-0.79732 0.36123,-1.23685 -1.15429,-0.58629 0.36139,-1.02674"
       id="path398" /><path
       onclick="pokaz(this)"
       d="m 141.89719,40.742977 2.16564,-2.90565 -0.071,-2.62192 -0.86476,-2.33328 -0.72131,-0.36653 -2.45329,0.50165 -2.81491,2.46677 c 0,0 -0.79412,1.16255 -0.79412,1.16255 l -1.65923,-0.58817 -1.80393,0.35811 -2.30822,-1.68267 c 0,0 0.43339,-1.23666 0.43339,-1.23666 l -0.64921,-0.43905 -0.93832,0.79793 -1.6596,-0.0114 -1.29897,0.50546 -0.79322,-1.38636 -0.79362,-0.29396 -1.01047,0.65207 c 0,0 -0.93755,-1.31408 -0.93755,-1.31408 0,0 0.28906,-1.23716 0.28906,-1.23716 l -1.80356,-1.17145 -1.51519,-0.5149 c 0,0 -1.73262,2.17924 -1.73262,2.17924 l -0.86704,3.20172 2.3078,3.79492 -4.25768,0.34996 -0.50532,0.50811 c 0,0 3.67956,2.12426 3.67956,2.12426 l -0.21691,1.16459 3.31814,2.85115 -0.36116,1.01838 1.15427,0.58642 -0.3612,1.23682 -1.15478,0.79733 -0.28924,1.74678 4.40028,3.21839 2.30961,-1.95866 2.52581,-1.44809 2.3086,0.51726 c 0,0 0.14504,-1.89286 0.14504,-1.89286 l 2.16456,-0.21141 2.30947,-1.81287 0.79335,0.65794 c 0,0 0.79457,-2.3277 0.79457,-2.3277 l 2.88608,-0.57309 0.65108,-4.07009"
       id="path400" /><path
       onclick="pokaz(this)"
       d="m 75.566153,44.529167 -4.18624,-1.3248 -3.17659,2.61173 0.43302,0.72983 -5.920052,4.42383 c 0,0 -0.505618,2.03787 -0.505618,2.03787 l 0.577188,2.04134 -2.5264,-1.10087 -0.93853,0.65254 0.86614,0.65839 -2.093886,3.27078 0.144198,1.38435 -0.288767,0.0714 c 0,0 0.938266,1.09556 0.938266,1.09556 0,0 -0.361262,2.25668 -0.361262,2.25668 l 0.938265,1.24119 1.732545,-0.57706 1.371071,2.77204 1.948894,0.37042 c 0,0 -0.505566,1.81906 -0.505566,1.81906 l 1.587765,1.38886 1.82e-4,0.72823 1.515563,1.24288 -0.938612,1.81769 c 0,0 0.07216,-0.0725 0.07216,-0.0725 l 1.154793,0.29504 1.515933,-1.08765 1.65999,0.51509 0.5057,-2.47449 c 0,0 3.32026,-0.64479 3.32026,-0.64479 l 2.0928,1.39028 0.28866,0.21949 4.69212,-3.99044 4.61936,-1.51458 3.17553,-0.20832 2.16522,-0.7212 c 0,0 0.14478,-1.82013 0.14478,-1.82013 l 5.12418,-1.22158 -2.59778,-0.66376 -1.65965,-0.80647 -1.65825,-6.48706 -0.14388,-1.89402 -0.43302,-0.0746 -1.51582,0.94195 -2.3816,-0.51766 -3.0308,-2.63178 c 0,0 -0.72192,0.79877 -0.72192,0.79877 l -0.21629,-1.0932 0.0725,-1.23794 c 0,0 -1.37102,-1.67973 -1.37102,-1.67973 l -2.2374,-0.59007 c 0,0 -0.57689,-2.62393 -0.57689,-2.62393 l -1.66034,0.86852 0.28916,-2.11132 -1.15499,0.21462 -0.14488,1.31139"
       id="path402" /><path
       onclick="pokaz(this)"
       d="m 74.640113,27.773097 c 0,0 1.29968,-1.6711 1.29968,-1.6711 l 0.93822,0.8772 c 0,0 0.93839,0.1489 0.93839,0.1489 0,0 -0.36144,2.54838 -0.36144,2.54838 0,0 1.29926,0.22299 1.29926,0.22299 l 0.21577,3.78856 -3.10489,4.4331 2.45375,2.41183 c 0,0 1.01015,1.75144 1.01015,1.75144 l -1.5158,0.14065 c 0,0 0.4327,1.82238 0.4327,1.82238 l -1.66034,0.86862 0.28914,-2.11132 c 0,0 -1.15496,0.21463 -1.15496,0.21463 l -0.14462,1.31064 -4.18624,-1.3248 -3.17659,2.61173 0.43302,0.72983 -5.920052,4.42383 c 0,0 -0.505619,2.03787 -0.505619,2.03787 l 0.577189,2.04134 -2.526401,-1.10087 -0.93853,0.65254 0.86614,0.65839 -2.093886,3.27078 0.144198,1.38435 -4.259262,0.6418 -0.50554,1.67354 -1.660313,-0.66082 -2.382361,0.57504 -0.216715,1.45598 -2.887663,0.93758 c 0,0 -0.794041,-0.80373 -0.794041,-0.80373 l -1.877007,-0.51583 c 0,0 0.216599,-0.21792 0.216599,-0.21792 l 1.227428,-1.45274 -1.516036,-0.51475 c 0,0 1.083099,-1.89042 1.083099,-1.89042 l -1.87714,0.6495 -3.176323,-6.34762 1.371865,-0.86966 c 0,0 -0.938477,-1.60565 -0.938477,-1.60565 0,0 0.144555,-2.25774 0.144555,-2.25774 l -0.866405,-0.0756 c 0,0 1.01092,-1.59938 1.01092,-1.59938 l 1.155224,-0.14182 -0.28874,-0.72951 -1.299607,-0.0766 c 0,0 -0.577506,-1.38594 -0.577506,-1.38594 l 1.010841,-0.50673 0.938583,0.51305 -0.216482,-1.60332 c 0,0 1.227402,0.2226 1.227402,0.2226 l -1.443884,-1.82599 c 0,0 -0.938477,-2.26155 -0.938477,-2.26155 l 2.021734,-1.0132 0.361103,-1.2373 -2.454857,-0.591 -0.577479,-2.26041 c 0,0 1.660868,-2.32579 1.660868,-2.32579 l 0.93861,0.58599 1.010867,-0.43373 c 0,0 -1.660525,-2.04549 -1.660525,-2.04549 l -2.4e-5,-0.0725 1.949529,-0.43064 1.155171,0.87815 1.66071,-0.79586 -0.144232,-1.82185 3.61024,-1.80919 -1.371733,-1.02465 c 0,0 1.372077,-2.181067 1.372077,-2.181067 l 3.032125,1.977307 c 0,0 1.010787,-0.001 1.010787,-0.001 l -0.216826,1.82068 c 0,0 1.732518,1.97281 1.732518,1.97281 l 1.155224,-0.57896 c 0,0 0.649579,1.53207 0.649579,1.53207 l 3.32105,0.37536 c 0,0 0.577744,-1.38221 0.577744,-1.38221 0,0 1.660498,-0.21293 1.660498,-0.21293 l 1.733048,-2.76251 1.660551,-0.79568 0.360548,2.47814 1.876769,1.17184 1.51625,-1.45185 1.66026,0.44259 1.1552,-0.87024 2.30973,1.39491"
       id="path404" /><path
       onclick="pokaz(this)"
       d="m 49.996818,41.798667 -0.604176,1.22875 1.464072,0.85902 0.125389,0.98264 2.439776,1.34974 1.704313,-1.2e-4 c 0,0 0.848519,-0.98316 0.848519,-0.98316 l -0.124889,-0.85977 c 0,0 0.608674,-7.9e-4 0.608674,-7.9e-4 0,0 0.482865,-1.1058 0.482865,-1.1058 l -0.004,-1.10553 -1.587076,-1.22746 -1.21875,-0.3678 -1.093841,0.492 -0.854445,-0.6137 c 0,0 -1.338263,0.24644 -1.338263,0.24644 0,0 -0.848095,1.10604 -0.848095,1.10604"
       id="path406" /><path
       onclick="pokaz(this)"
       d="m 65.107172,17.687185 1.587765,3.065198 0.360521,2.623899 -0.866431,0.871326 c 0,0 -0.361077,0.727309 -0.361077,0.727309 l -0.07218,-0.36443 -1.660551,0.79568 -1.733047,2.76251 -1.660499,0.21302 -0.577717,1.38221 -3.32105,-0.37539 c 0,0 -0.649579,-1.53207 -0.649579,-1.53207 l -1.155224,0.57899 -1.732518,-1.97281 0.216802,-1.82068 -1.010761,0.001 -3.032125,-1.97728 c 0,0 -1.37205,2.18104 -1.37205,2.18104 l 1.371733,1.02465 -3.61024,1.80922 c 0,0 0.144235,1.82184 0.144235,1.82184 l -1.66071,0.79587 -1.155171,-0.87818 -1.949529,0.43066 -0.505222,-2.91597 c 0,0 -2.382652,-2.41234 -2.382652,-2.41234 l -1.299739,0.0683 -0.721969,-1.969635 -2.81596,-2.341166 c 0,0 0.07236,-2.258483 0.07236,-2.258483 l 1.733127,-1.159986 1.805199,1.317757 1.010973,-0.652409 c 0,0 1.15525,1.315455 1.15525,1.315455 l 0.794359,-0.725911 -0.216541,-1.239388 2.310686,-0.502179 0.505407,0.511731 2.527141,0.737182 0.361104,-0.727393 1.227402,0.878496 c 0,0 1.227666,-2.035968 1.227666,-2.035968 l -0.64979,-0.439314 c 0,0 0.433282,-0.581475 0.433282,-0.581475 l 2.599266,0.518848 c 0,0 4.40399,2.492216 4.40399,2.492216 l 2.310527,-0.939297 c 0,0 4.332023,-1.078177 4.332023,-1.078177 l 1.010681,0.513424 1.299634,-0.651272 c 0,0 1.371362,2.113809 1.371362,2.113809"
       id="path408" /><path
       onclick="pokaz(this)"
       d="m 71.094693,27.251877 1.1552,-0.87035 2.3097,1.39194 c 0,0 1.29969,-1.67121 1.29969,-1.67121 l 0.93824,0.87736 c 0,0 0.93837,0.14887 0.93837,0.14887 l -0.14377,-2.7686 0.93853,-0.725377 c 0,0 -1.51554,-1.753473 -1.51554,-1.753473 l -1.44372,-0.07788 0.14499,-3.059112 1.08307,-1.38049 -0.72139,-2.40665 c 0,0 0.57788,-1.892194 0.57788,-1.892194 l 1.66026,0.369861 0.21691,-1.601999 1.44354,1.097756 c 0,0 1.66031,-0.212929 1.66031,-0.212929 l 0.28898,-0.946097 -0.86609,-0.658707 0.72215,-1.3817068 1.29945,-0.432673 0.43347,-1.455632 -36.097104,-4.423039 0.505248,1.969082 -2.382996,1.813586 -1.011291,4.2955108 3.321315,0.73996 1.877166,1.463675 0.288687,1.458145 0.288819,0.07359 c 0,0 4.403989,2.492217 4.403989,2.492217 l 2.310527,-0.939298 c 0,0 4.332023,-1.078203 4.332023,-1.078203 l 1.010655,0.513424 1.29966,-0.651272 c 0,0 1.371362,2.117487 1.371362,2.117487 l 1.587791,3.065198 0.360521,2.623899 -0.866457,0.871326 -0.361077,0.727335 -0.07219,-0.36459 0.360574,2.47814 1.876777,1.17194 1.516251,-1.45185 1.66029,0.44297"
       id="path410" /><path
       onclick="pokaz(this)"
       d="m 33.55561,18.017914 -0.07235,2.258483 c 0,0 0.14442,0.146275 0.14442,0.146275 l -1.444254,0.578062 -1.805358,0.94107 -1.227587,-0.73279 -1.227667,0.870161 -2.816225,-0.228094 -0.577691,-1.532043 2.672027,-2.177019 -1.010973,-2.33508 c 0,0 0.505539,-1.309978 0.505539,-1.309978 0,0 -0.794358,-1.678596 -0.794358,-1.678596 l -2.744262,-1.321012 -3.322108,-1.395862 -0.216667,-3.0614938 1.877748,-0.722286 4.550039,-6.03276401 21.44739,3.20754301 c 0,0 0.505274,1.896348 0.505274,1.896348 l -2.383022,1.813428 -1.011291,4.2955098 3.321315,0.739961 1.877166,1.463701 0.28866,1.458145 -2.310474,-0.445029 -0.433282,0.581475 0.649791,0.439288 -1.227667,2.035968 -1.227402,-0.878469 -0.361103,0.727392 -2.527142,-0.737182 -0.505407,-0.511731 -2.310685,0.50218 0.216535,1.239361 -0.794359,0.725937 c 0,0 -1.15525,-1.315349 -1.15525,-1.315349 l -1.010973,0.652303 -1.805199,-1.317757 -1.7331,1.159986"
       id="path412" /><path
       onclick="pokaz(this)"
       d="m 30.523485,27.188377 -0.14446,1.1653 -2.094124,-0.15284 -1.733127,1.16001 c 0,0 0.938742,1.09603 0.938742,1.09603 l -3.97166,1.15248 -1.444308,1.23383 -2.599743,-1.17451 -2.022051,0.5761 0.07223,0.29176 -0.866617,-0.29441 -4.910931,1.00378 c 0,0 -1.66108,-0.22417 -1.66108,-0.22417 0,0 0.288819,-1.74771 0.288819,-1.74771 l 0.938794,-1.81848 -1.8055435,-0.37036 -1.155594,-1.09688 -1.44444,0.57814 -1.083389,-0.73237 0.794385,-1.38176 c 0,0 -2.88925,-2.05004 -2.88925,-2.05004 l 1.30003,-0.505702 -0.577929,-2.042319 2.64e-4,-0.58293 c 0,0 0.07227,0.07369 0.07227,0.07369 0,0 1.44444,-1.88976 1.44444,-1.88976 0,0 -0.650134,-1.823985 -0.650134,-1.823985 l 2.383446,-1.230735 -5.29e-4,-2.040361 -2.600325,-2.413741 0.216651,-0.727975 c 0,0 1.372341,-0.213968 1.372341,-0.213968 0,0 4.3336105,0.889291 4.3336105,0.889291 l 2.455598,-2.1777858 6.138862,-2.820987 0.216678,3.2072788 3.322109,1.395862 2.744258,1.321039 c 0,0 0.794358,1.678596 0.794358,1.678596 0,0 -0.505539,1.309978 -0.505539,1.309978 l 1.010973,2.33508 -2.672027,2.177018 0.577691,1.532017 2.81649,0.228119 1.227666,-0.870162 1.227588,0.73279 1.805358,-0.94107 1.444254,-0.578088 2.671763,2.194877 0.721968,1.969633 -0.288846,-0.002 c 0,0 -1.227666,2.40025 -1.227666,2.40025 l -1.805199,-0.37036 c 0,0 0.505407,1.53167 0.505407,1.53167 l -3.682471,-0.95999"
       id="path414" /><path
       onclick="pokaz(this)"
       d="m 26.549444,29.360597 1.733126,-1.16001 2.094124,0.15285 0.14446,-1.16531 3.682736,0.95946 c 0,0 -0.505408,-1.53167 -0.505408,-1.53167 l 1.8052,0.37033 c 0,0 1.227666,-2.40022 1.227666,-2.40022 l 1.588585,-0.0672 c 0,0 2.382652,2.41234 2.382652,2.41234 l 0.505196,2.98873 1.660525,2.04549 -1.010867,0.43374 -0.93861,-0.586 c 0,0 -1.660869,2.3259 -1.660869,2.3259 0,0 0.57748,2.26025 0.57748,2.26025 l 2.454857,0.59103 -0.361103,1.2373 -2.021735,1.01316 0.938478,2.26158 1.443884,1.826 c 0,0 -1.227402,-0.22262 -1.227402,-0.22262 l 0.216482,1.60334 -0.938583,-0.51305 -1.010867,0.5067 0.577506,1.38594 1.299607,0.0766 0.288739,0.72948 -1.155223,0.14185 c 0,0 -1.01092,1.59938 -1.01092,1.59938 l 0.866404,0.0756 c 0,0 -0.144555,2.25775 -0.144555,2.25775 l 0.938477,1.60565 -1.371838,0.86965 3.176323,6.34762 1.877139,-0.6495 c 0,0 -1.083098,1.8904 -1.083098,1.8904 l 1.516062,0.51477 c 0,0 -1.227428,1.45272 -1.227428,1.45272 l -1.516195,1.45196 c 0,0 0.288661,1.45759 0.288661,1.45759 0,0 1.010629,1.02304 1.010629,1.02304 0,0 -0.794253,1.52698 -0.794253,1.52698 l -3.753908,-2.99825 -0.866405,0.87116 1.010655,1.3144 c 0,0 -0.794252,1.59983 -0.794252,1.59983 l -1.588268,-1.02476 c 0,0 -0.722021,1.01738 -0.722021,1.01738 l -1.299501,-0.95099 c 0,0 -5.053806,-8.6114 -5.053806,-8.6114 0,0 0.361077,-1.74707 0.361077,-1.74707 0,0 -2.960423,-1.61221 -2.960423,-1.61221 0,0 0.144454,-1.67502 0.144454,-1.67502 l -2.960423,-0.811 2.238508,-3.92642 -3.538273,-1.61428 0.938768,-2.40101 -9.8e-5,-1.31143 1.660843,-0.86868 -0.505434,-1.38597 c 0,0 0.794332,-0.87159 0.794332,-0.87159 l -1.155356,-0.80526 -2.671762,-4.52596 -1.444281,0.50511 -1.516513,-0.5879 0.288872,-1.16478 -1.660974,-0.0789 c 0,0 -0.361104,-2.55145 -0.361104,-2.55145 l 2.022052,-0.57608 2.599743,1.17451 1.444307,-1.23383 3.971661,-1.15247 -0.93861,-1.0953"
       id="path416" /><path
       onclick="pokaz(this)"
       d="m 57.955485,59.986117 c 0,0 -3.970338,0.56992 -3.970338,0.56992 l -0.505539,1.67354 -1.660313,-0.66082 -2.382362,0.57504 -0.216714,1.45598 -2.887663,0.93757 c 0,0 -0.794041,-0.80372 -0.794041,-0.80372 l -1.877007,-0.51583 -1.299607,1.23402 c 0,0 0.288661,1.45758 0.288661,1.45758 0,0 1.010628,1.02304 1.010628,1.02304 0,0 -0.794252,1.52697 -0.794252,1.52697 0,0 -0.07219,1e-4 -0.07219,1e-4 l 0.144312,0.94734 -0.86659,3.42027 c 0,0 2.454328,2.55688 2.454328,2.55688 0,0 -7.94e-4,2.40345 -7.94e-4,2.40345 l 2.959629,1.90291 2.670969,-0.86551 c 0,0 1.01047,1.31406 1.01047,1.31406 0,0 1.804855,-1.88775 1.804855,-1.88775 l 2.381991,1.09984 3.537215,-1.15398 2.598764,-1.44835 c 0,0 0.794358,-2.47354 0.794358,-2.47354 l 3.897842,-0.13328 c 0,0 0.938636,-1.81768 0.938636,-1.81768 l -1.51556,-1.24288 -1.8e-4,-0.72824 -1.587765,-1.38888 c 0,0 0.505566,-1.81904 0.505566,-1.81904 l -1.948894,-0.37041 -1.371071,-2.77204 -1.732544,0.57703 c 0,0 -0.938266,-1.24116 -0.938266,-1.24116 l 0.361262,-2.25669 -0.937419,-1.09558"
       id="path418" /><path
       onclick="pokaz(this)"
       d="m 27.200318,64.476097 c 0,0 -0.649843,0.94488 -0.649843,0.94488 0,0 -1.01084,-0.14893 -1.01084,-0.14893 l -0.577639,0.28953 -0.938635,-0.87714 c 0,0 -0.64987,0.65354 -0.64987,0.65354 0,0 -0.649817,-1.67748 -0.649817,-1.67748 l -1.010893,0.72514 -2.166223,-1.82808 -0.722101,-2.989 -1.588611,0.35912 c 0,0 -3.394075,-1.75927 -3.394075,-1.75927 l -2.23864,-1.09998 -1.155409,0.79751 0.216683,1.38493 -1.8054105,-1.68148 -3.466307,2.53852 -1.516538,-0.0776 -0.0722,-0.4373 -1.083205,0.94356 1.877775,2.19157 0.144637,3.64278 2.094336,2.26486 c 0,0 0.866484,-1.45415 0.866484,-1.45415 0,0 1.58869,0.22372 1.58869,0.22372 l 3.1773815,1.61266 0.216662,1.31186 1.51638,-0.57788 1.805226,0.95266 -0.144396,1.31072 1.949582,0.0797 1.516327,-0.79634 2.16617,0.15251 0.505407,2.18686 1.805067,0.44275 2.743729,-1.1567 -0.07219,-1.89407 2.166038,-0.0653 -0.288713,-2.98741 c 0,0 1.083071,-1.52625 1.083071,-1.52625 0,0 0.433229,-1.09114 0.433229,-1.09114 l -1.299607,-0.36836 -1.371864,-0.51559"
       id="path420" /><path
       onclick="pokaz(this)"
       d="m 44.525235,77.787287 c 0,0 7.94e-4,-2.40345 7.94e-4,-2.40345 0,0 -2.454328,-2.5569 -2.454328,-2.5569 l 0.86659,-3.42027 -0.144312,-0.94734 c 0,0 0.07219,-1e-4 0.07219,-1e-4 l -3.753908,-2.99826 -0.866405,0.87116 1.010655,1.3144 c 0,0 -0.794252,1.59983 -0.794252,1.59983 l -1.588268,-1.02476 -0.722021,1.01738 -1.299501,-0.95099 -2.887663,-4.8895 c 0,0 1.227297,2.1164 1.227297,2.1164 0,0 -1.155224,0.21472 -1.155224,0.21472 l -1.516195,-0.15054 -1.949423,-0.58891 1.299607,0.36835 c 0,0 -0.433229,1.09114 -0.433229,1.09114 l -1.083072,1.52628 0.288713,2.98741 -2.166038,0.0654 0.07219,1.89405 -2.743729,1.1567 -0.288819,-0.0735 c 0,0 0.144386,2.1857 0.144386,2.1857 0,0 -1.516274,1.52471 -1.516274,1.52471 0,0 1.155223,1.16904 1.155223,1.16904 0,0 1.371812,1.8252 1.371812,1.8252 l 0.505354,3.35201 3.104621,0.37385 -0.144304,-2.98661 3.03239,-1.73834 c 0,0 -0.288872,2.25684 -0.288872,2.25684 l 2.237978,2.04629 2.671233,0.29977 3.32105,-1.59186 c 0,0 0.866166,1.89626 0.866166,1.89626 l 1.227297,-0.65156 4.042568,0.66815 3.104092,-0.42719 1.515798,1.02431 c 0,0 0.649764,-0.79907 0.649764,-0.79907 l -1.010365,-2.26071 c 0,0 1.155118,-1.1616 1.155118,-1.1616 l 0.216705,-1.23745 c 0,0 -0.721784,-0.94901 -0.721784,-0.94901 l -2.670969,0.8655 -2.960158,-1.90277"
       id="path422" /><path
       onclick="pokaz(this)"
       d="m 10.341069,20.319789 -0.9813935,-1.842717 0.8501595,-0.614812 0.233186,-2.703513 2.127903,-0.53503 -0.575217,-2.287055 1.727443,0.866587 1.226862,1.016762 -1.703966,1.42893 1.442688,0.367559 0.27078,1.843431 -1.215496,0.614998 -0.236974,1.7204 -3.166004,0.124447"
       id="path424" /><path
       onclick="pokaz(this)"
       d="m 11.603131,57.067767 2.23864,1.09998 c 0,0 3.394075,1.75927 3.394075,1.75927 l 1.588611,-0.35912 0.722101,2.989 2.166223,1.82808 1.010893,-0.72514 c 0,0 0.649817,1.67748 0.649817,1.67748 0,0 0.64987,-0.65354 0.64987,-0.65354 l 0.938635,0.87714 0.577639,-0.28953 c 0,0 1.01084,0.14893 1.01084,0.14893 0,0 0.649843,-0.94488 0.649843,-0.94488 l 1.371839,0.51438 1.949423,0.58888 1.516195,0.15056 c 0,0 1.155224,-0.21474 1.155224,-0.21474 0,0 -3.393282,-5.8383 -3.393282,-5.8383 0,0 0.361077,-1.74707 0.361077,-1.74707 0,0 -2.960423,-1.61221 -2.960423,-1.61221 0,0 0.144455,-1.67502 0.144455,-1.67502 l -2.960423,-0.811 2.238507,-3.92642 -3.538273,-1.61425 c 0,0 0.938742,-2.40104 0.938742,-2.40104 0,0 -9.8e-5,-1.31141 -9.8e-5,-1.31141 l 1.660843,-0.86868 -0.505434,-1.38596 c 0,0 0.794332,-0.87159 0.794332,-0.87159 l -1.155356,-0.80526 -2.671762,-4.52597 -1.444281,0.50515 -1.516513,-0.58791 0.288873,-1.16475 -1.660975,-0.079 -2.9e-5,-0.0725 -3.538538,6.10843 c 0,0 0.577744,0.80328 0.577744,0.80328 0,0 -1.08323,1.30783 -1.08323,1.30783 l -1.083257,-0.8778 c 0,0 -4.0441575,-1.25193 -4.0441575,-1.25193 l -1.516565,1.01497 0.505566,0.80309 -0.86659,1.16287 0.144548,2.18617 -3.105415,2.75828 0.07242,3.64305 -1.372182,0.0684 -2.23869198,1.88696 5.29e-4,1.38417 1.58887598,0.44238 1.083336,0.87767 -0.144388,0.80095 c 0,0 0.866669,0.9498 0.866669,0.9498 l 0.216723,1.23915 1.516565,0.0776 c 0,0 3.466306,-2.53852 3.466306,-2.53852 l 1.8054115,1.68148 -0.216683,-1.38493 1.155144,-0.79714"
       id="path426" />
</svg>
