<?xml version="1.0" encoding="UTF-8" standalone="no"?>
<svg
   viewBox="0 0 131.69324 164.74179"
   version="1.1"
   id="svg1"
   xmlns="http://www.w3.org/2000/svg">
   <style>path {fill:#e0e0e0;fill-opacity:1;stroke:#ffffff;stroke-width:0.529167}</style>
   <path
       onclick="pokaz(this)"
       d="m 61.113082,114.95945 1.46312,0.36682 2.43091,-1.23044 2.92047,-0.61698 0.73179,0.2448 0.25872,3.68326 2.92655,0.85638 0.61899,2.45496 c 0,0 1.81928,-1.84364 1.81928,-1.84364 0,0 -0.48514,0.49162 -0.48514,0.49162 l 2.32846,3.55812 -1.82123,1.35249 -2.54241,3.68591 -1.82427,0.6159 -0.23602,1.84185 1.58925,1.4715 -1.45285,2.08873 0.8555,0.73562 -4.03198,-3.18744 -4.87971,-1.95897 -3.771111,1.10919 -0.618146,-2.20933 c 0,0 -3.903133,-1.34628 -3.903133,-1.34628 l -0.491305,-0.98171 0.243097,-0.12305 1.82499,-0.49313 0.238503,-1.22809 -1.343924,-0.98081 1.082966,-3.19352 3.417093,1.59255 0.24869,1.22756 c 0,0 1.826975,-0.003 1.826975,-0.003 l 0.603405,-1.35128 c 0,0 -0.619148,-2.45504 -0.619148,-2.45504 -0.0016,-0.36835 0.967288,-1.72005 0.967288,-1.72005 l -1.706719,-0.36656 -0.125357,-0.85939 1.580856,-0.61563 -0.12434,-0.61381 m 14.60633,-2.22549 -0.48414,0.73721 0.48414,-0.73721"
       id="path34" /><path
       onclick="pokaz(this)"
       d="m 37.152414,123.70129 0.594598,-3.43879 4.385469,-0.004 0.230216,-3.19299 2.064703,-1.47574 -1.842717,-3.68194 2.072454,0.36624 c 0,0 0.115636,-1.47373 0.115636,-1.47373 l 0.852726,-0.001 2.427076,-2.21292 c 0,0 1.096327,-0.002 1.096327,-0.002 l 0.0063,1.4736 2.439829,0.85707 2.915179,-1.96779 3.657864,0.85582 2.452847,4.04971 c 0,0 0.615611,1.59563 0.615611,1.59563 l -1.580891,0.61563 0.0037,0.8595 1.829041,0.48921 c 0,0 -0.96933,1.22891 -0.967293,1.72006 l 0.619153,2.45504 -0.603913,1.22849 c 0,0 -1.826975,0.003 -1.826975,0.003 l -0.248689,-1.22758 -3.416565,-1.46976 -1.082966,3.19352 1.22211,0.98094 c 0,0 -0.116697,1.22798 -0.116697,1.22798 l -1.825519,0.37037 c 0,0 -0.606451,0.61457 -0.606451,0.61457 l -1.954504,-1.3485 -2.429457,1.59888 -1.832266,-1.22584 -3.040591,1.10839 c 0,0 -0.863521,-2.57763 -0.863521,-2.57763 l -2.80326,-0.36531 -2.558177,0.004"
       id="path36" /><path
       onclick="pokaz(this)"
       d="m 113.09312,79.420623 2.80829,1.96215 1.71966,3.80497 6.92732,-3.32184 4.27487,3.43403 -0.12175,1e-4 -0.4717,3.9296 3.04615,0.61097 c 0,0 -1.08855,1.84272 -1.08855,1.84272 l 0.37335,2.08682 c 0,0 -3.65627,-0.97867 -3.65627,-0.97867 l -3.03901,1.23074 -0.35229,3.31523 2.19773,1.5939 -1.45907,0.49252 c 0,0 0.005,1.227717 0.005,1.227717 l -3.1631,0.61704 c 0,0 -0.84696,1.35136 -0.84696,1.35136 l -2.92602,-0.97928 -1.21513,0.6151 -0.48847,-0.36782 -1.23063,-3.313637 c 0,0 -0.97407,0.001 -0.97407,0.001 l -3.04217,0.49416 c 0,0 -4.14867,-2.20599 -4.14867,-2.20599 l -0.7433,-3.19167 1.58007,-0.73826 c 0,0 1.20891,-2.21136 1.20891,-2.21136 l -1.83237,-1.47172 c 0,0 -0.007,-1.71908 -0.007,-1.71908 0,0 1.82753,0.24384 1.82753,0.24384 l -0.004,-0.98232 2.43681,0.36605 c 0,0 -0.006,-1.59628 -0.006,-1.59628 l 1.45926,-0.49255 -0.25082,-1.84166 -0.97755,-0.85862 0.35607,-2.33347 1.82409,-0.61566"
       id="path476" /><path
       onclick="pokaz(this)"
       d="m 112.04008,85.132983 c 0,0 -0.1447,-1.89368 -0.1447,-1.89368 l -1.08331,-0.87696 0.2885,-2.32947 2.31071,-0.57568 -0.43349,-1.60332 -2.96069,-0.5914 c 0,0 -1.37242,-2.26163 -1.37242,-2.26163 l -1.80549,-0.58793 c 0,0 -1.15517,1.74434 -1.15517,1.74434 l -2.59979,0.28358 -0.5782,-2.55061 c 0,0 -0.0726,-1.67515 -0.0726,-1.67515 l -0.50557,-0.22 -10e-6,0.14566 -0.93877,0.4341 0.21688,1.16583 -3.538538,1.81017 -2.02224,-0.0105 -0.57801,-1.16689 -2.02223,0.0669 -4.26059,3.70152 2.38429,4.01241 -0.93829,2.83739 -1.94979,1.08667 c 0,0 1.08386,2.33352 1.08386,2.33352 l -1.58821,3.05382 0.93964,3.35227 -1.08281,2.32712 c 0,0 0.9393,1.82316 0.9393,1.82316 l -2.74399,1.885337 c 0,0 -0.72205,0.72602 -0.72205,0.72602 0,0 -0.14448,-0.14597 -0.14448,-0.14597 0,0 1.95045,2.11724 1.95045,2.11724 l -1.66034,3.12632 c 0,0 5.63351,1.90913 5.63351,1.90913 l 3.24961,-0.71877 -0.21693,-1.38403 1.37215,0.36793 c 0,0 1.58819,-2.61663 1.58819,-2.61663 l -0.14444,-0.0735 -0.14509,-3.34989 2.52722,-1.667477 1.588718,0.077 c 0,0 0.43304,-1.30932 0.43304,-1.30932 l 2.23856,-0.21207 c 0,0 0.79407,-1.67238 0.79407,-1.67238 l 2.02208,0.95245 0.0722,-0.14546 -0.79487,-3.20622 1.58856,-0.65072 1.08281,-2.3269 -1.73331,-1.38856 -5.3e-4,-1.67489 c 0,0 1.80536,0.22373 1.80536,0.22373 0,0 0.0721,-1.01925 0.0721,-1.01925 l 2.31082,0.371 c 0,0 0.0719,-1.67471 0.0719,-1.67471 l 1.37226,-0.35504"
       id="path478" /><path
       onclick="pokaz(this)"
       d="m 96.678372,85.574833 c 0,0 -1.20745,2.57987 -1.20745,2.57987 l 1.7118,1.71752 -2.43065,1.23028 c 0,0 0.49353,1.59584 0.49353,1.59584 l 0.9762,0.49022 -0.35991,1.35104 1.34152,0.48985 1.70683,0.48948 0.11047,-2.82416 1.704838,-0.002 c 0,0 -0.49347,-1.59581 -0.49347,-1.59581 0,0 -1.216768,0.24676 -1.217748,0.002 l -0.005,-1.2279 1.214808,-0.73793 -0.0107,-2.70139 -2.072688,-0.61201 c 0,0 -1.46235,-0.24422 -1.46235,-0.24422"
       id="path480" /><path
       onclick="pokaz(this)"
       d="m 78.604682,93.845703 c 0,0 -1.01158,-1.53217 -1.01158,-1.53217 l 1.15557,-0.28797 c 0,0 0.36086,-1.0913 0.36086,-1.0913 l -2.74505,-1.4645 c 0,0 -1.15617,-1.89685 -1.15617,-1.89685 l 1.73344,-0.35901 0.14416,-1.09202 c 0,0 -1.2283,-1.46013 -1.2283,-1.46013 l -0.2894,-1.74879 4.04495,-0.35216 2.59993,-1.23036 -5.3e-4,-1.60232 2.6715,-4.07035 c 0,0 -1.22825,-1.46039 -1.22825,-1.46039 l 3.683,-2.68367 c 0,0 -5e-5,-0.0725 -5e-5,-0.0725 l 4.04469,-0.35216 c 0,0 -0.43294,1.89232 -0.43294,1.89232 l 2.16704,1.31742 -4.33255,3.84704 2.38429,4.01267 -0.93829,2.83739 -1.94979,1.08667 c 0,0 1.08386,2.33342 1.08386,2.33342 l -1.58821,3.05382 0.93964,3.35253 c 0,0 -1.08281,2.32701 -1.08281,2.32701 0,0 0.9393,1.82314 0.9393,1.82314 l -2.744,1.885337 c 0,0 -0.72204,0.72604 -0.72204,0.72604 0,0 -0.14448,-0.14597 -0.14448,-0.14597 l -2.88872,0.71987 -2.02242,-0.66116 0.14428,-0.65501 -1.95048,-1.534787 c 0,0 1.22716,-2.618 1.22716,-2.618 l 0.72223,-0.0707 c 0,0 0.64945,-2.32839 0.64945,-2.32839 l -2.23909,-0.44384"
       id="path482" /><path
       onclick="pokaz(this)"
       d="m 10.395102,75.290483 c 0,0 -1.0117138,0.1427 -1.0117138,0.1427 0,0 -0.432382,2.47562 -0.432382,2.47562 l -1.806522,0.43172 -1.013222,-2.77151 -2.312564,0.28454 0.144848,0.58327 -0.507047,-2.18705 -1.229122,-0.87791 0.360204,-2.18466 c 0,0 -1.374034,-1.53401 -1.374034,-1.53401 l -0.79610504,-1.96955 -0.146939,-4.444739 1.22846004,-0.50628 c 0,0 -0.72384704,-1.9694 -0.72384704,-1.9694 L 6.3400972,59.905736 c 0,0 -0.145415,-1.676215 -0.145415,-1.676215 l 2.819136,0.66429 0.07227,-1.03e-4 c 0,0 -0.144547,2.06e-4 -0.144547,2.06e-4 0,0 0.72345,1.386496 0.72345,1.386496 l 1.3729758,-0.433017 2.530739,2.484887 3.107796,0.300805 c 0,0 1.301776,1.970958 1.301776,1.970958 l 2.312961,0.8812 1.15623,-0.0698 0.795602,1.4595 -2.890573,-0.01 -0.50546,0.8727 c 0,0 1.518523,1.97162 1.518523,1.97162 0,0 -1.083257,1.52659 -1.083257,1.52659 l -1.517386,0.43254 0.217869,2.25907 -2.095659,0.13934 0.361897,1.16671 -0.144745,-0.43757 -1.661954,0.35935 c 0,0 -0.723212,-1.09489 -0.723212,-1.09489 l -1.806787,-0.15109 -1.516962,1.38118"
       id="path484" /><path
       onclick="pokaz(this)"
       d="m 18.86706,112.82691 -2.23864,2.68843 c 0,0 -1.01211,-1.09526 -1.01211,-1.09526 l -1.301089,-0.95057 -1.517571,-0.29562 c 0,0 0.86614,-1.96398 0.86614,-1.96398 l 3.973777,-0.71705 1.951197,0.58823 c 0,0 1.805225,-2.47113 1.805225,-2.47113 l 3.757084,-0.20775 c 0,0 0.650901,1.38565 0.650901,1.38565 0,0 7.585869,-0.92522 7.585869,-0.92522 0,0 5.924814,1.54615 5.924814,1.54615 l 3.395927,1.46616 c 0,0 -0.07224,1e-4 -0.07224,1e-4 l 1.807475,3.71898 -2.022158,1.52345 -0.287681,3.27607 -4.406636,-0.0126 -0.504322,3.42107 c 0,0 0.433467,0.002 0.433467,0.002 l -3.033448,2.10334 -1.590596,-2.9173 -3.468687,-1.97585 -4.913312,-0.74198 -1.085189,-3.13451 c 0,0 -1.518338,-2.26198 -1.518338,-2.26198 l -3.180027,-2.04753"
       id="path486" /><path
       onclick="pokaz(this)"
       d="m 78.604682,102.00281 -0.72234,-0.36618 -2.67202,1.15744 c 0,0 -1.01185,-2.40588 -1.01185,-2.40588 l 0.14371,-2.693987 -4.76726,-0.0862 -3.17764,1.88423 c 0,0 -0.0724,-0.7285 -0.0724,-0.7285 l 0.36081,-1.16414 -1.08373,-0.80415 -0.50631,-2.11333 2.02224,-1.01375 c 0,0 -0.7952,-2.11434 -0.7952,-2.11434 l 1.29947,-2.54508 -0.72274,-1.24018 c 0,0 -1.22764,1.23441 -1.22764,1.23441 0,0 -1.73445,-2.55407 -1.73445,-2.55407 l -0.21701,-0.94742 -0.86699,-0.43961 0.21669,-0.0726 -0.79566,-3.27978 1.29998,-1.01578 1.8061,0.4423 1.4451,1.24243 0.65005,-0.28932 c 0,0 -0.36158,-1.31207 -0.36158,-1.31207 0,0 1.66138,-0.21364 1.66138,-0.21364 l 0.93921,0.5126 c 0,0 0.50552,-0.50829 0.50552,-0.50829 0,0 5.27341,1.7635 5.27341,1.7635 0,0 0.36179,2.33159 0.36179,2.33159 0,0 1.2283,1.46013 1.2283,1.46013 l -0.14416,1.09201 -1.73345,0.35902 c 0,0 1.15618,1.89685 1.15618,1.89685 l 2.74505,1.46449 c 0,0 -0.36084,1.0913 -0.36084,1.0913 l -1.15559,0.28797 c 0,0 1.01158,1.53218 1.01158,1.53218 l 2.23914,0.44347 c 0,0 -0.64945,2.32838 -0.64945,2.32838 l -0.72223,0.0707 c 0,0 -1.22716,2.618 -1.22716,2.618 l 1.95048,1.534787 -0.14429,0.6549 -1.44439,0.50562"
       id="path488" /><path
       onclick="pokaz(this)"
       d="m 62.938702,84.871043 5.3e-4,0.12283 0.7329,0.49056 0.24768,0.98229 c 0,0 1.83726,2.45449 1.83726,2.45449 l 1.21301,-1.22926 c 0,0 0.73589,1.22738 0.73589,1.22738 l -1.32977,2.45745 0.74044,2.33262 -1.94485,0.98433 c 0,0 0.49583,2.08719 0.49583,2.08719 l 1.09977,0.85852 -0.36037,1.22836 0.003,0.61401 2.18739,-1.23018 -0.23351,2.456237 c -0.24159,0.49143 -1.21296,1.22917 -1.21296,1.22917 0,0 -0.11422,1.84208 -0.11422,1.84208 l -3.15886,1.96797 c 0,0 -2.923383,0.002 -2.923383,0.002 0,0 -0.114189,1.84205 -0.114189,1.84205 0,0 0.115205,-1.59647 0.115205,-1.59647 l -0.612087,-0.73615 0.238532,-1.22825 -1.216527,0.36963 -0.248703,-1.22775 c 0,0 1.695132,-2.45771 1.695132,-2.45771 l -0.61259,-0.858997 -2.682345,-0.61137 -3.773753,0.6178 -0.0052,-1.22809 -1.222746,-1.10405 -0.373644,-1.96461 -0.123352,-0.3683 -0.365442,2.6e-4 1.823667,-0.86146 -0.12795,-1.47362 1.581573,-0.49276 c 0,0 -0.490855,-0.85923 -0.490855,-0.85923 l -1.827265,0.003 2.187099,-1.35305 3.032125,-3.19617 c 0,0 5.107518,-2.09269 5.107518,-2.09269"
       id="path490" /><path
       onclick="pokaz(this)"
       d="m 40.322122,95.086603 -0.357214,1.96541 c 0,0 1.104212,1.8411 1.104212,1.8411 0,0 1.218248,-0.002 1.218248,-0.002 l 1.107757,2.700597 1.465474,0.8582 -1.20687,2.70298 0.855848,0.73597 2.561272,0.73419 c 0,0 0.861457,2.08677 0.861457,2.08677 0,0 0.121303,-0.12293 0.121303,-0.12293 0,0 0.974514,-10e-4 0.974514,-10e-4 0,0 0.0063,1.47359 0.0063,1.47359 l 2.439829,0.85707 3.036623,-2.09071 c 0,0 0.853678,0.24472 0.853678,0.24472 0,0 0.603938,-1.2286 0.603938,-1.2286 l 4.871244,-0.25059 c 0,0 -0.0067,-1.59633 -0.0067,-1.59633 l -0.490273,-0.73629 c 0,0 0.116729,-1.22811 0.116729,-1.22811 0,0 -1.095243,0.2467 -1.095243,0.2467 0,0 -0.370523,-1.22761 -0.370523,-1.22761 0,0 1.816947,-2.45785 1.816947,-2.45785 l -0.61259,-0.858997 -2.803525,-0.48842 -3.652308,0.49485 c 0,0 -0.0052,-1.22806 -0.0052,-1.22806 l -1.344057,-0.98116 -0.25233,-2.08751 -0.245174,-0.36819 -0.243123,0.12306 -2.184532,1.96712 -2.200989,-1.96284 -1.094343,0.49234 c 0,0 -1.468067,-1.47235 -1.468067,-1.47235 l -4.382029,0.86397 m 18.33827,15.700637 c 0,0 -0.613092,-0.98171 -0.613092,-0.98171 0,0 0.613092,0.98171 0.613092,0.98171"
       id="path492" /><path
       onclick="pokaz(this)"
       d="m 26.10606,104.30998 c 0,0 0.372321,1.5962 0.372321,1.5962 l -0.961099,3.19405 0.24629,0.61381 c 0,0 7.549886,-0.86747 7.549886,-0.86747 0,0 5.976143,1.59031 5.976143,1.59031 l 3.417094,1.47008 1.950641,0.36634 c 0,0 0.116152,-1.35091 0.116152,-1.35091 0,0 0.852725,-10e-4 0.852725,-10e-4 l 2.427076,-2.21293 5.29e-4,0.12281 -0.861456,-2.08677 -2.68314,-0.73406 c 0,0 -0.734007,-0.7361 -0.734007,-0.7361 l 1.207399,-2.58016 -1.587817,-0.98089 -0.985943,-2.700867 c 0,0 -1.461903,0.002 -1.461903,0.002 l -1.104212,-1.8411 0.357717,-1.84259 -0.243655,2.3e-4 c 0,0 -0.737711,-1.59591 -0.737711,-1.59591 l -1.464575,-0.61267 c 0,0 -0.967925,1.59758 -0.967925,1.59758 l -1.955562,-1.47193 -3.399895,2.70536 0.352477,-3.07075 -0.470693,3.93065 -0.232214,2.70219 -2.070683,0.12489 0.247328,0.859467 -2.431521,1.23061 c 0,0 0.0074,1.71942 0.0074,1.71942 l -0.727366,0.86045 m 16.478515,7.47448 c 0,0 1.226952,2.08632 1.226952,2.08632 0,0 -1.226952,-2.08632 -1.226952,-2.08632"
       id="path494" /><path
       onclick="pokaz(this)"
       d="m 32.162372,115.26902 0.577877,-0.21687 0.434181,1.67616 -0.649261,2.25568 -2.456392,-0.01 c 0,0 -0.795523,-1.82277 -0.795523,-1.82277 l 1.660764,-2.18003 1.228354,0.29749"
       id="path496" /><path
       onclick="pokaz(this)"
       d="m 31.429476,88.538163 -2.167334,0.72208 c 0,0 -1.227614,1.67161 -1.227614,1.67161 0,0 -1.012243,-1.45968 -1.012243,-1.45968 l -1.083257,1.30791 -1.590225,-1.24282 -0.433414,0.29003 -3.324754,-1.68502 -1.227958,1.01613 -3.179233,0.35494 c 0,0 -0.866008,2.40122 -0.866008,2.40122 l -1.517385,0.28705 c 0,0 -0.723053,-0.87622 -0.723053,-0.87622 l -0.939483,-0.0753 -0.433361,0.43574 -0.287073,4.00553 1.228699,0.44058 2.601065,-0.7937 0.144947,0.87453 -1.011264,0.79825 c 0,0 2.385827,2.55622 2.385827,2.55622 0,0 0.289481,0.947657 0.289481,0.947657 l 1.156123,-0.0699 c 0,0 1.590834,2.48099 1.590834,2.48099 l 1.950297,-1.37826 1.517703,0.73268 5.29e-4,1.16541 c 0,0 2.890573,0.95507 2.890573,0.95507 0,0 0.794332,-1.01735 0.794332,-1.01735 l -0.217501,-1.67574 2.600563,-1.23076 c 0,0 -0.289401,-0.874797 -0.289401,-0.874797 l 2.095262,-0.13961 0.215603,-2.69426 0.576342,-3.93144 -0.5783,-0.65714 c 0,0 1.37205,-1.8169 1.37205,-1.8169 l -0.14515,-1.53 -1.156256,-0.29467"
       id="path498" /><path
       onclick="pokaz(this)"
       d="m 21.393831,108.6121 c 0,0 -1.805226,2.47113 -1.805226,2.47113 l -1.951196,-0.58822 c 0,0 -3.829315,0.64468 -3.829315,0.64468 0,0 -0.145335,-1.67555 -0.145335,-1.67555 l -0.434737,-2.4048 -1.58922,1.01526 -2.3122198,0.28472 0.07248,0.43714 c 0,0 -0.362294,-1.96755 -0.362294,-1.96755 0,0 -1.517623,-0.22285 -1.517623,-0.22285 l -0.506625,-1.53094 -1.806866,-0.51501 2.023692,0.58849 1.443911,-2.69081 -1.951619,-0.95253 -0.650346,0.0707 c 0,0 -3.107796,-0.81026 -3.107796,-0.81026 0,0 -0.145571,-1.967117 -0.145571,-1.967117 l 1.589431,-0.8695 c 0,0 -0.218135,-2.55003 -0.218135,-2.55003 l -2.44e-4,-0.14568 2.384319,-0.94004 c 0,0 0.649817,-1.16361 0.649817,-1.16361 0,0 1.662245,0.2233 1.662245,0.2233 0,0 0.577426,-1.38232 0.577426,-1.38232 l 2.2401218,-0.21196 -0.2871,3.9325 1.228699,0.44061 2.601065,-0.79369 0.144945,0.87439 -1.011264,0.79841 c 0,0 2.385827,2.55619 2.385827,2.55619 l 0.28948,0.947687 1.156124,-0.0699 c 0,0 1.590834,2.481 1.590834,2.481 l 1.950296,-1.37827 1.517703,0.73268 5.29e-4,1.16528 2.890573,0.95517 c 0,0 -0.07225,10e-5 -0.07225,10e-5 l 0.434155,1.45786 -1.010047,3.34724 0.289269,0.58343 c 0,0 -0.650901,-1.38562 -0.650901,-1.38562 l -3.757084,0.20846"
       id="path500" /><path
       onclick="pokaz(this)"
       d="m 27.381351,87.360773 1.083998,0.36734 0.362215,2.11339 c 0,0 -0.794332,1.09022 -0.794332,1.09022 0,0 -1.012243,-1.45968 -1.012243,-1.45968 l -1.083257,1.30791 -1.590225,-1.24283 -0.433414,0.29004 -3.324755,-1.68503 -1.227957,1.01614 -3.179233,0.35494 c 0,0 -0.866008,2.40122 -0.866008,2.40122 l -1.517386,0.28705 c 0,0 -0.723053,-0.87622 -0.723053,-0.87622 l -0.939482,-0.0753 -0.433361,0.43575 c 0,0 6.3e-5,0.0725 6.3e-5,0.0725 l -2.2401208,0.21196 -0.577427,1.38244 c 0,0 -1.662245,-0.22343 -1.662245,-0.22343 0,0 -0.64979,1.16364 -0.64979,1.16364 l -2.384345,0.94004 -0.724059,-2.62451 2.12e-4,0.65569 0.358827,-4.80668 -1.662297,-0.15061 1.662297,0.15061 c 0,0 -0.07269,-0.80158 -0.07269,-0.80158 l 0.719349,-6.40848 -1.373425,-0.51395 -2.096929,-1.90037 c 0,0 0.57748,-1.30961 0.57748,-1.30961 0,0 0.0722,-0.14552 0.0722,-0.14552 l 2.024301,1.24446 0.287946,-2.18463 -0.144854,-0.58328 2.312564,-0.28453 1.013222,2.77151 1.806522,-0.43172 c 0,0 0.432382,-2.47563 0.432382,-2.47563 0,0 1.0117128,-0.14281 1.0117128,-0.14281 l 1.516963,-1.37959 1.806786,0.15106 c 0,0 0.723212,1.0949 0.723212,1.0949 l 1.661954,-0.35935 0.144743,0.43759 1.878938,0.0781 -0.144118,0.87381 0.722868,0.43926 1.589617,-0.43238 c 0,0 1.374087,2.33518 1.374087,2.33518 l 2.674143,0.88199 0.506413,1.31279 c 0,0 1.300586,-0.2147 1.300586,-0.2147 l 0.217522,1.676 0.79502,0.36656 -0.577903,0.3625 c 0,0 0.940011,1.45963 0.940011,1.45963 l 1.445472,0.73268 -1.588664,2.25372"
       id="path502" /><path
       onclick="pokaz(this)"
       d="m 30.704518,82.124663 -1.734529,-0.80637 -1.805914,1.23309 -0.79502,-0.36655 -0.217524,-1.67611 -1.300586,0.21469 c 0,0 -0.506412,-1.31267 -0.506412,-1.31267 l -2.674144,-0.8821 c 0,0 -1.374087,-2.33521 -1.374087,-2.33521 l -1.589617,0.43238 -0.722868,-0.43923 0.144119,-0.87371 -1.878939,-0.0781 -0.361897,-1.1667 2.095659,-0.13946 c 0,0 -0.217871,-2.25896 -0.217871,-2.25896 l 1.517385,-0.43264 c 0,0 1.083257,-1.5266 1.083257,-1.5266 0,0 -1.518523,-1.97151 -1.518523,-1.97151 0,0 0.50546,-0.87281 0.50546,-0.87281 l 2.890573,0.01 -0.795602,-1.45938 -1.156229,0.0698 -2.312961,-0.8812 -1.301777,-1.97109 -3.107796,-0.300805 -2.530739,-2.484781 -1.3729758,0.432884 c 0,0 -0.72345,-1.386496 -0.72345,-1.386496 l 1.8790438,-0.139909 4.334669,-3.629818 4.337314,2.126191 1.155991,-0.652224 0.723292,1.313603 1.156255,-0.06976 -0.145004,-1.020445 3.180027,0.519748 c 0,0 0.434445,1.895528 0.434445,1.895528 0,0 0.938927,-1.16287 0.938927,-1.16287 0,0 1.87878,-0.212871 1.87878,-0.212871 l 1.807051,1.098391 c 0,0 0.145212,1.603217 0.145212,1.603217 l 2.746904,2.121005 -1.22809,0.797587 2.748491,6.127755 1.95117,0.58864 0.289137,0.29221 -0.432541,2.47547 -2.52894,0.0649 -1.732175,4.7297 -1.083548,0.72521 0.650928,1.45881 c 0,0 -1.444201,2.18001 -1.444201,2.18001"
       id="path504" /><path
       onclick="pokaz(this)"
       d="m 37.118018,42.879021 -0.07214,0.291253 2.965979,8.242036 -0.651086,-1.896243 -1.300163,1.307386 -1.228619,-0.440928 c 0,0 -1.083363,1.381045 -1.083363,1.381045 l 1.228566,0.29509 5.3e-4,1.020048 2.458137,3.285861 -2.239433,1.45026 -0.144224,0.728028 1.228513,0.295143 -1.155779,0.870743 -0.93935,0.0013 0.433017,-1.310084 -3.829844,-0.01159 -2.167573,0.649129 0.145183,1.53035 c 0,0 -0.145212,-1.603216 -0.145212,-1.603216 l -1.807051,-1.098286 c 0,0 -1.87878,0.212895 -1.87878,0.212895 0,0 -0.938927,1.162737 -0.938927,1.162737 l -0.434445,-1.895554 -3.180027,-0.519615 0.144999,1.020339 -1.156255,0.06978 c 0,0 -0.723292,-1.31363 -0.723292,-1.31363 l -1.155991,0.652224 c 0,0 -4.337314,-2.126086 -4.337314,-2.126086 l -4.334669,3.629819 -1.7345028,0.140414 c 0,0 -0.07227,1.04e-4 -0.07227,1.04e-4 l -2.819136,-0.66429 c 0,0 -0.796051,-1.969717 -0.796051,-1.969717 l 0.505407,-1.018513 -1.445922,-0.733055 -0.0011,-1.82155 2.023639,-0.285353 1.15398,-4.805627 -1.158213,-3.428207 0.720248,-4.953 c 0,0 0.144489,-0.145237 0.144489,-0.145237 l 5.7112958,2.786856 4.768586,-3.118644 2.746904,1.0287 c 0,0 0.432937,-1.528762 0.432937,-1.528762 0,0 1.08339,-1.526937 1.08339,-1.526937 0,0 -0.867913,-1.387131 -0.867913,-1.387131 l 1.878489,-1.378612 4.408752,0.450983 1.950931,-0.79547 1.01219,0.95041 1.372923,-0.432806 1.662351,0.442331 1.156017,-0.579332 1.734556,0.442648 c 0,0 0.07301,1.821868 0.07301,1.821868 l -1.806575,0.140081 5.29e-4,1.165807 c 0,0 -1.589775,0.213632 -1.589775,0.213632 0,0 -1.589167,1.671003 -1.589167,1.671003 l 1.66235,0.515144 -0.937921,3.640137 3.252523,1.321435 c 0,0 0.79412,-1.89185 0.79412,-1.89185 l 0.867013,-0.147275"
       id="path506" /><path
       onclick="pokaz(this)"
       d="m 44.267059,28.472459 -0.07177,1.311354 -1.661742,0.796316 -3.179763,-0.592851 1.226952,-3.930915 -1.591072,-3.065462 -2.818606,-0.664766 -2.530448,-2.412762 -3.108325,-1.321726 c 0,0 -3.325548,-2.196835 -3.325548,-2.196835 l -0.797534,-5.614194 0.07228,-1.03e-4 2.43e-4,0.145883 c 0,0 -0.07234,-0.146079 -0.07234,-0.146079 l 2.241021,1.027536 3.540919,-1.008803 2.746374,-0.282734 c 0,0 0.794333,-1.6007031 0.794333,-1.6007031 l 1.300771,-0.287311 c 0,0 -0.578909,-1.823879 -0.578909,-1.823879 l 1.80475,-5.09561 2.38461,-0.93966803 c 0,0 1.012216,1.02359403 1.012216,1.02359403 0,0 1.011185,-1.52725403 1.011185,-1.52725403 0,0 0.867225,-0.0013 0.867225,-0.0013 0,0 -5.6e-5,-0.07253 -5.6e-5,-0.07253 l 2.459672,6.63998303 1.734133,-0.723212 0.362188,2.333202 2.240253,0.07967 1.806152,-1.305852 2.09595,0.881222 1.300532,-0.578776 4.335728,0.305514 c 0,0 1.518159,2.2638541 1.518159,2.2638541 l 2.24009,0.371608 c 0,0 -3.466837,4.433887 -3.466837,4.433887 l -0.794227,1.891983 -1.950667,0.868203 1.084448,1.752309 -0.2168,-0.07357 c 0,0 -0.649684,1.892459 -0.649684,1.892459 l -2.600881,1.230418 0.0729,1.894761 -2.094892,1.742096 -2.384425,0.356817 -1.155779,1.089342 -1.300956,-0.732843 -3.901546,1.667113"
       id="path508" /><path
       onclick="pokaz(this)"
       d="m 65.364932,25.260417 c 0,0 -0.86635,2.183077 -0.86635,2.183077 0,0 -3.829049,0.789464 -3.829049,0.789464 l 0.868309,3.937 1.95114,1.099026 -2.455145,4.363773 -1.228143,0.433282 c 0,0 -0.506015,-0.803011 -0.506015,-0.803011 l -2.095368,-0.07948 -1.445419,-0.95168 c 0,0 -7.73086,1.942994 -7.73086,1.942994 l -7.731654,0.267441 c 0,0 0.07324,2.477505 0.07324,2.477505 0,0 -1.589854,-0.223604 -1.589854,-0.223604 l -1.66161,1.087781 5.29e-4,1.092861 -0.867093,0.143069 c 0,0 -0.79412,1.891982 -0.79412,1.891982 l -3.252523,-1.321567 0.937922,-3.640402 -1.662351,-0.515144 1.589167,-1.671002 c 0,0 1.589775,-0.213519 1.589775,-0.213519 l -5.29e-4,-1.165913 1.806575,-0.140078 -0.07301,-1.821868 -1.734582,-0.442516 -1.156018,0.579226 -1.66235,-0.442331 -1.372923,0.432806 -1.01219,-0.95041 -1.950932,0.79547 -4.62571,-0.451697 c 0,0 0.721783,-2.110978 0.721783,-2.110978 0,0 4.552421,-1.734582 4.552421,-1.734582 0,0 0.938609,-2.11029 0.938609,-2.11029 l 1.806522,-0.577215 c 0,0 1.084527,1.096513 1.084527,1.096513 l 1.083919,-0.288079 0.07101,-2.98741 3.033977,-2.905125 2.818606,0.664766 1.591072,3.065462 -1.226952,3.930915 3.179762,0.592878 1.661742,-0.796343 c 0,0 0.07177,-1.311328 0.07177,-1.311328 l 3.901545,-1.663541 1.300957,0.732737 1.155753,-1.089342 2.384425,-0.356817 2.094891,-1.742097 c 0,0 -0.0729,-1.89476 -0.0729,-1.89476 l 2.600854,-1.230418 0.649684,-1.892459 3.107274,0.738531 3.97562,5.186098"
       id="path510" /><path
       onclick="pokaz(this)"
       d="m 62.057642,74.716333 -0.43278,2.11098 0.93933,0.58536 c 0,0 1.08402,1.38713 1.08402,1.38713 l -0.0716,1.89344 -1.29998,1.01592 0.79566,3.27978 -5.345115,2.09634 -3.033183,3.12288 -2.166779,1.37747 1.80602,-0.068 0.506015,0.94834 -1.58914,0.43236 c 0,0 0.144992,1.45703 0.144992,1.45703 l -1.733444,1.01452 -2.238799,1.95993 -2.168048,-2.0455 -1.083443,0.57952 -1.517703,-1.46098 -4.623593,0.86053 c 0,0 -0.723133,-1.60438 -0.723133,-1.60438 l -1.44526,-0.65973 c 0,0 -1.010841,1.59945 -1.010841,1.59945 l -2.023586,-1.38983 -3.322373,2.61245 0.43225,-2.98503 -0.5783,-0.65715 c 0,0 1.37205,-1.81702 1.37205,-1.81702 0,0 -0.145153,-1.53001 -0.145153,-1.53001 l -1.156203,-0.29467 -2.167334,0.72208 -0.433282,0.58137 c 0,0 -0.362214,-2.11339 -0.362214,-2.11339 l -1.083998,-0.36735 1.588664,-2.25345 -1.445472,-0.73255 c 0,0 -0.940011,-1.4596 -0.940011,-1.4596 l 2.383816,-1.5956 1.734529,0.8064 c 0,0 1.444202,-2.18102 1.444202,-2.18102 0,0 -0.650928,-1.4588 -0.650928,-1.4588 l 1.083548,-0.72523 1.732174,-4.72969 2.52894,-0.0649 0.576739,-3.20357 2.168393,1.82763 0.432805,-1.81983 3.107002,-0.0641 2.166964,-1.5961 c 0,0 -1.012084,-1.45992 -1.012084,-1.45992 0,0 1.155197,-2.25475 1.155197,-2.25475 0,0 1.589643,0.2233 1.589643,0.2233 l 2.817019,-1.95839 0.07336,3.05964 3.106738,0.30083 0.218246,4.29842 3.323961,1.68524 4.045744,-0.0601 1.661818,0.80624 -1.372179,1.30696 1.156049,0.65903"
       id="path512" /><path
       onclick="pokaz(this)"
       d="m 37.223851,123.80448 0.433441,0.002 -3.033448,2.10333 c 0,0 -0.14455,-0.14609 -0.14455,-0.14609 l -0.865743,2.83766 4.985279,1.3244 2.60223,4.15766 2.528199,-0.21145 c 0,0 1.517677,1.89733 1.517677,1.89733 l 2.167255,0.58835 0.722577,0.65728 -0.650346,-0.65709 3.105679,-0.57394 c 0,0 0.866352,-1.23539 0.866352,-1.23539 l 4.767262,-0.0594 0.576633,-3.56606 1.227773,-0.36073 -0.650796,-2.18609 -3.828785,-1.3212 c 0,0 -0.433705,-0.87498 -0.433705,-0.87498 l -0.361051,0.29028 -1.950773,-1.31607 -2.455412,1.5951 -1.878568,-1.17031 c 0,0 -3.033713,1.01105 -3.033713,1.01105 l -0.86786,-2.55098 -2.817547,-0.37195 -2.528412,0.13874"
       id="path514" /><path
       onclick="pokaz(this)"
       d="m 40.240101,78.513103 c 0,0 -0.939959,-1.67812 -0.939959,-1.67812 l -1.083654,0.361 -0.289268,-0.65641 1.589219,-0.86936 c 0,0 4.335727,1.25116 4.335727,1.25116 0,0 -7.93e-4,-2.03962 -7.93e-4,-2.03962 l 2.96201,-0.71951 0.218236,4.00685 1.806178,-0.068 0.144868,1.02008 1.733973,0.15084 2.06e-4,0.72835 -1.155647,0.79785 c 0,0 0.867807,2.40615 0.867807,2.40615 0,0 -0.793935,2.10997 -0.793935,2.10997 0,0 -1.733868,0.002 -1.733868,0.002 0,0 0.07321,2.62226 0.07321,2.62226 l -3.468687,-2.12238 -0.289613,-1.6033 -1.083892,-0.44018 -1.300163,0.87021 -0.506518,-1.96818 -1.80639,-0.29665 c 0,0 0.9389,-0.94406 0.9389,-0.94406 l -0.578458,-1.09437 0.360521,-1.82624"
       id="path516" /><path
       onclick="pokaz(this)"
       d="m 83.655582,74.197753 c 0,0 1.22825,1.46039 1.22825,1.46039 l -2.6715,4.07035 5.3e-4,1.60232 -2.59993,1.23036 -4.04469,0.35216 -0.0724,-0.58279 c 0,0 -5.27341,-1.76351 -5.27341,-1.76351 0,0 -0.50552,0.5083 -0.50552,0.5083 l -0.93921,-0.51261 -1.66137,0.21365 0.36157,1.31206 -0.65002,0.28933 -1.4451,-1.24243 -1.8061,-0.44231 0.0716,-1.89344 c 0,0 -1.08403,-1.38713 -1.08403,-1.38713 l -0.93932,-0.58536 0.43278,-2.11098 -1.156071,-0.65902 1.372181,-1.30697 -1.66182,-0.80623 c 0,0 -4.045744,0.0601 -4.045744,0.0601 0,0 -3.323961,-1.68524 -3.323961,-1.68524 l 3.250671,-1.22859 c 0,0 1.371838,-2.47245 1.371838,-2.47245 0,0 3.394866,-1.88362 3.394866,-1.88362 l 0.21614,-1.820469 1.80629,0.588195 1.22777,-1.088866 0.43278,-2.184003 1.22798,-0.506254 c 0,0 0.7225,0.220742 0.7225,0.220742 l 0.21756,2.7686 1.15599,0.440478 2.96122,-1.884918 1.80612,0.515356 -0.0714,2.840569 1.22804,0.0763 1.01211,2.9165 2.09447,-1.30487 c 0,0 -0.36148,-1.09357 -0.36148,-1.09357 l 0.79452,-0.28898 1.01145,0.65857 3.75629,0.37555 1.37316,3.20887 3.46763,2.34101 -3.683,2.68446"
       id="path518" /><path
       onclick="pokaz(this)"
       d="m 41.094705,51.123438 3.758407,2.852737 2.16736,-0.79465 1.300745,0.441061 1.806204,-0.358722 0.07096,-3.569494 3.901282,-1.226502 0.216201,-1.602158 1.51638,-2.690813 -0.651483,-3.499114 3.323695,0.447463 1.444096,-2.836862 c 0,0 -0.65061,-1.022059 -0.65061,-1.022059 l -2.095368,-0.07948 -1.445419,-0.95168 c 0,0 -7.73086,1.942994 -7.73086,1.942994 L 40.294641,38.4436 c 0,0 0.07324,2.477506 0.07324,2.477506 0,0 -1.589854,-0.223605 -1.589854,-0.223605 l -1.66161,1.087781 c 0,0 -0.07169,1.384115 -0.07169,1.384115 l 2.965979,8.242036 1.083786,-0.287999"
       id="path520" /><path
       onclick="pokaz(this)"
       d="m 52.950684,63.1805 -1.228407,-0.440796 -1.878542,-0.07823 c 0,0 -0.07225,1.03e-4 -0.07225,1.03e-4 l 5.3e-5,0.07246 -2.744787,1.885736 c 0,0 -1.589644,-0.22331 -1.589644,-0.22331 0,0 -1.155197,2.25476 -1.155197,2.25476 0,0 1.012084,1.45991 1.012084,1.45991 l -2.166964,1.5961 -3.107002,0.0642 c 0,0 -0.432805,1.81983 -0.432805,1.81983 l -2.168393,-1.82764 -0.576739,3.20358 0.432541,-2.47547 -0.289136,-0.29223 -1.95117,-0.58865 -2.748492,-6.127479 1.22809,-0.797718 -2.746904,-2.121006 c 0,0 -0.145179,-1.53035 -0.145179,-1.53035 l 2.167572,-0.649129 c 0,0 3.829844,0.01156 3.829844,0.01156 l -0.433017,1.310058 0.93935,-0.0013 1.155779,-0.870743 -1.228513,-0.295169 0.144222,-0.728002 2.239433,-1.450287 -2.458138,-3.28586 -2.65e-4,-1.020075 -1.228566,-0.295222 c 0,0 1.083363,-1.380939 1.083363,-1.380939 l 1.228619,0.440928 c 0,0 1.300163,-1.307386 1.300163,-1.307386 l 0.651086,1.896269 1.083787,-0.288105 3.758406,2.852738 2.167361,-0.794782 c 0,0 0.72263,0.220765 0.72263,0.220765 l 0.506968,3.207015 4.47966,0.08596 0.43442,2.623926 -0.721757,2.11029 0.506333,1.753552"
       id="path522" /><path
       onclick="pokaz(this)"
       d="m 60.427809,37.825479 0.743693,3.070755 c 0,0 -0.969594,1.229307 -0.969594,1.229307 0,0 0.495459,1.965272 0.495459,1.965272 l 2.800085,-0.493607 3.78486,1.962626 c 0,0 1.10602,2.333202 1.10602,2.333202 0,0 -0.45448,7.985125 -0.45448,7.985125 l -1.95114,-0.489744 -1.33702,0.738135 -0.23858,1.228592 2.20038,1.840706 -0.1198,0.491464 -0.36546,2.65e-4 -1.21619,0.492363 c 0,0 -0.47818,2.211414 -0.47818,2.211414 l -1.21364,1.10654 -1.9517,-0.61251 c 0,0 -0.11421,1.842609 -0.11421,1.842609 0,0 -3.403862,1.72262 -3.403862,1.72262 l -1.451716,2.45793 -3.1623,1.23111 -0.261046,-4.17619 -3.169179,-0.36578 -0.01228,-2.948255 c 0,0 1.827477,-0.0026 1.827477,-0.0026 l 1.220364,0.4903 -0.49448,-1.719342 c 0,0 0.721783,-2.211732 0.721783,-2.211732 0,0 -0.498078,-2.57929 -0.498078,-2.57929 l -4.50797,0.0037 -0.501227,-3.316552 c 0,0 0.610235,0.245203 0.610235,0.245203 l 1.826048,-0.370047 -0.01487,-3.562614 4.015581,-1.231741 0.237029,-1.597263 1.572657,-2.704042 -0.62349,-3.439583 c 0,0 3.291152,0.366024 3.291152,0.366024 l 1.450313,-2.826808 c 0,0 -0.244686,-0.245515 -0.244686,-0.245515 0,0 0.852328,-0.123507 0.852328,-0.123507 m -4.733131,33.784654 -2.442157,-1.34898 2.442157,1.34898 m -6.0071,-8.961711 0.121833,-1.03e-4 -0.121833,1.03e-4"
       id="path524" /><path
       onclick="pokaz(this)"
       d="m 79.991102,152.60437 -1.5889,-0.95065 -1.0822,3.78222 1.80626,3.78989 1.80519,-0.14079 0.86675,1.02137 -0.57716,2.03648 -0.93856,0.57986 0.28922,1.52921 c 0,0 2.02187,0.2237 2.02187,0.2237 0,0 2.02173,-0.213 2.02173,-0.213 0,0 1.44415,0.1493 1.44415,0.1493 l 4.04283,-2.7551 3.46552,-1.00984 -2.7e-4,-2.18347 c 0,0 0.86611,-1.52617 0.86611,-1.52617 l -0.28929,-2.40274 -2.6715,0.13848 -0.79526,-4.58787 0.14408,-1.52823 -0.21659,0.0727 c 0,0 -1.51691,-2.55175 -1.51691,-2.55175 l -2.52651,3.48721 -2.16654,-1.09775 -3.46578,1.51931 -0.93826,2.61763"
       id="path744" /><path
       onclick="pokaz(this)"
       d="m 90.603542,148.63033 c 0,0 -1.51691,-2.55185 -1.51691,-2.55185 l -2.52651,3.4872 -2.16654,-1.09762 -3.46578,1.51932 c 0,0 -0.93808,2.618 -0.93808,2.618 l -2.02226,-1.24302 -2.16733,-3.42714 1.66047,-1.81542 -0.50591,-1.45724 2.23824,-1.59549 -1.95006,-0.95168 0.6495,-1.67262 2.96095,0.5905 c 0,0 -0.14485,-1.67476 -0.14485,-1.67476 l 1.22775,0.36735 c 0,0 4.76488,-5.3012 4.76488,-5.3012 l 6.06637,2.92841 1.94934,-1.30503 0.79439,0.58452 c 0,0 3.03239,-0.7924 3.03239,-0.7924 l 3.466038,1.10146 0.65053,4.00526 -1.37171,0.72419 -0.43267,2.98318 c 0,0 -4.188088,-2.1222 -4.188088,-2.1222 l -1.08294,0.72499 -0.0715,3.4208 -2.88819,-0.15335 -0.28845,1.81896 -1.73291,0.28657"
       id="path746" /><path
       onclick="pokaz(this)"
       d="m 91.540162,132.10975 2.59974,1.02629 0.86715,3.13266 c 0,0 -0.28887,-0.21915 -0.28887,-0.21915 l -1.94935,1.30503 -6.06636,-2.9284 c 0,0 -4.76488,5.30119 -4.76488,5.30119 l -1.22775,-0.36735 c 0,0 0.14485,1.67476 0.14485,1.67476 l -2.96095,-0.5905 -0.6495,1.67262 1.95006,0.95168 -2.23825,1.59549 c 0,0 -1.1788,0.22749 -1.1788,0.22749 l -3.22632,-0.60323 -2.74426,0.57491 c 0,0 -0.14506,-2.11158 -0.14506,-2.11158 0,0 -1.15591,-1.16827 -1.15591,-1.16827 l 0.43241,-3.05647 2.02174,-1.59617 -0.28954,-2.25759 -0.86685,-0.65767 1.44383,-2.10736 -1.5893,-1.38763 0.21612,-1.89241 1.80536,-0.72305 2.52674,-3.63326 1.94961,-1.37795 -2.38426,-3.42873 0.57764,-0.58087 2.16669,0.0787 c 0,0 1.44484,1.53305 1.44484,1.53305 l 2.45526,-0.86686 4.33361,1.9779 1.51643,-0.43257 1.51675,1.02351 1.15541,-0.07 -0.0719,1.74709 -1.08299,1.01622 1.01116,0.65817 1.37192,-0.65143 0.50556,0.43823 0.43365,1.67566 1.011,0.1484 -1.1549,2.18086 0.5783,2.7686"
       id="path748" /><path
       onclick="pokaz(this)"
       d="m 91.611602,125.99258 -1.44449,-1.09609 -1.37192,0.6514 -1.01113,-0.65801 1.08296,-1.01622 c 0,0 0.0718,-1.96551 0.0718,-1.96551 l 2.38271,-1.59501 c 0,0 2.09465,2.26272 2.09465,2.26272 l -0.21606,2.76595 -1.58856,0.6508"
       id="path750" /><path
       onclick="pokaz(this)"
       d="m 101.57581,130.53548 c 0,0 -0.072,1.52852 -0.072,1.52852 l 0.9388,0.80335 -0.57706,3.20146 -0.28866,0.79992 -3.032648,-1.02743 -3.03239,0.7924 -0.79439,-0.58452 0.28888,0.21915 -0.86712,-3.13266 -2.59975,-1.0263 -0.57827,-2.76807 c 0,0 1.15491,-2.18085 1.15491,-2.18085 l -1.011,-0.1484 -0.43366,-1.67566 -0.50556,-0.43834 1.44449,1.09609 1.58851,-0.6508 0.21606,-2.76595 c 0,0 -2.09463,-2.26272 -2.09463,-2.26272 l -1.80507,1.23259 -1.87867,-4.73763 -1.08347,-0.94951 -1.22872,-4.29921 1.44412,-1.0881 -1.5897,-3.71793 c 0,0 0.0722,-0.0725 0.0722,-0.0725 l 5.63351,1.90915 3.24961,-0.71879 -0.21694,-1.38401 1.37216,0.3679 c 0,0 1.58819,-2.61659 1.58819,-2.61659 l -0.14444,-0.0735 1.58893,1.09664 c 0,0 -0.64974,0.94472 -0.64974,0.94472 l 2.528148,3.79334 c 0,0 -0.505328,0.79941 -0.505328,0.79941 0,0 1.733468,2.33468 1.733468,2.33468 l 2.2384,-0.50324 c 0,0 0.28917,1.89368 0.28917,1.89368 l 3.53827,1.32046 -0.28885,-0.14642 c 0,0 -1.0107,1.08929 -1.0107,1.08929 0,0 0.0725,1.38337 0.0725,1.38337 l -1.2275,0.0688 c 0,0 -1.15502,1.74403 -1.15502,1.74403 0,0 0.57804,2.33127 0.57804,2.33127 l -1.15464,3.78248 c 0,0 -1.87693,2.32431 -1.87693,2.32431 l 1.22769,1.16817 -1.08288,0.94411"
       id="path752" /><path
       onclick="pokaz(this)"
       d="m 103.66602,112.63112 -2.23841,0.50334 -1.733468,-2.33468 0.505328,-0.79954 -2.528148,-3.79333 0.64974,-0.94459 -1.5889,-1.09681 -0.14509,-3.34989 2.52722,-1.667477 1.588708,0.077 0.43305,-1.30932 2.23856,-0.21205 c 0,0 0.79407,-1.67238 0.79407,-1.67238 l 6.21056,3.07605 3.10489,-0.57351 1.01092,0.14854 1.2279,3.279767 0.50549,0.5111 0.36142,3.20463 -0.72189,1.08995 0.21687,2.11191 1.5888,2.84374 -2.23774,3.85233 -0.36073,2.18297 -0.0721,0.58222 -2.52711,-0.37113 -1.44423,-1.24169 c 0,0 -3.17685,0.9375 -3.17685,0.9375 l -0.36132,-1.8211 -3.53827,-1.32043 -0.28919,-1.89344"
       id="path754" /><path
       onclick="pokaz(this)"
       d="m 72.468992,113.56245 2.74506,1.60965 -10e-4,-1.7476 1.22722,-2.18083 -0.43424,-3.27792 -0.50636,-2.91412 1.29977,-1.08852 c 0,0 -0.36158,-1.67587 -0.36158,-1.67587 l 1.44433,-0.6513 0.72237,0.36618 1.44436,-0.50551 2.02245,0.66117 2.88872,-0.71988 c 0,0 1.95045,2.11725 1.95045,2.11725 l -1.73254,3.19881 1.58969,3.71792 -1.44412,1.08813 1.2287,4.29921 1.08347,0.94951 1.87867,4.73763 -0.57764,0.36243 2.4e-4,0.21841 -1.15541,0.07 -1.51675,-1.02352 -1.51643,0.43257 c 0,0 -4.33361,-1.97789 -4.33361,-1.97789 l -2.45525,0.86675 c 0,0 -1.44484,-1.53308 -1.44484,-1.53308 l -2.1667,-0.0787 -1.80509,1.74247 c 0,0 -0.72292,-2.40485 -0.72292,-2.40485 l -2.96149,-0.73636 -0.2178,-3.78698 2.38374,0.88045 1.44473,-1.01587"
       id="path756" /><path
       onclick="pokaz(this)"
       d="m 55.363684,109.19418 0.725752,-1.22872 4.749007,-0.37328 c 0,0 0.114694,-1.71928 0.114694,-1.71928 0,0 2.923385,-0.002 2.923385,-0.002 l 3.15833,-2.09073 0.23552,-1.96498 c 0,0 0.85008,-0.61484 1.09167,-1.10628 -5.3e-4,-0.1228 -0.006,-1.473597 0.2335,-2.456227 l 0.9719,-0.61497 4.75006,-0.004 -0.11024,2.824427 c 0,0 1.10617,2.4548 1.10617,2.4548 l 1.21592,-0.49241 0.37189,1.59594 -1.33469,1.22925 0.49869,2.82363 0.5007,3.3147 c 0,0 -1.20936,2.0886 -1.20936,2.0886 0,0 0.008,1.84174 0.008,1.84174 l -2.80828,-1.71604 -1.45696,1.10659 -3.04985,-1.22465 c 0,0 -3.04244,0.61712 -3.04244,0.61712 l -2.43092,1.23044 -1.34133,-0.36695 c 0,0 -0.491276,-0.98181 -0.491276,-0.98181 l -2.452846,-4.04972 -2.926556,-0.73374"
       id="path758" />
  </svg>
