<?xml version="1.0" encoding="UTF-8" standalone="no"?>
<svg
   viewBox="0 0 113.74553 127.51882"
   version="1.1"
   id="svg1"
   xmlns="http://www.w3.org/2000/svg">
   <style>path {fill:#e0e0e0;fill-opacity:1;stroke:#ffffff;stroke-width:0.529167}</style>
   <path
       onclick="pokaz(this)"
       d="m 92.787837,23.06022 -1.9518,0.06608 0.0719,-0.80174 1.22852,-0.943531 -1.66331,-1.390888 1.30072,-1.162156 c 0,0 -1.30204,-1.754161 -1.30204,-1.754161 l -0.79449,1.601206 -2.24123,-0.37211 -0.507,-2.043245 -2.0973,-1.611286 5.63563,-7.4175942 c 0,0 2.09539,-2.54463 2.09539,-2.54463 l 3.61368,-2.539444 c 0,0 4.409023,-1.88034103 4.409023,-1.88034103 l 2.4579,0.08141 1.80922,4.96437703 1.87968,0.589888 c 0,0 1.01274,1.899074 1.01274,1.899074 0,0 -0.57753,1.893676 -0.57753,1.893676 l 1.37454,2.9209992 -1.59023,0.06708 -0.28784,3.279775 1.44603,0.952712 c 0,0 0.72385,2.627021 0.72385,2.627021 l -1.95102,1.524265 -3.61394,0.570865 -0.57859,-0.803963 -0.57732,2.330952 -2.674673,-0.519456 c 0,0 -0.86657,2.038297 -0.86657,2.038297 l -2.53026,-0.59182 c 0,0 1.01134,-1.600359 1.01134,-1.600359 l -2.09671,-0.882068 -2.16803,1.451346"
       id="path82" /><path
       onclick="pokaz(this)"
       d="m 103.26799,21.639408 0.28911,-0.07144 c 0,0 0.0726,0.875004 0.0726,0.875004 0,0 -0.0716,1.749478 -0.0716,1.749478 0,0 0.073,1.822635 0.073,1.822635 l 1.73524,1.172263 5.3e-4,1.093576 1.30157,1.316487 c 0,0 -1.08376,1.089792 -1.08376,1.089792 0,0 1.22944,1.753632 1.22944,1.753632 0,0 -0.57767,1.456081 -0.57767,1.456081 0,0 -0.43291,1.893703 -0.43291,1.893703 l 0.72369,2.262187 c 0,0 -2.02388,-0.22547 -2.02388,-0.22547 l 0.21722,0.94832 -2.38455,1.595649 0.94099,3.356239 -1.44534,0.578274 -0.50644,-1.167924 -1.951413,0.358034 -0.79534,-0.585867 c 0,0 -0.86677,1.382078 -0.86677,1.382078 l -1.87936,-0.07885 -0.8677,-0.731864 -2.38538,-0.08105 -0.57843,-0.366342 0.72154,-2.913327 -1.59073,-1.025922 -1.51818,-0.36957 -5.3e-4,-1.020524 -1.30085,0.724587 c 0,0 -0.50628,-0.584861 -0.50628,-0.584861 0,0 0.36074,-1.529662 0.36074,-1.529662 l -2.09669,-0.663099 -1.73498,-0.01132 -5.42343,-3.226064 c 0,0 -1.30249,-2.410249 -1.30249,-2.410249 l -1.22846,1.162368 -3.68644,1.445657 -1.80811,-1.245421 0.43217,-3.133725 -1.22933,-0.441483 -0.86755,0.142793 -0.28823,1.821788 c 0,0 0.36038,-2.1132 0.36038,-2.1132 l -1.22936,-0.441511 c 0,0 -1.15784,-1.899549 -1.15784,-1.899549 l -0.4355,-3.136636 2.24091,-0.940276 6.00049,-0.781579 c 0,0 5.20462,-1.732042 5.20462,-1.732042 l 3.97483,-3.194314 0.93943,-0.87175 2.0973,1.61126 c 0,0 0.507,2.043139 0.507,2.043139 l 2.24123,0.372216 c 0,0 0.79449,-1.601206 0.79449,-1.601206 l 1.30204,1.754188 -1.30072,1.162023 1.6633,1.390915 -1.22851,0.943636 c 0,0 -0.0719,0.801714 -0.0719,0.801714 l 1.95178,-0.06608 2.16802,-1.450711 2.09672,0.881936 c 0,0 -1.01132,1.600491 -1.01132,1.600491 l 2.53027,0.59182 0.86656,-2.038297 c 0,0 2.674673,0.51935 2.674673,0.51935 0,0 0.57732,-2.330846 0.57732,-2.330846 l 0.57859,0.808751"
       id="path84" /><path
       onclick="pokaz(this)"
       d="m 86.136217,25.589637 1.60065,-1.558528 c 0,0 -0.80658,-0.917496 -0.80658,-0.917496 l -1.01344,-0.249525 -2.16799,-0.855081 c 0,0 -1.3729,1.453489 -1.3729,1.453489 l -0.36208,-1.240579 0.82246,-1.23907 -0.70086,-1.592686 -1.21994,0.983827 -0.90659,0.562927 -0.23636,1.058625 -0.72237,1.236927 3.3999,4.385998 1.08444,0.07692 -0.43439,-1.313762 0.65058,-0.143658 1.1569,0.441378 2.24107,0.0113 c 0,0 -1.01261,-1.100905 -1.01261,-1.100905"
       id="path86" /><path
       onclick="pokaz(this)"
       d="m 56.576967,44.372408 -0.43344,0.654764 -1.44587,0.359648 -0.43455,-1.240816 c 0,0 -1.22931,-0.222806 -1.22931,-0.222806 0,0 -0.72379,-1.241769 -0.72379,-1.241769 l 1.01176,-0.871484 -0.14533,-1.239891 -1.30183,-0.514667 -0.07484,-4.301861 c 0,0 1.44502,-1.963711 1.44502,-1.963711 0,0 -1.01327,-1.607396 -1.01327,-1.607396 l -3.470807,-0.08429 1.66243,-1.233805 -1.44735,-1.900714 c 0,0 1.589458,-2.327804 1.589458,-2.327804 l 0.867622,-0.21585 3.904457,-0.570071 2.02398,-1.159669 c 0,0 9.10908,-2.521056 9.10908,-2.521056 l 0.4355,3.136636 c 0,0 1.15785,1.899576 1.15785,1.899576 l 1.22936,0.441642 -0.36039,2.113095 -1.08358,1.746091 -2.09611,1.159431 -1.2292,-0.149865 c 0,0 -0.43349,0.581739 -0.43349,0.581739 l 0.29043,2.261103 0.50689,1.459785 c 0,0 -0.65066,0.07042 -0.65066,0.07042 l 0.001,1.676744 c 0,0 -0.36087,1.165252 -0.36087,1.165252 l -0.93964,0.507259 -2.24192,-1.028144 c 0,0 -0.14379,1.45751 -0.14379,1.45751 l -1.37348,0.505751 c 0,0 -1.95099,2.107724 -1.95099,2.107724 0,0 0.57923,1.387157 0.57923,1.387157 l -1.22939,-0.295725"
       id="path88" /><path
       onclick="pokaz(this)"
       d="m 81.593317,49.997453 -1.0846,-0.58669 c 0,0 0.43312,-1.23783 0.43312,-1.23783 0,0 -0.65183,-2.48057 -0.65183,-2.48057 0,0 -3.18188,-1.905902 -3.18188,-1.905902 l -0.28826,1.821582 -2.60398,-2.778923 -2.89216,-0.446961 -1.80718,0.431377 -0.21616,1.384326 -1.51863,-0.73406 -1.44568,0.505566 c 0,0 -0.362,-0.948955 -0.362,-0.948955 l 1.37313,-1.016053 -2.02454,-0.29837 0.5053,-1.45632 c 0,0 -1.73532,-0.224525 -1.73532,-0.224525 l -0.28935,-0.29255 c 0,0 0.0723,-1.03e-4 0.0723,-1.03e-4 l 0.36086,-1.165252 -0.001,-1.67677 c 0,0 0.65067,-0.07042 0.65067,-0.07042 0,0 -0.50689,-1.459759 -0.50689,-1.459759 l -0.29044,-2.261103 0.4335,-0.581739 c 0,0 1.2292,0.149841 1.2292,0.149841 l 2.09611,-1.15943 1.08357,-1.746065 0.28824,-1.821683 0.86754,-0.142909 1.22934,0.441642 -0.43218,3.133461 1.80811,1.24542 3.68644,-1.445657 1.22846,-1.162262 c 0,0 1.30249,2.410143 1.30249,2.410143 l 5.42343,3.2258 1.73501,0.01132 2.09669,0.663099 c 0,0 -0.36073,1.529794 -0.36073,1.529794 l 0.50628,0.584861 1.30085,-0.724746 5.3e-4,1.020656 1.51818,0.369544 1.59072,1.025816 -1.01025,3.860006 -2.7477,-1.61282 -1.30059,1.234995 c 0,0 0.0732,2.041178 0.0732,2.041178 l -3.03636,-0.374435 0.57915,1.824195 -2.3849,1.23132 c 0,0 -1.30037,1.66632 -1.30037,1.66632"
       id="path90" /><path
       onclick="pokaz(this)"
       d="m 53.034197,43.925262 c 0,0 -0.7238,-1.241769 -0.7238,-1.241769 l 1.01177,-0.871485 -0.14533,-1.23989 -1.301833,-0.514668 -0.07484,-4.30186 c 0,0 1.445023,-1.963711 1.445023,-1.963711 0,0 -1.01327,-1.607397 -1.01327,-1.607397 l -3.47081,-0.08429 1.66243,-1.233805 -1.44735,-1.900714 c 0,0 1.661742,-2.400512 1.661742,-2.400512 0,0 -3.759729,0.862277 -3.759729,0.862277 l -9.326563,3.249613 -6.651624,2.675466 0.289798,0.802984 2.386806,0.37256 c 0,0 0.507841,2.480813 0.507841,2.480813 0,0 1.157182,0.149645 1.157182,0.149645 l 2.316506,3.726127 -1.590093,1.307201 c 0,0 1.447324,1.608825 1.447324,1.608825 0,0 -0.794941,0.799333 -0.794941,0.799333 l 0.581237,4.230418 1.735878,0.58899 c 0,0 -0.07148,1.31207 -0.07148,1.31207 l 1.808163,0.58915 3.256227,3.51023 1.879335,-1.08739 1.879891,-0.13965 0.505301,-1.3834 1.08421,-0.65254 0.288528,-1.16547 -1.519026,-0.95284 3.107267,-3.12447 1.22962,0.73311 2.38517,-1.52315 c 0,0 -0.50694,-1.386816 -0.50694,-1.386816 0,0 -1.22931,-0.223173 -1.22931,-0.223173"
       id="path92" /><path
       onclick="pokaz(this)"
       d="m 25.55854,49.447113 1.663144,-0.28609 c 0,0 0.868469,0.95062 0.868469,0.95062 0,0 1.301565,-0.21444 1.301565,-0.21444 0,0 0.505671,-0.80029 0.505671,-0.80029 l 1.808216,0.44339 c 0,0 2.315686,2.41361 2.315686,2.41361 l 4.988983,-1.15006 -0.144674,-0.0737 c 0,0 0.07148,-1.31204 0.07148,-1.31204 l -1.735878,-0.58902 -0.581237,-4.230423 c 0,0 0.794941,-0.799333 0.794941,-0.799333 l -1.447319,-1.608805 1.590093,-1.307201 -2.316533,-3.726127 c 0,0 -1.157182,-0.149756 -1.157182,-0.149756 0,0 -0.507841,-2.48084 -0.507841,-2.48084 l -2.386806,-0.372533 -0.289798,-0.80301 -3.687763,0.789675 -2.675202,0.938953 -9.110133,4.125648 c 0,0 -2.09595,2.18059 -2.09595,2.18059 l -2.747698,1.157579 0.290195,1.240499 1.591178,-0.06729 -0.07099,1.822634 5.28029,0.52795 0.363484,2.62604 0.579173,0.80388 c 0,0 1.011105,-2.03811 1.011105,-2.03811 l 0.504058,-3.133456 2.312326,-2.908829 c 0,0 0.432726,-1.748525 0.432726,-1.748525 L 23.164,37.336027 25.47757,36.17702 25.910772,35.084793 27.14,34.724272 l 0.217903,1.386232 -1.229148,0.506253 c 0,0 -0.215276,2.478405 -0.215276,2.478405 0,0 -1.951223,2.180908 -1.951223,2.180908 l -2.962804,3.344068 -1.009782,3.934085 -0.142552,2.98873 2.965185,0.0105 c 0,0 1.878621,-2.4728 1.878621,-2.4728 l 0.868098,0.3665"
       id="path94" /><path
       onclick="pokaz(this)"
       d="m 11.523188,43.202949 -1.156732,0.725329 -1.3734524,1.08921 c 0,0 0.362188,0.730405 0.362188,0.730405 l 1.5915484,0.44273 0.145188,0.72967 -1.4461334,0.57846 -0.50501,1.74834 c 0,0 -0.578565,0.0704 -0.578565,0.0704 l -4.776523,-3.66157 c 0,0 0.143055,-2.114122 0.143055,-2.114122 0,0 -0.868706,-0.950886 -0.868706,-0.950886 l 1.445948,-0.943054 1.953207,0.298106 3.399896,0.521838 1.8806584,0.15204 -0.216551,0.583194"
       id="path96" /><path
       onclick="pokaz(this)"
       d="m 8.7831626,54.495363 -0.506915,-0.87656 c 0,0 -1.229572,0.002 -1.229572,0.002 0,0 0.363485,2.48018 0.363485,2.48018 l -0.939879,0.50723 c 0,0 0.43725,4.37594 0.43725,4.37594 l 1.23018,0.8789 c 0,0 -0.43008,5.17498 -0.43008,5.17498 l 4.2066104,16.19753 c 0,0 1.230577,1.60758 1.230577,1.60758 l 0.940171,0.0755 1.804141,-5.24272 3.036093,-1.81276 -4.557448,-2.20147 0.216181,-1.09273 -1.375172,-1.53535 0.867384,-0.65334 -0.508212,-2.69901 3.615796,-0.13414 1.445762,-0.87008 c 0,0 -1.230418,-1.38922 -1.230418,-1.38922 l 2.819929,-0.64696 c 0,0 -1.520322,-2.33776 -1.520322,-2.33776 l -1.811338,-4.67201 -2.894277,-1.83203 -2.67626,-0.44627 -2.5335714,-2.85618"
       id="path98" /><path
       onclick="pokaz(this)"
       d="m 44.292363,55.487553 0.723291,0.36677 0.869421,2.84612 1.157129,0.36819 c 0,0 1.158319,2.4094 1.158319,2.4094 0,0 -1.735455,-0.22424 -1.735455,-0.22424 l -1.66235,1.08794 -1.302147,-1.02476 c 0,0 0.1461,2.40607 0.1461,2.40607 0,0 -1.590887,-0.22383 -1.590887,-0.22383 0,0 -0.721598,2.33039 -0.721598,2.33039 l 1.880288,0.51631 c 0,0 1.157737,1.38877 1.157737,1.38877 l -1.156282,0.94393 c 0,0 1.157605,1.17004 1.157605,1.17004 l -2.530528,0.21051 0.145384,1.23968 -1.445922,0.28686 -1.157234,-0.5139 -1.228672,0.87072 -0.940277,-0.4403 c 0,0 -0.866986,1.09051 -0.866986,1.09051 l -1.518894,-0.66093 -3.325548,1.08281 -0.795734,-0.51279 -0.650505,0.43521 0.361897,0.5115 c 0,0 -1.229148,0.2147 -1.229148,0.2147 l -2.819664,0.57409 c 0,0 -0.07172,0.87453 -0.07172,0.87453 0,0 -0.07225,0.0726 -0.07225,0.0726 0,0 0.723714,0.87706 0.723714,0.87706 0,0 -0.723767,-0.94996 -0.723767,-0.94996 l -2.169293,0.1389 1.517624,-1.38023 -1.952519,-0.0786 c 0,0 0.215344,-2.33193 0.215344,-2.33193 l -0.795708,-0.36714 0.360019,-2.25869 -1.012825,-0.58645 0.360786,-1.16525 -0.795708,-0.29416 -0.795073,0.58062 -0.434181,-0.36591 -0.29009,-1.16732 c 0,0 -1.086061,-1.82613 -1.086061,-1.82613 l -0.291439,-3.06281 c 0,0 1.300771,-1.45381 1.300771,-1.45381 l -2.965979,-1.10331 -0.580072,-2.11625 0.648414,-3.49752 2.241788,-0.28432 0.360945,-0.94652 2.748227,0.0106 c 0,0 1.878621,-2.4728 1.878621,-2.4728 l 0.868098,0.36748 1.663144,-0.2862 c 0,0 0.868468,0.95073 0.868468,0.95073 0,0 1.301565,-0.21442 1.301565,-0.21442 0,0 0.505672,-0.80042 0.505672,-0.80042 l 1.808215,0.44352 c 0,0 2.315686,2.41348 2.315686,2.41348 0,0 4.988984,-1.15007 4.988984,-1.15007 l -0.144672,-0.0737 1.808163,0.58918 3.256227,3.50996 0.144571,-0.0726 0.217368,0.72824"
       id="path100" /><path
       onclick="pokaz(this)"
       d="m 42.053988,63.499133 c 0,0 1.590886,0.22384 1.590886,0.22384 0,0 -0.1461,-2.40607 -0.1461,-2.40607 l 1.302147,1.02476 1.662351,-1.08794 c 0,0 1.735455,0.22424 1.735455,0.22424 0,0 -1.15832,-2.4094 -1.15832,-2.4094 l -1.157128,-0.36819 -0.869421,-2.84613 -0.723292,-0.36676 -0.217371,-0.72972 1.734767,-1.015 1.879891,-0.13965 0.505301,-1.3834 1.08421,-0.65254 0.288528,-1.16547 -1.518999,-0.95284 3.107266,-3.12447 1.229628,0.73311 2.38516,-1.52315 -0.0724,-0.14599 1.22902,-0.287523 1.37522,2.556143 0.36367,3.792 8.53546,7.5364 c 0,0 0.57915,1.45978 0.57915,1.45978 0,0 -1.08435,0.14227 -1.08435,0.14227 l 0.14605,2.69743 -2.38493,1.45008 -0.57719,2.11203 c 0,0 0.72398,1.89741 0.72398,1.89741 0,0 -0.43312,1.16485 -0.43312,1.16485 0,0 -0.0723,-0.0737 -0.0723,-0.0737 l -1.58999,0.86953 -1.22899,0.002 c 0,0 -0.50684,-1.38649 -0.50684,-1.38649 l -1.30138,-0.0766 -3.32448,2.17601 c 0,0 -4.41299,-4.82521 -4.41299,-4.82521 0,0 -3.613679,2.1752 -3.613679,2.1752 l -2.025492,-1.6102 -1.878965,1.52468 1.156283,-0.9439 c 0,0 -1.157738,-1.38877 -1.157738,-1.38877 l -1.880288,-0.51631 c 0,0 0.721599,-2.33518 0.721599,-2.33518"
       id="path102" /><path
       onclick="pokaz(this)"
       d="m 108.70253,53.802153 3.03424,-2.90538 -0.2172,-1.02108 c 0,0 -1.15641,-0.14953 -1.15641,-0.14953 l -0.21718,-0.94822 -1.30141,-1.24346 0.21604,-2.04007 2.67387,-0.428466 1.58999,4.2e-5 0.14382,-1.967468 c 0,0 -3.18056,-1.468411 -3.18056,-1.468411 0,0 -1.01237,-1.388242 -1.01237,-1.388242 0,0 -0.14512,-1.458304 -0.14512,-1.458304 l -1.59062,-1.390333 -1.30111,-0.29591 0.28948,0.948664 c 0,0 -2.02388,-0.22547 -2.02388,-0.22547 l 0.21722,0.948319 -2.38456,1.595676 0.94099,3.35624 -1.44534,0.578246 c 0,0 -0.50644,-1.167923 -0.50644,-1.167923 l -1.951413,0.357928 -0.79533,-0.585761 c 0,0 -0.86678,1.382077 -0.86678,1.382077 l -1.87936,-0.07885 -0.8677,-0.731864 -2.38538,-0.08103 -0.57843,-0.366368 -0.28871,0.946653 -2.7477,-1.612795 -1.30059,1.234864 0.0732,2.041316 -3.03636,-0.374574 0.57917,1.824304 -2.09587,1.01357 0.58052,4.66698 1.01243,0.87813 -0.72136,3.13187 1.73641,3.35836 c 0,0 -0.72215,1.45542 -0.72215,1.45542 l 1.59083,1.31707 0.36229,1.89619 2.45806,1.10124 0.72266,-0.28913 c 0,0 0.86836,2.26216 0.86836,2.26216 l 1.22886,0.29551 c 0,0 0.36237,2.18758 0.36237,2.18758 l 2.31333,1.10058 3.54092,-1.00893 2.746383,-0.2826 c 0,0 0.79433,-1.60071 0.79433,-1.60071 l 1.30077,-0.28731 c 0,0 -0.57891,-1.82385 -0.57891,-1.82385 l 1.80475,-5.09587 2.38461,-0.9397 c 0,0 1.01219,1.02373 1.01219,1.02373 0,0 1.01121,-1.52726 1.01121,-1.52726 0,0 0.86723,-0.001 0.86723,-0.001 l -1.15867,-6.11637"
       id="path104" /><path
       onclick="pokaz(this)"
       d="m 74.917887,86.343263 0.23953,-0.9833 2.42501,-2.95116 c 0,0 -1.22418,-1.22807 -1.22418,-1.22807 0,0 -1.94915,0.24714 -1.94915,0.24714 l -0.74356,-2.82602 1.57239,-2.82786 2.07957,1.71915 13.02623,-3.57267 2.42187,-3.68855 0.75583,5.77559 c 0,0 3.29935,2.08687 3.29935,2.08687 l 3.17421,1.34956 c 0,0 2.447713,2.45597 2.447713,2.45597 l -3.034243,2.95116 -0.10937,2.94931 -1.09522,0.36941 -1.10149,-1.10511 -1.82541,0.61571 c 0,0 -0.84421,2.08958 -0.84421,2.08958 l -4.62359,1.7237 -0.60044,2.08937 0.12187,-8e-5 -1.94416,1.3531 0.98129,1.47378 c 0,0 -1.2119,1.5983 -1.2119,1.5983 l -0.35931,1.47479 -2.80722,-0.98087 -4.86172,3.075517 -5.6187,-2.821777 0.001,0.24577 c 0,0 0.96444,-2.45835 0.96444,-2.45835 l -1.22362,-1.10501 0.35927,-1.47489 2.16369,-7.00617 -0.85588,-0.61383 m 21.84956,7.8486 0.97335,-0.36936 -0.97335,0.36936"
       id="path106" /><path
       onclick="pokaz(this)"
       d="m 76.820237,45.608013 -2.60398,-2.77892 -2.89216,-0.44696 -1.80718,0.431376 -0.21616,1.384327 -1.51863,-0.73406 -1.44568,0.505565 c 0,0 -0.362,-0.948954 -0.362,-0.948954 l 1.37313,-1.016053 -2.02454,-0.298371 0.5053,-1.456319 c 0,0 -1.73532,-0.224526 -1.73532,-0.224526 l -0.28935,-0.292549 -0.86733,0.50747 -2.24192,-1.028144 c 0,0 -0.14379,1.45751 -0.14379,1.45751 l -1.37346,0.505751 c 0,0 -1.95101,2.107724 -1.95101,2.107724 0,0 0.57923,1.387158 0.57923,1.387158 l -1.22934,-0.295725 -0.43344,0.654764 -0.21686,0.07265 c 0,0 1.37522,2.556116 1.37522,2.556116 0,0 0.36367,3.79201 0.36367,3.79201 l 8.53546,7.53639 c 0,0 0.57914,1.45978 0.57914,1.45978 0,0 -0.50673,-1.24079 -0.50673,-1.24079 l 1.22844,-1.08944 3.83249,1.90777 c 0,0 0.64979,-1.60149 0.64979,-1.60149 l 3.90445,1.32471 c 0,0 1.08308,-2.54756 1.08308,-2.54756 0,0 3.18108,0.81211 3.18108,0.81211 l 1.87897,-1.01431 2.02387,-0.2849 c 0,0 7e-5,0.0725 7e-5,0.0725 l 0.72136,-3.13187 -1.01243,-0.87799 -0.58052,-4.66725 -0.28906,0.21774 -1.30037,1.67219 -1.08464,-0.58669 c 0,0 0.43313,-1.23782 0.43313,-1.23782 l -0.65183,-2.48058 -3.18188,-1.905899 -0.28829,1.821449"
       id="path108" /><path
       onclick="pokaz(this)"
       d="m 66.266007,59.186433 c 0,0 1.21372,-1.22992 1.21372,-1.22992 l 3.90949,1.96427 0.60259,-1.59827 3.90604,1.22674 1.08648,-2.45896 3.17262,0.73557 1.8242,-0.98441 c 0,0 2.07113,-0.24707 2.07113,-0.24707 l 5.3e-4,0.12291 1.84256,3.31735 c 0,0 -0.72501,1.47534 -0.72501,1.47534 l 1.5898,1.22809 0.37407,1.96623 2.44242,1.10458 0.72972,-0.36917 c 0,0 0.86312,2.33457 0.86312,2.33457 0,0 1.21984,0.24501 1.21984,0.24501 l 0.37505,2.21191 -2.29997,3.68829 -13.02676,3.44991 -2.20094,-1.59618 -1.45103,2.70483 0.62167,2.82628 c 0,0 1.94918,-0.24713 1.94918,-0.24713 0,0 1.22418,1.22806 1.22418,1.22806 l -2.42502,2.95117 -0.23899,1.10619 -0.24431,-0.12271 -3.89096,2.21483 c 0,0 -0.007,-1.59758 -0.007,-1.59758 l -2.43571,0.49332 -2.82919,-5.89704 -4.86965,1.4782 -2.45261,-3.31655 0.24381,-1.6e-4 c 0,0 0.34206,-5.40809 0.34206,-5.40809 l 2.43438,-0.86198 -0.24865,-1.10604 2.5536,-1.47659 -0.36999,-0.98303 0.48225,-1.22944 c 0,0 -0.73895,-1.72029 -0.73895,-1.72029 l 0.60042,-2.08995 2.4317,-1.4765 -0.13367,-2.70404 c 0,0 1.09662,-0.1236 1.09662,-0.1236 l -0.6149,-1.22881 m 26.49803,11.04477"
       id="path110" /><path
       onclick="pokaz(this)"
       d="m 26.225026,75.191073 0.117541,-0.98346 2.801673,-0.6165 c 0,0 1.218247,-0.24665 1.218247,-0.24665 0,0 -0.368009,-0.49144 -0.368009,-0.49144 l 0.729403,-0.49217 0.733796,0.4912 3.287183,-1.1085 1.466453,0.73657 c 0,0 0.848016,-1.22978 0.848016,-1.22978 l 0.978165,0.61396 1.214914,-0.98414 1.222004,0.61378 1.462008,-0.24679 -0.249301,-1.22904 2.559315,-0.24751 c 0,0 -1.224677,-1.22841 -1.224677,-1.22841 l 1.944264,-1.47632 1.957837,1.59671 3.64834,-2.09199 4.410079,4.79081 3.28136,-2.33751 1.34101,-0.002 0.49409,1.47463 c 0,0 1.21906,-0.002 1.21906,-0.002 l 1.70294,-0.86148 0.36999,0.98303 -2.55304,1.59952 c 0,0 0.37055,1.10595 0.37055,1.10595 l -2.43491,0.73909 c 0,0 -0.46395,5.40809 -0.46395,5.40809 l -2.4349,0.73914 -1.57941,1.23015 0.38677,4.79293 -1.4618,0.24685 c 0,0 -6.711151,-1.34715 -6.711151,-1.34715 0,0 -1.452113,2.45914 -1.452113,2.45914 0,0 1.225127,1.35104 1.225127,1.35104 l 2.438241,-10e-4 c 0,0 0.617141,1.72014 0.617141,1.72014 l -1.214755,0.98409 -2.420276,4.05739 -2.434961,0.73922 -0.138258,-3.68697 -1.830361,-0.36735 c 0,0 0.603039,-1.47529 0.603039,-1.47529 l -2.316428,0.001 -3.177645,-1.71837 c 0,0 1.209913,-2.09026 1.209913,-2.09026 l -2.207234,-2.82522 -6.210035,1.84812 c 0,0 -0.12963,-1.72069 -0.12963,-1.72069 l 0.845793,-1.72141 c 0,0 -0.615156,-1.22872 -0.615156,-1.22872 l -1.708705,-0.36756 -0.249397,-1.22902 -0.733266,-0.36825 0.365231,-0.12318 -2.446999,-1.84214 2.431547,-1.59964 c 0,0 -0.734933,-0.73705 -0.734933,-0.73705"
       id="path112" /><path
       onclick="pokaz(this)"
       d="m 17.183684,69.542223 -3.615796,0.13414 0.508185,2.69902 -0.867383,0.65333 c 0,0 1.375198,1.53535 1.375198,1.53535 l -0.21618,1.09273 c 0,0 4.557448,2.20147 4.557448,2.20147 l -2.096241,1.30553 c 0,0 1.664546,1.82769 1.664546,1.82769 l 2.16752,-2.76331 3.109648,0.30149 1.591918,1.53588 1.662721,-0.65077 -2.315183,-1.75678 2.240597,-1.59657 c 0,0 -0.723767,-0.94996 -0.723767,-0.94996 l -2.169293,0.13889 1.517624,-1.38022 -1.952519,-0.0786 c 0,0 0.215344,-2.33193 0.215344,-2.33193 l -0.795708,-0.36703 0.360019,-2.25882 -1.012825,-0.58648 0.360786,-1.16525 -0.795708,-0.29417 -0.795073,0.58063 -0.868336,-0.73176 c 0,0 -0.07237,-0.0737 -0.07237,-0.0737 0,0 4.5e-5,0.0725 4.5e-5,0.0725 l -2.819929,0.64709 c 0,0 1.230418,1.38909 1.230418,1.38909 l -1.445789,0.87032"
       id="path114" /><path
       onclick="pokaz(this)"
       d="m 0.66611662,112.82276 -0.37375,-1.72035 2.18659598,-1.84534 -1.73034898,-5.03793 7.66021698,-4.922307 c 0,0 2.6524484,-6.63945 2.4069944,-7.00801 -0.0012,-0.36873 -1.2306304,-2.45743 -1.2306304,-2.45743 0,0 0.6030124,-1.47547 0.6030124,-1.47547 l 1.461108,-0.49274 1.204939,-3.19669 0.121941,-8e-5 c 0,0 0.976683,0.24514 0.976683,0.24514 l 1.805199,-5.28691 3.040327,-1.84594 -2.189453,1.23076 c 0,0 1.71614,1.96556 1.71614,1.96556 l 2.182178,-2.82866 3.050116,0.36669 1.836235,1.59671 1.217163,-0.4925 0.855186,0.36817 0.249394,1.22902 1.708705,0.36755 c 0,0 0.615156,1.22873 0.615156,1.22873 0,0 -0.846375,1.59848 -0.846375,1.59848 l 0.0067,1.22912 -1.824011,1.10752 -3.303323,-2.45594 -0.601372,1.84417 c 0,0 0.497708,2.2121 0.497708,2.2121 0,0 -1.70598,0.24707 -1.70598,0.24707 l 0.134673,2.8268 2.081159,1.84211 -0.591396,4.05633 1.708652,0.36743 -0.356367,2.08962 -0.366342,-0.1226 -1.821762,1.599107 2.460678,4.91411 -3.645165,2.82945 -0.227219,3.68697 -2.420223,4.05739 -3.643841,3.07525 -2.182443,2.70536 c 0,0 -0.731572,0.001 -0.731572,0.001 l -1.723258,-3.56235 -6.8537674,-5.52476 -3.41735798,-0.61169 M 17.57707,77.164883 l 1.222242,0.61381 -1.222242,-0.61381"
       id="path116" /><path
       onclick="pokaz(this)"
       d="m 25.115098,99.530093 2.931848,1.226767 -0.252682,-1.966227 0.970994,-0.98395 2.562622,0.48966 -0.352584,2.949837 2.81358,2.08709 0.84574,-1.72123 1.83097,0.49017 0.603567,-1.35231 -0.983562,-1.842717 2.434511,-0.86214 0.0043,0.98319 0.976418,0.24505 0.977503,0.4908 0.479478,-1.8438 2.431733,-1.47661 -0.260541,-3.68975 -1.829985,-0.36425 0.603038,-1.47529 -2.316803,-0.002 -3.051595,-1.69182 1.083863,-2.1168 -2.085261,-2.8253 -6.332008,1.84819 -7.94e-4,-0.48828 -1.945849,1.23065 -3.303323,-2.45594 -0.479451,1.84409 0.375761,2.21219 -1.705954,0.24706 0.134676,2.82681 2.081159,1.84208 -0.591396,4.05633 1.708652,0.36742 -0.358034,1.72091"
       id="path118" /><path
       onclick="pokaz(this)"
       d="m 43.154575,98.408213 1.954927,0.98166 0.0054,1.228927 1.157182,0.73239 0.566896,3.19884 1.315834,2.04422 -0.432779,1.60192 -9.323123,4.41669 -1.591734,-1.89952 -1.951355,1.08707 -2.965979,-2.55974 -1.156123,1.08963 1.229889,1.16978 -1.807077,0.65032 -0.794491,1.23656 0.0016,2.47766 -2.023904,0.79552 -0.430503,4.88104 -1.300374,1.52646 -1.010735,2.18299 -2.024486,-0.0793 -1.302623,-1.67992 -2.023771,1.01407 0.0016,2.47769 -5.932223,-4.53602 2.167202,-2.76278 3.685381,-3.04959 2.455386,-4.29233 0.214437,-3.57029 3.685646,-2.75828 -2.534126,-4.96385 1.73429,-1.597967 3.399367,1.322377 -0.362876,-1.968967 1.083945,-0.94412 2.530951,0.44522 -0.359595,2.914117 2.821252,2.12233 0.794226,-1.6737 1.807792,0.44286 0.64987,-1.30982 -1.013381,-1.825207 2.385351,-0.86714 0.07291,0.94774 1.012323,0.22178 1.012507,0.51329 0.432594,-1.89355 2.529496,-1.52262 -0.367017,2.03161"
       id="path120" /><path
       onclick="pokaz(this)"
       d="m 58.188277,79.593743 2.45261,3.31655 4.86966,-1.4782 2.82919,5.89703 2.4357,-0.49331 0.007,1.59758 3.89096,-2.21483 1.22153,0.61357 -2.16368,7.00617 -0.35928,1.47489 -0.73504,-0.85963 -3.77851,0.003 0.005,1.22886 -1.45788,1.10707 0.004,0.86018 -1.94919,0.24725 0.98047,1.22809 -2.06571,1.476187 0.85857,1.22817 -2.06946,0.616 -0.85646,-0.73662 -2.0679,0.98467 -2.80617,-0.61225 -0.61487,-1.22838 -6.937108,2.58601 -0.480563,1.59793 -2.562172,-0.48953 -0.0011,-0.24579 -0.500671,-2.94905 -1.222348,-0.73639 -0.0054,-1.228927 -1.954927,-0.98166 0.355944,-2.21239 v 0 l 2.328773,-0.8631 2.283235,-3.68844 1.214755,-0.98409 -0.617141,-1.72014 -2.438241,10e-4 -1.225127,-1.35104 1.573422,-2.70342 6.711149,1.34715 1.35561,-0.42384 -0.40189,-4.37166 c 0.12029,-0.36878 1.70125,-1.35167 1.70125,-1.35167 l 2.19217,-0.49313"
       id="path122" />
</svg>
