<?xml version="1.0" encoding="UTF-8" standalone="no"?>
<svg
   viewBox="0 0 102.6147 101.17027"
   version="1.1"
   id="svg1"
   xmlns="http://www.w3.org/2000/svg">
   <style>path {fill:#e0e0e0;fill-opacity:1;stroke:#ffffff;stroke-width:0.529167}</style>
<path
       onclick="pokaz(this)"
       d="m 80.315243,43.307572 2.9128,-2.089574 0.23514,-2.209429 -2.80353,-1.224333 c 0,0 0.96899,-1.228381 0.96899,-1.228381 l 2.19051,-0.0031 0.72834,-0.491728 3.40863,0.364596 1.6982,-1.474602 3.04218,-0.0043 0.85498,0.858203 2.79426,-1.23026 -0.006,-1.59549 2.43367,-0.0034 1.226737,2.69875 0.003,0.859102 c 0,0 0.61288,1.226582 0.61288,1.226582 l -0.972077,0.369226 -1.21814,-0.366871 0.24652,0.858811 c 0,0 0.98245,2.453428 0.98245,2.453428 0,0 -0.4822,1.22772 -0.4822,1.22772 0,0 2.437127,0.979143 2.438027,1.224544 0.2447,0.367903 0.73906,2.453587 0.73951,2.576275 7.9e-4,0.245422 -3.399097,2.089943 -3.399097,2.089943 l -3.41366,-1.837002 -3.16045,0.862515 c 0,0 -0.60341,1.350592 -0.60341,1.350592 l -0.48217,1.22772 -3.89811,-1.100137 -0.01,-2.699809 -2.80511,-1.715082 -1.5774,1.22899 -1.46076,-0.121124 0.4831,-0.982345 -1.70783,-1.102704"
       id="path616" /><path
       onclick="pokaz(this)"
       d="m 57.947373,18.108655 -0.64971,-0.657119 -2.59877,0.283713 -3.60944,1.44571 -1.5884,-4.154488 -1.2273,-0.07614 -1.51604,0.796528 -0.21668,-1.966437 -1.29948,0.50599 c 0,0 -0.50541,-0.656829 -0.50541,-0.656829 0,0 -1.22732,0.214935 -1.22732,0.214935 l 2.7e-4,-1.165014 -1.44394,0.06895 -0.5053,1.017905 -1.44404,-1.023515 -0.36116,-2.039699 1.08286,-1.8170516 c 0,0 -3.03239,-0.736971 -3.03239,-0.736971 l 0.43288,-3.857889 c 0,0 6.93103,-0.7077079 6.93103,-0.7077079 l 2.38236,-3.12393537 1.22743,1.89682437 c 0,0 1.08302,1.8233759 1.08302,1.8233759 0,0 6.20871,-0.2001889 6.20871,-0.2001889 0,0 0.72194,1.6039839 0.72194,1.6039839 l 3.97034,1.75887 c 0,0 0.50533,1.748843 0.50533,1.748843 l 2.23779,0.297762 1.15499,-0.870294 1.51587,1.09646 0.43313,-0.217096 c 0,0 0.0722,0.8009726 0.0722,0.8009726 l -1.73246,2.834217 0.36089,1.457087 c 0,0 -1.29929,0.0019 -1.29929,0.0019 0,0 0.36089,2.185035 0.36089,2.185035 l -1.51587,0.06778 -1.73244,1.451055 c 0,0 -3.17659,-0.08696 -3.17659,-0.08696"
       id="path618" /><path
       onclick="pokaz(this)"
       d="m 51.594723,25.588426 c 0,0 -1.08289,-1.458965 -1.08289,-1.458965 l -1.22719,0.797242 -1.44388,-1.168955 -2.45446,1.157816 -2.95989,0.209992 -1.01066,0.725091 -0.93856,-0.439526 -2.45464,0.21146 -0.28885,-0.801608 -1.01068,0.797904 -1.15525,-1.022588 -2.09367,0.794861 c 0,0 -0.5053,0.726546 -0.5053,0.726546 l -1.37184,-0.367877 c 0,0 1.01057,-2.035677 1.01057,-2.035677 l -1.87724,-0.369359 -0.5778,-1.530641 -0.28882,-0.07336 c 0,0 0.79407,-1.453806 0.79407,-1.453806 l 3.24908,-0.64598 2.7e-4,-1.164855 1.37176,-0.505724 -2.1662,-1.608032 0.36068,-3.420798 3.03239,-1.156203 3.68221,1.10289 c 0,0 0.0721,-0.07251 0.0721,-0.07251 l 1.29964,0.950251 0.5053,-1.017799 1.44393,-0.06892 -2.6e-4,1.164855 c 0,0 1.22732,-0.214821 1.22732,-0.214821 l 0.50541,0.656696 1.29947,-0.505857 0.21669,1.966331 1.51604,-0.796423 1.22729,0.07612 1.5884,4.154223 3.60945,-1.445578 2.59876,-0.283712 c 0,0 0.43313,0.510883 0.43313,0.510883 l -0.28872,1.309556 c 0,0 -1.0106,1.307412 -1.0106,1.307412 l 1.22719,0.513159 c 0,0 0.57753,2.331217 0.57753,2.331217 0,0 0.43313,0.656432 0.43313,0.656432 l -1.66026,1.596786 -1.29937,-0.950039 -0.28872,1.163929 -1.80469,-0.514721 -2.02123,0.212704"
       id="path620" /><path
       onclick="pokaz(this)"
       d="m 25.819013,21.270426 0.37783,3.191669 -0.72618,1.105694 0.25173,2.086848 1.59436,2.944812 -2.29825,3.808148 c 0,0 -0.35653,2.210091 -0.35653,2.210091 0,0 -0.11207,2.455333 -0.11207,2.455333 0,0 -1.45129,2.456762 -1.45129,2.456762 l 3.04747,0.978747 0.48215,-1.22809 c 0,0 4.14787,2.205091 4.14787,2.205091 0,0 1.33242,-1.720004 1.33242,-1.720004 l 3.16574,0.119322 c 0,0 1.5749,-1.965748 1.5749,-1.965748 0,0 2.31394,0.243012 2.31394,0.243012 l -2.9292,-1.960907 1.45606,-1.229122 1.46275,0.489453 3.16521,-0.0045 0.35282,-3.191933 1.58014,-0.615421 c 0,0 -0.008,-2.086848 -0.008,-2.086848 l -2.31154,0.370681 0.7166,-3.560762 c 0,0 -1.2269,-2.453958 -1.2269,-2.453958 l -5.3e-4,-0.12278 -0.97581,-0.490061 c 0,0 -2.43385,0.248028 -2.43385,0.248028 l -0.24635,-0.736361 -1.09281,0.737737 -1.22126,-0.980916 -1.94506,0.738584 -0.60584,0.737235 -1.21891,-0.367056 c 0,0 0.84405,-2.087933 0.84405,-2.087933 l -1.82767,-0.366448 c 0,0 -0.61452,-1.472644 -0.61452,-1.472644 l -3.16944,-0.978985 -1.2156,0.49231 c 0,0 0.12175,-1.27e-4 0.12175,-1.27e-4"
       id="path622" /><path
       onclick="pokaz(this)"
       d="m 31.600163,60.25678 -0.50583,-4.368535 -2.09378,-1.679814 3.03186,-2.02983 -1.37202,-3.206485 -2.16591,-0.37002 0.28855,-1.964584 1.80478,-0.941255 0.21636,-2.110476 c 0,0 1.37152,-1.888834 1.37152,-1.888834 l 3.17659,0.227214 c 0,0 1.51587,-1.961251 1.51587,-1.961251 l 2.31019,0.152054 -0.50517,2.036895 c 0,0 2.0937,2.189638 2.0937,2.189638 l -0.5052,1.818323 -1.58816,0.286782 0.79417,0.730064 -1.80474,0.140582 c 0,0 -0.64964,1.162896 -0.64964,1.162896 l 1.58856,4.371711 -3.75364,3.410743 -1.08244,4.291542 -2.16575,-0.297074"
       id="path624" /><path
       onclick="pokaz(this)"
       d="m 44.665283,44.715155 -2.52685,-3.792273 -1.08283,0.433732 -1.58829,-1.096407 c 0,0 -0.36095,0.217405 -0.36095,0.217405 l -0.43302,1.673093 c 0,0 2.09371,2.189639 2.09371,2.189639 l -0.5052,1.818322 -1.58816,0.286782 0.79417,0.730065 -1.80475,0.140581 c 0,0 -0.64963,1.162897 -0.64963,1.162897 l 1.58856,4.37171 -3.75364,3.410744 -1.08244,4.291541 -2.16575,-0.297074 -3e-5,-0.07244 -2.8874,3.267605 0.36124,2.40284 4.11506,2.049092 1.94897,-0.868151 1.87696,0.878469 0.28866,-0.872701 1.15504,0.803724 c 0,0 0.36078,-1.818534 0.36078,-1.818534 l 0.28858,-1.818719 c 0,0 0.86612,-1.526064 0.86612,-1.526064 l -0.28893,-2.111533 2.81517,-1.011264 2.16556,0.296968 2.16538,-2.614216 0.57734,-2.400353 -0.21657,-0.218953 c 0,0 -1.22719,-1.313497 -1.22719,-1.313497 l -0.93837,0.0013 c 0,0 -0.50541,-1.529874 -0.50541,-1.529874 l 1.01055,-0.870638 -2.81543,-1.099661 2.59855,-2.831571 c 0,0 -1.15509,-1.459018 -1.15509,-1.459018 l 0.50528,-0.803302"
       id="path626" /><path
       onclick="pokaz(this)"
       d="m 45.964393,53.308822 -0.93837,0.0013 c 0,0 -0.50541,-1.529874 -0.50541,-1.529874 l 1.01055,-0.870638 -2.81543,-1.099661 2.59855,-2.831571 -1.15509,-1.459018 c 0,0 0.50525,-0.799386 0.50525,-0.799386 l -2.52685,-3.792008 -1.08284,0.433731 -4.90934,-3.216804 1.44378,-1.233514 1.51609,0.441034 3.39301,0.08231 2.67124,1.681798 1.29939,0.07595 1.37166,1.386787 2.23776,-0.28485 1.08284,1.531673 0.0721,0.436906 -0.9384,0.434076 0.72197,2.840831 3.32052,0.88265 c 0,0 0.0722,-1.03e-4 0.0722,-1.03e-4 l 5.3e-4,1.091882 c 0,0 -0.57743,1.235763 -0.57743,1.235763 0,0 0.0722,1.237483 0.0722,1.237483 l 1.44364,1.241346 0.28879,4.14946 -1.66007,1.596654 c 0,0 -0.57748,-1.384511 -0.57748,-1.384511 l -1.29921,0.869817 -3.10383,-0.0087 c 0,0 -1.80467,-1.824488 -1.80467,-1.824488 l -1.22764,-1.316407"
       id="path628" /><path
       onclick="pokaz(this)"
       d="m 54.626853,36.663884 -2.59866,0.647806 -0.64969,-0.584094 c 0,0 -0.93842,0.0013 -0.93842,0.0013 l -0.93832,2.181146 0.93843,0.293687 -0.3609,1.090877 c 0,0 1.08284,1.531699 1.08284,1.531699 l 0.0721,0.43688 -0.93839,0.434182 0.72197,2.840831 c 0,0 3.32052,0.88265 3.32052,0.88265 l 2.38196,-0.794041 1.58798,0.368432 0.93834,-0.725302 0.93835,0.439367 c 0,0 1.15485,-1.452536 1.15485,-1.452536 0,0 0.0722,-2.037794 0.0722,-2.037794 0,0 -0.57746,-0.729562 -0.57746,-0.729562 l 0.50525,-3.41974 -0.86616,-0.293555 -1.08271,0.652092 -0.79401,-0.948584 c 0,0 0.50525,-1.599936 0.50525,-1.599936 l -0.50528,-0.292576 -1.58803,-0.441193 -2.09333,0.430848 -0.28868,1.087358"
       id="path630" /><path
       onclick="pokaz(this)"
       d="m 65.165203,50.012113 c 0,0 -1.1548,0.142307 -1.1548,0.142307 l -0.21652,-1.383454 -1.51572,0.432488 2.1e-4,1.019043 c 0,0 -1.37136,-0.222213 -1.37136,-0.222213 l -0.36089,0.508503 1.80443,0.951124 c 0,0 -0.72176,0.798671 -0.72176,0.798671 0,0 -0.86611,1.744371 -0.86611,1.744371 0,0 1.15483,1.531567 1.15483,1.531567 l -1.01047,0.652225 -0.50523,1.818164 -0.86611,-0.293556 c 0,0 -3.89758,-2.048563 -3.89758,-2.048563 l -0.28882,-4.440502 -1.44364,-1.241345 c 0,0 -0.0722,-1.237483 -0.0722,-1.237483 l 0.57743,-1.235869 -5.3e-4,-1.09175 2.30979,-0.794226 1.58797,0.368326 0.93835,-0.725196 0.93834,0.439208 c 0,0 1.15486,-1.452509 1.15486,-1.452509 0,0 0.0722,-2.037795 0.0722,-2.037795 l -0.57745,-0.729456 0.50525,-3.419739 -0.86617,-0.293661 -1.0827,0.652092 c 0,0 -0.79401,-0.948479 -0.79401,-0.948479 l 0.50525,-1.527228 3.17605,-0.718872 0.79397,0.802904 -0.28872,1.163796 c 0,0 0.43307,1.020287 0.43307,1.020287 l -0.57745,3.273954 0.14436,0.800973 c 0,0 1.58792,-0.213815 1.58792,-0.213815 l 2.30966,0.152029 0.93829,-0.579728 2.38183,-1.376257 3.03133,0.299641 0.5052,0.802005 c 0,0 -0.72181,1.890421 -0.72181,1.890421 l 1.15474,-0.06998 0.5774,-0.580681 0.79389,0.07524 0.0722,0.873522 -0.86609,0.579861 -2.52619,4.287044 c 0,0 -1.3712,-2.114365 -1.3712,-2.114365 l -2.30952,-1.316593 c 0,0 -1.94874,0.212995 -1.94874,0.212995 l -0.28871,1.09093 -0.93814,3.709458"
       id="path632" /><path
       onclick="pokaz(this)"
       d="m 63.072353,36.03153 c 0,0 -0.3609,-0.365019 -0.3609,-0.365019 l 2.09323,-1.377077 0.14437,-1.237033 -1.22706,-0.513027 1.588,-2.980002 4.6916,-0.496226 0.50524,0.438177 1.08247,5.316802 3.39222,1.101301 c 0,0 0.86603,1.021477 0.86603,1.021477 l 2.6e-4,2.329074 -0.57743,0.871802 1.29905,0.731547 -0.72181,1.817502 -0.50522,0.362479 -2.3e-4,-0.363908 -0.79388,-0.07524 -0.5774,0.580681 -1.15475,0.06998 0.72181,-1.890395 -0.50517,-0.802032 -3.03133,-0.299614 -2.38183,1.376363 -0.93829,0.579596 -2.30965,-0.152009 c 0,0 -1.58793,0.213932 -1.58793,0.213932 l -0.14435,-0.801079 0.57745,-3.27369 -0.43307,-1.020286 0.2885,-1.164061"
       id="path634" /><path
       onclick="pokaz(this)"
       d="m 64.948243,33.052322 -0.14437,1.237033 -2.09322,1.377077 -0.43307,-0.437859 -3.17606,0.718873 -3e-5,-0.07244 -0.50528,-0.292576 -1.58803,-0.441193 -2.09333,0.430848 -0.28871,1.091035 -2.59866,0.647806 -0.64968,-0.584094 c 0,0 -0.93843,0.0013 -0.93843,0.0013 0,0 -0.93831,2.181146 -0.93831,2.181146 l 0.93842,0.293687 -0.36089,1.090877 -2.23777,0.284983 c 0,0 -1.37165,-1.386946 -1.37165,-1.386946 l -1.2994,-0.07595 -2.67123,-1.681771 -0.21656,2.65e-4 0.36073,-3.274748 1.51598,-0.578088 c 0,0 -0.0723,-2.038535 -0.0723,-2.038535 l -2.09354,0.430847 0.6495,-3.56526 -1.29966,-2.551748 1.08286,-0.724905 2.95989,-0.209878 2.45446,-1.157817 1.44389,1.168929 1.22719,-0.797242 1.08288,1.459018 c 0,0 2.02126,-0.21259 2.02126,-0.21259 l 1.8047,0.514721 0.28871,-1.163929 1.29937,0.950066 1.94897,-1.814354 6.06346,0.599731 c 0,0 0.86614,1.749584 0.86614,1.749584 l 3.75338,1.612133 c 0,0 0.50519,1.166071 0.50519,1.166071 l -4.83605,0.568563 -1.588,2.980002 1.22705,0.508583"
       id="path636" /><path
       onclick="pokaz(this)"
       d="m 80.611583,20.066572 0.21674,-3.347773 -0.64958,7.94e-4 -1.4433,-3.716602 c 0,0 0.64974,-2.254806 0.64974,-2.254806 0,0 -1.44357,-0.149857 -1.44357,-0.149857 l -0.28863,-1.3839816 -3.10383,-0.373169 c 0,0 -1.01044,-2.114126 -1.01044,-2.114126 0,0 -0.0722,0.145409 -0.0722,0.145409 l -2.30984,-0.152352 c 0,0 0.0722,1.16496 0.0722,1.16496 l -1.22714,0.724482 -1.08273,-0.440055 -2.30992,1.230974 c 0,0 0.0722,0.8009726 0.0722,0.8009726 l -1.73247,2.834217 0.36089,1.457087 c 0,0 -1.29928,0.0019 -1.29928,0.0019 l 0.36089,2.185061 -1.51588,0.06778 -1.73244,1.451028 -3.17632,-0.08154 -0.21657,-0.146244 -0.28871,1.309556 -1.01061,1.307544 1.22719,0.513159 0.57754,2.331085 c 0,0 0.43312,0.656432 0.43312,0.656432 l 0.28874,-0.21758 6.06345,0.599757 c 0,0 0.86614,1.749557 0.86614,1.749557 l 3.75338,1.612159 c 0,0 0.5052,1.166072 0.5052,1.166072 l -0.14436,0.07257 0.50525,0.43815 c 0,0 0.43299,2.039355 0.43299,2.039355 l 2.0931,-0.06724 c 0,0 0.64963,-1.089899 0.64963,-1.089899 l -1.01045,-0.585179 c 0,0 1.29924,-1.524978 1.29924,-1.524978 l 1.22706,-1.306672 3.03133,-1.15607 c 0,0 1.15485,-1.234149 1.15485,-1.234149 l 1.37129,-0.06891 c 0,0 0.50538,-2.47351 0.50538,-2.47351 l -1.37123,-0.950172 0.72175,-1.024202"
       id="path638" /><path
       onclick="pokaz(this)"
       d="m 82.405453,16.547614 c 0,0 1.22439,1.962785 1.22439,1.962785 l 2.67652,-0.24814 c 0,0 0.73478,1.226741 0.73478,1.226741 0,0 0.006,1.472935 0.006,1.472935 l -1.94445,0.738426 c 0,0 0.85783,1.594829 0.85783,1.594829 l -1.58025,0.492575 -0.72699,0.859948 c 0,0 3.16785,0.978721 3.16785,0.978721 l 0.86328,3.067579 -1.70235,0.369993 -0.84685,1.351015 3.2848,-0.24889 -0.60026,2.209879 c 7.9e-4,0.245491 3.39831,-2.458244 3.39831,-2.458244 0,0 0.61298,1.226714 0.61298,1.226714 l 1.81989,-1.474708 1.71632,3.434821 c 0,0 0.85178,-0.0013 0.85178,-0.0013 l 0.006,1.59549 -2.91597,1.230392 -0.85498,-0.858202 -2.92047,0.0042 -1.57697,1.351756 c 0,0 -3.40836,-0.24185 -3.40836,-0.24185 l -0.79261,0.641059 -2.12669,-0.269743 c 0,0 -0.96899,1.228381 -0.96899,1.228381 l 2.80353,1.224333 -0.23514,2.209429 -2.65377,1.984243 -2.94402,-1.978184 c 0,0 -1.21698,0.0019 -1.21698,0.0019 l -7.9e-4,-0.245467 -1.21978,-0.735092 c 0,0 0.72697,-0.859922 0.72697,-0.859922 l -0.009,-2.331984 -0.85609,-1.103736 -3.4118,-1.101037 -0.74231,-3.190611 2.06901,-0.0029 c 0,0 0.72562,-1.228195 0.72562,-1.228195 l -1.09723,-0.48985 c 0,0 1.33276,-1.597078 1.33276,-1.597078 0,0 1.21198,-1.351465 1.21198,-1.351465 l 3.03795,-1.230577 c 0,0 1.21242,-1.228699 1.21242,-1.228699 0,0 1.21703,-0.0019 1.21703,-0.0019 0,0 0.59934,-2.455571 0.59934,-2.455571 l -1.34242,-0.980625 c 0,0 0.72655,-0.982742 0.72655,-0.982742 l 0.23054,-3.437202 1.5817,-0.124312"
       id="path640" /><path
       onclick="pokaz(this)"
       d="m 76.066033,78.777613 c 0,0 0.24337,-2.65e-4 0.24337,-2.65e-4 l 1.69942,-1.106381 3.89572,0.486039 1.33525,-0.860504 1.21907,0.612008 2.4303,-0.861854 c 0,0 -1.22362,-1.838986 -1.22362,-1.838986 l 0.23969,-0.981896 1.82833,0.856695 1.21354,-0.860372 1.82964,1.224756 0.72321,-1.841341 -0.62063,-3.312054 1.70297,-0.124738 0.36046,-1.227455 -0.25061,-1.962944 c 0,0 0.60248,-1.595861 0.60248,-1.595861 l 1.70114,-0.615526 2.66039,-4.420394 c 0,0 -0.73909,-2.453296 -0.73909,-2.453296 l -1.21311,0.983059 -1.94908,-0.61132 0.59248,-4.29551 c 0,0 -1.46603,-1.593638 -1.46603,-1.593638 l 0.36414,-0.245848 c 0,0 -3.03609,1.598744 -3.03609,1.598744 l -1.21999,-0.857647 -2.78607,3.439319 c 0,0 0.61574,1.962732 0.61574,1.962732 l -2.31198,0.0033 -1.20859,2.21025 -2.18713,0.861536 c 0,0 -0.49043,-0.981154 -0.49043,-0.981154 0,0 -1.46026,0.0021 -1.46026,0.0021 0,0 -0.72321,1.841553 -0.72321,1.841553 l -4.12909,2.213663 0.24292,-0.122986 5.3e-4,0.122711 -4.00976,1.599988 c 0,0 3.17182,2.082377 3.17182,2.082377 l 1.70228,-0.370152 0.85413,0.612563 c 0,0 -0.84812,0.982663 -0.84812,0.982663 l 2.07282,1.101936 1.35464,4.293129 -1.8211,1.106541 c 0,0 -0.60195,1.718574 -0.60195,1.718574 l -0.36044,1.227455 m 17.1786,-26.892249"
       id="path642" /><path
       onclick="pokaz(this)"
       d="m 80.249103,30.911843 0.28892,-3.420269 2.02089,-1.013222 1.29902,0.731547 c 0,0 1.37126,-0.141693 1.37126,-0.141693 l 0.28861,0.728769 -1.80433,0.795496 c 0,0 -0.4332,2.109629 -0.4332,2.109629 l -3.03107,0.209727"
       id="path644" /><path
       onclick="pokaz(this)"
       d="m 74.549973,64.056197 0.001,0.368141 c 0,0 -3.63034,1.466638 -3.63034,1.466638 l 2.79214,2.093039 1.7018,-0.492865 0.85506,0.857964 -0.67845,0.824574 1.78054,1.014756 1.47725,4.538398 -1.8211,1.106541 -0.46283,1.412795 c 0,0 -0.6208,1.65608 -0.6208,1.65608 l -1.46174,-0.489029 c 0,0 -1.45931,0.247195 -1.45931,0.247195 l -0.95356,5.277379 -3.17182,-2.081953 -2.92338,-0.732605 -0.98288,-2.452899 -0.85232,-0.121661 -0.96468,2.332593 -3.40756,0.0048 -0.4957,-2.330847 c 0,0 -1.83489,-2.451999 -1.83489,-2.451999 0,0 -0.005,-1.472539 -0.005,-1.472539 l -0.1264,-1.226979 -1.5798,0.615474 -0.005,-1.227164 -1.21988,-0.734827 0.1217,-1.51e-4 0.23965,-0.982001 0.8477,-1.105482 -0.36936,-1.104027 0.23776,-1.472935 -0.25941,-4.172215 0.23636,-1.841156 -0.60854,7.94e-4 -0.12501,-0.858944 -1.70349,0.124693 1.57189,-2.701925 -0.97513,-0.367083 0.11842,-0.85926 -0.49157,-1.226741 c 0,0 0.49252,1.472195 0.49252,1.472195 0,0 1.57615,-1.597316 1.57615,-1.597316 l 0.001,0.368194 3.90234,1.959213 0.97507,0.367083 0.4798,-1.841447 1.09302,-0.614892 c 0,0 -1.22317,-1.594088 -1.22317,-1.594088 0,0 0.84539,-1.719183 0.84539,-1.719183 l 0.72697,-0.859949 -1.8289,-0.857065 0.4845,-0.614203 c 0,0 1.21804,0.244107 1.21804,0.244107 0,0 -0.004,-1.104583 -0.004,-1.104583 l 1.58081,-0.369967 0.12637,1.227191 c 0,0 1.21706,-0.0019 1.21706,-0.0019 l -0.24341,2.64e-4 0.12404,0.61349 0.0102,2.700073 c 0,0 0.85659,1.226317 0.85659,1.226317 0,0 1.58213,-0.0021 1.58213,-0.0021 l 0.24992,1.717887 1.2156,-0.36957 1.08461,-2.823898 c 0,0 0.61452,1.594723 0.61452,1.594723 l 1.46039,-0.0021 c 0,0 0.006,1.595385 0.006,1.595385 l -1.5816,0.124521 c 0,0 0.85884,1.839859 0.85884,1.839859 l 0.8491,-0.737314 c 0,0 1.22528,2.207577 1.22528,2.207577 0,0 1.21785,0.244018 1.21785,0.244018 l -0.22766,4.172743 0.24338,-2.64e-4 m -21.26456,8.615362 10e-4,0.245422 -10e-4,-0.245422"
       id="path698" /><path
       onclick="pokaz(this)"
       d="m 63.577703,66.675572 -1.2991,-0.80399 -0.86609,-0.07507 c 0,0 0.36089,-2.109497 0.36089,-2.109497 0,0 0.72173,-1.671928 0.72173,-1.671928 l 1.58782,-0.359595 2.09301,-0.358193 2.02078,0.223843 1.1547,0.949219 c 0,0 -0.43305,0.726519 -0.43305,0.726519 l -1.9486,0.50419 c 0,0 -0.64955,0.944351 -0.64955,0.944351 l -0.36089,1.672828 -2.38165,0.35732"
       id="path700" /><path
       onclick="pokaz(this)"
       d="m 71.226803,58.325322 -0.72165,-1.748711 1.51559,-0.141391 2.6e-4,-1.528259 c 0,0 -1.4434,-0.149561 -1.4434,-0.149561 0,0 -0.6495,-1.602926 -0.6495,-1.602926 l -1.01047,2.83554 -1.22693,0.360495 -0.28866,-1.674628 -1.51566,-0.01048 c 0,0 -0.86607,-1.239679 -0.86607,-1.239679 l -5.2e-4,-2.692929 -0.21653,-0.728424 0.36089,0.0019 0.93835,-3.709194 0.28871,-1.09093 c 0,0 1.94874,-0.212995 1.94874,-0.212995 l 2.30952,1.316593 c 0,0 1.3712,2.114365 1.3712,2.114365 l 2.52619,-4.287044 0.86609,-0.57986 c 0,0 -0.0722,-0.873522 -0.0722,-0.873522 l 2.3e-4,0.363908 0.50522,-0.362506 0.57743,-1.454018 c 0,0 1.22692,-0.142221 1.22692,-0.142221 l 4.32991,2.996141 c 0,0 -0.50525,1.017482 -0.50525,1.017482 l 1.44335,0.01058 1.65992,-1.014306 2.81437,1.609037 2.7e-4,2.692664 c 0,0 4.47384,1.10408 4.47384,1.10408 l 1.4429,2.842154 -3.10303,1.519661 -1.15448,-0.876485 -2.81464,3.412596 0.50496,1.966277 -2.16485,-0.07849 c 0,0 -1.29911,2.179558 -1.29911,2.179558 l -2.16495,0.867384 -0.36076,-0.946944 -1.51548,-0.0105 c 0,0 -0.72176,1.817264 -0.72176,1.817264 l -4.1857,2.099125 0.21669,-4.220369 -1.22685,-0.294455 -1.15461,-2.113624 -0.93858,0.658681"
       id="path702" /><path
       onclick="pokaz(this)"
       d="m 31.618683,72.451426 7.42315,-0.499798 1.21481,-0.615077 0.25298,2.454142 c 0,0 -0.60143,1.841553 -0.60143,1.841553 l 2.18948,-0.370813 c 0,0 1.21241,-1.228672 1.21241,-1.228672 l 0.24818,1.226899 1.46201,0.366395 c 0,0 0.97655,0.735118 0.97798,1.10326 0.001,0.368167 1.2214,1.102942 1.2214,1.102942 l 1.22089,0.980228 0.3637,-0.368591 c 0,0 2.43321,-0.248417 2.43321,-0.248417 l 1.5784,-0.983642 -0.25002,-1.717701 0.84111,-2.823369 1.21378,-0.860478 0.24341,-2.64e-4 c 0,0 -0.004,-0.981737 -0.004,-0.981737 l 0.96988,-0.9829 -0.36984,-1.226741 0.23778,-1.472935 -0.25942,-4.172215 0.23636,-1.841156 -0.60854,7.94e-4 -0.003,-0.859076 c 0,0 -1.70301,0.247404 -1.70301,0.247404 l 1.4497,-2.824427 -0.97512,-0.367083 0.2406,-0.736653 c 0,0 -0.61328,-1.226634 -0.61328,-1.226634 l -1.21386,0.86053 -3.16468,0.0045 c 0,0 -1.58898,-1.716458 -1.58898,-1.716458 0,0 -0.59912,2.45536 -0.59912,2.45536 l -2.05928,2.57974 c 0,0 -2.19194,-0.242932 -2.19194,-0.242932 l -2.91809,0.862489 0.37378,2.208768 c 0,0 -0.84635,1.473755 -0.84635,1.473755 0,0 -0.35801,1.841395 -0.35801,1.841395 l -0.35801,1.841367 -1.2201,-0.734959 -0.2401,0.859393 -1.82925,-0.856933 -1.94426,0.861404 -1.21968,-0.612219 -0.6024,1.596231 c 0,0 0.61585,1.84023 0.61585,1.84023 0,0 -0.727,0.860002 -0.727,0.860002 l 0.24778,1.104238"
       id="path704" /><path
       onclick="pokaz(this)"
       d="m 19.257353,68.739321 -1.80483,0.504614 c 0,0 -1.01039,2.253641 -1.01039,2.253641 l -1.29987,-2.041525 -2.02145,0.722524 -0.28839,2.328307 c 0,0 -1.37152,1.37922 -1.37152,1.37922 0,0 -0.50403,7.640902 -0.50403,7.640902 l 5.05407,2.924704 1.73243,-1.30548 -0.36126,-1.966013 c 0,0 1.51609,0.222374 1.51609,0.222374 l 1.22788,4.151577 3.53748,1.683094 4.11453,-0.789702 -0.79451,-3.786452 0.79372,-2.690812 2.67097,-0.575151 c 0,0 -0.86646,-1.821762 -0.86646,-1.821762 l -1.73262,-0.80518 c 0,0 0.7938,-2.326746 0.7938,-2.326746 l 3.0316,-1.956964 c 0,0 -0.50541,-0.729139 -0.50541,-0.729139 l 0.72178,-0.944272 c 0,0 -0.57771,-1.820968 -0.57771,-1.820968 l 1.08256,-2.544524 c 0,0 -3.60971,-2.265998 -3.60971,-2.265998 0,0 -0.86606,2.108385 -0.86606,2.108385 l -3.60944,1.373109 c 0,0 -5.05407,-2.269967 -5.05407,-2.269967 0,0 -1.15496,1.234282 -1.15496,1.234282 l 1.15546,2.113915"
       id="path706" /><path
       onclick="pokaz(this)"
       d="m 31.618683,72.451426 7.42315,-0.499798 1.21481,-0.615077 0.25298,2.454142 c 0,0 -0.60143,1.841553 -0.60143,1.841553 l 2.18948,-0.370813 c 0,0 1.21241,-1.228672 1.21241,-1.228672 l 0.24818,1.226899 1.46201,0.366395 c 0,0 0.97655,0.735118 0.97798,1.10326 0.001,0.368167 1.2214,1.102942 1.2214,1.102942 l 1.22089,0.980228 -0.36369,0.368591 -2.19081,0.0031 -0.48067,1.595887 1.95022,0.733875 0.007,1.840654 -1.2147,0.61505 -1.32646,3.192198 1.46523,1.225232 -0.23534,2.086293 -1.2147,0.61505 -2.80511,-1.468913 -0.48112,1.473094 c 0,0 -0.24247,0.245745 -0.24247,0.245745 l -0.37325,-2.085552 -0.97991,-1.594009 -1.21523,0.492363 -2.199,-2.083329 -3.04959,-1.714209 c 0,0 -0.96465,2.332832 -0.96465,2.332832 l -2.19532,-1.101699 -2.67706,0.248785 -0.62166,-3.312583 0.71974,-2.700867 2.67547,-0.616902 c 0,0 -0.85884,-1.717067 -0.85884,-1.717067 l -1.70756,-0.856985 c 0,0 0.7212,-2.332673 0.7212,-2.332673 l 3.03609,-1.844569"
       id="path708" /><path
       onclick="pokaz(this)"
       d="m 16.738513,34.53928 c 0,0 -1.09143,1.106064 -1.09143,1.106064 l 0.005,1.350434 -1.21759,0.0019 c 0,0 -0.96674,1.842532 -0.96674,1.842532 l 0.61807,2.331852 -1.2024,3.806825 c 0,0 -1.81705,2.334445 -1.81705,2.334445 l 1.22198,1.103471 -1.09188,0.983271 c 0,0 0.006,1.473068 0.006,1.473068 0,0 0.85572,0.858335 0.85572,0.858335 l -0.59605,3.192198 c 0,0 -0.36232,0.736917 -0.36232,0.736917 l 0.48701,-5.29e-4 0.62543,4.172744 -1.45857,0.615421 -0.35399,2.823633 0.12371,0.490855 0.37015,1.227005 c 0,0 4.13703,-0.618543 4.13703,-0.618543 l 3.65522,0.732155 0.36668,0.367771 c 0,0 0.12126,-0.122862 0.12126,-0.122862 l 5.24351,2.203106 3.64675,-1.354376 0.72174,-2.210091 -0.002,-0.613701 c 0,0 2.78686,-3.317081 2.78686,-3.317081 l -0.62503,-4.172479 -1.955,-1.838934 2.91385,-1.967203 -1.22988,-3.190081 -2.3145,-0.365681 0.35751,-1.964399 1.82226,-0.984038 c 0,0 0.11355,-2.086901 0.11355,-2.086901 l -4.14787,-2.205091 c 0,0 -0.48215,1.22809 -0.48215,1.22809 l -2.92523,-0.856138 c 0,0 1.32905,-2.57937 1.32905,-2.57937 0,0 0.23381,-2.455466 0.23381,-2.455466 l 0.002,0.49104 -2.67997,-0.365442 -1.4659,-1.226079 -3.04059,0.862594 -0.37208,-1.718363 -0.36576,-0.122377 m 17.02514,26.004572 0.95899,-3.806031 -0.95899,3.806031"
       id="path710" /><path
       onclick="pokaz(this)"
       d="m 65.974833,81.121821 2.92338,0.732605 c 0,0 3.12182,2.161434 3.12182,2.161434 l 1.00361,-5.356754 c 0,0 1.45931,-0.247195 1.45931,-0.247195 l 1.7227,0.667094 c 0,0 1.44984,1.66034 1.44984,1.66034 l -2.09944,1.539505 0.0484,3.125522 2.31561,0.978694 -0.48835,6.450806 -3.03053,-1.026504 -0.0721,-1.600888 -2.52555,-2.116587 -0.85339,0.337079 c 0,0 0.5647,1.408351 0.5647,1.408351 l -1.73199,2.833158 0.28858,3.201985 -2.02054,0.79518 -2.38141,3.486154 -1.08243,0.7248 -1.65976,-0.58637 -0.5773,-1.820464 -1.51548,-0.0765 c 0,0 -1.80416,-1.89632 -1.80416,-1.89632 l -2.23716,1.23105 -1.8042,0.0686 c 0,0 -0.50524,-2.4751 -0.50524,-2.4751 l -0.86612,-3.058315 -1.8765,-1.532969 -1.15475,0.287972 -1.44351,-1.24079 c 0,0 0.50517,-1.381178 0.50517,-1.381178 l -0.9383,-0.802904 -2.4539,0.866801 c 0,0 -10e-6,0.14554 -10e-6,0.14554 l -1.51577,-1.168242 1.40861,-3.468952 1.21471,-0.61505 c 0,0 -0.0977,-1.658223 -0.0977,-1.658223 l -1.85965,-0.916305 c 0,0 0.48067,-1.595887 0.48067,-1.595887 l 2.1908,-0.0031 c 0,0 0.72742,-0.737155 0.72742,-0.737155 0,0 2.43322,-0.248417 2.43322,-0.248417 l 1.36842,-0.706041 -0.28874,-1.747335 0.96811,-3.071283 1.5789,-0.860928 c 0,0 0.84516,1.030288 0.84516,1.030288 l -1.2e-4,1.237244 1.5952,-0.675137 c 0,0 0.0648,1.334426 0.0648,1.334426 0,0 0.0672,1.365091 0.0672,1.365091 0,0 1.83489,2.452 1.83489,2.452 0,0 0.49569,2.330847 0.49569,2.330847 0,0 3.0869,-0.07367 3.0869,-0.07367 l 1.22716,-2.126377 0.86603,0.075 1.02725,2.362782"
       id="path712" /><path
       onclick="pokaz(this)"
       d="m 2.2155334,65.416155 -0.28844,1.818957 -1.51628001,0.214265 -0.14408,1.528234 0.79526001,4.587874 2.6715,-0.13848 0.28929,2.402734 c 0,0 -0.86611,1.52617 -0.86611,1.52617 l 5.3e-4,1.674019 2.09415,1.606841 2.38247,-0.648759 c 0,0 1.73312,1.896878 1.73312,1.896878 l 1.5882496,-0.578036 0.50405,-7.42262 c 0,0 1.37152,-1.37922 1.37152,-1.37922 l 0.2884,-2.328307 2.02144,-0.722524 c 0,0 1.29987,2.041525 1.29987,2.041525 0,0 1.01039,-2.253642 1.01039,-2.253642 l 1.80483,-0.504613 c 0,0 -1.15546,-2.113915 -1.15546,-2.113915 0,0 1.15496,-1.234281 1.15496,-1.234281 0,0 -0.14437,0.145124 -0.14437,0.145124 0,0 -0.28885,-0.291915 -0.28885,-0.291915 0,0 -3.82667,-0.811001 -3.82667,-0.811001 l -4.04309,0.717021 -0.28903,-1.311063 -0.2167,-0.510117 2.4e-4,0.218342 -4.1880896,-2.122196 -1.08294,0.724984 -0.0715,3.420798 -2.88872,-0.153347"
       id="path742" />
</svg>
