<?xml version="1.0" encoding="UTF-8" standalone="no"?>
<svg
   viewBox="0 0 77.067039 110.43429"
   version="1.1"
   id="svg1"
   xmlns="http://www.w3.org/2000/svg">
   <style>path {fill:#e0e0e0;fill-opacity:1;stroke:#ffffff;stroke-width:0.529167}</style>
   <path
       onclick="pokaz(this)"
       d="m 1.4147204,59.613318 0.0157,3.88964 -1.1116,3.16203 1.87881,1.21267 0.76081,2.79453 1.75281,0.96969 c 0,0 0.99496,-1.0954 0.99496,-1.0954 l 1.62687,0.72679 c 0,0 -0.36988,1.21599 -0.12004,1.21562 l 2.24997,0.36119 0.38351,2.18712 1.8785696,1.21248 0.61873,-1.45936 -3.7756096,-7.04374 c 0,0 4.3711796,-0.24966 4.3711796,-0.24966 l 1.36922,-1.21751 -2.45512,-1.85327 -1.19232,0.003 -0.1745,-1.67667 1.18121,-0.84354 2.87311,-0.004 c 0,0 0.87053,-0.97372 0.87053,-0.97372 l 1.74882,-0.003 1.61903,-1.21785 -0.6323,-1.94384 -0.99933,0.003 c 0,0 -0.63426,-2.43012 -0.63426,-2.43012 l -0.75144,-0.48511 -3.08134,0.0317 -4.1862396,1.90728 c 0,0 -0.067,1.35143 -0.067,1.35143 l -6.76196,1.7139 -0.25084,-0.24273"
       id="path194" /><path
       onclick="pokaz(this)"
       d="m 16.58064,66.889358 2.23766,1.31469 c 0,0 0.21649,-0.21768 0.21649,-0.21768 0,0 0.0722,0.0735 0.0722,0.0735 l 1.80477,2.69584 1.29916,0.29403 0.50541,1.45595 -1.51559,0.28747 -2.09272,2.03173 c 0,0 1.15498,1.31205 1.15498,1.31205 l -0.21636,1.01774 -1.73217,-0.01 -2.95937,-2.04362 -3.39222,-0.15343 c 0,0 -3.3938096,-7.20963 -3.3938096,-7.20963 0,0 4.1142696,-0.20847 4.1142696,-0.20847 l 1.37118,-1.23338 2.38177,-0.57631 0.14455,1.16919"
       id="path196" /><path
       onclick="pokaz(this)"
       d="m 25.53149,73.821438 -1.37131,-0.51244 1.22653,-2.7612 c 0,0 0.14434,-2.3e-4 0.14434,-2.3e-4 l -0.36092,-0.51009 -2.30955,-0.36915 c 0,0 -0.64937,1.38054 -0.64937,1.38054 0,0 0.50541,1.45608 0.50541,1.45608 l -1.51559,0.28737 -2.09272,2.03173 c 0,0 1.15496,1.31202 1.15496,1.31202 0,0 -0.0722,0.21807 -0.0722,0.21807 l 0.79391,0.0748 c 0,0 0.50533,0.87397 0.50533,0.87397 l 2.30957,0.73276 c 0,0 -0.57758,-1.6742 -0.57758,-1.6742 0,0 2.09291,-0.21333 2.09291,-0.21333 0,0 0.21623,-2.32675 0.21623,-2.32675"
       id="path198" /><path
       onclick="pokaz(this)"
       d="m 24.17153,65.513518 3.1676,0.85389 10e-4,0.24533 1.22135,1.10214 c 0,0 -0.36026,1.22714 -0.36026,1.22714 0.001,0.2453 1.22034,0.85678 1.22034,0.85678 l -0.48244,1.10466 -1.58158,0.12504 c 0,0 -0.36798,-0.73541 -0.36798,-0.73541 0,0 -1.45941,0.24754 -1.45941,0.24754 l -0.36703,-0.49008 -2.43549,-0.36431 c 0,0 -0.12704,-1.34908 -0.12704,-1.34908 l 2.0665,-0.61643 c 0,0 -0.37285,-1.96204 -0.37285,-1.96204 0,0 -0.12267,-0.24517 -0.12267,-0.24517"
       id="path200" /><path
       onclick="pokaz(this)"
       d="m 23.73497,78.266438 -0.51255,-1.89973 c 0,0 2.09291,-0.21334 2.09291,-0.21334 0,0 0.22765,-2.30531 0.22765,-2.30531 l -1.38274,-0.53388 1.22653,-2.76119 c 0,0 1.60253,-0.26421 1.60253,-0.26421 l 0.36848,0.85807 c 0,0 1.70278,-0.24789 1.70278,-0.24789 l 0.36073,-1.10448 -1.21986,-0.73411 c 0,0 0.47956,-1.84063 0.47956,-1.84063 l 1.45844,-0.49284 1.21935,0.61148 1.33721,-0.36999 -0.36989,-1.22603 0.60367,-1.22751 1.58444,0.61093 1.58152,-0.12502 0.002,0.49062 3.16547,0.36325 1.0971,0.48897 -0.23048,3.31206 3.76555,-1.72281 -1.20491,3.06811 c 0,0 0.008,2.08505 0.008,2.08505 0,0 -0.84749,1.10513 -0.84749,1.10513 0,0 -0.12216,-0.12247 -0.12216,-0.12247 l -2.43366,0.004 -5.46497,2.82946 0.005,1.2265 -1.3381,0.1247 0.97303,-0.12412 -0.73591,-1.47069 -1.70609,-0.61063 -1.21499,0.49247 -1.58684,-1.22409 -1.45889,0.37017 0.49451,1.96171 -2.43052,0.86233 c 0,0 -1.09625,-0.24361 -1.09625,-0.24361"
       id="path202" /><path
       onclick="pokaz(this)"
       d="m 38.88237,59.666228 -2.59792,1.08487 c 0,0 -0.0721,-0.14562 -0.0721,-0.14562 0,0 -0.7216,0.94387 -0.7216,0.94387 0,0 -0.072,1.74559 -0.072,1.74559 l 0.79388,0.43841 -0.14415,1.8909 3.96901,0.51856 c 0,0 0.64937,-1.52598 0.64937,-1.52598 l 0.9381,-0.43411 -0.43312,-1.89235 4e-5,0.0724 -1.65984,-0.7313 -0.64971,-1.9652"
       id="path204" /><path
       onclick="pokaz(this)"
       d="m 32.74668,67.021648 -1.44333,0.4331 -1.15477,-0.65744 -1.51551,0.4328 -0.0721,0.4363 -1.29921,-1.02145 c 0,0 1.15448,-2.10672 1.15448,-2.10672 0,0 -0.57748,-0.87434 -0.57748,-0.87434 0,0 -0.14461,-2.10989 -0.14461,-2.10989 0,0 0.57727,-0.87154 0.57727,-0.87154 l -1.15512,-2.69425 1.58777,-0.28718 1.15509,2.91253 1.08254,-0.003 -5.3e-4,-2.32783 -1.08267,-0.80275 0.43275,-2.32682 2.6707,2.26155 1.01026,-1.16142 0.93824,0.3659 1.29942,4.0042 c 0,0 -0.7216,0.94385 -0.7216,0.94385 0,0 -0.072,1.74559 -0.072,1.74559 l 0.79389,0.43831 -0.0721,1.45462 -1.58766,0.14171 -1.65991,-0.65855 c 0,0 -0.6494,1.23508 -0.6494,1.23508 l 0.50581,1.09641"
       id="path206" /><path
       onclick="pokaz(this)"
       d="m 16.58064,66.889358 -0.14456,-1.16425 1.08255,-0.72488 0.50503,-1.30818 -1.0106,-0.65709 c 0,0 -0.14471,-2.18271 -0.14471,-2.18271 l 1.51553,-1.23314 c 0,0 1.15509,1.67595 1.15509,1.67595 l 1.29919,0.0754 -0.0721,0.94552 0.57746,0.36517 0.36076,-0.79936 1.87645,-0.72297 c 0,0 -0.28861,0.72676 -0.28861,0.72676 l -1.15464,0.94295 0.14446,0.80057 1.08259,-0.003 c 0,0 0.86638,2.11148 0.86638,2.11148 0,0 0.36113,2.03763 0.36113,2.03763 l -2.88687,0.7933 -0.50543,-1.52873 c 0,0 -1.37131,0.14226 -1.37131,0.14226 0,0 -1.01029,1.01598 -1.01029,1.01598 l -2.23758,-1.31003"
       id="path208" /><path
       onclick="pokaz(this)"
       d="m 17.08599,60.856858 -1.78842,0.003 c 0,0 -0.71194,0.85977 -0.71194,0.85977 l -2.86094,0.12689 -1.3086,0.738 0.24582,1.83973 1.19232,-0.003 3.10886,2.20339 1.52442,-0.49297 0.26007,-0.49104 0.95089,-0.73745 0.47202,-1.22737 -0.95674,-0.73459 c 0,0 -0.12752,-2.08524 -0.12752,-2.08524 m 2.17432,7.11148 -0.15332,0.0957 1.80477,2.69584 1.34123,0.27064 0.70948,-1.47299 c 0,0 -0.36251,-1.22608 -0.36251,-1.22608 l -0.83404,0.12391 -0.56611,-1.40991 c 0,0 -1.3713,0.14226 -1.3713,0.14226 0,0 -0.5682,0.78076 -0.5682,0.78076 m 1.40441,-6.62622 0.10136,0.9779 0.57746,0.36517 0.51535,-0.85418 1.78541,-0.73863 -0.23553,0.73633 -1.18833,0.98311 0.12214,0.73584 1.19221,-0.003 0.72356,2.08423 3.10197,0.60867 c 0,0 1.06569,-1.84152 1.06569,-1.84152 0,0 -0.59947,-0.85778 -0.59947,-0.85778 l -0.12743,-2.08513 0.59272,-0.85953 c 0,0 -1.20232,-2.57426 -1.20232,-2.57426 l -1.07154,0.36957 c 0,0 0.83841,0.98015 0.83841,0.98015 0,0 -1.19123,0.24709 -1.19123,0.24709 l -1.67201,-0.73355 -0.59272,0.85952 -2.38641,-0.48715 -0.3494,2.08592"
       id="path210" /><path
       onclick="pokaz(this)"
       d="m 19.53868,61.306648 1.01047,0.0746 0.43275,-2.03586 2.30971,0.44201 c 0,0 0.64945,-0.79857 0.64945,-0.79857 l 1.73228,0.73163 1.15474,-0.28824 c 0,0 -0.79404,-1.02031 -0.79404,-1.02031 l 1.08257,-0.36113 -4e-5,-0.0724 1.5878,-0.28715 1.15509,2.91253 1.08254,-0.003 -5.3e-4,-2.3277 -1.08267,-0.80288 0.43277,-2.18136 -2.6707,-1.60689 c 0,0 -0.79359,2.54426 -0.79359,2.54426 l -3.31999,-0.29903 c 0,0 0.86585,-1.81658 0.86585,-1.81658 l -1.5879,-0.0762 -1.80438,0.2866 2e-5,-1.52771 c 0,0 1.15459,-1.81594 1.15459,-1.81594 l -1.5159,-1.02232 -0.28887,-1.09191 2.09328,0.58711 -0.28896,-1.67394 2.09307,-0.72239 c 0,0 0.14399,-2.61885 0.14399,-2.61885 0,0 -1.08286,-1.31217 -1.08286,-1.31217 l 1.15451,-2.68896 -1.08283,-0.87583 c 0,0 1.22671,-2.4707 1.22671,-2.4707 0,0 -0.50543,-1.09257 -0.50543,-1.09257 l -1.37152,-0.58545 -3.10383,0.50157 -3.68141,-0.22754 -0.072,1.23674 1.8052,3.64226 c 0,0 -0.43299,0.7266 -0.43299,0.7266 0,0 -1.29958,-1.60399 -1.29958,-1.60399 l -0.86611,0.57997 -1.29945,-0.65802 -0.36023,4.00077 c 0,0 0.64995,1.74773 0.64995,1.74773 0,0 -1.65989,1.96035 -1.65989,1.96035 0,0 0.64982,0.87466 0.64982,0.87466 0,0 1.80496,2.18694 1.80496,2.18694 0,0 -0.93819,1.01629 -0.93819,1.01629 l 0.57774,1.60187 0.79407,0.5113 0.28893,1.16467 0.50535,0.51094 c 0,0 1.07516,2.58641 1.07516,2.58641 0,0 0.71776,0.009 0.71776,0.009 l 0.44535,1.84433 c 0,0 0.0722,-10e-5 0.0722,-10e-5 0,0 1.1553,1.68299 1.1553,1.68299"
       id="path212" /><path
       onclick="pokaz(this)"
       d="m 27.55026,51.649358 0.93835,0.5842 -0.79375,1.3076 -0.86574,2.68948 -3.32,-0.299 0.86585,-1.81658 -1.58789,-0.0762 -1.80438,0.28665 2e-5,-1.52773 c 0,0 1.15459,-1.81595 1.15459,-1.81595 l -1.5159,-1.02216 -0.2889,-1.09207 2.09327,0.58711 -0.28895,-1.67396 2.59829,-0.93938 -0.072,1.23661 2.8874,1.82573 c 0,0 -2e-5,1.74567 -2e-5,1.74567"
       id="path214" /><path
       onclick="pokaz(this)"
       d="m 42.99399,39.981228 c 0,0 -0.14445,-1.45539 -0.14445,-1.45539 l 0.0721,-0.29072 -1.22692,-0.29409 -1.29897,1.23354 -1.37142,-1.96776 c 0,0 0.21632,-2.32759 0.21632,-2.32759 l -2.74267,-1.38919 -2.09304,0.43129 -2.16556,-2.69742 c 0,0 -1.22679,2.17966 -1.22679,2.17966 l 2.23758,0.80592 c 0,0 -1.2268,1.88865 -1.2268,1.88865 l -3.10409,-2.84533 -1.51582,-0.44035 -1.15483,0.43371 -3.82587,-1.10106 0.14482,3.20172 1.51591,0.6586 c 0,0 0.5054,1.0926 0.5054,1.0926 0,0 -1.22671,2.47067 -1.22671,2.47067 l 1.08283,0.87583 -1.15448,2.68896 c 0,0 1.08286,1.31217 1.08286,1.31217 0,0 -0.144,2.61885 -0.144,2.61885 l 0.50522,-0.21714 c 0,0 -0.072,1.23661 -0.072,1.23661 l 2.81517,1.75297 0.866,-0.79815 c 0,0 -0.0724,-1.67346 -0.0724,-1.67346 l 2.23732,-1.01296 c 0,0 -0.57753,-1.16551 -0.57753,-1.16551 l 2.09298,-0.57685 2.59837,1.17033 0.36071,-1.74508 1.94863,-0.0678 2.02064,-1.6682 1.15473,0.0757 c 0,0 1.5876,-1.88764 1.5876,-1.88764 0,0 -0.57743,-0.80163 -0.57743,-0.80163 l 1.87654,0.29535"
       id="path216" /><path
       onclick="pokaz(this)"
       d="m 30.42364,46.119568 0.1217,-1.9e-4 c 0,0 0.49599,2.33019 0.49599,2.33019 l 1.21896,0.48895 0.003,0.85873 h -0.24341 l -0.60272,1.47296 0.48874,0.48996 c 0,0 -1.69659,1.84255 -1.69659,1.84255 0,0 -0.11688,1.2269 -0.11688,1.2269 l 0.001,0.36801 -2.43986,-1.46851 -5.3e-4,-0.12269 0.84709,-1.22796 -0.97605,-0.61195 c 0,0 -0.007,-1.84016 -0.007,-1.84016 0,0 0.72686,-0.85976 0.72686,-0.85976 0,0 -0.007,-1.71749 -0.007,-1.71749 l 2.18683,-0.98454 -0.001,-0.24535 m -0.086,9.07812 c 0,0 -0.1217,2.1e-4 -0.1217,2.1e-4 0,0 0.1217,-2.1e-4 0.1217,-2.1e-4"
       id="path218" /><path
       onclick="pokaz(this)"
       d="m 36.88476,49.188728 -0.36941,-1.10352 -1.46232,-0.48863 c 0,0 -0.49401,-1.83944 -0.49401,-1.83944 l 0.35838,-1.71799 1.94723,-0.003 c 0,0 0.61664,2.08465 0.61664,2.08465 h -0.85191 l -0.24148,0.49101 2.80617,1.83613 h 0.3651 l -0.6037,1.22759 -1.21841,-0.36626 -0.85235,-0.12145 m 3.03953,-0.74038 h -0.24339 0.24339"
       id="path220" /><path
       onclick="pokaz(this)"
       d="m 30.29135,53.554358 -0.21636,1.3816 0.21657,0.43699 -2.4e-4,-0.21823 2.6707,2.26158 1.01026,-1.16145 0.93824,0.36606 c 0,0 -0.0722,-0.0735 -0.0722,-0.0735 l 1.80417,-0.72316 -0.36084,0.14465 c 0,0 -1.01063,-2.47582 -1.01063,-2.47582 l 1e-5,-0.14549 -1.01036,0.003 c 0,0 -0.64974,-1.82023 -0.64974,-1.82023 0,0 0.50509,-1.16269 0.50509,-1.16269 l -0.6496,-0.58361 c 0,0 -1.37126,0.003 -1.37126,0.003 0,0 -0.50504,1.45378 -0.50504,1.45378 0,0 0.4331,0.51033 0.4331,0.51033 0,0 -1.73178,1.80578 -1.73178,1.80578"
       id="path222" /><path
       onclick="pokaz(this)"
       d="m 35.48776,50.564568 -0.43307,-0.36481 c 0,0 -0.93821,0.14324 -0.93821,0.14324 l -0.50509,1.16269 0.50509,-1.16269 -0.6496,-0.58359 -1.08257,0.003 -0.14443,-0.8006 -1.227,-0.51224 -0.43331,-2.25628 -0.14435,-0.0734 0.0722,0.21842 c 0,0 -0.57754,-1.16539 -0.57754,-1.16539 l 2.09302,-0.57684 2.52618,1.17017 c 0,0 0.50541,1.81994 0.50541,1.81994 l 1.44346,0.51279 c 0,0 0.36097,1.16488 0.36097,1.16488 l -0.14434,-0.0734 c 0,0 -1.22676,1.37557 -1.22676,1.37557"
       id="path224" /><path
       onclick="pokaz(this)"
       d="m 33.61187,51.517068 0.64974,1.82025 c 0,0 1.01036,-0.003 1.01036,-0.003 0,0 0.0719,-2.61866 0.0719,-2.61866 0,0 0.14433,-0.1452 0.14433,-0.1452 l -0.43307,-0.36483 c 0,0 -0.93821,0.14329 -0.93821,0.14329 0,0 -0.50507,1.16661 -0.50507,1.16661"
       id="path226" /><path
       onclick="pokaz(this)"
       d="m 36.28416,55.962068 c 0,0 -1.01063,-2.47582 -1.01063,-2.47582 l 0.0719,-2.7641 c 0,0 1.3711,-1.52434 1.3711,-1.52434 l 1.15472,0.0756 c 0,0 0.0722,0.0723 0.0722,0.0723 l -0.21636,1.59983 c 0,0 0.50524,0.80142 0.50524,0.80142 l 0.0722,0.43672 -0.50509,1.08993 -0.93824,-0.51155 -0.21622,3.05488 -0.36087,0.14526"
       id="path228" /><path
       onclick="pokaz(this)"
       d="m 40.68418,52.046228 c 0,0 -0.0722,-0.0723 -0.0722,-0.0723 l -0.43292,1.09005 h -0.866 l -1.01042,-0.87537 -0.0722,-0.43662 -0.50525,-0.80139 0.21637,-1.59994 c 0,0 1.08257,0.22082 1.08257,0.22082 l 0.64944,-1.08947 1.01037,0.0746 -0.57714,2.69002 0.5052,0.51043 c 0,0 0.0722,-1.3e-4 0.0722,-1.3e-4 l -3e-5,0.28789"
       id="path230" /><path
       onclick="pokaz(this)"
       d="m 40.17883,53.051648 c 0,0 0.43291,-1.09014 0.43291,-1.09014 0,0 0.50522,0.65604 0.50522,0.65604 l 1.29902,0.36687 c 0,0 0.50523,0.80137 0.50523,0.80137 l -1.29868,3.92483 0.93837,2.9845 c 0,0 -1.371,1.66981 -1.371,1.66981 l -1.65983,-0.73141 -0.64966,-1.96557 -2.59792,1.08487 -1.44378,-4.22248 1.80417,-0.72306 0.21622,-3.05487 0.93824,0.51151 c 0,0 0.50509,-1.08989 0.50509,-1.08989 l 1.01042,0.87537 0.86603,0.003"
       id="path232" /><path
       onclick="pokaz(this)"
       d="m 42.56272,60.777478 1.80412,0.44088 c 0,0 0.938,-1.88899 0.938,-1.88899 l 1.58758,0.0762 c 0,0 -2.23724,-2.62409 -2.23724,-2.62409 l -0.0722,-0.50935 c 0,0 -0.14434,2.2e-4 -0.14434,2.2e-4 l -1.08262,-2.40316 -0.50517,-0.14669 c 0,0 0.0722,0.0723 0.0722,0.0723 l -1.29868,3.92483 0.93834,2.98476 v 0.0731"
       id="path234" /><path
       onclick="pokaz(this)"
       d="m 42.52833,60.698108 1.82721,0.48794 0.96636,-1.84129 c 0,0 1.58189,-0.003 1.58189,-0.003 h -0.36504 l 0.24384,0.12229 c 0,0 1.22158,1.22478 1.22158,1.22478 l 0.25286,2.45277 -5.3e-4,-0.12266 -1.44595,3.68167 -2.43126,0.61693 c 0,0 -0.48387,0.73666 -0.48387,0.73666 l -3.76555,1.7228 -0.013,-3.31152 -0.85326,-0.36671 h 0.73012 l 0.7244,-1.47297 0.85037,-0.36925 -0.4944,-1.9618 c 0,0 1.45405,-1.59674 1.45405,-1.59674 m 5.72875,2.4447"
       id="path236" /><path
       onclick="pokaz(this)"
       d="m 21.17381,77.181648 3.65574,1.22092 2.43052,-0.86233 c 0,0 -0.49451,-1.96167 -0.49451,-1.96167 l 1.45889,-0.37024 1.58684,1.2241 1.21499,-0.49247 1.70609,0.61066 c 0,0 0.73591,1.47066 0.73591,1.47066 0,0 -0.97303,0.12417 -0.97303,0.12417 0,0 -0.72388,1.59554 -0.72388,1.59554 l 0.013,3.31153 2.93397,3.42952 1.58379,0.48808 0.24673,0.8581 1.09513,-0.003 0.6132,1.22539 -1.93537,2.9464 c -0.12073,0.24548 1.58612,1.10117 1.58612,1.10117 l 0.36311,-0.49112 0.86226,2.69664 -1.80409,5.398552 -0.96671,1.71837 -1.9468,0.003 -2.80115,-0.60857 c 0,0 1.21055,-1.59615 1.21055,-1.59615 l -1.22259,-1.469602 0.23662,-1.71725 c 0,0 -0.73731,-1.83833 -0.73731,-1.83833 l -0.86722,-3.92297 -2.67626,0.24955 -0.85908,-1.83824 -2.6797,-0.60899 -2.82866,-7.47713 1.45309,-1.84203 c 0,0 -1.58353,-0.36549 -1.58451,-0.61082 -0.12267,-0.24511 0.47853,-2.08587 0.11393,-1.96268"
       id="path238" /><path
       onclick="pokaz(this)"
       d="m 36.30268,87.077068 -1.58332,-0.36545 c 0,0 -3.0562,-3.55176 -3.0562,-3.55176 l -0.013,-3.31153 c 0,0 0.72435,-1.47291 0.72435,-1.47291 0,0 1.33763,-0.24736 1.33763,-0.24736 0,0 -0.004,-1.10384 -0.004,-1.10384 l 5.58668,-2.82945 2.31198,-0.003 1.7064,0.73329 1.70162,-0.49321 0.8627,2.8194 c 0,0 -1.45063,2.45512 -1.45063,2.45512 0,0 0.61124,0.73488 0.61124,0.73488 l 1.57845,-0.86092 2.80141,0.73152 1.23661,5.14879 -2.06889,-0.11941 -2.0746,-1.59102 c 0,0 -1.2234,-1.71505 -1.2234,-1.71505 l -1.4568,0.86077 -0.2343,2.33052 0.49098,1.10297 -1.82036,1.22923 0.97674,0.85691 c 0,0 -0.7248,1.35014 -0.7248,1.35014 0,0 -2.3109,0.24895 -2.3109,0.24895 l -2.4216,3.06969 c 0,0 -1.70688,-0.85569 -1.58662,-1.2238 l 1.81419,-2.82364 c 0,0 -0.49151,-1.2256 -0.49151,-1.2256 l 0.84603,-1.47301 1.94688,-0.003 1.45632,-0.98343 1.21439,-0.61508 c 0,0 -0.85508,-0.85714 -0.85508,-0.85714 0,0 0.96866,-1.22791 0.96866,-1.22791 l -0.62174,-3.43297 -1.8252,0.003 c 0,0 -0.6108,-0.61227 -0.6108,-0.61227 l -1.0918,0.86019 c 0,0 -0.36025,1.22703 -0.36025,1.22703 l -1.21444,0.6151 c 0,0 -1.08797,1.84137 -1.08797,1.84137 l 1.22066,0.97922 -1.20534,2.94534"
       id="path240" /><path
       onclick="pokaz(this)"
       d="m 36.42968,87.950188 -0.24624,-0.73543 1.20533,-2.94535 -1.22065,-0.97925 1.20965,-1.84152 1.08312,-0.70239 c 0,0 0.4916,-1.13975 0.4916,-1.13975 l 0.97012,-0.86003 0.732,0.48946 1.8252,-0.003 0.62174,3.43297 -0.96866,1.2279 0.85555,0.97978 -1.21438,0.6151 -1.4568,0.8608 -1.94688,0.003 c 0,0 -0.96674,1.71847 -0.96674,1.71847 0,0 -0.97393,-0.12113 -0.97393,-0.12113"
       id="path242" /><path
       onclick="pokaz(this)"
       d="m 56.63326,92.024768 c 0,0 0.36084,3.92748 0.36084,3.92748 l -1.15435,0.0705 c 0,0 -1.80364,2.10478 -1.80364,2.10478 0,0 -1.51505,1.66902 -1.51505,1.66902 l 0.0722,1.381812 -4.04046,0.28176 -1.44293,1.37843 2.3e-4,3.41762 -1.2265,0.79711 c 0,0 -0.0721,1.74508 -0.0721,1.74508 0,0 -3.17447,0.86556 -3.17447,0.86556 l -1.44314,-1.23936 c 0,0 -1.51509,1.74175 -1.51509,1.74175 l -2.8141,-0.0787 0.21613,-3.56261 -0.93842,-4.07432 1.01005,-1.59756 1.80345,-5.377392 c 0,0 -1.16909,-2.3749 -1.16909,-2.3749 l 2.4216,-3.06969 2.3109,-0.24895 c 0,0 0.63431,-1.25513 0.63431,-1.25513 0,0 -0.80693,-0.89781 -0.80693,-0.89781 l 1.80383,-1.3049 c 0,0 -0.50517,-1.09204 -0.50517,-1.09204 0,0 0.21631,-2.25407 0.21631,-2.25407 l 1.51525,-0.86921 c 0,0 1.15461,1.74816 1.15461,1.74816 l 2.09259,1.53199 2.02033,0.15015 -0.0722,-0.29104 2.52537,0.73305 1.08225,-0.43383 0.50507,0.36478 c 0,0 1.01018,2.25663 1.01018,2.25663 l -2.66938,2.68473 1.44303,1.23954 2.16443,-0.0685"
       id="path244" /><path
       onclick="pokaz(this)"
       d="m 41.11545,8.7551076 2.02086,-1.59554 0.43297,-1.52702 c 0,0 2.74293,1.46248 2.74293,1.46248 l 1.37128,-0.65135 c 0,0 0.21642,-2.25512 0.21642,-2.25512 l 2.4539,-0.86683 0.93829,0.80291 -0.50517,1.38117 1.44352,1.24077 1.15475,-0.28811 1.8765,1.533 0.86611,3.0583204 c 0,0 0.50525,2.4752 0.50525,2.4752 l 1.8042,-0.0686 2.23715,-1.23116 c 0,0 1.80414,1.89643 1.80414,1.89643 l 1.51549,0.0766 c 0,0 0.57729,1.82046 0.57729,1.82046 l 1.65976,0.58624 1.51542,-1.01462 1.87619,0.65955 c 0,0 1.5153,2.25933 1.5153,2.25933 l -0.0722,0.94562 -1.4432,-0.36748 c 0,0 -0.79377,1.162 -0.79377,1.162 0,0 0.50509,0.87431 0.50509,0.87431 l -1.51541,1.08749 -0.8659,-0.72977 -1.29892,0.94258 1.01024,1.60309 c 0,0 -7e-5,0.94573 -7e-5,0.94573 l 0.72158,0.94761 0.72154,3.27554 -0.7216,0.72562 -1.08235,-0.94843 -1.01024,-0.65728 -1.87618,0.4318 -0.79378,-0.51136 -1.73188,0.72322 -1.15462,-0.51221 0.86596,-0.65262 -0.28866,-1.1647 -1.51543,0.7964 -1.01031,-0.43908 -3.10304,-0.008 -0.1443,0.94547 c 0,0 -0.86598,0.21613 -0.86598,0.21613 0,0 -1.44341,-1.74977 -1.44341,-1.74977 l -2.5259,0.066 -2.30947,-0.66077 -0.72165,1.01685 c 0,0 -1.37125,0.14208 -1.37125,0.14208 l -0.5773,1.16263 0.28877,1.23751 -2.88687,0.28377 -1e-5,0.21828 -0.5774,-0.43797 -1.15473,0.72456 -0.28882,-1.60128 -2.74267,-0.37073 2e-4,-1.81891 -2.45422,-2.11627 c 0,0 0.21628,-2.47336 0.21628,-2.47336 l -1.08267,-0.0759 -1.6601,0.35952 0.79372,-2.32632 1.44346,-1.30609 2.16538,0.15102 0.93824,-0.79793 1.73228,0.0775 -0.79367,3.1996 2.59852,2.4805 c 0,0 0.6495,-1.01703 0.6495,-1.01703 0,0 2.09301,-0.21295 2.09301,-0.21295 0,0 1.73213,-0.002 1.73213,-0.002 l 1.80406,-4.2881 -1.80436,-0.51395 0.28867,-0.79973 c 0,0 -0.72181,-1.23878 -0.72181,-1.23878 0,0 0.43299,-0.72644 0.43299,-0.72644 0,0 -0.50528,-0.72893 -0.50528,-0.72893 0,0 -1.01044,0.14293 -1.01044,0.14293 0,0 -1.08255,1.30693 -1.08255,1.30693 0,0 -1.15482,-0.14854 -1.15482,-0.14854 l -0.64955,0.28942 0.43296,-1.0904 -1.01068,-2.76754 1.51561,-1.37872 -1.15528,-1.5958604"
       id="path714" /><path
       onclick="pokaz(this)"
       d="m 45.30116,15.462298 c 0,0 0.43299,-0.72658 0.43299,-0.72658 0,0 -0.50527,-0.7289 -0.50527,-0.7289 0,0 -1.01045,0.14291 -1.01045,0.14291 0,0 -1.08254,1.30691 -1.08254,1.30691 0,0 -1.15483,-0.14841 -1.15483,-0.14841 l -2.09304,1.01328 -1.22661,4.72625 2.59853,2.48052 0.6495,-1.01701 c 0,0 2.09301,-0.21296 2.09301,-0.21296 0,0 1.73212,-0.002 1.73212,-0.002 l 1.80406,-4.28811 -1.80435,-0.51392 0.28866,-0.79963 -0.72178,-1.23206"
       id="path716" /><path
       onclick="pokaz(this)"
       d="m 41.69489,37.943938 -0.0722,-0.0735 -0.50538,-2.40213 c 0,0 1.29899,-1.3063 1.29899,-1.3063 0,0 -1.22713,-2.62228 -1.22713,-2.62228 l 1.15474,-0.36081 -0.21663,-1.5285 -2e-5,0.21839 -0.5774,-0.43808 -1.15472,0.7247 -0.28882,-1.60142 -2.74267,-0.37063 2e-4,-1.81901 -2.45423,-2.11627 0.2163,-2.47335 -1.08268,-0.0759 -1.44356,0.28744 -0.50525,0.14421 -2.30987,-0.8064 c 0,0 -0.5054,-1.0927 -0.5054,-1.0927 l -1.44362,0.0694 -5.12578,-4.45188 -1.80456,0.79579 c 0,0 -0.43286,1.67259 -0.43286,1.67259 l -1.22708,0.65186 c 0,0 -0.0719,1.67343 -0.0719,1.67343 l 1.87714,1.82396 c 0,0 -0.86608,1.01638 -0.86608,1.01638 l -0.93835,0.50705 -1.44349,1.59719 0.86699,4.65904 3.39275,1.31832 c 0,0 0.50536,0.58332 0.50536,0.58332 l 3.68141,1.10067 1.15483,-0.43368 1.51582,0.44035 3.10409,2.84533 c 0,0 1.22679,-1.88863 1.22679,-1.88863 l -2.23758,-0.80594 c 0,0 1.2268,-2.17967 1.2268,-2.17967 l 2.16556,2.69743 2.09304,-0.43132 2.74267,1.38919 c 0,0 -0.21632,2.32762 -0.21632,2.32762 0,0 1.37142,1.96776 1.37142,1.96776 l 1.29852,-1.23293"
       id="path718" /><path
       onclick="pokaz(this)"
       d="m 63.56006,28.815818 c 0,0 -1.22675,1.30646 -1.22675,1.30646 l 0.2165,1.09177 -3.0308,-0.80788 -1.65974,1.37811 -0.64942,2.03536 -2.59791,-1.09783 -1.58761,1.08738 0.43312,3.71131 -1.80408,0.723 -1.22685,-0.80333 c 0,0 0.28866,-0.14467 0.28866,-0.14467 l -2.02068,-0.51427 -2.02065,0.57695 -1.29907,-0.65797 -1.87637,0.43186 c 0,0 -0.57727,1.08982 -0.57727,1.08982 l -1.29911,-0.36711 -0.50538,-2.40202 c 0,0 1.299,-1.30628 1.299,-1.30628 0,0 -1.22714,-2.62228 -1.22714,-2.62228 l 1.15475,-0.36092 -0.21663,-1.52839 2.88686,-0.28377 -0.28876,-1.23751 c 0,0 0.57729,-1.16266 0.57729,-1.16266 l 1.37126,-0.14208 c 0,0 0.72165,-1.01669 0.72165,-1.01669 l 2.30947,0.66064 2.5259,-0.066 c 0,0 1.4434,1.74974 1.4434,1.74974 0,0 0.86598,-0.21611 0.86598,-0.21611 l 0.14431,-0.94547 3.10304,0.008 1.01031,0.43905 1.51543,-0.79639 0.28866,1.16482 -0.86596,0.65249 1.15462,0.51224 1.73188,-0.72322 0.93808,0.58378"
       id="path720" /><path
       onclick="pokaz(this)"
       d="m 57.06453,47.733518 c 0,0 0.14437,2.32807 0.14437,2.32807 0,0 -4.7625,0.20667 -4.7625,0.20667 l -2.95857,1.95683 -1.87626,-0.58658 -1.58769,-1.02222 -1.29897,0.0693 c 0,0 -0.36089,-1.09209 -0.36089,-1.09209 l 1.29889,-1.37896 c 0,0 -0.21666,-2.54666 -0.21666,-2.54666 l 2.0206,-1.08622 0.0721,-2.03669 2.02068,0.65971 c 0,0 1.15472,2.40345 1.15472,2.40345 0,0 3.82455,1.97342 3.82455,1.97342 l 2.52561,0.15195"
       id="path722" /><path
       onclick="pokaz(this)"
       d="m 41.54672,3.6645276 -1.29918,0.50598 -2.16562,-2.11603 -3.03186,-1.68172001 c 0,0 -1.01033,2.32601001 -1.01033,2.32601001 l -2.23785,-1.09747 -2.67097,0.21136 0.14444,0.50982 c 0,0 -3.89811,0.79029 -3.89811,0.79029 l 0.36121,2.03861 -2.59826,3.77746 c 0,0 1.08315,2.4042904 1.08315,2.4042904 l -1.5875,4.43495 5.198,4.5249 1.44362,-0.0694 0.50541,1.09273 2.30987,0.80639 c 0,0 0.50524,-0.14437 0.50524,-0.14437 l -0.21652,0.0727 c 0,0 0.79372,-2.32633 0.79372,-2.32633 l 1.44346,-1.30606 2.1654,0.15113 0.93824,-0.79803 1.73228,0.0775 0.43294,-1.52696 1.44349,-0.72385 c 0,0 0.43296,-1.09038 0.43296,-1.09038 l -1.01068,-2.7678 1.51561,-1.37856 c 0,0 -1.15496,-1.6038504 -1.15496,-1.6038504 l 1.80436,-1.45063 -0.43323,-2.03872 c 0,0 -0.93845,-1.60372 -0.93845,-1.60372"
       id="path724" /><path
       onclick="pokaz(this)"
       d="m 49.58741,52.152068 -0.11884,0.73617 c 0,0 1.71018,1.71477 1.71018,1.71477 l 1.70165,-0.49313 c 0,0 1.57524,-1.71953 1.57524,-1.71953 0,0 -0.009,-2.33056 -0.009,-2.33056 l -1.94643,0.12542 -2.9128,1.96686 m -9.00642,-0.35502 -0.48916,-0.61262 0.59796,-2.69954 c 0,0 -1.33866,0.003 -1.33866,0.003 l -2.80617,-1.8361 0.24148,-0.49104 h 0.85188 l -0.73834,-2.08444 2.06171,-1.84309 1.21745,0.121 c 0,0 1.57491,-1.84238 1.57491,-1.84238 l -0.61182,-0.85791 1.82689,0.3655 -0.006,-1.47214 c 0,0 0.60278,-1.47299 0.60278,-1.47299 l 1.82401,-0.37058 1.21933,0.61172 2.06687,-0.49361 2.07063,0.48787 -1.21454,0.61505 -0.2377,1.47243 0.85466,0.73488 c 0,0 1.22634,2.45174 1.22634,2.45174 l -1.70031,0.86111 -10e-4,-0.24535 -2.07158,-0.73313 c 0,0 -0.11363,2.0856 -0.11363,2.0856 l -2.06446,1.10697 0.25289,2.45308 c 0,0 -1.21121,1.47376 -1.21121,1.47376 l 0.24719,0.98099 -1.21309,0.98309 -2.91967,0.24953"
       id="path726" /><path
       onclick="pokaz(this)"
       d="m 43.35383,53.871858 1.08262,2.40302 1.80411,0.01 c 0,0 0.93803,-1.81618 0.93803,-1.81618 l 3.24723,0.008 c 0,0 0.50512,-0.14433 0.50512,-0.14433 l -1.51546,-1.38575 0.14429,-0.727 c 0,0 -0.0722,1.1e-4 -0.0722,1.1e-4 l -1.87626,-0.58648 -1.58766,-1.02232 -1.29898,0.0693 c 0,0 -0.0721,-0.14563 -0.0721,-0.14563 l -1.22674,1.0155 c 0,0 -2.7424,0.21151 -2.7424,0.21151 l -2e-5,0.29096 0.43304,0.58304 1.29903,0.36684 c 0,0 0.43304,0.72853 0.43304,0.72853 l 0.5052,0.14166"
       id="path728" /><path
       onclick="pokaz(this)"
       d="m 48.2301,63.291018 -0.46816,-2.7088 c 0,0 -1.22158,-1.22478 -1.22158,-1.22478 h 0.24337 l -2.32248,-2.69505 -0.002,-0.49064 c 0,0 1.58194,-0.003 1.58194,-0.003 0,0 0.96636,-1.84136 0.96636,-1.84136 l 3.2856,-0.005 c 0,0 0.48625,-0.12337 0.48625,-0.12337 0,0 0.24431,0.24498 0.24431,0.24498 h 0.24337 l 10e-4,0.36795 c 0,0 3.89176,1.57022 3.89176,1.57022 0,0 0.46376,0.21881 0.46376,0.21881 l -0.72155,0.87107 -3.07789,1.60673 c 0,0 0.40804,0.78729 0.40804,0.78729 0,0 -0.0721,1.30908 -0.0721,1.30908 l -2.88634,0.72046 0.14436,0.94597 -1.18853,0.44923 m 2.6715,-8.96884 -0.61079,-0.61241 0.61079,0.61241"
       id="path730" /><path
       onclick="pokaz(this)"
       d="m 56.77614,47.707068 h 0.28863 l -2.52563,-0.15172 c 0,0 -3.82455,-1.97342 -3.82455,-1.97342 0,0 -1.01039,-2.11219 -1.01039,-2.11219 l 1.65973,-0.94152 c 0,0 -1.2269,-2.40377 -1.2269,-2.40377 l -0.86604,-0.72956 0.21644,-1.45452 1.22679,-0.65164 -0.28866,0.1447 1.22685,0.8033 1.80408,-0.723 -0.43312,-3.71131 1.58761,-1.08741 2.59791,1.09783 0.64942,-2.03536 1.65973,-1.37813 3.03081,0.8079 -0.21649,-1.0918 c 0,0 1.22674,-1.30643 1.22674,-1.30643 l -0.14433,-0.0734 1.87618,-0.43183 1.01024,0.65731 1.08235,0.94853 0.7216,-0.72575 -0.72154,-3.27554 -0.57727,-0.72906 3.175,0.008 3.175,0.66287 c 0,0 -1.80398,2.03234 -1.80398,2.03234 0,0 0.43288,1.2378 0.43288,1.2378 l 1.44312,0.0766 c 0,0 0.3607,1.96509 0.3607,1.96509 0,0 -1.44309,0.21468 -1.44309,0.21468 l -2.74214,3.04853 c 0,0 0.28861,0.94636 0.28861,0.94636 l 4.25715,1.39277 c 0,0 0.50501,1.60168 0.50501,1.60168 l 1.44301,0.58544 c 0,0 0.72144,1.23849 0.72144,1.23849 l -2.88608,0.13822 c 0,0 -0.64939,0.72586 -0.64939,0.72586 0,0 1.15438,1.16673 1.15438,1.16673 0,0 -2.09244,0.21307 -2.09244,0.21307 l -0.86584,0.43437 -3e-5,-0.0724 -5.62795,-0.30485 -3.75206,2.17302 -2.95857,-0.66199 -1.08238,1.1612 c 0,0 -1.08231,2.54429 -1.08231,2.54429"
       id="path732" />
  </svg>
