<?xml version="1.0" encoding="UTF-8" standalone="no"?>
<svg
   viewBox="0 0 86.658089 74.35775"
   version="1.1"
   id="svg1"
   xmlns="http://www.w3.org/2000/svg">
   <style>path {fill:#e0e0e0;fill-opacity:1;stroke:#ffffff;stroke-width:0.529167}</style>
   <path
       onclick="pokaz(this)"
       d="m 54.54216,53.163432 -0.5764,-2.98345 -2.88528,-0.008 -1.94786,1.74075 0.5058,-4.79928 -1.80337,0.43186 c 0,0 0.64955,-1.96223 0.64955,-1.96223 l -1.65899,-0.65874 -0.0721,-0.36393 0.50499,-0.28969 1.51482,0.0103 c 0,0 1.44309,-2.25118 1.44309,-2.25118 l 1.3703,1.09456 1.08143,2.83951 c 0,0 1.00999,-1.01569 1.00999,-1.01569 l 0.57685,1.01966 3.17368,-0.21027 c 0,0 0.64944,-1.4529 0.64944,-1.4529 l -0.36041,-1.01926 0.21659,-0.94506 1.37048,-0.28737 3.38985,0.73586 1.58686,-0.43238 1.7308,0.7317 c 0,0 2.30738,2.33328 2.30738,2.33328 l -0.86572,1.01595 0.72107,0.58365 c 0,0 -0.72147,1.01647 -0.72147,1.01647 0,0 4.9747,5.90339 4.9747,5.90339 l -2.66859,1.15699 c 0,0 -0.5775,2.18027 -0.5775,2.18027 0,0 -2.95725,1.5199 -2.95725,1.5199 0,0 -3.39011,2.31889 -3.39011,2.31889 l -2.66911,2.82972 -1.37068,1.66928 -2.74002,-2.69742 c 0,0 0.86592,-2.10688 0.86592,-2.10688 l -2.66832,-1.24296 -2.16384,0.14018 c 0,0 0.72152,-1.23466 0.72152,-1.23466 0,0 -1.65862,-1.67687 -1.65862,-1.67687 l 4.18385,-2.02602 c 0,0 0.36087,-1.16279 0.36087,-1.16279 l -1.15393,-0.44456"
       id="path670" /><path
       onclick="pokaz(this)"
       d="m 72.26924,42.818222 0.86601,-2.10698 2.59654,-0.79354 c 0,0 -1.94672,-1.96871 -1.94672,-1.96871 l 2.74108,-1.81124 3.31734,0.44485 c 0,0 0.7936,-1.08905 0.7936,-1.08905 l -0.93671,-2.91174 2.2357,-0.0667 c 0,0 -0.14374,-1.67325 -0.14374,-1.67325 l 3.10118,-0.0641 0.28826,0.65532 0.0717,1.67307 c 0,0 0.57658,1.01967 0.57658,1.01967 l 0.43217,1.74673 -0.14422,-0.0734 -1.01071,3.6338 c 0,0 0.0721,0.0735 0.0721,0.0735 l -2.74187,4.86568 -0.28866,0.65381 -0.57682,-0.29233 -3.53484,3.62743 -0.0725,1.67262 -2.38078,3.33931 c 0,0 0.0722,0.0735 0.0722,0.0735 l -3.17314,0.50123 c 0,0 -0.0721,8e-5 -0.0721,8e-5 l -4.9747,-5.90339 c 0,0 0.7215,-1.01645 0.7215,-1.01645 l -0.7211,-0.58367 0.86574,-1.01608 -2.23527,-2.18754 1.15421,-1.01534 3.38985,-0.64601 1.6583,1.23867"
       id="path672" /><path
       onclick="pokaz(this)"
       d="m 25.533242,69.091342 0.577347,-2.18059 -2.019882,-0.58679 c 0,0 0.144463,-1.81795 0.144463,-1.81795 l 2.45274,0.3697 c 0,0 4.400815,-2.17125 4.400815,-2.17125 l -0.07203,-1.38202 1.370595,0.36697 1.803003,3.2774 3.10171,0.0802 c 0,0 0.432568,1.67378 0.432568,1.67378 0,0 1.875499,-0.21354 1.875499,-0.21354 l 3.31761,2.55344 -1.94789,2.24975 0.14415,0.80034 -1.00991,0.50662 -0.21659,1.23584 c 0,0 0.0721,-10e-5 0.0721,-10e-5 l 2.7e-4,0.0723 -0.14426,-0.0734 -0.64913,-0.29255 -2.236021,-0.51448 -1.298522,1.01515 -6.780477,-0.38004 -1.514819,-0.80365 c 0,0 0.64942,-1.74392 0.64942,-1.74392 l -2.452714,-2.04123"
       id="path674" /><path
       onclick="pokaz(this)"
       d="m 49.1182,51.919882 1.94784,-1.74061 2.88528,0.008 0.57642,2.98344 1.15393,0.43918 -0.36087,1.16277 -4.18386,2.02602 c 0,0 1.65862,1.6769 1.65862,1.6769 0,0 -0.72149,1.23465 -0.72149,1.23465 l 2.16382,-0.14015 2.66832,1.24293 c 0,0 -0.86593,2.10688 -0.86593,2.10688 l 0.93742,0.87503 -1.80332,1.08641 c 0,0 -1.2264,1.45153 -1.2264,1.45153 l -3.89466,-0.009 c 0,0 -1.08212,1.08821 -1.08212,1.08821 l -2.74082,0.28432 -0.90316,1.66132 -1.76572,-1.01341 -0.64929,0.72575 c 0,0 -3.31761,-2.55347 -3.31761,-2.55347 0,0 -1.875497,0.21355 -1.875497,0.21355 l -0.93726,-3.34777 c 0,0 1.082199,-1.161 1.082199,-1.161 0,0 -0.937445,-2.32981 -0.937445,-2.32981 0,0 0.649499,-1.81671 0.649499,-1.81671 0,0 -1.009756,-1.23894 -1.009756,-1.23894 0,0 1.370912,-2.25128 1.370912,-2.25128 l -1.009729,-1.38446 2.236367,-0.86728 0.36089,-1.3811 2.30841,-0.50334 0.79325,1.52934 1.29862,-1.30595 -0.86547,-0.72957 c 0,0 0.938,-1.59774 0.938,-1.59774 l 1.01036,-2.90697 2.23634,-1.15822 -0.50496,0.28967 0.0721,0.36396 1.65896,0.65871 c 0,0 -0.64955,1.96223 -0.64955,1.96223 l 1.80338,-0.43186 -0.50583,4.79743"
       id="path676" /><path
       onclick="pokaz(this)"
       d="m 26.689471,56.285512 0.432964,-1.09 -1.298495,-0.7306 -0.216239,-2.03726 1.51511,-1.01452 c 0,0 3.390635,1.31768 3.390635,1.31768 0,0 0.577295,-1.59877 0.577295,-1.59877 0,0 1.731645,-2.10511 1.731645,-2.10511 0,0 -0.721255,-1.31106 -0.721255,-1.31106 0,0 0.577268,-1.30786 0.577268,-1.30786 l -0.07197,-0.94576 1.803586,-0.50472 c 0,0 1.875922,-2.032 1.875922,-2.032 l -1.082067,-0.36639 2.091981,0.73266 1.153557,4.65825 -1.298654,1.16052 1.947436,1.896 c 0,0 0.43283,-0.0717 0.43283,-0.0717 l -0.36086,1.38104 -2.236391,0.86731 c 0,0 1.009703,1.38443 1.009703,1.38443 l -1.370886,2.25144 c 0,0 1.009703,1.23894 1.009703,1.23894 0,0 -0.649472,1.81671 -0.649472,1.81671 l 0.937418,2.32966 -1.082172,1.16102 c 0,0 0.504719,1.67409 0.504719,1.67409 l -3.10171,-0.0802 -1.803003,-3.2774 -1.370595,-0.36711 0.07203,1.38216 c 0,0 -4.400814,2.17112 -4.400814,2.17112 l -2.452741,-0.3696 c 0,0 1.6e-5,-0.21818 1.6e-5,-0.21818 l 1.587156,-0.50524 c 0,0 -2.885281,-5.38957 -2.885281,-5.38957 l 1.32e-4,-1.60014 -0.216421,-0.14605 0.937895,-0.43418 c 0,0 1.298443,1.45804 1.298443,1.45804 l 0.432991,-1.30821 1.298601,-0.0696"
       id="path678" /><path
       onclick="pokaz(this)"
       d="m 16.579742,24.620182 c 0,0 1.209834,-1.84185 1.209834,-1.84185 0,0 1.221316,1.22531 1.707991,1.22471 0.365019,-5.3e-4 2.060628,-2.08828 2.060628,-2.08828 l 3.772958,0.36325 c 0,0 1.937544,-2.45616 1.937544,-2.45616 0,0 5.471583,-0.86569 5.471583,-0.86569 l 2.553494,-0.371261 c 0,0 1.21658,-0.0016 1.21658,-0.0016 0,0 7.94e-4,0.245351 7.94e-4,0.245351 l 2.189822,-0.003 c 0,0 0.009,2.45359 0.009,2.45359 l 2.67812,0.48731 c 0,0 0.007,1.96283 0.007,1.96283 0,0 1.9549,2.32831 1.9549,2.32831 l 1.82607,0.36565 0.72538,-1.22764 -0.97538,-0.61214 0.84481,-1.84118 2.42398,-2.45657 1.82825,0.97906 c 0,0 1.45973,-0.002 1.45973,-0.002 0,0 -0.60198,1.71821 -0.60198,1.71821 l 1.95159,1.46955 -1.33318,1.35106 c 0,0 0.13054,2.45319 0.13054,2.45319 l 2.43499,0.61019 1.57903,-0.61537 1.21857,0.61174 0.60553,-0.73676 c 0,0 0.97305,-0.001 0.97305,-0.001 l -0.11988,0.4908 -0.71564,3.92615 -1.21412,0.6149 c 0,0 -0.35783,1.96302 -0.35783,1.96302 l 1.33575,-0.61505 -0.23487,2.33082 c 0,0 1.09998,1.47039 1.09998,1.47039 0,0 0.007,2.08513 0.007,2.08513 l -1.33527,0.73771 0.977,1.10254 -0.23974,0.98155 c 0,0 0.36843,0.98071 0.36843,0.98071 0,0 -0.60285,1.47262 -0.60285,1.47262 l -3.16151,0.24958 c 0,0 -0.61169,-0.98036 -0.61169,-0.98036 0,0 -0.96949,0.9825 -0.96949,0.9825 l -1.22653,-2.8194 c 0,0 -1.22078,-1.22491 -1.22078,-1.22491 0,0 -1.45074,2.45504 -1.45074,2.45504 l -1.58171,-0.12049 -2.18498,1.22952 -0.96282,2.82231 c 0,0 -0.96684,1.71847 -0.96684,1.71847 l 0.85368,0.61208 -1.2119,1.22817 c 0,0 -0.85682,-1.47061 -0.85682,-1.47061 l -2.79559,0.61709 -1.953022,-1.83711 c 0,0 1.211924,-1.22822 1.211924,-1.22822 l -0.989806,-4.53707 -2.192337,-0.733 -6.583627,-3.91637 0.361341,-0.98181 -2.074095,-1.592 c 0,0 -1.460818,-0.24339 -1.460818,-0.24339 l -0.867145,-4.16983 c 0,0 -3.653631,-0.97669 -3.653631,-0.97669 0,0 0.720857,-2.45451 0.720857,-2.45451 l -5.002212,-3.674"
       id="path680" /><path
       onclick="pokaz(this)"
       d="m 37.008221,35.370202 -1.586997,-1.16806 -1.010047,0.36126 c 0,0 -0.64905,-1.8203 -0.64905,-1.8203 l -1.226396,-0.5124 1.443355,-3.63378 2.020146,-0.50398 2.308516,0.44244 c 0,0 0.577242,-0.65326 0.577242,-0.65326 0,0 0.57695,1.16549 0.57695,1.16549 l -0.28877,1.30871 1.5149,0.51308 -0.64942,0.87132 c 0,0 -1.01002,0.21562 -1.01002,0.21562 l -2.020462,3.41392"
       id="path682" /><path
       onclick="pokaz(this)"
       d="m 50.99674,13.872804 -3.2467,1.664758 0.50416,4.65746 c 0,0 -2.38104,2.54005 -2.38104,2.54005 l -0.866,1.88918 1.08198,0.58473 c 0,0 -0.79375,1.30747 -0.79375,1.30747 l -1.87557,-0.44141 c 0,0 -1.94747,-2.33296 -1.94747,-2.33296 l -0.0719,-1.89172 -2.52494,-0.66133 -0.0718,-2.32828 -2.308647,-0.009 0.577506,-2.544792 1.659471,-0.577718 1.58781,-4.288366 5.4827,1.978898 c 0,0 1.65968,-2.105448 1.65968,-2.105448 l 3.53457,2.558944"
       id="path684" /><path
       onclick="pokaz(this)"
       d="m 54.33049,9.5892 0.4326,1.237932 c 0,0 -0.43307,1.235684 -0.43307,1.235684 l -1.29845,-0.294428 c 0,0 -1.15445,1.233619 -1.15445,1.233619 l -0.57685,-1.529265 -1.01012,0.797587 -0.93787,0.361341 1.65901,1.241055 -3.2467,1.664758 0.50417,4.657459 -0.0721,0.0725 1.87545,1.02344 1.51489,-0.14153 -0.64957,1.817 1.87526,1.5326 -1.29871,1.37874 0.21595,2.40104 2.30817,0.66077 1.65921,-0.65045 1.154,0.58486 c 0,0 0.64934,-0.65291 0.64934,-0.65291 l 1.00984,0.0747 c 0,0 1.44314,-2.46952 1.44314,-2.46952 l 0.21715,-3.41841 2.88501,0.80764 0.64955,-1.67143 3.31841,-1.80999 -0.28816,-1.310109 c 0,0 -1.37009,-1.676744 -1.37009,-1.676744 l -7.502,0.416772 0.0728,-3.055144 -2.38014,-1.752309 c 0,0 1.15464,-2.033958 1.15464,-2.033958 0,0 -1.44248,-1.458912 -1.44248,-1.458912 l -0.93803,0.725726"
       id="path686" /><path
       onclick="pokaz(this)"
       d="m 61.47424,34.198092 -1.94736,-0.51406 -3.4626,1.51869 c 0,0 0.36108,-2.03579 0.36108,-2.03579 l 1.22634,-0.50609 0.65,-3.99891 1.65968,-2.83263 0.21714,-3.41842 2.88502,0.80777 0.64958,-1.67142 3.53483,-1.88214 c 0,0 3.24538,1.82702 3.24538,1.82702 l 1.22693,-2.906444 1.7309,0.441004 2.59675,-0.793323 2.45142,2.770453 c 0,0 -0.86611,2.25266 -0.86611,2.25266 l -2.52458,0.93909 c 0,0 0.7927,2.47507 0.7927,2.47507 l -1.08234,1.74302 -1.80435,4.79584 -1.29847,0.94223 c 0,0 -1.29775,-1.74892 -1.29775,-1.74892 0,0 -1.36972,-2.62207 -1.36972,-2.62207 l -2.66859,-0.009 c 0,0 -3.39037,1.8097 -3.39037,1.8097 0,0 -1.5153,2.6166 -1.5153,2.6166"
       id="path688" /><path
       onclick="pokaz(this)"
       d="m 78.85737,17.656346 -1.87524,0.140615 -0.72144,0.652859 c 0,0 2.23512,2.551752 2.23512,2.551752 0,0 -0.86611,2.25266 -0.86611,2.25266 l -2.52458,0.93908 c 0,0 0.7927,2.47508 0.7927,2.47508 l -1.08233,1.74302 -1.80436,4.79583 -1.29847,0.94224 c 0,0 -1.29775,-1.74892 -1.29775,-1.74892 0,0 -1.36972,-2.62208 -1.36972,-2.62208 l -2.66859,-0.009 c 0,0 -3.39037,1.8097 -3.39037,1.8097 0,0 -1.5153,2.61471 -1.5153,2.61471 l -1.94738,-0.51416 -2.09198,0.86746 -0.28898,2.25423 c 0,0 1.08162,1.53019 1.08162,1.53019 0,0 1.5e-4,2.03669 1.5e-4,2.03669 l -1.29849,0.86953 1.0096,1.02081 -0.21662,1.01783 0.21659,-0.94509 1.37051,-0.28739 3.38985,0.73591 1.58686,-0.43241 1.7308,0.73168 c 0,0 0.0722,0.14563 0.0722,0.14563 l 1.15422,-1.01537 3.38984,-0.64598 1.65846,1.24066 0.86601,-2.10701 2.59654,-0.79341 c 0,0 -1.94673,-1.96875 -1.94673,-1.96875 l 2.74109,-1.81133 3.31734,0.44484 c 0,0 0.79362,-1.08894 0.79362,-1.08894 l -0.9367,-2.91174 2.2357,-0.0667 c 0,0 -0.14375,-1.67325 -0.14375,-1.67325 l 3.10118,-0.0654 -0.5765,-1.52895 0.36116,-1.81745 -0.64884,-0.72893 0.93837,-2.76145 c 0,0 -0.72117,7.9e-4 -0.72117,7.9e-4 l -0.8645,-3.05726 0.93826,-2.252476 -0.57676,-0.656114 c 0,0 -1.73152,2.03221 -1.73152,2.03221 l -2.09147,-0.15091 -1.08189,-2.185727"
       id="path690" /><path
       onclick="pokaz(this)"
       d="m 13.775159,23.151742 3.166798,0.85479 c 0,0 0.847116,-1.22796 0.847116,-1.22796 0,0 1.221766,1.34797 1.707991,1.2247 0.365019,-5.2e-4 2.061078,-1.96561 2.061078,-1.96561 l 3.772694,0.24057 c 0,0 1.938443,-2.21078 1.938443,-2.21078 l 5.470789,-1.11106 2.553944,-0.248566 c 0,0 1.216131,-0.124208 1.216131,-0.124208 l 0.0013,0.368034 c 0,0 0.477626,-2.454274 0.477626,-2.454274 l 1.700511,-0.738214 1.56625,-4.173273 -0.3614,0.981922 c 0,0 -0.86352,-1.125432 -0.86352,-1.125432 0,0 0.86591,-1.016291 0.86591,-1.016291 0,0 -1.15406,-2.113015 -1.15406,-2.113015 L 36.867201,7.290116 36.673328,6.872921 35.978797,6.438131 c 0,0 -1.708891,0.262631 -1.708891,0.262631 0,0 -0.733002,-2.590906 -0.733002,-2.590906 L 32.050899,2.778605 c 0,0 0.748294,-0.753718 0.748294,-0.753718 l -0.0032,-0.858891 -3.653367,-0.85455095 c 0,0 -0.4817,1.35027495 -0.4817,1.35027495 0,0 -1.82417,0.247576 -1.82417,0.247576 L 27.578621,5.098583 26.855409,6.939924 25.025763,5.715168 23.812225,6.57554 21.983901,5.718846 21.744207,6.700715 c 0,0 1.101937,1.839171 1.101937,1.839171 L 20.658728,9.278735 19.318454,8.789573 18.10444,9.527232 14.087536,9.164038 12.266912,10.393292 c 0,0 1.588796,1.838564 1.588796,1.838564 l -2.063988,1.229518 0.01294,3.435615 2.315607,0.978694 c 0,0 -0.345228,5.276059 -0.345228,5.276059"
       id="path692" /><path
       onclick="pokaz(this)"
       d="m 1.3662012,39.643222 c 0,0 -1.01023304,-1.60319 -1.01023304,-1.60319 l 1.29891904,-0.94245 0.865902,0.72978 1.515375,-1.08749 -0.50509,-0.87432 c 0,0 0.793777,-1.16202 0.793777,-1.16202 l 1.443169,0.3675 c 0,0 0.07223,-0.94562 0.07223,-0.94562 0,0 -1.515295,-2.25935 -1.515295,-2.25935 l -1.876187,-0.65956 -0.432964,0.28988 2.381409,-3.48615 1.876213,-0.65 -0.144229,-3.34725 1.587632,-2.6879 c 0,0 -0.865876,-1.60292 -0.865876,-1.60292 l 1.298919,-0.2876 2.5255538,2.11656 c 0,0 0.0721,1.60091 0.0721,1.60091 l 2.88634,1.17158 0.07228,-1.16393 3.319198,0.80893 c 0,0 -0.432964,0.65374 -0.432964,0.65374 l 4.9784,3.72321 -0.866034,2.39856 1.154403,0.294 -0.07212,0.0725 -0.505274,2.69055 -2.164477,-0.80584 -1.876055,1.15919 -0.07236,2.83713 -2.45327,0.9394 1.659308,3.1324 c 0,0 -1.226661,1.30628 -1.226661,1.30628 l -1.226609,0.288 0.505037,0.80144 -0.938001,0.43405 0.36068,1.45587 -0.938054,1.37983 -1.659466,-0.80441 -0.79375,1.01642 -2.1646088,-0.36909 c 0,0 -0.360707,-1.74686 -0.360707,-1.74686 l -1.443117,-0.0765 -0.432884,-1.23783 c 0,0 1.803982,-2.03248 1.803982,-2.03248 l -3.175,-0.66275 -3.175,-0.008 c 0,0 -0.14432,-0.21865 -0.14432,-0.21865 l -1.38e-4,-0.94552"
       id="path694" /><path
       onclick="pokaz(this)"
       d="m 22.662513,56.629472 0.971391,-0.49197 c 0,0 1.222005,1.47013 1.222005,1.47013 0,0 0.482044,-1.22721 0.482044,-1.22721 0,0 1.216051,-0.12438 1.216051,-0.12438 l 0.6037,-1.22738 -1.340432,-0.61143 -0.250595,-1.96215 1.577843,-0.98345 3.289035,1.222 0.602324,-1.59536 c 0,0 1.817026,-2.08769 1.817026,-2.08769 0,0 -0.734404,-1.22558 -0.734404,-1.22558 l 0.60325,-1.35009 -0.0036,-0.98126 1.701271,-0.49297 c 0,0 1.817053,-2.08769 1.817053,-2.08769 l -1.096195,-0.36648 -6.583627,-3.91636 c 0,0 0.361791,-0.85918 0.361791,-0.85918 l -2.074095,-1.592 -1.461266,-0.36605 -0.867145,-4.16983 -2.557225,-0.61003 -0.121666,1.5e-4 -0.476594,2.69955 -2.192734,-0.73319 -1.820439,1.22915 -0.111104,2.82178 -2.429695,0.98464 1.593188,3.06468 c 0,0 -1.212056,1.22836 -1.212056,1.22836 l -1.215284,0.36965 0.611108,0.7352 -0.971497,0.49199 0.370522,1.47158 c 0,0 -0.846587,1.35046 -0.846587,1.35046 l -1.706113,-0.73366 c 0,0 -0.726307,0.98235 -0.726307,0.98235 l -2.3131198,-0.36486 -0.371501,-1.71689 0.494109,1.96207 -1.581282,0.12481 -2.665148,3.07049 0.246599,0.85833 4.264025,1.46611 0.492681,1.59398 1.5839808,0.61111 h -0.243332 l 0.847037,-1.22782 2.92444,1.22256 1.213855,-0.73763 c 0,0 0.856218,1.22541 0.856218,1.22541 l 4.135967,-0.12845 2.074545,1.71431 m -12.534106,-0.84108 1.21666,-0.003 -1.21666,0.003"
       id="path696" />
</svg>
